<svg xmlns="http://www.w3.org/2000/svg" width="334" height="354" viewBox="0 0 334 354">
  <g id="Group_296" data-name="Group 296" transform="translate(-522.646 -1194)">
    <g id="Rectangle_87" data-name="Rectangle 87" transform="translate(522.646 1266)" fill="#fff" stroke="#000" stroke-width="1">
      <rect width="334" height="67" rx="32" stroke="none"/>
      <rect x="0.5" y="0.5" width="333" height="66" rx="31.5" fill="none"/>
    </g>
    <rect id="Rectangle_129" data-name="Rectangle 129" width="334" height="67" rx="32" transform="translate(522.646 1194)" fill="#ed1c24"/>
    <g id="Rectangle_126" data-name="Rectangle 126" transform="translate(522.646 1338)" fill="#fff" stroke="#000" stroke-width="1">
      <rect width="334" height="67" rx="32" stroke="none"/>
      <rect x="0.5" y="0.5" width="333" height="66" rx="31.5" fill="none"/>
    </g>
    <g id="Rectangle_127" data-name="Rectangle 127" transform="translate(522.646 1409)" fill="#fff" stroke="#000" stroke-width="1">
      <rect width="334" height="67" rx="32" stroke="none"/>
      <rect x="0.5" y="0.5" width="333" height="66" rx="31.5" fill="none"/>
    </g>
    <g id="Rectangle_128" data-name="Rectangle 128" transform="translate(522.646 1481)" fill="#fff" stroke="#000" stroke-width="1">
      <rect width="334" height="67" rx="32" stroke="none"/>
      <rect x="0.5" y="0.5" width="333" height="66" rx="31.5" fill="none"/>
    </g>
    <path id="Path_277" data-name="Path 277" d="M134.572,21a.489.489,0,0,1-.506-.506V6.128a.52.52,0,0,1,.143-.385.492.492,0,0,1,.363-.143h5.588a5.872,5.872,0,0,1,3.916,1.21,4.327,4.327,0,0,1,1.43,3.5,4.309,4.309,0,0,1-1.419,3.487,5.9,5.9,0,0,1-3.927,1.2h-3.894v5.5a.474.474,0,0,1-.154.363.53.53,0,0,1-.374.143Zm5.478-7.854a3.579,3.579,0,0,0,2.431-.726,2.664,2.664,0,0,0,.825-2.112,2.717,2.717,0,0,0-.814-2.123,3.536,3.536,0,0,0-2.442-.737h-3.806v5.7Zm12.276,8.074a4.806,4.806,0,0,1-3.619-1.4,5.727,5.727,0,0,1-1.485-3.817l-.022-.748.022-.726a5.8,5.8,0,0,1,1.507-3.784,5.319,5.319,0,0,1,7.359.143,6.186,6.186,0,0,1,1.342,4.191v.374a.489.489,0,0,1-.506.506h-7.612v.2a4.076,4.076,0,0,0,.869,2.431,2.587,2.587,0,0,0,2.123,1,3.08,3.08,0,0,0,1.661-.407,3.262,3.262,0,0,0,.957-.847,1.281,1.281,0,0,1,.3-.319.825.825,0,0,1,.363-.055h1.078a.5.5,0,0,1,.33.11.379.379,0,0,1,.132.308,1.936,1.936,0,0,1-.6,1.166,4.98,4.98,0,0,1-1.694,1.177A5.975,5.975,0,0,1,152.326,21.22Zm3.014-6.776v-.066a3.656,3.656,0,0,0-.825-2.475,2.771,2.771,0,0,0-2.211-.957,2.707,2.707,0,0,0-2.189.957,3.72,3.72,0,0,0-.8,2.475v.066Zm9.416,6.776a5,5,0,0,1-3.751-1.364,5.285,5.285,0,0,1-1.419-3.63l-.022-.946.022-.946a5.273,5.273,0,0,1,1.43-3.619,5.774,5.774,0,0,1,7.48,0,5.273,5.273,0,0,1,1.43,3.619q.022.242.022.946t-.022.946a5.285,5.285,0,0,1-1.419,3.63A5,5,0,0,1,164.756,21.22Zm0-1.694a2.816,2.816,0,0,0,2.189-.88,3.866,3.866,0,0,0,.869-2.53q.022-.22.022-.836t-.022-.836a3.866,3.866,0,0,0-.869-2.53,2.816,2.816,0,0,0-2.189-.88,2.851,2.851,0,0,0-2.2.88,3.749,3.749,0,0,0-.858,2.53l-.022.836.022.836a3.749,3.749,0,0,0,.858,2.53A2.851,2.851,0,0,0,164.756,19.526Zm8.47,5.654a.489.489,0,0,1-.506-.506V10.066a.489.489,0,0,1,.506-.506h1.012a.489.489,0,0,1,.506.506v.968a4.77,4.77,0,0,1,7.073-.242,6.226,6.226,0,0,1,1.243,3.74q.022.242.022.748t-.022.748a6.2,6.2,0,0,1-1.254,3.729,4.152,4.152,0,0,1-3.454,1.463,4.249,4.249,0,0,1-3.564-1.65v5.1a.514.514,0,0,1-.132.363.456.456,0,0,1-.352.143Zm4.664-5.742a2.643,2.643,0,0,0,2.277-.968,4.523,4.523,0,0,0,.781-2.552q.022-.22.022-.638,0-4.158-3.08-4.158a2.677,2.677,0,0,0-2.277,1,4.179,4.179,0,0,0-.825,2.387l-.022.836.022.858a3.676,3.676,0,0,0,.836,2.266A2.76,2.76,0,0,0,177.89,19.438ZM186.338,21a.489.489,0,0,1-.506-.506V5.886a.489.489,0,0,1,.506-.506h1.034a.489.489,0,0,1,.506.506V20.494a.489.489,0,0,1-.506.506Zm9.394.22a4.806,4.806,0,0,1-3.619-1.4,5.727,5.727,0,0,1-1.485-3.817l-.022-.748.022-.726a5.8,5.8,0,0,1,1.507-3.784,5.319,5.319,0,0,1,7.359.143,6.186,6.186,0,0,1,1.342,4.191v.374a.489.489,0,0,1-.506.506h-7.612v.2a4.076,4.076,0,0,0,.869,2.431,2.587,2.587,0,0,0,2.123,1,3.08,3.08,0,0,0,1.661-.407,3.262,3.262,0,0,0,.957-.847,1.281,1.281,0,0,1,.3-.319.825.825,0,0,1,.363-.055h1.078a.5.5,0,0,1,.33.11.379.379,0,0,1,.132.308,1.936,1.936,0,0,1-.6,1.166,4.98,4.98,0,0,1-1.694,1.177A5.975,5.975,0,0,1,195.732,21.22Zm3.014-6.776v-.066a3.656,3.656,0,0,0-.825-2.475,2.771,2.771,0,0,0-2.211-.957,2.707,2.707,0,0,0-2.189.957,3.72,3.72,0,0,0-.8,2.475v.066Z" transform="translate(522.646 1283)"/>
    <path id="Path_276" data-name="Path 276" d="M110.042,21a.564.564,0,0,1-.55-.55V6.15a.517.517,0,0,1,.165-.4.546.546,0,0,1,.385-.154h10.274a.527.527,0,0,1,.55.55V8.218a.546.546,0,0,1-.154.385.517.517,0,0,1-.4.165H113.3v2.97h6.534a.517.517,0,0,1,.4.165.574.574,0,0,1,.154.407v1.914a.546.546,0,0,1-.154.385.517.517,0,0,1-.4.165H113.3v3.058h7.194a.527.527,0,0,1,.55.55V20.45a.546.546,0,0,1-.154.385.517.517,0,0,1-.4.165ZM124.1,21a.564.564,0,0,1-.55-.55V6.15a.517.517,0,0,1,.165-.4A.546.546,0,0,1,124.1,5.6h2.332a.749.749,0,0,1,.748.418l5.368,8.448V6.15a.517.517,0,0,1,.165-.4A.546.546,0,0,1,133.1,5.6h2.64a.527.527,0,0,1,.55.55V20.428a.574.574,0,0,1-.154.407.517.517,0,0,1-.4.165h-2.354a.787.787,0,0,1-.726-.418l-5.368-8.14V20.45a.546.546,0,0,1-.154.385.517.517,0,0,1-.4.165Zm14.388,0a.491.491,0,0,1-.462-.462.667.667,0,0,1,.022-.2l5.17-14.124a.8.8,0,0,1,.286-.44.888.888,0,0,1,.572-.176h3.256a.888.888,0,0,1,.572.176.8.8,0,0,1,.286.44l5.148,14.124.044.2a.442.442,0,0,1-.143.319A.465.465,0,0,1,152.9,21h-2.706a.684.684,0,0,1-.7-.462l-.858-2.244h-5.874l-.836,2.244a.7.7,0,0,1-.726.462Zm9.262-5.874L145.7,9.318l-2.046,5.808ZM155.67,21a.564.564,0,0,1-.55-.55V6.15a.517.517,0,0,1,.165-.4.546.546,0,0,1,.385-.154h6.71A6.323,6.323,0,0,1,166.5,6.733a3.969,3.969,0,0,1,1.353,3.223,3.041,3.041,0,0,1-.561,1.859,3.584,3.584,0,0,1-1.265,1.111,3.8,3.8,0,0,1,2.134,3.41,4.257,4.257,0,0,1-1.452,3.432A6.216,6.216,0,0,1,162.578,21Zm6.27-9.284a1.844,1.844,0,0,0,1.342-.451,1.6,1.6,0,0,0,.462-1.2,1.535,1.535,0,0,0-.462-1.166,1.873,1.873,0,0,0-1.342-.44h-2.86v3.256Zm.2,6.424a1.858,1.858,0,0,0,1.408-.528,1.9,1.9,0,0,0,0-2.585,1.88,1.88,0,0,0-1.408-.517H159.08v3.63Zm9.02,2.86a.564.564,0,0,1-.55-.55V6.15a.517.517,0,0,1,.165-.4.546.546,0,0,1,.385-.154h2.9a.528.528,0,0,1,.55.55V17.678h6.666a.517.517,0,0,1,.4.165.574.574,0,0,1,.154.407v2.2a.547.547,0,0,1-.154.385.517.517,0,0,1-.4.165Zm13.134,0a.564.564,0,0,1-.55-.55V6.15a.517.517,0,0,1,.165-.4.546.546,0,0,1,.385-.154h10.274a.528.528,0,0,1,.55.55V8.218a.546.546,0,0,1-.154.385.517.517,0,0,1-.4.165h-7.018v2.97h6.534a.517.517,0,0,1,.4.165.574.574,0,0,1,.154.407v1.914a.547.547,0,0,1-.154.385.517.517,0,0,1-.4.165h-6.534v3.058h7.194a.527.527,0,0,1,.55.55V20.45a.547.547,0,0,1-.154.385.517.517,0,0,1-.4.165Zm14.058,0a.564.564,0,0,1-.55-.55V6.15a.517.517,0,0,1,.165-.4.546.546,0,0,1,.385-.154h5.984a6.966,6.966,0,0,1,4.5,1.309,4.5,4.5,0,0,1,1.617,3.707,4.578,4.578,0,0,1-.726,2.618,4.637,4.637,0,0,1-2,1.65l3.014,5.412a.548.548,0,0,1,.066.242.491.491,0,0,1-.462.462h-2.926a.919.919,0,0,1-.9-.594L204,15.566H201.76V20.45a.517.517,0,0,1-.165.4.574.574,0,0,1-.407.154Zm5.94-8.558a2.172,2.172,0,0,0,1.54-.5,1.793,1.793,0,0,0,.528-1.375,1.888,1.888,0,0,0-.517-1.4,2.107,2.107,0,0,0-1.551-.517h-2.53v3.784Zm14.454,8.778a9.4,9.4,0,0,1-3.586-.616,5.256,5.256,0,0,1-2.255-1.617,3.786,3.786,0,0,1-.8-2.189.442.442,0,0,1,.143-.319.465.465,0,0,1,.341-.143h2.772a.826.826,0,0,1,.429.1,1.515,1.515,0,0,1,.341.3,2.286,2.286,0,0,0,.924.946,3.333,3.333,0,0,0,1.694.374,3.763,3.763,0,0,0,1.914-.4,1.209,1.209,0,0,0,.66-1.078,1.019,1.019,0,0,0-.341-.792,3.044,3.044,0,0,0-1.067-.55,21.95,21.95,0,0,0-2.156-.55,9.254,9.254,0,0,1-3.949-1.617,3.706,3.706,0,0,1-1.309-3.047,4.047,4.047,0,0,1,.748-2.4,4.9,4.9,0,0,1,2.134-1.65,8.158,8.158,0,0,1,3.234-.594,7.76,7.76,0,0,1,3.322.66A5.475,5.475,0,0,1,224.079,7.7a3.613,3.613,0,0,1,.781,1.969.451.451,0,0,1-.462.462h-2.9a.91.91,0,0,1-.429-.088.842.842,0,0,1-.3-.286,1.45,1.45,0,0,0-.715-.858,3.283,3.283,0,0,0-2.959,0,1.164,1.164,0,0,0-.528,1.034,1.065,1.065,0,0,0,.3.77,2.646,2.646,0,0,0,.968.561,13.862,13.862,0,0,0,1.925.517,14.077,14.077,0,0,1,3.267.935,4.07,4.07,0,0,1,1.793,1.452,4.057,4.057,0,0,1,.572,2.233,4.053,4.053,0,0,1-.847,2.563,5.335,5.335,0,0,1-2.354,1.672A9.492,9.492,0,0,1,218.744,21.22Z" transform="translate(522.646 1214)" fill="#fff"/>
    <path id="Path_278" data-name="Path 278" d="M39.477,21a.451.451,0,0,1-.44-.44.885.885,0,0,1,.022-.242L44.515,6.084a.685.685,0,0,1,.7-.484h1.5a.685.685,0,0,1,.7.484l5.434,14.234.044.242a.451.451,0,0,1-.44.44H51.335a.534.534,0,0,1-.374-.121.612.612,0,0,1-.176-.253L49.575,17.5H42.359l-1.21,3.124a.582.582,0,0,1-.187.253A.543.543,0,0,1,40.6,21Zm9.46-5.39L45.967,7.8,43,15.61ZM55.757,21a.489.489,0,0,1-.506-.506V6.106a.489.489,0,0,1,.506-.506h1.166a.489.489,0,0,1,.506.506V20.494a.489.489,0,0,1-.506.506Zm5.456-5.676a.489.489,0,0,1-.506-.506v-.836a.489.489,0,0,1,.506-.506h6.6a.489.489,0,0,1,.506.506v.836a.489.489,0,0,1-.506.506Zm14.432,5.9a4.111,4.111,0,0,1-3.454-1.5,6.278,6.278,0,0,1-1.232-3.784l-.022-.66.022-.66a6.294,6.294,0,0,1,1.232-3.773A4.1,4.1,0,0,1,75.645,9.34a4.333,4.333,0,0,1,3.564,1.606V5.886a.489.489,0,0,1,.506-.506h1.056a.489.489,0,0,1,.506.506V20.494a.489.489,0,0,1-.506.506h-.99a.489.489,0,0,1-.506-.506V19.57A4.319,4.319,0,0,1,75.645,21.22Zm.462-1.782a2.677,2.677,0,0,0,2.277-1,4.179,4.179,0,0,0,.825-2.387q.022-.242.022-.836,0-.616-.022-.858a3.676,3.676,0,0,0-.836-2.266,2.76,2.76,0,0,0-2.266-.968,2.643,2.643,0,0,0-2.277.968,4.523,4.523,0,0,0-.781,2.552l-.022.638Q73.027,19.438,76.107,19.438ZM85.061,21a.489.489,0,0,1-.506-.506V10.088a.53.53,0,0,1,.143-.374.474.474,0,0,1,.363-.154h1.012a.526.526,0,0,1,.528.528v.968a3.3,3.3,0,0,1,3.08-1.5h.858a.489.489,0,0,1,.506.506v.9a.456.456,0,0,1-.143.352.514.514,0,0,1-.363.132h-1.32a2.5,2.5,0,0,0-1.87.693,2.565,2.565,0,0,0-.682,1.881v6.468a.474.474,0,0,1-.154.363.53.53,0,0,1-.374.143ZM93.245,7.426a.489.489,0,0,1-.506-.506V5.732a.53.53,0,0,1,.143-.374.474.474,0,0,1,.363-.154h1.386a.526.526,0,0,1,.528.528V6.92a.474.474,0,0,1-.154.363.53.53,0,0,1-.374.143ZM93.421,21a.489.489,0,0,1-.506-.506V10.066a.489.489,0,0,1,.506-.506h1.056a.489.489,0,0,1,.506.506V20.494a.489.489,0,0,1-.506.506Zm8.8,0a.833.833,0,0,1-.814-.55l-4.07-10.208-.044-.22a.451.451,0,0,1,.462-.462h1.056a.578.578,0,0,1,.55.374l3.344,8.668,3.344-8.668a.593.593,0,0,1,.528-.374h1.078a.459.459,0,0,1,.319.132.43.43,0,0,1,.143.33l-.044.22L103.981,20.45a.833.833,0,0,1-.814.55Zm12.364.22a4.806,4.806,0,0,1-3.619-1.4,5.727,5.727,0,0,1-1.485-3.817l-.022-.748.022-.726a5.8,5.8,0,0,1,1.507-3.784,5.319,5.319,0,0,1,7.359.143,6.186,6.186,0,0,1,1.342,4.191v.374a.489.489,0,0,1-.506.506h-7.612v.2a4.076,4.076,0,0,0,.869,2.431,2.587,2.587,0,0,0,2.123,1,3.08,3.08,0,0,0,1.661-.407,3.262,3.262,0,0,0,.957-.847,1.281,1.281,0,0,1,.3-.319.825.825,0,0,1,.363-.055h1.078a.5.5,0,0,1,.33.11.379.379,0,0,1,.132.308,1.936,1.936,0,0,1-.605,1.166,4.98,4.98,0,0,1-1.694,1.177A5.975,5.975,0,0,1,114.585,21.22Zm3.014-6.776v-.066a3.656,3.656,0,0,0-.825-2.475,2.771,2.771,0,0,0-2.211-.957,2.707,2.707,0,0,0-2.189.957,3.72,3.72,0,0,0-.8,2.475v.066ZM122.835,21a.489.489,0,0,1-.506-.506V10.066a.489.489,0,0,1,.506-.506h1.034a.489.489,0,0,1,.506.506v.968a4.469,4.469,0,0,1,1.507-1.254,4.771,4.771,0,0,1,2.167-.44,4.128,4.128,0,0,1,3.289,1.353,5.286,5.286,0,0,1,1.177,3.6v6.2a.489.489,0,0,1-.506.506h-1.1a.489.489,0,0,1-.506-.506V14.4a3.532,3.532,0,0,0-.759-2.42,2.768,2.768,0,0,0-2.189-.858,2.869,2.869,0,0,0-2.2.869,3.386,3.386,0,0,0-.814,2.409v6.094a.489.489,0,0,1-.506.506Zm21.824,0a.489.489,0,0,1-.506-.506V7.558h-4.224a.489.489,0,0,1-.506-.506V6.128a.53.53,0,0,1,.143-.374.474.474,0,0,1,.363-.154h10.6a.493.493,0,0,1,.528.528v.924a.474.474,0,0,1-.154.363.53.53,0,0,1-.374.143h-4.2V20.494a.474.474,0,0,1-.154.363A.53.53,0,0,1,145.8,21Zm7.3,0a.489.489,0,0,1-.506-.506V10.088a.53.53,0,0,1,.143-.374.474.474,0,0,1,.363-.154h1.012a.526.526,0,0,1,.528.528v.968a3.3,3.3,0,0,1,3.08-1.5h.858a.489.489,0,0,1,.506.506v.9a.456.456,0,0,1-.143.352.514.514,0,0,1-.363.132h-1.32a2.5,2.5,0,0,0-1.87.693,2.565,2.565,0,0,0-.682,1.881v6.468a.474.474,0,0,1-.154.363.53.53,0,0,1-.374.143Zm10.868.22a4.6,4.6,0,0,1-2-.44,3.7,3.7,0,0,1-1.463-1.2,2.841,2.841,0,0,1-.539-1.683,2.9,2.9,0,0,1,1.2-2.387,6.707,6.707,0,0,1,3.245-1.221l3.278-.462V13.19q0-2.244-2.574-2.244a2.822,2.822,0,0,0-1.584.407,2.793,2.793,0,0,0-.924.957.654.654,0,0,1-.165.286.4.4,0,0,1-.275.088h-.946a.488.488,0,0,1-.484-.484,2.337,2.337,0,0,1,.495-1.2,3.84,3.84,0,0,1,1.463-1.166A5.426,5.426,0,0,1,164,9.34a4.664,4.664,0,0,1,3.542,1.155,4.047,4.047,0,0,1,1.078,2.871v7.128a.489.489,0,0,1-.506.506H167.1a.489.489,0,0,1-.506-.506v-.946a3.8,3.8,0,0,1-1.408,1.188A5.052,5.052,0,0,1,162.831,21.22Zm.462-1.65a3.132,3.132,0,0,0,2.343-.935,3.7,3.7,0,0,0,.913-2.695v-.616L164,15.7a5.889,5.889,0,0,0-2.354.737,1.547,1.547,0,0,0-.066,2.662A3.073,3.073,0,0,0,163.293,19.57Zm9,1.43a.489.489,0,0,1-.506-.506V10.066a.489.489,0,0,1,.506-.506h1.034a.489.489,0,0,1,.506.506v.968a4.469,4.469,0,0,1,1.507-1.254,4.771,4.771,0,0,1,2.167-.44,4.128,4.128,0,0,1,3.289,1.353,5.286,5.286,0,0,1,1.177,3.6v6.2a.489.489,0,0,1-.506.506h-1.1a.489.489,0,0,1-.506-.506V14.4a3.532,3.532,0,0,0-.759-2.42,2.768,2.768,0,0,0-2.189-.858,2.869,2.869,0,0,0-2.2.869A3.386,3.386,0,0,0,173.9,14.4v6.094a.489.489,0,0,1-.506.506Zm16.786.22a6.019,6.019,0,0,1-2.585-.495,4.392,4.392,0,0,1-1.562-1.133,1.868,1.868,0,0,1-.517-1.056.4.4,0,0,1,.165-.341.57.57,0,0,1,.341-.121h.99a.5.5,0,0,1,.4.22,4.373,4.373,0,0,0,1.144.968,3.321,3.321,0,0,0,1.65.352,3.438,3.438,0,0,0,1.859-.451,1.4,1.4,0,0,0,.715-1.243,1.275,1.275,0,0,0-.3-.869,2.389,2.389,0,0,0-1.012-.594,19.007,19.007,0,0,0-2.123-.561,5.559,5.559,0,0,1-2.717-1.21,2.748,2.748,0,0,1-.8-2.046,2.875,2.875,0,0,1,.5-1.6,3.565,3.565,0,0,1,1.452-1.232,5.142,5.142,0,0,1,2.3-.473,5.64,5.64,0,0,1,2.4.462,4.01,4.01,0,0,1,1.485,1.089,1.859,1.859,0,0,1,.495,1.045.43.43,0,0,1-.143.33.486.486,0,0,1-.341.132h-.924a.542.542,0,0,1-.44-.22,7.056,7.056,0,0,0-.6-.649,2.225,2.225,0,0,0-.726-.407,3.479,3.479,0,0,0-1.2-.176,2.576,2.576,0,0,0-1.628.451,1.428,1.428,0,0,0-.572,1.177,1.255,1.255,0,0,0,.242.781,2.11,2.11,0,0,0,.935.583,14.812,14.812,0,0,0,2.013.55,6.176,6.176,0,0,1,2.959,1.265,2.771,2.771,0,0,1,.869,2.1,2.884,2.884,0,0,1-.55,1.716,3.615,3.615,0,0,1-1.617,1.21A6.648,6.648,0,0,1,189.077,21.22Zm8.888-.22a.489.489,0,0,1-.506-.506V11.32h-1.87a.489.489,0,0,1-.506-.506v-.748a.489.489,0,0,1,.506-.506h1.87V8.46q0-3.74,3.784-3.74h1.32a.489.489,0,0,1,.506.506v.748a.489.489,0,0,1-.506.506h-1.276A1.645,1.645,0,0,0,199.9,7a2.574,2.574,0,0,0-.4,1.573v.99h2.838a.489.489,0,0,1,.506.506v.748a.489.489,0,0,1-.506.506H199.5v9.174A.489.489,0,0,1,199,21Zm11.286.22a5,5,0,0,1-3.751-1.364,5.285,5.285,0,0,1-1.419-3.63l-.022-.946.022-.946a5.273,5.273,0,0,1,1.43-3.619,5.774,5.774,0,0,1,7.48,0,5.273,5.273,0,0,1,1.43,3.619q.022.242.022.946t-.022.946A5.285,5.285,0,0,1,213,19.856,5,5,0,0,1,209.251,21.22Zm0-1.694a2.816,2.816,0,0,0,2.189-.88,3.866,3.866,0,0,0,.869-2.53q.022-.22.022-.836t-.022-.836a3.866,3.866,0,0,0-.869-2.53,2.816,2.816,0,0,0-2.189-.88,2.851,2.851,0,0,0-2.2.88,3.749,3.749,0,0,0-.858,2.53l-.022.836.022.836a3.749,3.749,0,0,0,.858,2.53A2.851,2.851,0,0,0,209.251,19.526ZM217.7,21a.489.489,0,0,1-.506-.506V10.088a.53.53,0,0,1,.143-.374.474.474,0,0,1,.363-.154h1.012a.526.526,0,0,1,.528.528v.968a3.3,3.3,0,0,1,3.08-1.5h.858a.489.489,0,0,1,.506.506v.9a.456.456,0,0,1-.143.352.514.514,0,0,1-.363.132h-1.32a2.5,2.5,0,0,0-1.87.693,2.565,2.565,0,0,0-.682,1.881v6.468a.474.474,0,0,1-.154.363.53.53,0,0,1-.374.143Zm8.36,0a.489.489,0,0,1-.506-.506V10.066a.489.489,0,0,1,.506-.506h.99a.489.489,0,0,1,.506.506v.77a3.788,3.788,0,0,1,3.19-1.5,3.552,3.552,0,0,1,3.454,2.024,3.905,3.905,0,0,1,1.5-1.474,4.33,4.33,0,0,1,2.178-.55,3.841,3.841,0,0,1,2.948,1.232,5.053,5.053,0,0,1,1.144,3.564v6.358a.489.489,0,0,1-.506.506h-1.034a.489.489,0,0,1-.506-.506v-6.16a3.5,3.5,0,0,0-.715-2.464,2.483,2.483,0,0,0-1.881-.748,2.416,2.416,0,0,0-1.782.759,3.4,3.4,0,0,0-.748,2.453v6.16a.489.489,0,0,1-.506.506h-1.034a.489.489,0,0,1-.506-.506v-6.16a3.425,3.425,0,0,0-.737-2.464,2.5,2.5,0,0,0-1.859-.748,2.416,2.416,0,0,0-1.782.759,3.362,3.362,0,0,0-.748,2.431v6.182a.489.489,0,0,1-.506.506Zm22.242.22a4.6,4.6,0,0,1-2-.44,3.7,3.7,0,0,1-1.463-1.2A2.841,2.841,0,0,1,244.3,17.9a2.9,2.9,0,0,1,1.2-2.387,6.707,6.707,0,0,1,3.245-1.221l3.278-.462V13.19q0-2.244-2.574-2.244a2.822,2.822,0,0,0-1.584.407,2.793,2.793,0,0,0-.924.957.654.654,0,0,1-.165.286.4.4,0,0,1-.275.088h-.946a.488.488,0,0,1-.484-.484,2.337,2.337,0,0,1,.495-1.2,3.84,3.84,0,0,1,1.463-1.166,5.426,5.426,0,0,1,2.442-.495,4.664,4.664,0,0,1,3.542,1.155,4.047,4.047,0,0,1,1.078,2.871v7.128a.489.489,0,0,1-.506.506h-1.012a.489.489,0,0,1-.506-.506v-.946a3.8,3.8,0,0,1-1.408,1.188A5.052,5.052,0,0,1,248.3,21.22Zm.462-1.65a3.132,3.132,0,0,0,2.343-.935,3.7,3.7,0,0,0,.913-2.695v-.616l-2.552.374a5.889,5.889,0,0,0-2.354.737,1.547,1.547,0,0,0-.066,2.662A3.073,3.073,0,0,0,248.763,19.57ZM261.611,21q-3.476,0-3.476-3.872V11.32h-1.716a.489.489,0,0,1-.506-.506v-.748a.489.489,0,0,1,.506-.506h1.716V5.886a.489.489,0,0,1,.506-.506h1.034a.489.489,0,0,1,.506.506V9.56h2.728a.489.489,0,0,1,.506.506v.748a.489.489,0,0,1-.506.506h-2.728v5.654a3.011,3.011,0,0,0,.374,1.661,1.371,1.371,0,0,0,1.232.561h1.342a.489.489,0,0,1,.506.506v.792a.489.489,0,0,1-.506.506Zm4.466-13.574a.489.489,0,0,1-.506-.506V5.732a.53.53,0,0,1,.143-.374.474.474,0,0,1,.363-.154h1.386a.526.526,0,0,1,.528.528V6.92a.474.474,0,0,1-.154.363.53.53,0,0,1-.374.143ZM266.253,21a.489.489,0,0,1-.506-.506V10.066a.489.489,0,0,1,.506-.506h1.056a.489.489,0,0,1,.506.506V20.494a.489.489,0,0,1-.506.506Zm9.5.22a5,5,0,0,1-3.751-1.364,5.285,5.285,0,0,1-1.419-3.63l-.022-.946.022-.946a5.272,5.272,0,0,1,1.43-3.619,5.774,5.774,0,0,1,7.48,0,5.273,5.273,0,0,1,1.43,3.619q.022.242.022.946t-.022.946a5.285,5.285,0,0,1-1.419,3.63A5,5,0,0,1,275.757,21.22Zm0-1.694a2.816,2.816,0,0,0,2.189-.88,3.866,3.866,0,0,0,.869-2.53q.022-.22.022-.836t-.022-.836a3.866,3.866,0,0,0-.869-2.53,2.816,2.816,0,0,0-2.189-.88,2.851,2.851,0,0,0-2.2.88,3.748,3.748,0,0,0-.858,2.53l-.022.836.022.836a3.748,3.748,0,0,0,.858,2.53A2.851,2.851,0,0,0,275.757,19.526ZM284.2,21a.489.489,0,0,1-.506-.506V10.066a.489.489,0,0,1,.506-.506h1.034a.489.489,0,0,1,.506.506v.968a4.469,4.469,0,0,1,1.507-1.254,4.771,4.771,0,0,1,2.167-.44,4.128,4.128,0,0,1,3.289,1.353,5.286,5.286,0,0,1,1.177,3.6v6.2a.489.489,0,0,1-.506.506h-1.1a.489.489,0,0,1-.506-.506V14.4a3.532,3.532,0,0,0-.759-2.42,2.768,2.768,0,0,0-2.189-.858,2.869,2.869,0,0,0-2.2.869,3.386,3.386,0,0,0-.814,2.409v6.094A.489.489,0,0,1,285.3,21Z" transform="translate(522.646 1357)"/>
    <path id="Path_279" data-name="Path 279" d="M27.234,21.22a5.942,5.942,0,0,1-4.477-1.584,6.425,6.425,0,0,1-1.639-4.378q-.022-.594-.022-1.936,0-1.364.022-1.98a6.409,6.409,0,0,1,1.65-4.367,5.925,5.925,0,0,1,4.466-1.6,7.271,7.271,0,0,1,3.322.693,5.083,5.083,0,0,1,2.068,1.815,4.927,4.927,0,0,1,.77,2.4v.044a.375.375,0,0,1-.143.3.482.482,0,0,1-.319.121h-1.21q-.44,0-.55-.506A3.669,3.669,0,0,0,29.83,7.921a4.481,4.481,0,0,0-2.6-.671q-3.784,0-3.916,4.2-.022.594-.022,1.826t.022,1.87q.132,4.2,3.916,4.2a4.535,4.535,0,0,0,2.607-.671,3.568,3.568,0,0,0,1.331-2.321.715.715,0,0,1,.2-.4.532.532,0,0,1,.352-.11h1.21a.511.511,0,0,1,.341.121.343.343,0,0,1,.121.319,4.959,4.959,0,0,1-.77,2.42,5.083,5.083,0,0,1-2.068,1.815A7.271,7.271,0,0,1,27.234,21.22Zm13.508,0a5,5,0,0,1-3.751-1.364,5.285,5.285,0,0,1-1.419-3.63l-.022-.946.022-.946A5.273,5.273,0,0,1,37,10.715a4.986,4.986,0,0,1,3.74-1.375,4.986,4.986,0,0,1,3.74,1.375,5.273,5.273,0,0,1,1.43,3.619q.022.242.022.946t-.022.946a5.285,5.285,0,0,1-1.419,3.63A5,5,0,0,1,40.742,21.22Zm0-1.694a2.816,2.816,0,0,0,2.189-.88,3.866,3.866,0,0,0,.869-2.53q.022-.22.022-.836t-.022-.836a3.866,3.866,0,0,0-.869-2.53,2.816,2.816,0,0,0-2.189-.88,2.851,2.851,0,0,0-2.2.88,3.749,3.749,0,0,0-.858,2.53l-.022.836.022.836a3.749,3.749,0,0,0,.858,2.53A2.851,2.851,0,0,0,40.742,19.526ZM49.19,21a.489.489,0,0,1-.506-.506V10.066a.489.489,0,0,1,.506-.506h.99a.489.489,0,0,1,.506.506v.77a3.788,3.788,0,0,1,3.19-1.5,3.552,3.552,0,0,1,3.454,2.024,3.905,3.905,0,0,1,1.5-1.474A4.33,4.33,0,0,1,61,9.34a3.841,3.841,0,0,1,2.948,1.232A5.053,5.053,0,0,1,65.1,14.136v6.358A.489.489,0,0,1,64.59,21H63.556a.489.489,0,0,1-.506-.506v-6.16a3.5,3.5,0,0,0-.715-2.464,2.483,2.483,0,0,0-1.881-.748,2.416,2.416,0,0,0-1.782.759,3.4,3.4,0,0,0-.748,2.453v6.16a.489.489,0,0,1-.506.506H56.384a.489.489,0,0,1-.506-.506v-6.16a3.425,3.425,0,0,0-.737-2.464,2.5,2.5,0,0,0-1.859-.748,2.416,2.416,0,0,0-1.782.759,3.362,3.362,0,0,0-.748,2.431v6.182a.489.489,0,0,1-.506.506Zm19.58,4.18a.489.489,0,0,1-.506-.506V10.066a.489.489,0,0,1,.506-.506h1.012a.489.489,0,0,1,.506.506v.968a4.77,4.77,0,0,1,7.073-.242,6.226,6.226,0,0,1,1.243,3.74q.022.242.022.748t-.022.748a6.2,6.2,0,0,1-1.254,3.729A4.152,4.152,0,0,1,73.9,21.22a4.249,4.249,0,0,1-3.564-1.65v5.1a.514.514,0,0,1-.132.363.456.456,0,0,1-.352.143Zm4.664-5.742a2.643,2.643,0,0,0,2.277-.968,4.523,4.523,0,0,0,.781-2.552q.022-.22.022-.638,0-4.158-3.08-4.158a2.677,2.677,0,0,0-2.277,1,4.179,4.179,0,0,0-.825,2.387l-.022.836.022.858a3.676,3.676,0,0,0,.836,2.266A2.76,2.76,0,0,0,73.434,19.438Zm12.5,1.782a4.806,4.806,0,0,1-3.619-1.4,5.727,5.727,0,0,1-1.485-3.817l-.022-.748.022-.726a5.8,5.8,0,0,1,1.507-3.784,5.319,5.319,0,0,1,7.359.143,6.186,6.186,0,0,1,1.342,4.191v.374a.489.489,0,0,1-.506.506H82.916v.2a4.076,4.076,0,0,0,.869,2.431,2.587,2.587,0,0,0,2.123,1,3.08,3.08,0,0,0,1.661-.407,3.262,3.262,0,0,0,.957-.847,1.281,1.281,0,0,1,.3-.319.825.825,0,0,1,.363-.055h1.078a.5.5,0,0,1,.33.11.379.379,0,0,1,.132.308,1.936,1.936,0,0,1-.605,1.166,4.98,4.98,0,0,1-1.694,1.177A5.975,5.975,0,0,1,85.93,21.22Zm3.014-6.776v-.066a3.656,3.656,0,0,0-.825-2.475,2.771,2.771,0,0,0-2.211-.957,2.707,2.707,0,0,0-2.189.957,3.72,3.72,0,0,0-.8,2.475v.066ZM98.074,21Q94.6,21,94.6,17.128V11.32H92.882a.489.489,0,0,1-.506-.506v-.748a.489.489,0,0,1,.506-.506H94.6V5.886A.489.489,0,0,1,95.1,5.38h1.034a.489.489,0,0,1,.506.506V9.56h2.728a.489.489,0,0,1,.506.506v.748a.489.489,0,0,1-.506.506H96.644v5.654a3.011,3.011,0,0,0,.374,1.661,1.371,1.371,0,0,0,1.232.561h1.342a.489.489,0,0,1,.506.506v.792a.489.489,0,0,1-.506.506ZM102.54,7.426a.489.489,0,0,1-.506-.506V5.732a.53.53,0,0,1,.143-.374.474.474,0,0,1,.363-.154h1.386a.526.526,0,0,1,.528.528V6.92a.474.474,0,0,1-.154.363.53.53,0,0,1-.374.143ZM102.716,21a.489.489,0,0,1-.506-.506V10.066a.489.489,0,0,1,.506-.506h1.056a.489.489,0,0,1,.506.506V20.494a.489.489,0,0,1-.506.506ZM112,21q-3.476,0-3.476-3.872V11.32h-1.716a.489.489,0,0,1-.506-.506v-.748a.489.489,0,0,1,.506-.506h1.716V5.886a.489.489,0,0,1,.506-.506h1.034a.489.489,0,0,1,.506.506V9.56H113.3a.489.489,0,0,1,.506.506v.748a.489.489,0,0,1-.506.506H110.57v5.654a3.011,3.011,0,0,0,.374,1.661,1.371,1.371,0,0,0,1.232.561h1.342a.489.489,0,0,1,.506.506v.792a.489.489,0,0,1-.506.506Zm4.466-13.574a.489.489,0,0,1-.506-.506V5.732a.53.53,0,0,1,.143-.374.474.474,0,0,1,.363-.154h1.386a.526.526,0,0,1,.528.528V6.92a.474.474,0,0,1-.154.363.53.53,0,0,1-.374.143ZM116.642,21a.489.489,0,0,1-.506-.506V10.066a.489.489,0,0,1,.506-.506H117.7a.489.489,0,0,1,.506.506V20.494A.489.489,0,0,1,117.7,21Zm8.8,0a.833.833,0,0,1-.814-.55l-4.07-10.208-.044-.22a.451.451,0,0,1,.462-.462h1.056a.578.578,0,0,1,.55.374l3.344,8.668,3.344-8.668a.593.593,0,0,1,.528-.374h1.078a.459.459,0,0,1,.319.132.43.43,0,0,1,.143.33l-.044.22L127.2,20.45a.833.833,0,0,1-.814.55Zm12.364.22a4.806,4.806,0,0,1-3.619-1.4,5.727,5.727,0,0,1-1.485-3.817l-.022-.748.022-.726a5.8,5.8,0,0,1,1.507-3.784,5.319,5.319,0,0,1,7.359.143,6.186,6.186,0,0,1,1.342,4.191v.374a.489.489,0,0,1-.506.506h-7.612v.2a4.076,4.076,0,0,0,.869,2.431,2.587,2.587,0,0,0,2.123,1,3.08,3.08,0,0,0,1.661-.407,3.262,3.262,0,0,0,.957-.847,1.281,1.281,0,0,1,.3-.319.825.825,0,0,1,.363-.055h1.078a.5.5,0,0,1,.33.11.379.379,0,0,1,.132.308,1.936,1.936,0,0,1-.6,1.166,4.98,4.98,0,0,1-1.694,1.177A5.975,5.975,0,0,1,137.806,21.22Zm3.014-6.776v-.066a3.656,3.656,0,0,0-.825-2.475,2.771,2.771,0,0,0-2.211-.957,2.707,2.707,0,0,0-2.189.957,3.72,3.72,0,0,0-.8,2.475v.066ZM151.732,21a.489.489,0,0,1-.506-.506V6.128a.52.52,0,0,1,.143-.385.492.492,0,0,1,.363-.143h1.012a.561.561,0,0,1,.55.308l7.3,11.22v-11a.52.52,0,0,1,.143-.385A.492.492,0,0,1,161.1,5.6h1.056a.493.493,0,0,1,.528.528V20.472a.53.53,0,0,1-.143.374.474.474,0,0,1-.363.154h-1.056a.6.6,0,0,1-.528-.308l-7.282-11.11V20.494a.474.474,0,0,1-.154.363.53.53,0,0,1-.374.143Zm19.074.22a4.806,4.806,0,0,1-3.619-1.4,5.727,5.727,0,0,1-1.485-3.817l-.022-.748.022-.726a5.8,5.8,0,0,1,1.507-3.784,5.319,5.319,0,0,1,7.359.143,6.186,6.186,0,0,1,1.342,4.191v.374a.489.489,0,0,1-.506.506h-7.612v.2a4.076,4.076,0,0,0,.869,2.431,2.587,2.587,0,0,0,2.123,1,3.08,3.08,0,0,0,1.661-.407,3.262,3.262,0,0,0,.957-.847,1.281,1.281,0,0,1,.3-.319.825.825,0,0,1,.363-.055h1.078a.5.5,0,0,1,.33.11.379.379,0,0,1,.132.308,1.936,1.936,0,0,1-.6,1.166,4.98,4.98,0,0,1-1.694,1.177A5.975,5.975,0,0,1,170.806,21.22Zm3.014-6.776v-.066A3.656,3.656,0,0,0,173,11.9a2.771,2.771,0,0,0-2.211-.957,2.707,2.707,0,0,0-2.189.957,3.72,3.72,0,0,0-.8,2.475v.066ZM182.95,21q-3.476,0-3.476-3.872V11.32h-1.716a.489.489,0,0,1-.506-.506v-.748a.489.489,0,0,1,.506-.506h1.716V5.886a.489.489,0,0,1,.506-.506h1.034a.489.489,0,0,1,.506.506V9.56h2.728a.489.489,0,0,1,.506.506v.748a.489.489,0,0,1-.506.506H181.52v5.654a3.011,3.011,0,0,0,.374,1.661,1.371,1.371,0,0,0,1.232.561h1.342a.489.489,0,0,1,.506.506v.792a.489.489,0,0,1-.506.506Zm7.172,0a.657.657,0,0,1-.44-.132,1.027,1.027,0,0,1-.264-.418l-3.124-10.208-.044-.22a.43.43,0,0,1,.143-.33.459.459,0,0,1,.319-.132h.968a.543.543,0,0,1,.363.121.582.582,0,0,1,.187.253l2.442,8.294,2.618-8.206a.649.649,0,0,1,.2-.319.59.59,0,0,1,.418-.143h.748a.59.59,0,0,1,.418.143.649.649,0,0,1,.2.319l2.618,8.206,2.442-8.294a.491.491,0,0,1,.165-.242.514.514,0,0,1,.363-.132h.99a.422.422,0,0,1,.308.132.448.448,0,0,1,.132.33l-.044.22-3.1,10.208a1.026,1.026,0,0,1-.264.418.7.7,0,0,1-.462.132h-.858a.668.668,0,0,1-.726-.55l-2.552-7.876-2.552,7.876a.721.721,0,0,1-.748.55Zm18.986.22a5,5,0,0,1-3.751-1.364,5.285,5.285,0,0,1-1.419-3.63l-.022-.946.022-.946a5.273,5.273,0,0,1,1.43-3.619,5.774,5.774,0,0,1,7.48,0,5.273,5.273,0,0,1,1.43,3.619q.022.242.022.946t-.022.946a5.285,5.285,0,0,1-1.419,3.63A5,5,0,0,1,209.108,21.22Zm0-1.694a2.816,2.816,0,0,0,2.189-.88,3.866,3.866,0,0,0,.869-2.53q.022-.22.022-.836t-.022-.836a3.866,3.866,0,0,0-.869-2.53,2.816,2.816,0,0,0-2.189-.88,2.851,2.851,0,0,0-2.2.88,3.749,3.749,0,0,0-.858,2.53l-.022.836.022.836a3.749,3.749,0,0,0,.858,2.53A2.851,2.851,0,0,0,209.108,19.526ZM217.556,21a.489.489,0,0,1-.506-.506V10.088a.53.53,0,0,1,.143-.374.474.474,0,0,1,.363-.154h1.012a.526.526,0,0,1,.528.528v.968a3.3,3.3,0,0,1,3.08-1.5h.858a.489.489,0,0,1,.506.506v.9a.456.456,0,0,1-.143.352.514.514,0,0,1-.363.132h-1.32a2.5,2.5,0,0,0-1.87.693,2.565,2.565,0,0,0-.682,1.881v6.468a.474.474,0,0,1-.154.363.53.53,0,0,1-.374.143Zm8.382,0a.489.489,0,0,1-.506-.506V5.886a.489.489,0,0,1,.506-.506h1.034a.489.489,0,0,1,.506.506v7.656l4.334-3.608a2.754,2.754,0,0,0,.22-.176,1.049,1.049,0,0,1,.3-.154,1.258,1.258,0,0,1,.363-.044h1.166a.451.451,0,0,1,.462.462.5.5,0,0,1-.264.418l-5.082,4.224,5.632,5.478q.264.22.264.4a.451.451,0,0,1-.462.462h-1.144a1.22,1.22,0,0,1-.473-.066,1.867,1.867,0,0,1-.407-.308l-4.906-4.686v4.554a.489.489,0,0,1-.506.506Zm14.564.22a6.019,6.019,0,0,1-2.585-.495,4.392,4.392,0,0,1-1.562-1.133,1.868,1.868,0,0,1-.517-1.056.4.4,0,0,1,.165-.341.57.57,0,0,1,.341-.121h.99a.5.5,0,0,1,.4.22,4.373,4.373,0,0,0,1.144.968,3.321,3.321,0,0,0,1.65.352,3.438,3.438,0,0,0,1.859-.451,1.4,1.4,0,0,0,.715-1.243,1.275,1.275,0,0,0-.3-.869,2.389,2.389,0,0,0-1.012-.594,19.007,19.007,0,0,0-2.123-.561,5.559,5.559,0,0,1-2.717-1.21,2.748,2.748,0,0,1-.8-2.046,2.875,2.875,0,0,1,.5-1.6,3.565,3.565,0,0,1,1.452-1.232,5.142,5.142,0,0,1,2.3-.473,5.64,5.64,0,0,1,2.4.462,4.01,4.01,0,0,1,1.485,1.089,1.859,1.859,0,0,1,.5,1.045.43.43,0,0,1-.143.33.485.485,0,0,1-.341.132h-.924a.542.542,0,0,1-.44-.22,7.056,7.056,0,0,0-.6-.649,2.225,2.225,0,0,0-.726-.407,3.479,3.479,0,0,0-1.2-.176,2.576,2.576,0,0,0-1.628.451,1.428,1.428,0,0,0-.572,1.177,1.255,1.255,0,0,0,.242.781,2.11,2.11,0,0,0,.935.583,14.812,14.812,0,0,0,2.013.55,6.176,6.176,0,0,1,2.959,1.265,2.771,2.771,0,0,1,.869,2.1,2.884,2.884,0,0,1-.55,1.716,3.615,3.615,0,0,1-1.617,1.21A6.648,6.648,0,0,1,240.5,21.22Zm15.84,0a4.6,4.6,0,0,1-2-.44,3.7,3.7,0,0,1-1.463-1.2,2.841,2.841,0,0,1-.539-1.683,2.9,2.9,0,0,1,1.2-2.387,6.707,6.707,0,0,1,3.245-1.221l3.278-.462V13.19q0-2.244-2.574-2.244a2.822,2.822,0,0,0-1.584.407,2.793,2.793,0,0,0-.924.957.654.654,0,0,1-.165.286.4.4,0,0,1-.275.088h-.946a.488.488,0,0,1-.484-.484A2.337,2.337,0,0,1,253.6,11a3.84,3.84,0,0,1,1.463-1.166,5.426,5.426,0,0,1,2.442-.495,4.664,4.664,0,0,1,3.542,1.155,4.047,4.047,0,0,1,1.078,2.871v7.128a.489.489,0,0,1-.506.506H260.61a.489.489,0,0,1-.506-.506v-.946a3.8,3.8,0,0,1-1.408,1.188A5.052,5.052,0,0,1,256.342,21.22Zm.462-1.65a3.132,3.132,0,0,0,2.343-.935,3.7,3.7,0,0,0,.913-2.695v-.616l-2.552.374a5.889,5.889,0,0,0-2.354.737,1.547,1.547,0,0,0-.066,2.662A3.073,3.073,0,0,0,256.8,19.57Zm9,1.43a.489.489,0,0,1-.506-.506V10.066a.489.489,0,0,1,.506-.506h1.034a.489.489,0,0,1,.506.506v.968a4.469,4.469,0,0,1,1.507-1.254,4.771,4.771,0,0,1,2.167-.44,4.128,4.128,0,0,1,3.289,1.353,5.286,5.286,0,0,1,1.177,3.6v6.2a.489.489,0,0,1-.506.506h-1.1a.489.489,0,0,1-.506-.506V14.4a3.532,3.532,0,0,0-.759-2.42,2.768,2.768,0,0,0-2.189-.858,2.869,2.869,0,0,0-2.2.869,3.386,3.386,0,0,0-.814,2.409v6.094A.489.489,0,0,1,266.9,21Zm17.006.22a4.111,4.111,0,0,1-3.454-1.5,6.278,6.278,0,0,1-1.232-3.784l-.022-.66.022-.66a6.294,6.294,0,0,1,1.232-3.773,4.1,4.1,0,0,1,3.454-1.507,4.333,4.333,0,0,1,3.564,1.606V5.886a.489.489,0,0,1,.506-.506h1.056a.489.489,0,0,1,.506.506V20.494a.489.489,0,0,1-.506.506h-.99a.489.489,0,0,1-.506-.506V19.57A4.319,4.319,0,0,1,282.808,21.22Zm.462-1.782a2.677,2.677,0,0,0,2.277-1,4.179,4.179,0,0,0,.825-2.387q.022-.242.022-.836,0-.616-.022-.858a3.676,3.676,0,0,0-.836-2.266,2.76,2.76,0,0,0-2.266-.968,2.643,2.643,0,0,0-2.277.968,4.523,4.523,0,0,0-.781,2.552l-.022.638Q280.19,19.438,283.27,19.438ZM297.9,21a.489.489,0,0,1-.506-.506V6.106A.489.489,0,0,1,297.9,5.6h1.166a.489.489,0,0,1,.506.506V20.494a.489.489,0,0,1-.506.506Zm9.372,0a.489.489,0,0,1-.506-.506V7.558h-4.224a.489.489,0,0,1-.506-.506V6.128a.53.53,0,0,1,.143-.374.474.474,0,0,1,.363-.154h10.6a.493.493,0,0,1,.528.528v.924a.474.474,0,0,1-.154.363.53.53,0,0,1-.374.143h-4.2V20.494a.474.474,0,0,1-.154.363.53.53,0,0,1-.374.143ZM97.513,48a.489.489,0,0,1-.506-.506V33.106a.489.489,0,0,1,.506-.506h1.166a.489.489,0,0,1,.506.506V47.494a.489.489,0,0,1-.506.506Zm5.72,0a.489.489,0,0,1-.506-.506V37.066a.489.489,0,0,1,.506-.506h1.034a.489.489,0,0,1,.506.506v.968a4.469,4.469,0,0,1,1.507-1.254,4.771,4.771,0,0,1,2.167-.44,4.128,4.128,0,0,1,3.289,1.353,5.286,5.286,0,0,1,1.177,3.6v6.2a.489.489,0,0,1-.506.506h-1.1a.489.489,0,0,1-.506-.506V41.4a3.532,3.532,0,0,0-.759-2.42,2.768,2.768,0,0,0-2.189-.858,2.869,2.869,0,0,0-2.2.869,3.386,3.386,0,0,0-.814,2.409v6.094a.489.489,0,0,1-.506.506Zm14.3,0a.489.489,0,0,1-.506-.506V38.32h-1.87a.489.489,0,0,1-.506-.506v-.748a.489.489,0,0,1,.506-.506h1.87v-1.1q0-3.74,3.784-3.74h1.32a.489.489,0,0,1,.506.506v.748a.489.489,0,0,1-.506.506h-1.276a1.645,1.645,0,0,0-1.386.517,2.574,2.574,0,0,0-.4,1.573v.99h2.838a.489.489,0,0,1,.506.506v.748a.489.489,0,0,1-.506.506h-2.838v9.174a.489.489,0,0,1-.506.506Zm7.326,0a.489.489,0,0,1-.506-.506V37.088a.53.53,0,0,1,.143-.374.474.474,0,0,1,.363-.154h1.012a.526.526,0,0,1,.528.528v.968a3.3,3.3,0,0,1,3.08-1.5h.858a.489.489,0,0,1,.506.506v.9a.456.456,0,0,1-.143.352.514.514,0,0,1-.363.132h-1.32a2.5,2.5,0,0,0-1.87.693,2.565,2.565,0,0,0-.682,1.881v6.468a.474.474,0,0,1-.154.363.53.53,0,0,1-.374.143Zm10.868.22a4.6,4.6,0,0,1-2-.44,3.7,3.7,0,0,1-1.463-1.2,2.841,2.841,0,0,1-.539-1.683,2.9,2.9,0,0,1,1.2-2.387,6.707,6.707,0,0,1,3.245-1.221l3.278-.462V40.19q0-2.244-2.574-2.244a2.822,2.822,0,0,0-1.584.407,2.793,2.793,0,0,0-.924.957.654.654,0,0,1-.165.286.4.4,0,0,1-.275.088h-.946a.488.488,0,0,1-.484-.484,2.337,2.337,0,0,1,.495-1.2,3.84,3.84,0,0,1,1.463-1.166,5.426,5.426,0,0,1,2.442-.495,4.664,4.664,0,0,1,3.542,1.155,4.047,4.047,0,0,1,1.078,2.871v7.128a.489.489,0,0,1-.506.506h-1.012a.489.489,0,0,1-.506-.506v-.946a3.8,3.8,0,0,1-1.408,1.188A5.052,5.052,0,0,1,135.727,48.22Zm.462-1.65a3.132,3.132,0,0,0,2.343-.935,3.7,3.7,0,0,0,.913-2.695v-.616l-2.552.374a5.889,5.889,0,0,0-2.354.737,1.547,1.547,0,0,0-.066,2.662A3.073,3.073,0,0,0,136.189,46.57Zm12.452,1.65a6.019,6.019,0,0,1-2.585-.5,4.392,4.392,0,0,1-1.562-1.133,1.868,1.868,0,0,1-.517-1.056.4.4,0,0,1,.165-.341.57.57,0,0,1,.341-.121h.99a.5.5,0,0,1,.4.22,4.373,4.373,0,0,0,1.144.968,3.321,3.321,0,0,0,1.65.352,3.438,3.438,0,0,0,1.859-.451,1.4,1.4,0,0,0,.715-1.243,1.275,1.275,0,0,0-.3-.869,2.389,2.389,0,0,0-1.012-.594A19.007,19.007,0,0,0,147.8,42.9a5.559,5.559,0,0,1-2.717-1.21,2.748,2.748,0,0,1-.8-2.046,2.875,2.875,0,0,1,.5-1.6,3.565,3.565,0,0,1,1.452-1.232,5.142,5.142,0,0,1,2.3-.473,5.64,5.64,0,0,1,2.4.462,4.01,4.01,0,0,1,1.485,1.089,1.859,1.859,0,0,1,.495,1.045.43.43,0,0,1-.143.33.486.486,0,0,1-.341.132H151.5a.542.542,0,0,1-.44-.22,7.056,7.056,0,0,0-.6-.649,2.225,2.225,0,0,0-.726-.407,3.479,3.479,0,0,0-1.2-.176,2.576,2.576,0,0,0-1.628.451,1.428,1.428,0,0,0-.572,1.177,1.255,1.255,0,0,0,.242.781,2.11,2.11,0,0,0,.935.583,14.812,14.812,0,0,0,2.013.55,6.176,6.176,0,0,1,2.959,1.265,2.771,2.771,0,0,1,.869,2.1,2.884,2.884,0,0,1-.55,1.716,3.615,3.615,0,0,1-1.617,1.21A6.648,6.648,0,0,1,148.641,48.22Zm11.7-.22q-3.476,0-3.476-3.872V38.32h-1.716a.489.489,0,0,1-.506-.506v-.748a.489.489,0,0,1,.506-.506h1.716V32.886a.489.489,0,0,1,.506-.506h1.034a.489.489,0,0,1,.506.506V36.56h2.728a.489.489,0,0,1,.506.506v.748a.489.489,0,0,1-.506.506h-2.728v5.654a3.011,3.011,0,0,0,.374,1.661,1.371,1.371,0,0,0,1.232.561h1.342a.489.489,0,0,1,.506.506v.792a.489.489,0,0,1-.506.506Zm4.642,0a.489.489,0,0,1-.506-.506V37.088a.53.53,0,0,1,.143-.374.474.474,0,0,1,.363-.154H166a.526.526,0,0,1,.528.528v.968a3.3,3.3,0,0,1,3.08-1.5h.858a.489.489,0,0,1,.506.506v.9a.456.456,0,0,1-.143.352.514.514,0,0,1-.363.132h-1.32a2.5,2.5,0,0,0-1.87.693,2.565,2.565,0,0,0-.682,1.881v6.468a.474.474,0,0,1-.154.363.53.53,0,0,1-.374.143Zm12.122.22a4,4,0,0,1-3.234-1.353,5.385,5.385,0,0,1-1.144-3.6v-6.2a.489.489,0,0,1,.506-.506h1.1a.489.489,0,0,1,.506.506V43.16q0,3.278,2.86,3.278a2.869,2.869,0,0,0,2.2-.869,3.386,3.386,0,0,0,.814-2.409V37.066a.489.489,0,0,1,.506-.506h1.1a.456.456,0,0,1,.352.143.514.514,0,0,1,.132.363V47.494a.514.514,0,0,1-.132.363.456.456,0,0,1-.352.143h-1.034a.489.489,0,0,1-.506-.506v-.968a4.047,4.047,0,0,1-1.5,1.265A4.948,4.948,0,0,1,177.109,48.22Zm13.6,0a4.98,4.98,0,0,1-3.685-1.331A5.334,5.334,0,0,1,185.6,43.16l-.022-.88.022-.88a5.334,5.334,0,0,1,1.419-3.729,4.98,4.98,0,0,1,3.685-1.331,5.762,5.762,0,0,1,2.684.572,4.183,4.183,0,0,1,1.639,1.408,3.406,3.406,0,0,1,.583,1.672.385.385,0,0,1-.132.352.555.555,0,0,1-.374.132h-1.056a.521.521,0,0,1-.33-.088.907.907,0,0,1-.22-.352,2.879,2.879,0,0,0-1.056-1.507,3.048,3.048,0,0,0-1.716-.451,2.844,2.844,0,0,0-2.167.847,3.864,3.864,0,0,0-.869,2.585l-.022.792.022.748a3.889,3.889,0,0,0,.858,2.6,2.856,2.856,0,0,0,2.178.836,3.048,3.048,0,0,0,1.716-.451,2.879,2.879,0,0,0,1.056-1.507,1.036,1.036,0,0,1,.22-.363.48.48,0,0,1,.33-.1H195.1a.53.53,0,0,1,.374.143.413.413,0,0,1,.132.363,3.444,3.444,0,0,1-.583,1.661,4.16,4.16,0,0,1-1.628,1.419A5.747,5.747,0,0,1,190.705,48.22Zm11.99-.22q-3.476,0-3.476-3.872V38.32H197.5a.489.489,0,0,1-.506-.506v-.748a.489.489,0,0,1,.506-.506h1.716V32.886a.489.489,0,0,1,.506-.506h1.034a.489.489,0,0,1,.506.506V36.56h2.728a.489.489,0,0,1,.506.506v.748a.489.489,0,0,1-.506.506h-2.728v5.654a3.011,3.011,0,0,0,.374,1.661,1.371,1.371,0,0,0,1.232.561h1.342a.489.489,0,0,1,.506.506v.792a.489.489,0,0,1-.506.506Zm8.4.22a4,4,0,0,1-3.234-1.353,5.385,5.385,0,0,1-1.144-3.6v-6.2a.489.489,0,0,1,.506-.506h1.1a.489.489,0,0,1,.506.506V43.16q0,3.278,2.86,3.278a2.869,2.869,0,0,0,2.2-.869,3.386,3.386,0,0,0,.814-2.409V37.066a.489.489,0,0,1,.506-.506h1.1a.456.456,0,0,1,.352.143.514.514,0,0,1,.132.363V47.494a.514.514,0,0,1-.132.363.456.456,0,0,1-.352.143h-1.034a.489.489,0,0,1-.506-.506v-.968a4.047,4.047,0,0,1-1.5,1.265A4.948,4.948,0,0,1,211.1,48.22Zm9.482-.22a.489.489,0,0,1-.506-.506V37.088a.53.53,0,0,1,.143-.374.474.474,0,0,1,.363-.154h1.012a.526.526,0,0,1,.528.528v.968a3.3,3.3,0,0,1,3.08-1.5h.858a.489.489,0,0,1,.506.506v.9a.456.456,0,0,1-.143.352.514.514,0,0,1-.363.132h-1.32a2.5,2.5,0,0,0-1.87.693,2.565,2.565,0,0,0-.682,1.881v6.468a.474.474,0,0,1-.154.363.53.53,0,0,1-.374.143Zm12.21.22a4.806,4.806,0,0,1-3.619-1.4,5.727,5.727,0,0,1-1.485-3.817l-.022-.748.022-.726a5.8,5.8,0,0,1,1.507-3.784,5.319,5.319,0,0,1,7.359.143,6.186,6.186,0,0,1,1.342,4.191v.374a.489.489,0,0,1-.506.506h-7.612v.2a4.076,4.076,0,0,0,.869,2.431,2.587,2.587,0,0,0,2.123,1,3.08,3.08,0,0,0,1.661-.407,3.262,3.262,0,0,0,.957-.847,1.281,1.281,0,0,1,.3-.319.825.825,0,0,1,.363-.055h1.078a.5.5,0,0,1,.33.11.379.379,0,0,1,.132.308,1.936,1.936,0,0,1-.6,1.166,4.98,4.98,0,0,1-1.694,1.177A5.975,5.975,0,0,1,232.791,48.22Zm3.014-6.776v-.066a3.656,3.656,0,0,0-.825-2.475,2.771,2.771,0,0,0-2.211-.957,2.707,2.707,0,0,0-2.189.957,3.72,3.72,0,0,0-.8,2.475v.066Z" transform="translate(522.646 1417)"/>
    <path id="Path_280" data-name="Path 280" d="M49.344,21a.489.489,0,0,1-.506-.506V6.128a.52.52,0,0,1,.143-.385.492.492,0,0,1,.363-.143H58.43a.492.492,0,0,1,.363.143.52.52,0,0,1,.143.385v.836a.514.514,0,0,1-.132.363.484.484,0,0,1-.374.143H50.95v4.818h7a.492.492,0,0,1,.363.143.52.52,0,0,1,.143.385v.814a.489.489,0,0,1-.506.506h-7V19.13h7.656a.46.46,0,0,1,.506.506v.858a.489.489,0,0,1-.506.506Zm12.012,0a.459.459,0,0,1-.319-.132.43.43,0,0,1-.143-.33.644.644,0,0,1,.154-.4l3.828-4.994-3.586-4.73a.586.586,0,0,1-.154-.4A.451.451,0,0,1,61.6,9.56H62.72a.691.691,0,0,1,.572.352l2.926,3.806,2.926-3.784a1.579,1.579,0,0,1,.253-.275.488.488,0,0,1,.319-.1h1.078a.451.451,0,0,1,.462.462.586.586,0,0,1-.154.4l-3.63,4.774,3.828,4.95a.644.644,0,0,1,.154.4.451.451,0,0,1-.462.462H69.826a.7.7,0,0,1-.572-.33l-3.08-4.026L63.05,20.67a1.525,1.525,0,0,1-.253.242.53.53,0,0,1-.319.088Zm16.7.22a4.98,4.98,0,0,1-3.685-1.331A5.334,5.334,0,0,1,72.95,16.16l-.022-.88.022-.88a5.334,5.334,0,0,1,1.419-3.729A4.98,4.98,0,0,1,78.054,9.34a5.762,5.762,0,0,1,2.684.572,4.183,4.183,0,0,1,1.639,1.408,3.406,3.406,0,0,1,.583,1.672.385.385,0,0,1-.132.352.555.555,0,0,1-.374.132H81.4a.521.521,0,0,1-.33-.088.906.906,0,0,1-.22-.352,2.879,2.879,0,0,0-1.056-1.507,3.048,3.048,0,0,0-1.716-.451,2.844,2.844,0,0,0-2.167.847,3.863,3.863,0,0,0-.869,2.585l-.022.792.022.748a3.889,3.889,0,0,0,.858,2.6,2.856,2.856,0,0,0,2.178.836,3.048,3.048,0,0,0,1.716-.451,2.879,2.879,0,0,0,1.056-1.507,1.036,1.036,0,0,1,.22-.363.48.48,0,0,1,.33-.1h1.056a.53.53,0,0,1,.374.143.413.413,0,0,1,.132.363,3.444,3.444,0,0,1-.583,1.661,4.16,4.16,0,0,1-1.628,1.419A5.747,5.747,0,0,1,78.054,21.22Zm12.1,0a4.806,4.806,0,0,1-3.619-1.4,5.727,5.727,0,0,1-1.485-3.817l-.022-.748.022-.726a5.8,5.8,0,0,1,1.507-3.784,5.319,5.319,0,0,1,7.359.143,6.186,6.186,0,0,1,1.342,4.191v.374a.489.489,0,0,1-.506.506H87.14v.2a4.076,4.076,0,0,0,.869,2.431,2.587,2.587,0,0,0,2.123,1,3.08,3.08,0,0,0,1.661-.407,3.262,3.262,0,0,0,.957-.847,1.281,1.281,0,0,1,.3-.319.825.825,0,0,1,.363-.055h1.078a.5.5,0,0,1,.33.11.379.379,0,0,1,.132.308,1.936,1.936,0,0,1-.605,1.166,4.98,4.98,0,0,1-1.694,1.177A5.975,5.975,0,0,1,90.154,21.22Zm3.014-6.776v-.066a3.656,3.656,0,0,0-.825-2.475,2.771,2.771,0,0,0-2.211-.957,2.707,2.707,0,0,0-2.189.957,3.72,3.72,0,0,0-.8,2.475v.066ZM98.426,21a.489.489,0,0,1-.506-.506V5.886a.489.489,0,0,1,.506-.506H99.46a.489.489,0,0,1,.506.506V20.494A.489.489,0,0,1,99.46,21Zm5.346,0a.489.489,0,0,1-.506-.506V5.886a.489.489,0,0,1,.506-.506h1.034a.489.489,0,0,1,.506.506V20.494a.489.489,0,0,1-.506.506Zm9.394.22a4.806,4.806,0,0,1-3.619-1.4,5.727,5.727,0,0,1-1.485-3.817l-.022-.748.022-.726a5.8,5.8,0,0,1,1.507-3.784,5.319,5.319,0,0,1,7.359.143,6.186,6.186,0,0,1,1.342,4.191v.374a.489.489,0,0,1-.506.506h-7.612v.2a4.076,4.076,0,0,0,.869,2.431,2.587,2.587,0,0,0,2.123,1,3.08,3.08,0,0,0,1.661-.407,3.262,3.262,0,0,0,.957-.847,1.281,1.281,0,0,1,.3-.319.825.825,0,0,1,.363-.055H117.5a.5.5,0,0,1,.33.11.379.379,0,0,1,.132.308,1.936,1.936,0,0,1-.605,1.166,4.98,4.98,0,0,1-1.694,1.177A5.975,5.975,0,0,1,113.166,21.22Zm3.014-6.776v-.066a3.656,3.656,0,0,0-.825-2.475,2.771,2.771,0,0,0-2.211-.957,2.707,2.707,0,0,0-2.189.957,3.72,3.72,0,0,0-.8,2.475v.066ZM121.416,21a.489.489,0,0,1-.506-.506V10.066a.489.489,0,0,1,.506-.506h1.034a.489.489,0,0,1,.506.506v.968a4.469,4.469,0,0,1,1.507-1.254,4.771,4.771,0,0,1,2.167-.44,4.128,4.128,0,0,1,3.289,1.353,5.286,5.286,0,0,1,1.177,3.6v6.2a.489.489,0,0,1-.506.506h-1.1a.489.489,0,0,1-.506-.506V14.4a3.532,3.532,0,0,0-.759-2.42,2.768,2.768,0,0,0-2.189-.858,2.869,2.869,0,0,0-2.2.869,3.386,3.386,0,0,0-.814,2.409v6.094a.489.489,0,0,1-.506.506Zm17.446.22a4.98,4.98,0,0,1-3.685-1.331,5.334,5.334,0,0,1-1.419-3.729l-.022-.88.022-.88a5.334,5.334,0,0,1,1.419-3.729,4.98,4.98,0,0,1,3.685-1.331,5.762,5.762,0,0,1,2.684.572,4.183,4.183,0,0,1,1.639,1.408,3.406,3.406,0,0,1,.583,1.672.385.385,0,0,1-.132.352.555.555,0,0,1-.374.132h-1.056a.521.521,0,0,1-.33-.088.906.906,0,0,1-.22-.352,2.879,2.879,0,0,0-1.056-1.507,3.049,3.049,0,0,0-1.716-.451,2.844,2.844,0,0,0-2.167.847,3.864,3.864,0,0,0-.869,2.585l-.022.792.022.748a3.889,3.889,0,0,0,.858,2.6,2.856,2.856,0,0,0,2.178.836,3.049,3.049,0,0,0,1.716-.451,2.879,2.879,0,0,0,1.056-1.507,1.035,1.035,0,0,1,.22-.363.48.48,0,0,1,.33-.1h1.056a.53.53,0,0,1,.374.143.413.413,0,0,1,.132.363,3.444,3.444,0,0,1-.583,1.661,4.16,4.16,0,0,1-1.628,1.419A5.747,5.747,0,0,1,138.862,21.22Zm12.1,0a4.806,4.806,0,0,1-3.619-1.4,5.727,5.727,0,0,1-1.485-3.817l-.022-.748.022-.726a5.8,5.8,0,0,1,1.507-3.784,5.319,5.319,0,0,1,7.359.143,6.186,6.186,0,0,1,1.342,4.191v.374a.489.489,0,0,1-.506.506h-7.612v.2a4.076,4.076,0,0,0,.869,2.431,2.587,2.587,0,0,0,2.123,1,3.08,3.08,0,0,0,1.661-.407,3.262,3.262,0,0,0,.957-.847,1.281,1.281,0,0,1,.3-.319.825.825,0,0,1,.363-.055H155.3a.5.5,0,0,1,.33.11.379.379,0,0,1,.132.308,1.936,1.936,0,0,1-.6,1.166,4.98,4.98,0,0,1-1.694,1.177A5.975,5.975,0,0,1,150.962,21.22Zm3.014-6.776v-.066a3.656,3.656,0,0,0-.825-2.475,2.771,2.771,0,0,0-2.211-.957,2.707,2.707,0,0,0-2.189.957,3.72,3.72,0,0,0-.8,2.475v.066Zm10.45-7.018a.489.489,0,0,1-.506-.506V5.732a.53.53,0,0,1,.143-.374.474.474,0,0,1,.363-.154h1.386a.526.526,0,0,1,.528.528V6.92a.474.474,0,0,1-.154.363.53.53,0,0,1-.374.143ZM164.6,21a.489.489,0,0,1-.506-.506V10.066a.489.489,0,0,1,.506-.506h1.056a.489.489,0,0,1,.506.506V20.494a.489.489,0,0,1-.506.506Zm5.324,0a.489.489,0,0,1-.506-.506V10.066a.489.489,0,0,1,.506-.506h1.034a.489.489,0,0,1,.506.506v.968a4.469,4.469,0,0,1,1.507-1.254,4.771,4.771,0,0,1,2.167-.44,4.128,4.128,0,0,1,3.289,1.353,5.286,5.286,0,0,1,1.177,3.6v6.2A.489.489,0,0,1,179.1,21H178a.489.489,0,0,1-.506-.506V14.4a3.532,3.532,0,0,0-.759-2.42,2.768,2.768,0,0,0-2.189-.858,2.869,2.869,0,0,0-2.2.869,3.386,3.386,0,0,0-.814,2.409v6.094a.489.489,0,0,1-.506.506Zm24.046.22a5.942,5.942,0,0,1-4.477-1.584,6.425,6.425,0,0,1-1.639-4.378q-.022-.594-.022-1.936,0-1.364.022-1.98a6.409,6.409,0,0,1,1.65-4.367,5.925,5.925,0,0,1,4.466-1.6,7.271,7.271,0,0,1,3.322.693,5.083,5.083,0,0,1,2.068,1.815,4.927,4.927,0,0,1,.77,2.4v.044a.375.375,0,0,1-.143.3.482.482,0,0,1-.319.121h-1.21q-.44,0-.55-.506a3.669,3.669,0,0,0-1.342-2.321,4.481,4.481,0,0,0-2.6-.671q-3.784,0-3.916,4.2-.022.594-.022,1.826t.022,1.87q.132,4.2,3.916,4.2a4.535,4.535,0,0,0,2.607-.671,3.568,3.568,0,0,0,1.331-2.321.715.715,0,0,1,.2-.4.532.532,0,0,1,.352-.11h1.21a.511.511,0,0,1,.341.121.343.343,0,0,1,.121.319,4.958,4.958,0,0,1-.77,2.42,5.083,5.083,0,0,1-2.068,1.815A7.271,7.271,0,0,1,193.972,21.22Zm13.09,0a4,4,0,0,1-3.234-1.353,5.385,5.385,0,0,1-1.144-3.6v-6.2a.489.489,0,0,1,.506-.506h1.1a.489.489,0,0,1,.506.506V16.16q0,3.278,2.86,3.278a2.869,2.869,0,0,0,2.2-.869,3.386,3.386,0,0,0,.814-2.409V10.066a.489.489,0,0,1,.506-.506h1.1a.456.456,0,0,1,.352.143.514.514,0,0,1,.132.363V20.494a.514.514,0,0,1-.132.363.456.456,0,0,1-.352.143h-1.034a.489.489,0,0,1-.506-.506v-.968a4.047,4.047,0,0,1-1.5,1.265A4.948,4.948,0,0,1,207.062,21.22Zm12.936,0a6.019,6.019,0,0,1-2.585-.495,4.392,4.392,0,0,1-1.562-1.133,1.868,1.868,0,0,1-.517-1.056.4.4,0,0,1,.165-.341.57.57,0,0,1,.341-.121h.99a.5.5,0,0,1,.4.22,4.373,4.373,0,0,0,1.144.968,3.321,3.321,0,0,0,1.65.352,3.438,3.438,0,0,0,1.859-.451,1.4,1.4,0,0,0,.715-1.243,1.275,1.275,0,0,0-.3-.869,2.389,2.389,0,0,0-1.012-.594,19.007,19.007,0,0,0-2.123-.561,5.559,5.559,0,0,1-2.717-1.21,2.748,2.748,0,0,1-.8-2.046,2.875,2.875,0,0,1,.5-1.6,3.565,3.565,0,0,1,1.452-1.232,5.142,5.142,0,0,1,2.3-.473,5.64,5.64,0,0,1,2.4.462,4.01,4.01,0,0,1,1.485,1.089,1.859,1.859,0,0,1,.495,1.045.43.43,0,0,1-.143.33.486.486,0,0,1-.341.132h-.924a.542.542,0,0,1-.44-.22,7.056,7.056,0,0,0-.6-.649,2.225,2.225,0,0,0-.726-.407,3.479,3.479,0,0,0-1.2-.176,2.576,2.576,0,0,0-1.628.451,1.428,1.428,0,0,0-.572,1.177,1.255,1.255,0,0,0,.242.781,2.11,2.11,0,0,0,.935.583,14.812,14.812,0,0,0,2.013.55,6.176,6.176,0,0,1,2.959,1.265,2.771,2.771,0,0,1,.869,2.1,2.884,2.884,0,0,1-.55,1.716,3.615,3.615,0,0,1-1.617,1.21A6.648,6.648,0,0,1,220,21.22ZM231.7,21q-3.476,0-3.476-3.872V11.32H226.51a.489.489,0,0,1-.506-.506v-.748a.489.489,0,0,1,.506-.506h1.716V5.886a.489.489,0,0,1,.506-.506h1.034a.489.489,0,0,1,.506.506V9.56H233a.489.489,0,0,1,.506.506v.748a.489.489,0,0,1-.506.506h-2.728v5.654a3.011,3.011,0,0,0,.374,1.661,1.371,1.371,0,0,0,1.232.561h1.342a.489.489,0,0,1,.506.506v.792a.489.489,0,0,1-.506.506Zm8.822.22a5,5,0,0,1-3.751-1.364,5.285,5.285,0,0,1-1.419-3.63l-.022-.946.022-.946a5.273,5.273,0,0,1,1.43-3.619,5.774,5.774,0,0,1,7.48,0,5.273,5.273,0,0,1,1.43,3.619q.022.242.022.946t-.022.946a5.285,5.285,0,0,1-1.419,3.63A5,5,0,0,1,240.524,21.22Zm0-1.694a2.816,2.816,0,0,0,2.189-.88,3.866,3.866,0,0,0,.869-2.53q.022-.22.022-.836t-.022-.836a3.866,3.866,0,0,0-.869-2.53,2.816,2.816,0,0,0-2.189-.88,2.851,2.851,0,0,0-2.2.88,3.749,3.749,0,0,0-.858,2.53l-.022.836.022.836a3.749,3.749,0,0,0,.858,2.53A2.851,2.851,0,0,0,240.524,19.526ZM248.972,21a.489.489,0,0,1-.506-.506V10.066a.489.489,0,0,1,.506-.506h.99a.489.489,0,0,1,.506.506v.77a3.788,3.788,0,0,1,3.19-1.5,3.552,3.552,0,0,1,3.454,2.024,3.905,3.905,0,0,1,1.5-1.474,4.33,4.33,0,0,1,2.178-.55,3.841,3.841,0,0,1,2.948,1.232,5.053,5.053,0,0,1,1.144,3.564v6.358a.489.489,0,0,1-.506.506h-1.034a.489.489,0,0,1-.506-.506v-6.16a3.5,3.5,0,0,0-.715-2.464,2.483,2.483,0,0,0-1.881-.748,2.416,2.416,0,0,0-1.782.759,3.4,3.4,0,0,0-.748,2.453v6.16A.489.489,0,0,1,257.2,21h-1.034a.489.489,0,0,1-.506-.506v-6.16a3.425,3.425,0,0,0-.737-2.464,2.5,2.5,0,0,0-1.859-.748,2.416,2.416,0,0,0-1.782.759,3.362,3.362,0,0,0-.748,2.431v6.182a.489.489,0,0,1-.506.506Zm23.628.22a4.806,4.806,0,0,1-3.619-1.4,5.727,5.727,0,0,1-1.485-3.817l-.022-.748.022-.726A5.8,5.8,0,0,1,269,10.748a5.319,5.319,0,0,1,7.359.143,6.186,6.186,0,0,1,1.342,4.191v.374a.489.489,0,0,1-.506.506h-7.612v.2a4.076,4.076,0,0,0,.869,2.431,2.587,2.587,0,0,0,2.123,1,3.08,3.08,0,0,0,1.661-.407,3.262,3.262,0,0,0,.957-.847,1.28,1.28,0,0,1,.3-.319.825.825,0,0,1,.363-.055h1.078a.5.5,0,0,1,.33.11.379.379,0,0,1,.132.308,1.936,1.936,0,0,1-.605,1.166,4.98,4.98,0,0,1-1.694,1.177A5.975,5.975,0,0,1,272.6,21.22Zm3.014-6.776v-.066a3.656,3.656,0,0,0-.825-2.475,2.772,2.772,0,0,0-2.211-.957,2.706,2.706,0,0,0-2.189.957,3.72,3.72,0,0,0-.8,2.475v.066ZM280.85,21a.489.489,0,0,1-.506-.506V10.088a.53.53,0,0,1,.143-.374.474.474,0,0,1,.363-.154h1.012a.526.526,0,0,1,.528.528v.968a3.3,3.3,0,0,1,3.08-1.5h.858a.489.489,0,0,1,.506.506v.9a.456.456,0,0,1-.143.352.514.514,0,0,1-.363.132h-1.32a2.5,2.5,0,0,0-1.87.693,2.565,2.565,0,0,0-.682,1.881v6.468a.474.474,0,0,1-.154.363.53.53,0,0,1-.374.143ZM112.209,48a.489.489,0,0,1-.506-.506V33.128a.52.52,0,0,1,.143-.385.492.492,0,0,1,.363-.143h9.086a.492.492,0,0,1,.363.143.52.52,0,0,1,.143.385v.836a.514.514,0,0,1-.132.363.484.484,0,0,1-.374.143h-7.48v4.818h7a.492.492,0,0,1,.363.143.52.52,0,0,1,.143.385v.814a.489.489,0,0,1-.506.506h-7V46.13h7.656a.46.46,0,0,1,.506.506v.858a.489.489,0,0,1-.506.506Zm12.012,0a.459.459,0,0,1-.319-.132.43.43,0,0,1-.143-.33.644.644,0,0,1,.154-.4l3.828-4.994-3.586-4.73a.586.586,0,0,1-.154-.4.451.451,0,0,1,.462-.462h1.122a.692.692,0,0,1,.572.352l2.926,3.806,2.926-3.784a1.579,1.579,0,0,1,.253-.275.488.488,0,0,1,.319-.1h1.078a.451.451,0,0,1,.462.462.586.586,0,0,1-.154.4l-3.63,4.774,3.828,4.95a.644.644,0,0,1,.154.4.451.451,0,0,1-.462.462h-1.166a.7.7,0,0,1-.572-.33l-3.08-4.026-3.124,4.026a1.525,1.525,0,0,1-.253.242.53.53,0,0,1-.319.088Zm12.914,4.18a.489.489,0,0,1-.506-.506V37.066a.489.489,0,0,1,.506-.506h1.012a.489.489,0,0,1,.506.506v.968a4.77,4.77,0,0,1,7.073-.242,6.226,6.226,0,0,1,1.243,3.74q.022.242.022.748t-.022.748a6.2,6.2,0,0,1-1.254,3.729,4.152,4.152,0,0,1-3.454,1.463,4.249,4.249,0,0,1-3.564-1.65v5.1a.514.514,0,0,1-.132.363.456.456,0,0,1-.352.143Zm4.664-5.742a2.643,2.643,0,0,0,2.277-.968,4.523,4.523,0,0,0,.781-2.552q.022-.22.022-.638,0-4.158-3.08-4.158a2.677,2.677,0,0,0-2.277,1,4.179,4.179,0,0,0-.825,2.387l-.022.836.022.858a3.676,3.676,0,0,0,.836,2.266A2.76,2.76,0,0,0,141.8,46.438Zm12.5,1.782a4.806,4.806,0,0,1-3.619-1.4,5.727,5.727,0,0,1-1.485-3.817l-.022-.748.022-.726a5.8,5.8,0,0,1,1.507-3.784,5.319,5.319,0,0,1,7.359.143,6.186,6.186,0,0,1,1.342,4.191v.374a.489.489,0,0,1-.506.506h-7.612v.2a4.076,4.076,0,0,0,.869,2.431,2.587,2.587,0,0,0,2.123,1,3.08,3.08,0,0,0,1.661-.407,3.262,3.262,0,0,0,.957-.847,1.281,1.281,0,0,1,.3-.319.825.825,0,0,1,.363-.055h1.078a.5.5,0,0,1,.33.11.379.379,0,0,1,.132.308,1.936,1.936,0,0,1-.6,1.166,4.98,4.98,0,0,1-1.694,1.177A5.975,5.975,0,0,1,154.295,48.22Zm3.014-6.776v-.066a3.656,3.656,0,0,0-.825-2.475,2.771,2.771,0,0,0-2.211-.957,2.707,2.707,0,0,0-2.189.957,3.72,3.72,0,0,0-.8,2.475v.066ZM162.545,48a.489.489,0,0,1-.506-.506V37.088a.53.53,0,0,1,.143-.374.474.474,0,0,1,.363-.154h1.012a.526.526,0,0,1,.528.528v.968a3.3,3.3,0,0,1,3.08-1.5h.858a.489.489,0,0,1,.506.506v.9a.456.456,0,0,1-.143.352.514.514,0,0,1-.363.132H166.7a2.5,2.5,0,0,0-1.87.693,2.565,2.565,0,0,0-.682,1.881v6.468a.474.474,0,0,1-.154.363.53.53,0,0,1-.374.143Zm8.184-13.574a.489.489,0,0,1-.506-.506V32.732a.53.53,0,0,1,.143-.374.474.474,0,0,1,.363-.154h1.386a.526.526,0,0,1,.528.528V33.92a.474.474,0,0,1-.154.363.53.53,0,0,1-.374.143ZM170.9,48a.489.489,0,0,1-.506-.506V37.066a.489.489,0,0,1,.506-.506h1.056a.489.489,0,0,1,.506.506V47.494a.489.489,0,0,1-.506.506Zm9.394.22a4.806,4.806,0,0,1-3.619-1.4,5.727,5.727,0,0,1-1.485-3.817l-.022-.748.022-.726a5.8,5.8,0,0,1,1.507-3.784,5.319,5.319,0,0,1,7.359.143,6.186,6.186,0,0,1,1.342,4.191v.374a.489.489,0,0,1-.506.506h-7.612v.2a4.076,4.076,0,0,0,.869,2.431,2.587,2.587,0,0,0,2.123,1,3.08,3.08,0,0,0,1.661-.407,3.262,3.262,0,0,0,.957-.847,1.281,1.281,0,0,1,.3-.319.825.825,0,0,1,.363-.055h1.078a.5.5,0,0,1,.33.11.379.379,0,0,1,.132.308,1.936,1.936,0,0,1-.6,1.166,4.98,4.98,0,0,1-1.694,1.177A5.975,5.975,0,0,1,180.3,48.22Zm3.014-6.776v-.066a3.656,3.656,0,0,0-.825-2.475,2.771,2.771,0,0,0-2.211-.957,2.707,2.707,0,0,0-2.189.957,3.72,3.72,0,0,0-.8,2.475v.066ZM188.549,48a.489.489,0,0,1-.506-.506V37.066a.489.489,0,0,1,.506-.506h1.034a.489.489,0,0,1,.506.506v.968A4.469,4.469,0,0,1,191.6,36.78a4.771,4.771,0,0,1,2.167-.44,4.128,4.128,0,0,1,3.289,1.353,5.286,5.286,0,0,1,1.177,3.6v6.2a.489.489,0,0,1-.506.506h-1.1a.489.489,0,0,1-.506-.506V41.4a3.532,3.532,0,0,0-.759-2.42,2.768,2.768,0,0,0-2.189-.858,2.869,2.869,0,0,0-2.2.869,3.386,3.386,0,0,0-.814,2.409v6.094a.489.489,0,0,1-.506.506ZM206,48.22a4.98,4.98,0,0,1-3.685-1.331,5.334,5.334,0,0,1-1.419-3.729l-.022-.88.022-.88a5.334,5.334,0,0,1,1.419-3.729A4.98,4.98,0,0,1,206,36.34a5.762,5.762,0,0,1,2.684.572,4.183,4.183,0,0,1,1.639,1.408,3.406,3.406,0,0,1,.583,1.672.385.385,0,0,1-.132.352.555.555,0,0,1-.374.132h-1.056a.521.521,0,0,1-.33-.088.907.907,0,0,1-.22-.352,2.879,2.879,0,0,0-1.056-1.507,3.048,3.048,0,0,0-1.716-.451,2.844,2.844,0,0,0-2.167.847,3.864,3.864,0,0,0-.869,2.585l-.022.792.022.748a3.889,3.889,0,0,0,.858,2.6,2.856,2.856,0,0,0,2.178.836,3.048,3.048,0,0,0,1.716-.451,2.879,2.879,0,0,0,1.056-1.507,1.036,1.036,0,0,1,.22-.363.48.48,0,0,1,.33-.1H210.4a.53.53,0,0,1,.374.143.413.413,0,0,1,.132.363,3.444,3.444,0,0,1-.583,1.661,4.16,4.16,0,0,1-1.628,1.419A5.747,5.747,0,0,1,206,48.22Zm12.1,0a4.806,4.806,0,0,1-3.619-1.4,5.727,5.727,0,0,1-1.485-3.817l-.022-.748.022-.726a5.8,5.8,0,0,1,1.507-3.784,5.319,5.319,0,0,1,7.359.143,6.186,6.186,0,0,1,1.342,4.191v.374a.489.489,0,0,1-.506.506h-7.612v.2a4.076,4.076,0,0,0,.869,2.431,2.587,2.587,0,0,0,2.123,1,3.08,3.08,0,0,0,1.661-.407,3.262,3.262,0,0,0,.957-.847,1.281,1.281,0,0,1,.3-.319.825.825,0,0,1,.363-.055h1.078a.5.5,0,0,1,.33.11.379.379,0,0,1,.132.308,1.936,1.936,0,0,1-.6,1.166,4.98,4.98,0,0,1-1.694,1.177A5.975,5.975,0,0,1,218.095,48.22Zm3.014-6.776v-.066a3.656,3.656,0,0,0-.825-2.475,2.771,2.771,0,0,0-2.211-.957,2.707,2.707,0,0,0-2.189.957,3.72,3.72,0,0,0-.8,2.475v.066Z" transform="translate(522.646 1489)"/>
  </g>
</svg>
