<svg xmlns="http://www.w3.org/2000/svg" width="319" height="354" viewBox="0 0 319 354">
  <g id="Group_297" data-name="Group 297" transform="translate(-522.646 -1194)">
    <g id="Rectangle_87" data-name="Rectangle 87" transform="translate(522.646 1266)" fill="#fff" stroke="#000" stroke-width="1">
      <rect width="319" height="67" rx="32" stroke="none"/>
      <rect x="0.5" y="0.5" width="318" height="66" rx="31.5" fill="none"/>
    </g>
    <rect id="Rectangle_129" data-name="Rectangle 129" width="319" height="67" rx="32" transform="translate(522.646 1194)" fill="#ed1c24"/>
    <g id="Rectangle_126" data-name="Rectangle 126" transform="translate(522.646 1338)" fill="#fff" stroke="#000" stroke-width="1">
      <rect width="319" height="67" rx="32" stroke="none"/>
      <rect x="0.5" y="0.5" width="318" height="66" rx="31.5" fill="none"/>
    </g>
    <g id="Rectangle_127" data-name="Rectangle 127" transform="translate(522.646 1409)" fill="#fff" stroke="#000" stroke-width="1">
      <rect width="319" height="67" rx="32" stroke="none"/>
      <rect x="0.5" y="0.5" width="318" height="66" rx="31.5" fill="none"/>
    </g>
    <g id="Rectangle_128" data-name="Rectangle 128" transform="translate(522.646 1481)" fill="#fff" stroke="#000" stroke-width="1">
      <rect width="319" height="67" rx="32" stroke="none"/>
      <rect x="0.5" y="0.5" width="318" height="66" rx="31.5" fill="none"/>
    </g>
    <path id="Path_318" data-name="Path 318" d="M118.657,15.24a1.2,1.2,0,0,1-.9-.341,1.352,1.352,0,0,1-.33-.979,1.352,1.352,0,0,1,.33-.979,1.2,1.2,0,0,1,.9-.341,1.151,1.151,0,0,1,.913.363,1.595,1.595,0,0,1,0,1.914A1.151,1.151,0,0,1,118.657,15.24Zm-1.3,18.04a4.592,4.592,0,0,1-1.562-.253,3.851,3.851,0,0,1-1.254-.737,4.431,4.431,0,0,1-1.188-1.782,7.093,7.093,0,0,1-.418-2.53,13.645,13.645,0,0,1,.231-2.541,12.48,12.48,0,0,1,.671-2.321h1.826a10.067,10.067,0,0,0-.561,2.123,16.684,16.684,0,0,0-.187,2.607,4.463,4.463,0,0,0,.737,2.75,2.507,2.507,0,0,0,2.123.968h1.078a3.9,3.9,0,0,0,2.805-.869,3.52,3.52,0,0,0,.891-2.629V17.33h1.87V27.912a5.531,5.531,0,0,1-1.32,4.015,5.594,5.594,0,0,1-4.158,1.353Zm21.208-7q.11,0,.11.088V27.89a.1.1,0,0,1-.11.11h-3.982a.1.1,0,0,1-.11-.11V26.372q0-.088.11-.088Zm-6.886,7a7.576,7.576,0,0,1-2.112-.286,7.011,7.011,0,0,1-1.848-.836l.88-1.474a9.549,9.549,0,0,0,1.463.627,5.225,5.225,0,0,0,1.661.253,3.268,3.268,0,0,0,2.343-.8,2.789,2.789,0,0,0,.847-2.123V28h-2.156a4.886,4.886,0,0,1-3.63-1.287,5.076,5.076,0,0,1-1.276-3.729,5.862,5.862,0,0,1,.737-3,4.98,4.98,0,0,1,2.1-1.958,6.955,6.955,0,0,1,3.19-.693h2.882v11.2a4.573,4.573,0,0,1-1.331,3.5A5.258,5.258,0,0,1,131.681,33.28Zm3.212-7V19.046h-.946A4.249,4.249,0,0,0,130.9,20.08a3.784,3.784,0,0,0-1.089,2.882,3.6,3.6,0,0,0,.748,2.519,2.953,2.953,0,0,0,2.266.8ZM145.409,15.24a1.2,1.2,0,0,1-.9-.341,1.352,1.352,0,0,1-.33-.979,1.352,1.352,0,0,1,.33-.979,1.2,1.2,0,0,1,.9-.341,1.151,1.151,0,0,1,.913.363,1.595,1.595,0,0,1,0,1.914A1.151,1.151,0,0,1,145.409,15.24Zm6.38,11.044a.1.1,0,0,1,.11.11v1.518q0,.088-.11.088H138.347a.1.1,0,0,1-.11-.11V26.372q0-.088.11-.088h3.344a5.133,5.133,0,0,1-.616-.99,5.241,5.241,0,0,1-.4-1.155,5.515,5.515,0,0,1-.132-1.177,5.847,5.847,0,0,1,.737-3.014,4.945,4.945,0,0,1,2.09-1.936,7.032,7.032,0,0,1,3.2-.682h2.882v8.954Zm-4.2,0V19.046h-.946a4.993,4.993,0,0,0-2.233.462,3.185,3.185,0,0,0-1.419,1.342,4.322,4.322,0,0,0-.484,2.112,4.448,4.448,0,0,0,.341,1.848,2.306,2.306,0,0,0,1.012,1.111,3.456,3.456,0,0,0,1.661.363ZM161.931,15.24a1.2,1.2,0,0,1-.9-.341,1.352,1.352,0,0,1-.33-.979,1.352,1.352,0,0,1,.33-.979,1.2,1.2,0,0,1,.9-.341,1.151,1.151,0,0,1,.913.363,1.595,1.595,0,0,1,0,1.914A1.151,1.151,0,0,1,161.931,15.24ZM151.569,28a.1.1,0,0,1-.11-.11V26.372q0-.088.11-.088h2.684v-15h1.87V22.06a10.9,10.9,0,0,1,1.628-2.75,6.274,6.274,0,0,1,2.057-1.65,5.445,5.445,0,0,1,2.409-.55,4.928,4.928,0,0,1,3.762,1.353,6.006,6.006,0,0,1,1.276,4.235V28Zm13.816-1.716v-3.5a4.261,4.261,0,0,0-.891-2.981,3.48,3.48,0,0,0-2.673-.957,3.988,3.988,0,0,0-2.134.627,6.828,6.828,0,0,0-1.9,1.87,15.293,15.293,0,0,0-1.661,3.135v1.8Zm15.576,0q.11,0,.11.088V27.89a.1.1,0,0,1-.11.11h-3.982a.1.1,0,0,1-.11-.11V26.372q0-.088.11-.088Zm-6.886,7a7.576,7.576,0,0,1-2.112-.286,7.011,7.011,0,0,1-1.848-.836l.88-1.474a9.55,9.55,0,0,0,1.463.627,5.225,5.225,0,0,0,1.661.253,3.268,3.268,0,0,0,2.343-.8,2.789,2.789,0,0,0,.847-2.123V28h-2.156a4.886,4.886,0,0,1-3.63-1.287,5.076,5.076,0,0,1-1.276-3.729,5.862,5.862,0,0,1,.737-3,4.98,4.98,0,0,1,2.1-1.958,6.955,6.955,0,0,1,3.19-.693h2.882v11.2a4.573,4.573,0,0,1-1.331,3.5A5.258,5.258,0,0,1,174.075,33.28Zm3.212-7V19.046h-.946a4.249,4.249,0,0,0-3.047,1.034,3.784,3.784,0,0,0-1.089,2.882,3.6,3.6,0,0,0,.748,2.519,2.953,2.953,0,0,0,2.266.8Zm6.182,0a13.139,13.139,0,0,1-.616-2.013,8.261,8.261,0,0,1,0-3.6,6.906,6.906,0,0,1,.594-1.65,6.4,6.4,0,0,1,1.859-1.078,6.065,6.065,0,0,1,2.167-.4,5.725,5.725,0,0,1,1.3.143,3.79,3.79,0,0,1,1.122.451,4.114,4.114,0,0,1,1.6,1.738,5.579,5.579,0,0,1,.561,2.53,8.087,8.087,0,0,1-.11,1.353,5.9,5.9,0,0,1-.352,1.243,2.715,2.715,0,0,0,1.045.99,3.549,3.549,0,0,0,1.551.286h.11q.11,0,.11.088V27.89a.1.1,0,0,1-.11.11h-.11a5.529,5.529,0,0,1-1.991-.319,4.54,4.54,0,0,1-1.6-1.111,4.454,4.454,0,0,1-1.628,1.078,5.392,5.392,0,0,1-1.936.352h-6.292a.1.1,0,0,1-.11-.11V26.372q0-.088.11-.088Zm1.166-4.136a11.415,11.415,0,0,0,.176,2,10.032,10.032,0,0,0,.66,2.134h1.562a2.911,2.911,0,0,0,1.661-.451,2.8,2.8,0,0,0,1.023-1.32,5.665,5.665,0,0,0,.352-2.123,3.346,3.346,0,0,0-.759-2.266,2.343,2.343,0,0,0-1.837-.88,3.868,3.868,0,0,0-1.375.253,4.817,4.817,0,0,0-1.2.649,3.548,3.548,0,0,0-.22.946Q184.635,21.576,184.635,22.148ZM194.073,28a.1.1,0,0,1-.11-.11V26.372q0-.088.11-.088h2.9v-15h1.958V28Zm9.262-16.72h1.958V28h-1.958Z" transform="translate(522.646 1278)"/>
    <path id="Path_320" data-name="Path 320" d="M52.833,26.592q.484-.11.99-.2t.968-.154a3.061,3.061,0,0,1-1.012-1.232,4.019,4.019,0,0,1-.4-1.782,4.371,4.371,0,0,1,.572-2.266,3.777,3.777,0,0,1,1.595-1.452A5.322,5.322,0,0,1,57.937,19a5.984,5.984,0,0,1,1.452.165,4.891,4.891,0,0,1,1.21.473l-.484,1.65a5.406,5.406,0,0,0-1.078-.429,4.024,4.024,0,0,0-1.056-.143,2.637,2.637,0,0,0-1.947.671,2.669,2.669,0,0,0-.671,1.969,2.973,2.973,0,0,0,.385,1.507,2.379,2.379,0,0,0,1,.979l.484-.066q1.122-.154,1.936-.242t1.353-.132q.539-.044.781-.044v1.782q-.44,0-1.287.077t-1.892.2q-1.045.121-2.1.264t-1.9.275q-.847.132-1.287.242Zm16.412-.308q.11,0,.11.088V27.89a.1.1,0,0,1-.11.11H64.383V11.28h1.958v15ZM69.025,28a.1.1,0,0,1-.11-.11V26.372q0-.088.11-.088h9.262V22.236a2.875,2.875,0,0,0-.99-2.42,4.963,4.963,0,0,0-3.058-.77H70.5v-1.8a10.724,10.724,0,0,1,.847-1.474,17.4,17.4,0,0,1,1.111-1.452,17.087,17.087,0,0,1,2.794-2.552,12.893,12.893,0,0,1,2.992-1.672l.7,1.672a12.893,12.893,0,0,0-2.035,1.023,15.843,15.843,0,0,0-1.925,1.386,13.511,13.511,0,0,0-1.6,1.573,7.606,7.606,0,0,0-1.067,1.584h1.914a7.02,7.02,0,0,1,4.4,1.188,4.05,4.05,0,0,1,1.518,3.388V28ZM85.679,15.24a1.2,1.2,0,0,1-.9-.341,1.352,1.352,0,0,1-.33-.979,1.352,1.352,0,0,1,.33-.979,1.2,1.2,0,0,1,.9-.341,1.151,1.151,0,0,1,.913.363,1.595,1.595,0,0,1,0,1.914A1.151,1.151,0,0,1,85.679,15.24ZM82.8,26.284h7.326a18.468,18.468,0,0,0-.4-1.958,12.09,12.09,0,0,0-.594-1.738,10.66,10.66,0,0,0-1.65-2.728,11.982,11.982,0,0,0-2.464-2.2l.7-1.672a10.074,10.074,0,0,1,2.97,2.343,12.664,12.664,0,0,1,2.112,3.454,18.091,18.091,0,0,1,1.188,4.5h2.442q.11,0,.11.088V27.89a.1.1,0,0,1-.11.11H82.8ZM94.215,28a.1.1,0,0,1-.11-.11V26.372q0-.088.11-.088h2.9v-15h1.958V28Zm14.124-1.716q.11,0,.11.088V27.89a.1.1,0,0,1-.11.11h-4.862V11.28h1.958v15Zm2.684,6.116a1.2,1.2,0,0,1-.9-.341,1.617,1.617,0,0,1,0-1.958,1.2,1.2,0,0,1,.9-.341,1.151,1.151,0,0,1,.913.363,1.595,1.595,0,0,1,0,1.914A1.151,1.151,0,0,1,111.023,32.4Zm-2.9-4.4a.1.1,0,0,1-.11-.11V26.372q0-.088.11-.088h2.9V17.33h1.958V28Zm20.218,7.062a5.6,5.6,0,0,1-2.442-.495,3.541,3.541,0,0,1-1.584-1.452,4.54,4.54,0,0,1-.55-2.3,4.021,4.021,0,0,1,.319-1.573,5.137,5.137,0,0,1,.946-1.452,7.969,7.969,0,0,1,1.573-1.309,6.337,6.337,0,0,1-1.078-1.243,5.177,5.177,0,0,1-.66-1.463,6.22,6.22,0,0,1-.22-1.672,4.875,4.875,0,0,1,.715-2.695,4.7,4.7,0,0,1,1.936-1.7,6.231,6.231,0,0,1,2.761-.594,7.743,7.743,0,0,1,1.2.088,8.145,8.145,0,0,1,1.045.231,4.383,4.383,0,0,1,.814.319l-.594,1.65a7.877,7.877,0,0,0-1.32-.429,5.722,5.722,0,0,0-1.254-.143,3.928,3.928,0,0,0-1.793.374,2.542,2.542,0,0,0-1.122,1.1,3.766,3.766,0,0,0-.385,1.782,6.062,6.062,0,0,0,.165,1.43,4.835,4.835,0,0,0,.473,1.232,3.836,3.836,0,0,0,.7.924q.9-.44,1.859-.825t1.925-.671L132.3,25.8a17.992,17.992,0,0,0-1.837.561,14.523,14.523,0,0,0-1.639.715,7.387,7.387,0,0,0-2.3,1.694,2.88,2.88,0,0,0-.759,1.87,2.484,2.484,0,0,0,.825,2.079,4.086,4.086,0,0,0,2.541.649q.374,0,.847-.033t1.078-.121q.605-.088,1.309-.2l.242,1.518q-1.034.22-1.771.33t-1.32.154Q128.931,35.062,128.337,35.062Zm18.04-8.778q.11,0,.11.088V27.89a.1.1,0,0,1-.11.11H142.4a.1.1,0,0,1-.11-.11V26.372q0-.088.11-.088Zm-6.886,7a7.576,7.576,0,0,1-2.112-.286,7.011,7.011,0,0,1-1.848-.836l.88-1.474a9.549,9.549,0,0,0,1.463.627,5.225,5.225,0,0,0,1.661.253,3.268,3.268,0,0,0,2.343-.8,2.789,2.789,0,0,0,.847-2.123V28h-2.156a4.886,4.886,0,0,1-3.63-1.287,5.076,5.076,0,0,1-1.276-3.729,5.862,5.862,0,0,1,.737-3,4.98,4.98,0,0,1,2.1-1.958,6.955,6.955,0,0,1,3.19-.693h2.882v11.2a4.573,4.573,0,0,1-1.331,3.5A5.258,5.258,0,0,1,139.491,33.28Zm3.212-7V19.046h-.946a4.249,4.249,0,0,0-3.047,1.034,3.784,3.784,0,0,0-1.089,2.882,3.6,3.6,0,0,0,.748,2.519,2.953,2.953,0,0,0,2.266.8ZM153.219,15.24a1.2,1.2,0,0,1-.9-.341,1.352,1.352,0,0,1-.33-.979,1.352,1.352,0,0,1,.33-.979,1.2,1.2,0,0,1,.9-.341,1.151,1.151,0,0,1,.913.363,1.595,1.595,0,0,1,0,1.914A1.151,1.151,0,0,1,153.219,15.24ZM146.157,28a.1.1,0,0,1-.11-.11V26.372q0-.088.11-.088H149.5a5.133,5.133,0,0,1-.616-.99,5.241,5.241,0,0,1-.4-1.155,5.515,5.515,0,0,1-.132-1.177,5.817,5.817,0,0,1,.737-2.981,5,5,0,0,1,2.09-1.958,6.938,6.938,0,0,1,3.2-.693h2.882V28Zm7.172-1.716H155.4V19.046h-.946a4.993,4.993,0,0,0-2.233.462,3.2,3.2,0,0,0-1.419,1.331,4.258,4.258,0,0,0-.484,2.1,4.448,4.448,0,0,0,.341,1.848,2.365,2.365,0,0,0,1.012,1.122A3.372,3.372,0,0,0,153.329,26.284Zm6.8,0h7.326a18.468,18.468,0,0,0-.4-1.958,12.09,12.09,0,0,0-.594-1.738,10.66,10.66,0,0,0-1.65-2.728,11.982,11.982,0,0,0-2.464-2.2l.7-1.672a10.074,10.074,0,0,1,2.97,2.343,12.664,12.664,0,0,1,2.112,3.454,18.091,18.091,0,0,1,1.188,4.5h2.442q.11,0,.11.088V27.89a.1.1,0,0,1-.11.11H160.127Zm14.146,0a13.139,13.139,0,0,1-.616-2.013,8.261,8.261,0,0,1,0-3.6,6.906,6.906,0,0,1,.594-1.65,6.4,6.4,0,0,1,1.859-1.078,6.065,6.065,0,0,1,2.167-.4,5.725,5.725,0,0,1,1.3.143,3.79,3.79,0,0,1,1.122.451,4.114,4.114,0,0,1,1.6,1.738,5.579,5.579,0,0,1,.561,2.53,8.087,8.087,0,0,1-.11,1.353,5.9,5.9,0,0,1-.352,1.243,2.715,2.715,0,0,0,1.045.99,3.549,3.549,0,0,0,1.551.286h.11q.11,0,.11.088V27.89a.1.1,0,0,1-.11.11h-.11A5.529,5.529,0,0,1,183,27.681a4.54,4.54,0,0,1-1.6-1.111,4.454,4.454,0,0,1-1.628,1.078,5.392,5.392,0,0,1-1.936.352h-6.292a.1.1,0,0,1-.11-.11V26.372q0-.088.11-.088Zm1.166-4.136a11.415,11.415,0,0,0,.176,2,10.032,10.032,0,0,0,.66,2.134h1.562a2.911,2.911,0,0,0,1.661-.451,2.8,2.8,0,0,0,1.023-1.32,5.665,5.665,0,0,0,.352-2.123,3.346,3.346,0,0,0-.759-2.266,2.343,2.343,0,0,0-1.837-.88,3.868,3.868,0,0,0-1.375.253,4.817,4.817,0,0,0-1.2.649,3.548,3.548,0,0,0-.22.946Q175.439,21.576,175.439,22.148ZM184.877,28a.1.1,0,0,1-.11-.11V26.372q0-.088.11-.088h2.9v-15h1.958V28Zm9.262-16.72H196.1V28h-1.958Zm17.49,22a4.1,4.1,0,0,1-2.354-.671,4.3,4.3,0,0,1-1.529-1.936,7.692,7.692,0,0,1-.539-3.025,17.332,17.332,0,0,1,.1-1.848,13.681,13.681,0,0,1,.308-1.782,11.193,11.193,0,0,1,.495-1.562h1.826a10.019,10.019,0,0,0-.561,2.244,20.842,20.842,0,0,0-.187,2.948,4.835,4.835,0,0,0,.748,2.893,2.463,2.463,0,0,0,2.112,1.023h1.078a3.9,3.9,0,0,0,2.8-.869,3.52,3.52,0,0,0,.891-2.629V11.28h1.87V27.912a5.531,5.531,0,0,1-1.32,4.015,5.594,5.594,0,0,1-4.158,1.353Zm21.538-7q.11,0,.11.088V27.89a.1.1,0,0,1-.11.11h-3.982a.1.1,0,0,1-.11-.11V26.372q0-.088.11-.088Zm-6.886,7a7.576,7.576,0,0,1-2.112-.286,7.011,7.011,0,0,1-1.848-.836l.88-1.474a9.549,9.549,0,0,0,1.463.627,5.225,5.225,0,0,0,1.661.253,3.268,3.268,0,0,0,2.343-.8,2.789,2.789,0,0,0,.847-2.123V28h-2.156a4.886,4.886,0,0,1-3.63-1.287,5.076,5.076,0,0,1-1.276-3.729,5.862,5.862,0,0,1,.737-3,4.98,4.98,0,0,1,2.1-1.958,6.955,6.955,0,0,1,3.19-.693h2.882v11.2a4.573,4.573,0,0,1-1.331,3.5A5.258,5.258,0,0,1,226.281,33.28Zm3.212-7V19.046h-.946A4.249,4.249,0,0,0,225.5,20.08a3.784,3.784,0,0,0-1.089,2.882,3.6,3.6,0,0,0,.748,2.519,2.953,2.953,0,0,0,2.266.8ZM232.947,28a.1.1,0,0,1-.11-.11V26.372q0-.088.11-.088h9.438a2.918,2.918,0,0,1-.539-.825,7.858,7.858,0,0,1-.462-1.342q-.209-.8-.385-1.859a9.653,9.653,0,0,0-.385-1.584,3.714,3.714,0,0,0-.55-1.067,1.872,1.872,0,0,0-.781-.594,2.8,2.8,0,0,0-1.056-.187,5.862,5.862,0,0,0-1.551.22,8.156,8.156,0,0,0-1.639.66l-.77-1.518a6.107,6.107,0,0,1,1.914-.847,8.89,8.89,0,0,1,2.068-.231,5.907,5.907,0,0,1,1.243.121,3.672,3.672,0,0,1,1,.363,3.718,3.718,0,0,1,1.034.847,4.18,4.18,0,0,1,.726,1.32,11.832,11.832,0,0,1,.484,1.991,20.741,20.741,0,0,0,.407,2.035,8.638,8.638,0,0,0,.528,1.518,3.488,3.488,0,0,0,.649.979H245.8q.11,0,.11.088V27.89a.1.1,0,0,1-.11.11Zm14.63-12.76a1.3,1.3,0,0,1-.869-.308,1.26,1.26,0,0,1-.363-1.012,1.26,1.26,0,0,1,.363-1.012,1.3,1.3,0,0,1,.869-.308,1.2,1.2,0,0,1,.9.341,1.352,1.352,0,0,1,.33.979,1.352,1.352,0,0,1-.33.979A1.2,1.2,0,0,1,247.577,15.24Zm3.806,0a1.2,1.2,0,0,1-.9-.341,1.352,1.352,0,0,1-.33-.979,1.352,1.352,0,0,1,.33-.979,1.2,1.2,0,0,1,.9-.341,1.151,1.151,0,0,1,.913.363,1.595,1.595,0,0,1,0,1.914A1.151,1.151,0,0,1,251.383,15.24ZM245.575,28a.1.1,0,0,1-.11-.11V26.372q0-.088.11-.088h3.564V17.33H251.1v8.954h3.3q.11,0,.11.088V27.89a.1.1,0,0,1-.11.11Zm8.6,0a.1.1,0,0,1-.11-.11V26.372q0-.088.11-.088h2.9v-15h1.958V28Zm9.262-16.72H265.4V28h-1.958ZM114.279,57.4a1.3,1.3,0,0,1-.869-.308,1.592,1.592,0,0,1,0-2.024,1.3,1.3,0,0,1,.869-.308,1.2,1.2,0,0,1,.9.341,1.617,1.617,0,0,1,0,1.958A1.2,1.2,0,0,1,114.279,57.4Zm3.806,0a1.2,1.2,0,0,1-.9-.341,1.617,1.617,0,0,1,0-1.958,1.2,1.2,0,0,1,.9-.341,1.151,1.151,0,0,1,.913.363,1.595,1.595,0,0,1,0,1.914A1.151,1.151,0,0,1,118.085,57.4Zm-4.62.88a4.251,4.251,0,0,1-2.365-.649,4.119,4.119,0,0,1-1.529-1.837,6.892,6.892,0,0,1-.528-2.816,9.734,9.734,0,0,1,.77-3.96h1.826a8.725,8.725,0,0,0-.484,1.793,13.726,13.726,0,0,0-.132,2.035,5.431,5.431,0,0,0,.33,2.013,2.544,2.544,0,0,0,2.53,1.7h4.092a5.836,5.836,0,0,0,1.87-.275,3.426,3.426,0,0,0,1.287-.726,1.339,1.339,0,0,0,.473-.979.969.969,0,0,0-.4-.781,3.6,3.6,0,0,0-1.232-.561q-1.078-.33-1.881-.649a2.984,2.984,0,0,1-1.243-.858,2.21,2.21,0,0,1-.44-1.441,4.074,4.074,0,0,1,.2-1.254,5.333,5.333,0,0,1,.572-1.21,5.965,5.965,0,0,1,1.221-1.386,5.791,5.791,0,0,1,1.529-.924,4.253,4.253,0,0,1,1.606-.33,3.586,3.586,0,0,1,.7.066,2.752,2.752,0,0,1,.616.2,3.663,3.663,0,0,1,1.078.781,10.792,10.792,0,0,1,1.254,1.7,21.319,21.319,0,0,0,1.232,1.826,5.181,5.181,0,0,0,.946.99,3.171,3.171,0,0,0,.682.385,2.027,2.027,0,0,0,.77.143h.11q.11,0,.11.088V52.89a.1.1,0,0,1-.11.11h-.11a3.9,3.9,0,0,1-1.2-.187,4.389,4.389,0,0,1-1.155-.583,8.754,8.754,0,0,1-1.188-1.012q-.11-.132-.4-.517t-.726-1q-.528-.748-.946-1.243a9.112,9.112,0,0,0-.726-.781,1.912,1.912,0,0,0-.594-.385,1.621,1.621,0,0,0-.594-.121,2.03,2.03,0,0,0-.968.275,4.121,4.121,0,0,0-.946.715,4.23,4.23,0,0,0-.715.935,1.935,1.935,0,0,0-.275.935.739.739,0,0,0,.231.539,1.807,1.807,0,0,0,.616.385q.385.154.8.286.814.22,1.364.418a6.87,6.87,0,0,1,.88.374,2.865,2.865,0,0,1,1,.825,1.78,1.78,0,0,1,.341,1.067,3.86,3.86,0,0,1-1.419,3.267,6.893,6.893,0,0,1-4.235,1.089ZM128.711,53a.1.1,0,0,1-.11-.11V51.372q0-.088.11-.088H132.1a3.537,3.537,0,0,1-.825-.99,5.52,5.52,0,0,1-.539-1.342,6.167,6.167,0,0,1-.2-1.584,5.758,5.758,0,0,1,.649-2.838,4.434,4.434,0,0,1,1.826-1.793,5.789,5.789,0,0,1,2.761-.627,7.707,7.707,0,0,1,1.749.187,5.626,5.626,0,0,1,1.309.451l-.594,1.65a7.877,7.877,0,0,0-1.32-.429,5.722,5.722,0,0,0-1.254-.143,3.424,3.424,0,0,0-1.738.407,2.461,2.461,0,0,0-1.045,1.21,5.171,5.171,0,0,0-.341,2.013,5.4,5.4,0,0,0,.341,2,3.129,3.129,0,0,0,.957,1.342,2.217,2.217,0,0,0,1.408.484h3.916V53Zm18.5-1.716q.11,0,.11.088V52.89a.1.1,0,0,1-.11.11h-4.862V36.28h1.958v15Zm3.212-11.044a1.2,1.2,0,0,1-.9-.341,1.617,1.617,0,0,1,0-1.958,1.2,1.2,0,0,1,.9-.341,1.151,1.151,0,0,1,.913.363,1.595,1.595,0,0,1,0,1.914A1.151,1.151,0,0,1,150.425,40.24ZM146.993,53a.1.1,0,0,1-.11-.11V51.372q0-.088.11-.088h2.9V42.33h1.958v8.954h2.86q.11,0,.11.088V52.89a.1.1,0,0,1-.11.11Zm7.5,0a.1.1,0,0,1-.11-.11V51.372q0-.088.11-.088h2.684v-15h1.87V47.06a10.9,10.9,0,0,1,1.628-2.75,6.274,6.274,0,0,1,2.057-1.65,5.445,5.445,0,0,1,2.409-.55,4.928,4.928,0,0,1,3.762,1.353,6.006,6.006,0,0,1,1.276,4.235v3.586h2.9q.11,0,.11.088V52.89a.1.1,0,0,1-.11.11Zm13.816-1.716v-3.5a4.261,4.261,0,0,0-.891-2.981,3.48,3.48,0,0,0-2.673-.957,3.988,3.988,0,0,0-2.134.627,6.828,6.828,0,0,0-1.9,1.87,15.293,15.293,0,0,0-1.661,3.135v1.8ZM172.865,53a.1.1,0,0,1-.11-.11V51.372q0-.088.11-.088h2.684V42.99h1.87v4.07a10.9,10.9,0,0,1,1.628-2.75,6.274,6.274,0,0,1,2.057-1.65,5.445,5.445,0,0,1,2.409-.55,4.928,4.928,0,0,1,3.762,1.353,6.006,6.006,0,0,1,1.276,4.235V53Zm13.816-1.716v-3.5a4.261,4.261,0,0,0-.891-2.981,3.48,3.48,0,0,0-2.673-.957,3.988,3.988,0,0,0-2.134.627,6.828,6.828,0,0,0-1.9,1.87,15.293,15.293,0,0,0-1.661,3.135v1.8Zm9.526.352L193.281,39.25h2.046l2.926,12.386Zm2.552-.352a2.253,2.253,0,0,0,1.749-.638,2.754,2.754,0,0,0,.583-1.914V36.28h1.958V49a3.9,3.9,0,0,1-1.111,2.915A4.045,4.045,0,0,1,198.979,53h-7.788V51.284Zm8.47-15h1.958V53h-1.958Z" transform="translate(522.646 1340)"/>
    <path id="Path_321" data-name="Path 321" d="M39.963,26.284q.11,0,.11.088V27.89a.1.1,0,0,1-.11.11H35.1V11.28h1.958v15ZM42.185,32.4a1.3,1.3,0,0,1-.869-.308,1.592,1.592,0,0,1,0-2.024,1.3,1.3,0,0,1,.869-.308,1.2,1.2,0,0,1,.9.341,1.617,1.617,0,0,1,0,1.958A1.2,1.2,0,0,1,42.185,32.4Zm3.806,0a1.2,1.2,0,0,1-.9-.341,1.617,1.617,0,0,1,0-1.958,1.2,1.2,0,0,1,.9-.341,1.151,1.151,0,0,1,.913.363,1.595,1.595,0,0,1,0,1.914A1.151,1.151,0,0,1,45.991,32.4ZM39.743,28a.1.1,0,0,1-.11-.11V26.372q0-.088.11-.088h3.564V17.33h1.958v8.954h3.3q.11,0,.11.088V27.89a.1.1,0,0,1-.11.11Zm14.08,4.4a1.2,1.2,0,0,1-.9-.341,1.617,1.617,0,0,1,0-1.958,1.2,1.2,0,0,1,.9-.341,1.151,1.151,0,0,1,.913.363,1.595,1.595,0,0,1,0,1.914A1.151,1.151,0,0,1,53.823,32.4ZM48.345,28a.1.1,0,0,1-.11-.11V26.372q0-.088.11-.088h9.438a3.738,3.738,0,0,1-.759-1.419,18.252,18.252,0,0,1-.627-2.607,8.9,8.9,0,0,0-.55-2.024,2.326,2.326,0,0,0-.858-1.078,2.539,2.539,0,0,0-1.364-.33,5.862,5.862,0,0,0-1.551.22,8.156,8.156,0,0,0-1.639.66l-.77-1.518a6.107,6.107,0,0,1,1.914-.847,8.89,8.89,0,0,1,2.068-.231,5.907,5.907,0,0,1,1.243.121,3.673,3.673,0,0,1,1,.363,3.445,3.445,0,0,1,1.441,1.419,8.64,8.64,0,0,1,.8,2.739q.22,1.3.462,2.2a7.422,7.422,0,0,0,.539,1.474,3.325,3.325,0,0,0,.649.9V28Zm25.146-1.716q.11,0,.11.088V27.89a.1.1,0,0,1-.11.11H69.509a.1.1,0,0,1-.11-.11V26.372q0-.088.11-.088Zm-6.886,7a7.576,7.576,0,0,1-2.112-.286,7.011,7.011,0,0,1-1.848-.836l.88-1.474a9.55,9.55,0,0,0,1.463.627,5.225,5.225,0,0,0,1.661.253,3.268,3.268,0,0,0,2.343-.8,2.789,2.789,0,0,0,.847-2.123V28H67.683a4.886,4.886,0,0,1-3.63-1.287,5.076,5.076,0,0,1-1.276-3.729,5.862,5.862,0,0,1,.737-3,4.98,4.98,0,0,1,2.1-1.958,6.955,6.955,0,0,1,3.19-.693h2.882v11.2a4.573,4.573,0,0,1-1.331,3.5A5.258,5.258,0,0,1,66.605,33.28Zm3.212-7V19.046h-.946a4.249,4.249,0,0,0-3.047,1.034,3.784,3.784,0,0,0-1.089,2.882,3.6,3.6,0,0,0,.748,2.519,2.953,2.953,0,0,0,2.266.8ZM73.271,28a.1.1,0,0,1-.11-.11V26.372q0-.088.11-.088h2.9v-15h1.958V28Zm19.338-1.716q.11,0,.11.088V27.89a.1.1,0,0,1-.11.11H88.627a.1.1,0,0,1-.11-.11V26.372q0-.088.11-.088Zm-6.886,7a7.576,7.576,0,0,1-2.112-.286,7.011,7.011,0,0,1-1.848-.836l.88-1.474a9.549,9.549,0,0,0,1.463.627,5.225,5.225,0,0,0,1.661.253,3.268,3.268,0,0,0,2.343-.8,2.789,2.789,0,0,0,.847-2.123V28H86.8a4.886,4.886,0,0,1-3.63-1.287,5.076,5.076,0,0,1-1.276-3.729,5.862,5.862,0,0,1,.737-3,4.98,4.98,0,0,1,2.1-1.958,6.955,6.955,0,0,1,3.19-.693h2.882v11.2a4.573,4.573,0,0,1-1.331,3.5A5.258,5.258,0,0,1,85.723,33.28Zm3.212-7V19.046h-.946a4.249,4.249,0,0,0-3.047,1.034,3.784,3.784,0,0,0-1.089,2.882,3.6,3.6,0,0,0,.748,2.519,2.953,2.953,0,0,0,2.266.8ZM95.821,15.24a1.2,1.2,0,0,1-.9-.341,1.352,1.352,0,0,1-.33-.979,1.352,1.352,0,0,1,.33-.979,1.2,1.2,0,0,1,.9-.341,1.151,1.151,0,0,1,.913.363,1.595,1.595,0,0,1,0,1.914A1.151,1.151,0,0,1,95.821,15.24ZM92.389,28a.1.1,0,0,1-.11-.11V26.372q0-.088.11-.088h2.9V17.33h1.958v8.954h2.86q.11,0,.11.088V27.89a.1.1,0,0,1-.11.11Zm7.5,0a.1.1,0,0,1-.11-.11V26.372q0-.088.11-.088h9.262V22.236a2.875,2.875,0,0,0-.99-2.42,4.963,4.963,0,0,0-3.058-.77h-3.74v-1.8a10.724,10.724,0,0,1,.847-1.474,17.4,17.4,0,0,1,1.111-1.452,17.087,17.087,0,0,1,2.794-2.552,12.893,12.893,0,0,1,2.992-1.672l.7,1.672a12.893,12.893,0,0,0-2.035,1.023,15.843,15.843,0,0,0-1.925,1.386,13.511,13.511,0,0,0-1.6,1.573,7.606,7.606,0,0,0-1.067,1.584H105.1a7.02,7.02,0,0,1,4.4,1.188,4.05,4.05,0,0,1,1.518,3.388v4.378h2.86q.11,0,.11.088V27.89a.1.1,0,0,1-.11.11Zm16.478-12.76a1.3,1.3,0,0,1-.869-.308,1.26,1.26,0,0,1-.363-1.012,1.26,1.26,0,0,1,.363-1.012,1.3,1.3,0,0,1,.869-.308,1.2,1.2,0,0,1,.9.341,1.352,1.352,0,0,1,.33.979,1.352,1.352,0,0,1-.33.979A1.2,1.2,0,0,1,116.369,15.24Zm3.806,0a1.2,1.2,0,0,1-.9-.341,1.352,1.352,0,0,1-.33-.979,1.352,1.352,0,0,1,.33-.979,1.2,1.2,0,0,1,.9-.341,1.151,1.151,0,0,1,.913.363,1.595,1.595,0,0,1,0,1.914A1.151,1.151,0,0,1,120.175,15.24ZM113.663,28a.1.1,0,0,1-.11-.11V26.372q0-.088.11-.088h4.224V17.33h1.958V28Zm20.328-12.76a1.3,1.3,0,0,1-.869-.308,1.26,1.26,0,0,1-.363-1.012,1.26,1.26,0,0,1,.363-1.012,1.3,1.3,0,0,1,.869-.308,1.2,1.2,0,0,1,.9.341,1.352,1.352,0,0,1,.33.979,1.352,1.352,0,0,1-.33.979A1.2,1.2,0,0,1,133.991,15.24Zm3.806,0a1.2,1.2,0,0,1-.9-.341,1.352,1.352,0,0,1-.33-.979,1.352,1.352,0,0,1,.33-.979,1.2,1.2,0,0,1,.9-.341,1.151,1.151,0,0,1,.913.363,1.595,1.595,0,0,1,0,1.914A1.151,1.151,0,0,1,137.8,15.24ZM136.5,28a6.882,6.882,0,0,1-3.014-.6,4.308,4.308,0,0,1-1.914-1.749,5.368,5.368,0,0,1-.66-2.728,5.742,5.742,0,0,1,.737-2.981,4.967,4.967,0,0,1,2.09-1.925,7.032,7.032,0,0,1,3.2-.682h1.452V15.944h1.87v10.34h2.508q.11,0,.11.088V27.89a.1.1,0,0,1-.11.11Zm1.892-1.716V19.046h-1.386a4.3,4.3,0,0,0-3.058,1.012,3.7,3.7,0,0,0-1.078,2.838,3.271,3.271,0,0,0,.935,2.519,3.75,3.75,0,0,0,2.651.869Zm6.886,0a13.139,13.139,0,0,1-.616-2.013,8.261,8.261,0,0,1,0-3.6,6.906,6.906,0,0,1,.594-1.65,6.4,6.4,0,0,1,1.859-1.078,6.065,6.065,0,0,1,2.167-.4,5.725,5.725,0,0,1,1.3.143,3.79,3.79,0,0,1,1.122.451,4.114,4.114,0,0,1,1.6,1.738,5.579,5.579,0,0,1,.561,2.53,8.087,8.087,0,0,1-.11,1.353,5.9,5.9,0,0,1-.352,1.243,2.715,2.715,0,0,0,1.045.99,3.549,3.549,0,0,0,1.551.286h.11q.11,0,.11.088V27.89a.1.1,0,0,1-.11.11h-.11A5.529,5.529,0,0,1,154,27.681a4.54,4.54,0,0,1-1.6-1.111,4.454,4.454,0,0,1-1.628,1.078,5.392,5.392,0,0,1-1.936.352h-6.292a.1.1,0,0,1-.11-.11V26.372q0-.088.11-.088Zm1.166-4.136a11.415,11.415,0,0,0,.176,2,10.032,10.032,0,0,0,.66,2.134h1.562a2.911,2.911,0,0,0,1.661-.451,2.8,2.8,0,0,0,1.023-1.32,5.665,5.665,0,0,0,.352-2.123,3.346,3.346,0,0,0-.759-2.266,2.343,2.343,0,0,0-1.837-.88,3.868,3.868,0,0,0-1.375.253,4.817,4.817,0,0,0-1.2.649,3.548,3.548,0,0,0-.22.946Q146.443,21.576,146.443,22.148ZM166,15.24a1.2,1.2,0,0,1-.9-.341,1.352,1.352,0,0,1-.33-.979,1.352,1.352,0,0,1,.33-.979,1.2,1.2,0,0,1,.9-.341,1.151,1.151,0,0,1,.913.363,1.595,1.595,0,0,1,0,1.914A1.151,1.151,0,0,1,166,15.24ZM155.881,28a.1.1,0,0,1-.11-.11V26.372q0-.088.11-.088h2.684v-15h1.87V22.06a10.9,10.9,0,0,1,1.628-2.75,6.274,6.274,0,0,1,2.057-1.65,5.445,5.445,0,0,1,2.409-.55,4.928,4.928,0,0,1,3.762,1.353,6.006,6.006,0,0,1,1.276,4.235v3.586h2.9q.11,0,.11.088V27.89a.1.1,0,0,1-.11.11ZM169.7,26.284v-3.5a4.261,4.261,0,0,0-.891-2.981,3.48,3.48,0,0,0-2.673-.957,3.988,3.988,0,0,0-2.134.627,6.828,6.828,0,0,0-1.9,1.87,15.293,15.293,0,0,0-1.661,3.135v1.8Zm7.986-11.044a1.2,1.2,0,0,1-.9-.341,1.352,1.352,0,0,1-.33-.979,1.352,1.352,0,0,1,.33-.979,1.2,1.2,0,0,1,.9-.341,1.151,1.151,0,0,1,.913.363,1.595,1.595,0,0,1,0,1.914A1.151,1.151,0,0,1,177.683,15.24ZM174.251,28a.1.1,0,0,1-.11-.11V26.372q0-.088.11-.088h2.9V17.33h1.958V28Zm7.634-17.49,1.034-.154a1.7,1.7,0,0,1-.572-.594,1.587,1.587,0,0,1-.2-.792,1.8,1.8,0,0,1,.616-1.463,2.449,2.449,0,0,1,1.628-.517,2.952,2.952,0,0,1,1.452.33l-.33.99a1.748,1.748,0,0,0-.495-.2,2.592,2.592,0,0,0-.6-.066,1.229,1.229,0,0,0-.814.275,1.04,1.04,0,0,0-.33.847,1.075,1.075,0,0,0,.187.638,1.175,1.175,0,0,0,.473.4q.44-.088.88-.143l.8-.1a4.942,4.942,0,0,1,.517-.044v1.078q-.418.022-.9.077t-1.034.121q-.55.066-1.133.154l-1.177.176Zm1.3,2.09h1.958V28h-1.958Zm9.548,20.68a7.576,7.576,0,0,1-2.112-.286,7.011,7.011,0,0,1-1.848-.836l.88-1.474a9.55,9.55,0,0,0,1.463.627,5.225,5.225,0,0,0,1.661.253,3.268,3.268,0,0,0,2.343-.8,2.789,2.789,0,0,0,.847-2.123V28h-2.156a4.886,4.886,0,0,1-3.63-1.287,5.076,5.076,0,0,1-1.276-3.729,5.862,5.862,0,0,1,.737-3,4.98,4.98,0,0,1,2.1-1.958,6.955,6.955,0,0,1,3.19-.693h2.882v11.2a4.573,4.573,0,0,1-1.331,3.5A5.258,5.258,0,0,1,192.731,33.28Zm3.212-7V19.046H195a4.249,4.249,0,0,0-3.047,1.034,3.784,3.784,0,0,0-1.089,2.882,3.6,3.6,0,0,0,.748,2.519,2.953,2.953,0,0,0,2.266.8ZM213.631,15.24a1.3,1.3,0,0,1-.869-.308,1.26,1.26,0,0,1-.363-1.012,1.26,1.26,0,0,1,.363-1.012,1.3,1.3,0,0,1,.869-.308,1.2,1.2,0,0,1,.9.341,1.352,1.352,0,0,1,.33.979,1.352,1.352,0,0,1-.33.979A1.2,1.2,0,0,1,213.631,15.24Zm3.806,0a1.2,1.2,0,0,1-.9-.341,1.352,1.352,0,0,1-.33-.979,1.352,1.352,0,0,1,.33-.979,1.2,1.2,0,0,1,.9-.341,1.151,1.151,0,0,1,.913.363,1.595,1.595,0,0,1,0,1.914A1.151,1.151,0,0,1,217.437,15.24ZM212.707,28a3.993,3.993,0,0,1-3-1.144,4.293,4.293,0,0,1-1.111-3.124,10.136,10.136,0,0,1,.066-1.089,10.561,10.561,0,0,1,.2-1.188,9.423,9.423,0,0,1,.286-1.023h1.76q-.154.792-.242,1.584a14.137,14.137,0,0,0-.088,1.562,3.137,3.137,0,0,0,.572,1.958,1.8,1.8,0,0,0,1.5.748h7.9V17.33h1.87V28Zm18.634-1.716q.11,0,.11.088V27.89a.1.1,0,0,1-.11.11h-4.862V11.28h1.958v15ZM231.121,28a.1.1,0,0,1-.11-.11V26.372q0-.088.11-.088h9.262V22.236a2.875,2.875,0,0,0-.99-2.42,4.963,4.963,0,0,0-3.058-.77H232.6v-1.8a10.722,10.722,0,0,1,.847-1.474,17.4,17.4,0,0,1,1.111-1.452,17.087,17.087,0,0,1,2.794-2.552,12.893,12.893,0,0,1,2.992-1.672l.7,1.672a12.894,12.894,0,0,0-2.035,1.023,15.843,15.843,0,0,0-1.925,1.386,13.511,13.511,0,0,0-1.6,1.573,7.605,7.605,0,0,0-1.067,1.584h1.914a7.02,7.02,0,0,1,4.4,1.188,4.05,4.05,0,0,1,1.518,3.388v4.378h2.86q.11,0,.11.088V27.89a.1.1,0,0,1-.11.11Zm17.534,4.4a1.2,1.2,0,0,1-.9-.341,1.617,1.617,0,0,1,0-1.958,1.2,1.2,0,0,1,.9-.341,1.151,1.151,0,0,1,.913.363,1.595,1.595,0,0,1,0,1.914A1.151,1.151,0,0,1,248.655,32.4ZM244.893,28a.1.1,0,0,1-.11-.11V26.372q0-.088.11-.088h2.9V17.33h1.958v8.954h2.86q.11,0,.11.088V27.89a.1.1,0,0,1-.11.11Zm17.754-15.73a1.2,1.2,0,0,1-.814-.286,1.162,1.162,0,0,1-.33-.924,1.162,1.162,0,0,1,.33-.924,1.2,1.2,0,0,1,.814-.286,1.183,1.183,0,0,1,.8.3,1.147,1.147,0,0,1,.341.913,1.142,1.142,0,0,1-.341.924A1.21,1.21,0,0,1,262.647,12.27Zm-1.892,2.97a1.3,1.3,0,0,1-.869-.308,1.26,1.26,0,0,1-.363-1.012,1.26,1.26,0,0,1,.363-1.012,1.3,1.3,0,0,1,.869-.308,1.151,1.151,0,0,1,.913.363,1.595,1.595,0,0,1,0,1.914A1.151,1.151,0,0,1,260.755,15.24Zm3.806,0a1.2,1.2,0,0,1-.9-.341,1.352,1.352,0,0,1-.33-.979,1.352,1.352,0,0,1,.33-.979,1.2,1.2,0,0,1,.9-.341,1.151,1.151,0,0,1,.913.363,1.595,1.595,0,0,1,0,1.914A1.151,1.151,0,0,1,264.561,15.24ZM266.739,28a4.93,4.93,0,0,1-1.826-.33,5.214,5.214,0,0,1-1.716-1.21,3.662,3.662,0,0,1-1.287,1.111,4.034,4.034,0,0,1-1.925.429H252.4a.1.1,0,0,1-.11-.11V26.372q0-.088.11-.088h3.146V19.046h1.87v7.238h2.376a2.042,2.042,0,0,0,1.65-.7,2.769,2.769,0,0,0,.594-1.848V19.046h1.87V24.2a2.923,2.923,0,0,1-.022.363,3.6,3.6,0,0,0,1.2,1.331,3.219,3.219,0,0,0,1.661.385h1.342V17.33h1.87v8.954H272.9q.11,0,.11.088V27.89a.1.1,0,0,1-.11.11Zm5.94,0a.1.1,0,0,1-.11-.11V26.372q0-.088.11-.088h2.9v-15h1.958V28Zm9.262-16.72H283.9V28h-1.958ZM66.583,40.24a1.3,1.3,0,0,1-.869-.308,1.592,1.592,0,0,1,0-2.024,1.3,1.3,0,0,1,.869-.308,1.2,1.2,0,0,1,.9.341,1.617,1.617,0,0,1,0,1.958A1.2,1.2,0,0,1,66.583,40.24Zm3.806,0a1.2,1.2,0,0,1-.9-.341,1.617,1.617,0,0,1,0-1.958,1.2,1.2,0,0,1,.9-.341,1.151,1.151,0,0,1,.913.363,1.595,1.595,0,0,1,0,1.914A1.151,1.151,0,0,1,70.389,40.24ZM69.091,53a6.882,6.882,0,0,1-3.014-.6,4.308,4.308,0,0,1-1.914-1.749,5.368,5.368,0,0,1-.66-2.728,5.742,5.742,0,0,1,.737-2.981,4.967,4.967,0,0,1,2.09-1.925,7.032,7.032,0,0,1,3.2-.682h1.452V40.944h1.87v10.34h2.508q.11,0,.11.088V52.89a.1.1,0,0,1-.11.11Zm1.892-1.716V44.046H69.6a4.3,4.3,0,0,0-3.058,1.012A3.7,3.7,0,0,0,65.461,47.9a3.271,3.271,0,0,0,.935,2.519,3.75,3.75,0,0,0,2.651.869Zm6.6,6.116a1.3,1.3,0,0,1-.869-.308,1.592,1.592,0,0,1,0-2.024,1.3,1.3,0,0,1,.869-.308,1.2,1.2,0,0,1,.9.341,1.617,1.617,0,0,1,0,1.958A1.2,1.2,0,0,1,77.583,57.4Zm3.806,0a1.2,1.2,0,0,1-.9-.341,1.617,1.617,0,0,1,0-1.958,1.2,1.2,0,0,1,.9-.341,1.151,1.151,0,0,1,.913.363,1.595,1.595,0,0,1,0,1.914A1.151,1.151,0,0,1,81.389,57.4ZM75.141,53a.1.1,0,0,1-.11-.11V51.372q0-.088.11-.088h3.564V42.33h1.958v8.954h3.3q.11,0,.11.088V52.89a.1.1,0,0,1-.11.11Zm22.946,0a4.93,4.93,0,0,1-1.826-.33,5.214,5.214,0,0,1-1.716-1.21,3.662,3.662,0,0,1-1.287,1.111A4.034,4.034,0,0,1,91.333,53h-7.59a.1.1,0,0,1-.11-.11V51.372q0-.088.11-.088h3.146V44.046h1.87v7.238h2.376a2.042,2.042,0,0,0,1.65-.7,2.769,2.769,0,0,0,.594-1.848V44.046h1.87v5.159a2.926,2.926,0,0,1-.022.363,3.6,3.6,0,0,0,1.2,1.331,3.219,3.219,0,0,0,1.661.385h1.342V42.33h1.87v8.954h2.948q.11,0,.11.088V52.89a.1.1,0,0,1-.11.11Zm13-12.76a1.2,1.2,0,0,1-.9-.341,1.617,1.617,0,0,1,0-1.958,1.2,1.2,0,0,1,.9-.341,1.151,1.151,0,0,1,.913.363,1.595,1.595,0,0,1,0,1.914A1.151,1.151,0,0,1,111.089,40.24ZM104.027,53a.1.1,0,0,1-.11-.11V51.372q0-.088.11-.088h3.344a5.132,5.132,0,0,1-.616-.99,5.242,5.242,0,0,1-.4-1.155,5.514,5.514,0,0,1-.132-1.177,5.817,5.817,0,0,1,.737-2.981,5,5,0,0,1,2.09-1.958,6.938,6.938,0,0,1,3.2-.693h2.882V53Zm7.172-1.716h2.068V44.046h-.946a4.993,4.993,0,0,0-2.233.462,3.2,3.2,0,0,0-1.419,1.331,4.258,4.258,0,0,0-.484,2.1,4.448,4.448,0,0,0,.341,1.848,2.365,2.365,0,0,0,1.012,1.122A3.372,3.372,0,0,0,111.2,51.284Zm12.87,0q.11,0,.11.088V52.89a.1.1,0,0,1-.11.11h-4.862V36.28h1.958v15Zm3.212-11.044a1.2,1.2,0,0,1-.9-.341,1.617,1.617,0,0,1,0-1.958,1.2,1.2,0,0,1,.9-.341,1.151,1.151,0,0,1,.913.363,1.595,1.595,0,0,1,0,1.914A1.151,1.151,0,0,1,127.281,40.24ZM123.849,53a.1.1,0,0,1-.11-.11V51.372q0-.088.11-.088h2.9V42.33h1.958v8.954h2.86q.11,0,.11.088V52.89a.1.1,0,0,1-.11.11Zm9.5-12.76a1.3,1.3,0,0,1-.869-.308,1.592,1.592,0,0,1,0-2.024,1.3,1.3,0,0,1,.869-.308,1.2,1.2,0,0,1,.9.341,1.617,1.617,0,0,1,0,1.958A1.2,1.2,0,0,1,133.353,40.24Zm3.806,0a1.2,1.2,0,0,1-.9-.341,1.617,1.617,0,0,1,0-1.958,1.2,1.2,0,0,1,.9-.341,1.151,1.151,0,0,1,.913.363,1.595,1.595,0,0,1,0,1.914A1.151,1.151,0,0,1,137.159,40.24ZM131.351,53a.1.1,0,0,1-.11-.11V51.372q0-.088.11-.088h3.564V42.33h1.958v8.954h3.3q.11,0,.11.088V52.89a.1.1,0,0,1-.11.11Zm8.6,0a.1.1,0,0,1-.11-.11V51.372q0-.088.11-.088h2.9v-15h1.958V53Zm9.262-16.72h1.958V53h-1.958Zm18.106,3.96a1.3,1.3,0,0,1-.869-.308,1.592,1.592,0,0,1,0-2.024,1.3,1.3,0,0,1,.869-.308,1.2,1.2,0,0,1,.9.341,1.617,1.617,0,0,1,0,1.958A1.2,1.2,0,0,1,167.321,40.24Zm3.806,0a1.2,1.2,0,0,1-.9-.341,1.617,1.617,0,0,1,0-1.958,1.2,1.2,0,0,1,.9-.341,1.151,1.151,0,0,1,.913.363,1.595,1.595,0,0,1,0,1.914A1.151,1.151,0,0,1,171.127,40.24ZM166.4,53a3.993,3.993,0,0,1-3-1.144,4.293,4.293,0,0,1-1.111-3.124,10.136,10.136,0,0,1,.066-1.089,10.561,10.561,0,0,1,.2-1.188,9.424,9.424,0,0,1,.286-1.023h1.76q-.154.792-.242,1.584a14.137,14.137,0,0,0-.088,1.562,3.137,3.137,0,0,0,.572,1.958,1.8,1.8,0,0,0,1.5.748h7.9V42.33h1.87V53Zm18.634-1.716q.11,0,.11.088V52.89a.1.1,0,0,1-.11.11h-4.862V36.28h1.958v15ZM184.811,53a.1.1,0,0,1-.11-.11V51.372q0-.088.11-.088h2.728a13.139,13.139,0,0,1-.616-2.013,8.261,8.261,0,0,1,0-3.6,6.906,6.906,0,0,1,.594-1.65,6.4,6.4,0,0,1,1.859-1.078,6.065,6.065,0,0,1,2.167-.4,5.725,5.725,0,0,1,1.3.143,3.79,3.79,0,0,1,1.122.451,4.114,4.114,0,0,1,1.6,1.738,5.579,5.579,0,0,1,.561,2.53,7.915,7.915,0,0,1-.154,1.617A5.948,5.948,0,0,1,195.5,50.4a4.421,4.421,0,0,1-1.771,1.925A5.137,5.137,0,0,1,191.1,53Zm3.894-5.852a11.415,11.415,0,0,0,.176,2,10.032,10.032,0,0,0,.66,2.134H191.1a2.911,2.911,0,0,0,1.661-.451,2.8,2.8,0,0,0,1.023-1.32,5.665,5.665,0,0,0,.352-2.123,3.346,3.346,0,0,0-.759-2.266,2.343,2.343,0,0,0-1.837-.88,3.868,3.868,0,0,0-1.375.253,4.817,4.817,0,0,0-1.2.649,3.548,3.548,0,0,0-.22.946Q188.7,46.576,188.7,47.148Zm21.12,4.136q.11,0,.11.088V52.89a.1.1,0,0,1-.11.11h-3.982a.1.1,0,0,1-.11-.11V51.372q0-.088.11-.088Zm-6.886,7a7.576,7.576,0,0,1-2.112-.286,7.011,7.011,0,0,1-1.848-.836l.88-1.474a9.55,9.55,0,0,0,1.463.627,5.225,5.225,0,0,0,1.661.253,3.268,3.268,0,0,0,2.343-.8,2.789,2.789,0,0,0,.847-2.123V53h-2.156a4.886,4.886,0,0,1-3.63-1.287,5.076,5.076,0,0,1-1.276-3.729,5.862,5.862,0,0,1,.737-3,4.98,4.98,0,0,1,2.1-1.958,6.955,6.955,0,0,1,3.19-.693h2.882v11.2a4.573,4.573,0,0,1-1.331,3.5A5.258,5.258,0,0,1,202.939,58.28Zm3.212-7V44.046h-.946a4.249,4.249,0,0,0-3.047,1.034,3.784,3.784,0,0,0-1.089,2.882,3.6,3.6,0,0,0,.748,2.519,2.953,2.953,0,0,0,2.266.8ZM209.6,53a.1.1,0,0,1-.11-.11V51.372q0-.088.11-.088h2.9v-15h1.958v15h2.86q.11,0,.11.088V52.89a.1.1,0,0,1-.11.11Zm18.216,0a8,8,0,0,1-1.991-.275,9.1,9.1,0,0,1-2.079-.825,8.475,8.475,0,0,1-1.991.825,8.058,8.058,0,0,1-2.1.275h-2.552a.1.1,0,0,1-.11-.11V51.372q0-.088.11-.088h2.53a8.859,8.859,0,0,0,1.452-.11,4.975,4.975,0,0,0,1.166-.33,7.086,7.086,0,0,1-.858-.759,11.537,11.537,0,0,1-.88-1.023,13.649,13.649,0,0,1-1.5-2.5,9.925,9.925,0,0,1-.814-2.519,9.851,9.851,0,0,1,1.749-1.287,8.784,8.784,0,0,1,1.969-.836,7.46,7.46,0,0,1,2.068-.3,9.327,9.327,0,0,1,2.794.44,9.122,9.122,0,0,1,2.464,1.166,9.227,9.227,0,0,1-.473,2.937,9.126,9.126,0,0,1-1.364,2.607,9.225,9.225,0,0,1-2.123,2.046,8.707,8.707,0,0,0,1.221.341,6.211,6.211,0,0,0,1.221.121h2.662q.11,0,.11.088V52.89a.1.1,0,0,1-.11.11Zm-4.048-3.146a8.223,8.223,0,0,0,2.519-2.519,6.9,6.9,0,0,0,.935-3.179,6.534,6.534,0,0,0-3.168-.814,5.576,5.576,0,0,0-1.243.143,6.7,6.7,0,0,0-1.243.418,7.874,7.874,0,0,0-1.254.715,8.218,8.218,0,0,0,.7,1.969,8.98,8.98,0,0,0,1.188,1.782A10.318,10.318,0,0,0,223.773,49.854Zm9.13,1.43a13.139,13.139,0,0,1-.616-2.013,8.261,8.261,0,0,1,0-3.6,6.906,6.906,0,0,1,.594-1.65,6.4,6.4,0,0,1,1.859-1.078,6.065,6.065,0,0,1,2.167-.4,5.725,5.725,0,0,1,1.3.143,3.79,3.79,0,0,1,1.122.451,4.114,4.114,0,0,1,1.6,1.738,5.579,5.579,0,0,1,.561,2.53,8.087,8.087,0,0,1-.11,1.353,5.9,5.9,0,0,1-.352,1.243,2.715,2.715,0,0,0,1.045.99,3.549,3.549,0,0,0,1.551.286h.11q.11,0,.11.088V52.89a.1.1,0,0,1-.11.11h-.11a5.529,5.529,0,0,1-1.991-.319,4.54,4.54,0,0,1-1.6-1.111,4.454,4.454,0,0,1-1.628,1.078,5.392,5.392,0,0,1-1.936.352h-6.292a.1.1,0,0,1-.11-.11V51.372q0-.088.11-.088Zm1.166-4.136a11.415,11.415,0,0,0,.176,2,10.032,10.032,0,0,0,.66,2.134h1.562a2.911,2.911,0,0,0,1.661-.451,2.8,2.8,0,0,0,1.023-1.32,5.665,5.665,0,0,0,.352-2.123,3.346,3.346,0,0,0-.759-2.266,2.343,2.343,0,0,0-1.837-.88,3.868,3.868,0,0,0-1.375.253,4.817,4.817,0,0,0-1.2.649,3.548,3.548,0,0,0-.22.946Q234.069,46.576,234.069,47.148ZM243.507,53a.1.1,0,0,1-.11-.11V51.372q0-.088.11-.088h2.9v-15h1.958V53Zm9.262-16.72h1.958V53h-1.958Z" transform="translate(523.646 1413)"/>
    <path id="Path_322" data-name="Path 322" d="M49.478,26.592q.484-.11.99-.2t.968-.154a3.061,3.061,0,0,1-1.012-1.232,4.019,4.019,0,0,1-.4-1.782A4.371,4.371,0,0,1,50.6,20.96a3.777,3.777,0,0,1,1.595-1.452A5.322,5.322,0,0,1,54.582,19a5.984,5.984,0,0,1,1.452.165,4.891,4.891,0,0,1,1.21.473l-.484,1.65a5.406,5.406,0,0,0-1.078-.429,4.024,4.024,0,0,0-1.056-.143,2.637,2.637,0,0,0-1.947.671,2.669,2.669,0,0,0-.671,1.969,2.973,2.973,0,0,0,.385,1.507,2.379,2.379,0,0,0,1,.979l.484-.066q1.122-.154,1.936-.242t1.353-.132q.539-.044.781-.044v1.782q-.44,0-1.287.077t-1.892.2q-1.045.121-2.1.264t-1.9.275q-.847.132-1.287.242Zm15.356.044L61.908,14.25h2.046L66.88,26.636Zm4.884-.352v-15h1.958v15h2.86q.11,0,.11.088V27.89a.1.1,0,0,1-.11.11H59.818V26.284Zm7.326,0a13.139,13.139,0,0,1-.616-2.013,8.261,8.261,0,0,1,0-3.6,6.905,6.905,0,0,1,.594-1.65,6.4,6.4,0,0,1,1.859-1.078,6.065,6.065,0,0,1,2.167-.4,5.725,5.725,0,0,1,1.3.143,3.79,3.79,0,0,1,1.122.451,4.115,4.115,0,0,1,1.6,1.738,5.579,5.579,0,0,1,.561,2.53,8.087,8.087,0,0,1-.11,1.353,5.9,5.9,0,0,1-.352,1.243,2.715,2.715,0,0,0,1.045.99,3.549,3.549,0,0,0,1.551.286h.11q.11,0,.11.088V27.89a.1.1,0,0,1-.11.11h-.11a5.529,5.529,0,0,1-1.991-.319,4.54,4.54,0,0,1-1.6-1.111,4.453,4.453,0,0,1-1.628,1.078A5.392,5.392,0,0,1,80.608,28H74.316a.1.1,0,0,1-.11-.11V26.372q0-.088.11-.088Zm1.166-4.136a11.416,11.416,0,0,0,.176,2,10.032,10.032,0,0,0,.66,2.134h1.562a2.911,2.911,0,0,0,1.661-.451,2.8,2.8,0,0,0,1.023-1.32,5.664,5.664,0,0,0,.352-2.123,3.346,3.346,0,0,0-.759-2.266,2.343,2.343,0,0,0-1.837-.88,3.867,3.867,0,0,0-1.375.253,4.817,4.817,0,0,0-1.2.649,3.548,3.548,0,0,0-.22.946Q78.21,21.576,78.21,22.148ZM98.362,28a8,8,0,0,1-1.991-.275,9.1,9.1,0,0,1-2.079-.825,8.475,8.475,0,0,1-1.991.825A8.058,8.058,0,0,1,90.2,28H87.648a.1.1,0,0,1-.11-.11V26.372q0-.088.11-.088h2.53a8.859,8.859,0,0,0,1.452-.11,4.975,4.975,0,0,0,1.166-.33,7.086,7.086,0,0,1-.858-.759,11.533,11.533,0,0,1-.88-1.023,13.649,13.649,0,0,1-1.5-2.5,9.924,9.924,0,0,1-.814-2.519A9.852,9.852,0,0,1,90.5,17.759a8.784,8.784,0,0,1,1.969-.836,7.46,7.46,0,0,1,2.068-.3,9.328,9.328,0,0,1,2.794.44,9.122,9.122,0,0,1,2.464,1.166,9.227,9.227,0,0,1-.473,2.937,9.125,9.125,0,0,1-1.364,2.607,9.225,9.225,0,0,1-2.123,2.046,8.707,8.707,0,0,0,1.221.341,6.211,6.211,0,0,0,1.221.121h2.662q.11,0,.11.088V27.89a.1.1,0,0,1-.11.11Zm-4.048-3.146a8.223,8.223,0,0,0,2.519-2.519,6.9,6.9,0,0,0,.935-3.179,6.535,6.535,0,0,0-3.168-.814,5.576,5.576,0,0,0-1.243.143,6.7,6.7,0,0,0-1.243.418,7.874,7.874,0,0,0-1.254.715,8.218,8.218,0,0,0,.7,1.969,8.981,8.981,0,0,0,1.188,1.782A10.319,10.319,0,0,0,94.314,24.854Zm6.4,3.146a.1.1,0,0,1-.11-.11V26.372q0-.088.11-.088h2.9v-15h1.958V28Zm9.262-16.72h1.958V28h-1.958Zm16.148,3.96a1.3,1.3,0,0,1-.869-.308,1.26,1.26,0,0,1-.363-1.012,1.26,1.26,0,0,1,.363-1.012,1.3,1.3,0,0,1,.869-.308,1.2,1.2,0,0,1,.9.341,1.352,1.352,0,0,1,.33.979,1.352,1.352,0,0,1-.33.979A1.2,1.2,0,0,1,126.126,15.24Zm3.806,0a1.2,1.2,0,0,1-.9-.341,1.352,1.352,0,0,1-.33-.979,1.352,1.352,0,0,1,.33-.979,1.2,1.2,0,0,1,.9-.341,1.151,1.151,0,0,1,.913.363,1.595,1.595,0,0,1,0,1.914A1.151,1.151,0,0,1,129.932,15.24ZM128.634,28a6.882,6.882,0,0,1-3.014-.6,4.308,4.308,0,0,1-1.914-1.749,5.368,5.368,0,0,1-.66-2.728,5.742,5.742,0,0,1,.737-2.981,4.967,4.967,0,0,1,2.09-1.925,7.032,7.032,0,0,1,3.2-.682h1.452V15.944h1.87v10.34H134.9q.11,0,.11.088V27.89a.1.1,0,0,1-.11.11Zm1.892-1.716V19.046H129.14a4.3,4.3,0,0,0-3.058,1.012A3.7,3.7,0,0,0,125,22.9a3.271,3.271,0,0,0,.935,2.519,3.75,3.75,0,0,0,2.651.869Zm7.062,6.116a1.2,1.2,0,0,1-.9-.341,1.617,1.617,0,0,1,0-1.958,1.2,1.2,0,0,1,.9-.341,1.151,1.151,0,0,1,.913.363,1.595,1.595,0,0,1,0,1.914A1.151,1.151,0,0,1,137.588,32.4Zm-2.9-4.4a.1.1,0,0,1-.11-.11V26.372q0-.088.11-.088h2.9V17.33h1.958V28ZM146.7,28v.528a6.5,6.5,0,0,1-.451,2.541,3.558,3.558,0,0,1-1.32,1.639,3.819,3.819,0,0,1-2.145.572,4.107,4.107,0,0,1-1.089-.154,5.928,5.928,0,0,1-1.155-.462l.572-1.474a3.981,3.981,0,0,0,.88.308,4.056,4.056,0,0,0,.748.066,1.789,1.789,0,0,0,1.551-.8,3.636,3.636,0,0,0,.561-2.123V17.33H146.7v8.954h2.728q.11,0,.11.088V27.89a.1.1,0,0,1-.11.11Zm7.986,4.4a1.2,1.2,0,0,1-.9-.341,1.617,1.617,0,0,1,0-1.958,1.2,1.2,0,0,1,.9-.341,1.151,1.151,0,0,1,.913.363,1.595,1.595,0,0,1,0,1.914A1.151,1.151,0,0,1,154.682,32.4ZM149.2,28a.1.1,0,0,1-.11-.11V26.372q0-.088.11-.088h9.438a2.918,2.918,0,0,1-.539-.825,7.858,7.858,0,0,1-.462-1.342q-.209-.8-.385-1.859a9.653,9.653,0,0,0-.385-1.584,3.714,3.714,0,0,0-.55-1.067,1.872,1.872,0,0,0-.781-.594,2.8,2.8,0,0,0-1.056-.187,5.862,5.862,0,0,0-1.551.22,8.156,8.156,0,0,0-1.639.66l-.77-1.518a6.107,6.107,0,0,1,1.914-.847,8.89,8.89,0,0,1,2.068-.231,5.907,5.907,0,0,1,1.243.121,3.672,3.672,0,0,1,1,.363,3.718,3.718,0,0,1,1.034.847,4.18,4.18,0,0,1,.726,1.32,11.832,11.832,0,0,1,.484,1.991,20.741,20.741,0,0,0,.407,2.035,8.638,8.638,0,0,0,.528,1.518,3.488,3.488,0,0,0,.649.979h1.474q.11,0,.11.088V27.89a.1.1,0,0,1-.11.11Zm15.334-12.76a1.3,1.3,0,0,1-.869-.308,1.26,1.26,0,0,1-.363-1.012,1.26,1.26,0,0,1,.363-1.012,1.3,1.3,0,0,1,.869-.308,1.2,1.2,0,0,1,.9.341,1.352,1.352,0,0,1,.33.979,1.352,1.352,0,0,1-.33.979A1.2,1.2,0,0,1,164.538,15.24Zm3.806,0a1.2,1.2,0,0,1-.9-.341,1.352,1.352,0,0,1-.33-.979,1.352,1.352,0,0,1,.33-.979,1.2,1.2,0,0,1,.9-.341,1.151,1.151,0,0,1,.913.363,1.595,1.595,0,0,1,0,1.914A1.151,1.151,0,0,1,168.344,15.24ZM161.832,28a.1.1,0,0,1-.11-.11V26.372q0-.088.11-.088h4.224V17.33h1.958V28Zm22.484,4.4a1.3,1.3,0,0,1-.869-.308,1.592,1.592,0,0,1,0-2.024,1.3,1.3,0,0,1,.869-.308,1.2,1.2,0,0,1,.9.341,1.617,1.617,0,0,1,0,1.958A1.2,1.2,0,0,1,184.316,32.4Zm3.806,0a1.2,1.2,0,0,1-.9-.341,1.617,1.617,0,0,1,0-1.958,1.2,1.2,0,0,1,.9-.341,1.151,1.151,0,0,1,.913.363,1.595,1.595,0,0,1,0,1.914A1.151,1.151,0,0,1,188.122,32.4Zm-4.62.88a4.251,4.251,0,0,1-2.365-.649,4.119,4.119,0,0,1-1.529-1.837,6.892,6.892,0,0,1-.528-2.816,9.735,9.735,0,0,1,.77-3.96h1.826a8.724,8.724,0,0,0-.484,1.793,13.726,13.726,0,0,0-.132,2.035,5.431,5.431,0,0,0,.33,2.013,2.544,2.544,0,0,0,2.53,1.7h4.092a5.836,5.836,0,0,0,1.87-.275,3.426,3.426,0,0,0,1.287-.726,1.339,1.339,0,0,0,.473-.979.969.969,0,0,0-.4-.781,3.6,3.6,0,0,0-1.232-.561q-1.078-.33-1.881-.649a2.984,2.984,0,0,1-1.243-.858,2.21,2.21,0,0,1-.44-1.441,4.074,4.074,0,0,1,.2-1.254,5.333,5.333,0,0,1,.572-1.21,5.965,5.965,0,0,1,1.221-1.386,5.791,5.791,0,0,1,1.529-.924,4.253,4.253,0,0,1,1.606-.33,3.587,3.587,0,0,1,.7.066,2.752,2.752,0,0,1,.616.2,3.663,3.663,0,0,1,1.078.781,10.793,10.793,0,0,1,1.254,1.7,21.32,21.32,0,0,0,1.232,1.826,5.181,5.181,0,0,0,.946.99,3.172,3.172,0,0,0,.682.385,2.027,2.027,0,0,0,.77.143h.11q.11,0,.11.088V27.89a.1.1,0,0,1-.11.11h-.11a3.9,3.9,0,0,1-1.2-.187,4.389,4.389,0,0,1-1.155-.583,8.754,8.754,0,0,1-1.188-1.012q-.11-.132-.4-.517t-.726-1q-.528-.748-.946-1.243a9.112,9.112,0,0,0-.726-.781,1.911,1.911,0,0,0-.594-.385,1.621,1.621,0,0,0-.594-.121,2.03,2.03,0,0,0-.968.275,4.121,4.121,0,0,0-.946.715,4.23,4.23,0,0,0-.715.935,1.935,1.935,0,0,0-.275.935.739.739,0,0,0,.231.539,1.808,1.808,0,0,0,.616.385q.385.154.8.286.814.22,1.364.418a6.871,6.871,0,0,1,.88.374,2.865,2.865,0,0,1,1,.825,1.78,1.78,0,0,1,.341,1.067,3.86,3.86,0,0,1-1.419,3.267,6.893,6.893,0,0,1-4.235,1.089ZM205.81,15.24a1.2,1.2,0,0,1-.9-.341,1.352,1.352,0,0,1-.33-.979,1.352,1.352,0,0,1,.33-.979,1.2,1.2,0,0,1,.9-.341,1.151,1.151,0,0,1,.913.363,1.595,1.595,0,0,1,0,1.914A1.151,1.151,0,0,1,205.81,15.24ZM198.748,28a.1.1,0,0,1-.11-.11V26.372q0-.088.11-.088h3.344a5.133,5.133,0,0,1-.616-.99,5.241,5.241,0,0,1-.4-1.155,5.515,5.515,0,0,1-.132-1.177,5.817,5.817,0,0,1,.737-2.981,5,5,0,0,1,2.09-1.958,6.938,6.938,0,0,1,3.2-.693h2.882V28Zm7.172-1.716h2.068V19.046h-.946a4.993,4.993,0,0,0-2.233.462,3.2,3.2,0,0,0-1.419,1.331,4.258,4.258,0,0,0-.484,2.1,4.448,4.448,0,0,0,.341,1.848,2.365,2.365,0,0,0,1.012,1.122A3.372,3.372,0,0,0,205.92,26.284ZM223.454,15.24a1.2,1.2,0,0,1-.9-.341,1.352,1.352,0,0,1-.33-.979,1.352,1.352,0,0,1,.33-.979,1.2,1.2,0,0,1,.9-.341,1.151,1.151,0,0,1,.913.363,1.595,1.595,0,0,1,0,1.914A1.151,1.151,0,0,1,223.454,15.24ZM224.488,28v.528a6.5,6.5,0,0,1-.451,2.541,3.558,3.558,0,0,1-1.32,1.639,3.819,3.819,0,0,1-2.145.572,4.107,4.107,0,0,1-1.089-.154,5.928,5.928,0,0,1-1.155-.462l.572-1.474a3.981,3.981,0,0,0,.88.308,4.056,4.056,0,0,0,.748.066,1.789,1.789,0,0,0,1.551-.8,3.636,3.636,0,0,0,.561-2.123V17.33h1.848v8.954h2.728q.11,0,.11.088V27.89a.1.1,0,0,1-.11.11Zm4.95,4.4a1.3,1.3,0,0,1-.869-.308,1.592,1.592,0,0,1,0-2.024,1.3,1.3,0,0,1,.869-.308,1.2,1.2,0,0,1,.9.341,1.617,1.617,0,0,1,0,1.958A1.2,1.2,0,0,1,229.438,32.4Zm3.806,0a1.2,1.2,0,0,1-.9-.341,1.617,1.617,0,0,1,0-1.958,1.2,1.2,0,0,1,.9-.341,1.151,1.151,0,0,1,.913.363,1.595,1.595,0,0,1,0,1.914A1.151,1.151,0,0,1,233.244,32.4ZM227,28a.1.1,0,0,1-.11-.11V26.372q0-.088.11-.088h3.564V17.33h1.958v8.954h3.3q.11,0,.11.088V27.89a.1.1,0,0,1-.11.11Zm11.33-1.716a13.139,13.139,0,0,1-.616-2.013,8.261,8.261,0,0,1,0-3.6,6.906,6.906,0,0,1,.594-1.65,6.4,6.4,0,0,1,1.859-1.078,6.065,6.065,0,0,1,2.167-.4,5.725,5.725,0,0,1,1.3.143,3.79,3.79,0,0,1,1.122.451,4.114,4.114,0,0,1,1.6,1.738,5.579,5.579,0,0,1,.561,2.53,8.087,8.087,0,0,1-.11,1.353,5.9,5.9,0,0,1-.352,1.243,2.715,2.715,0,0,0,1.045.99,3.549,3.549,0,0,0,1.551.286h.11q.11,0,.11.088V27.89a.1.1,0,0,1-.11.11h-.11a5.529,5.529,0,0,1-1.991-.319,4.54,4.54,0,0,1-1.6-1.111,4.454,4.454,0,0,1-1.628,1.078A5.392,5.392,0,0,1,241.89,28H235.6a.1.1,0,0,1-.11-.11V26.372q0-.088.11-.088Zm1.166-4.136a11.415,11.415,0,0,0,.176,2,10.032,10.032,0,0,0,.66,2.134h1.562a2.911,2.911,0,0,0,1.661-.451,2.8,2.8,0,0,0,1.023-1.32,5.665,5.665,0,0,0,.352-2.123,3.346,3.346,0,0,0-.759-2.266,2.343,2.343,0,0,0-1.837-.88,3.868,3.868,0,0,0-1.375.253,4.817,4.817,0,0,0-1.2.649,3.548,3.548,0,0,0-.22.946Q239.492,21.576,239.492,22.148Zm11.44-6.908a1.3,1.3,0,0,1-.869-.308,1.26,1.26,0,0,1-.363-1.012,1.26,1.26,0,0,1,.363-1.012,1.3,1.3,0,0,1,.869-.308,1.2,1.2,0,0,1,.9.341,1.352,1.352,0,0,1,.33.979,1.352,1.352,0,0,1-.33.979A1.2,1.2,0,0,1,250.932,15.24Zm3.806,0a1.2,1.2,0,0,1-.9-.341,1.352,1.352,0,0,1-.33-.979,1.352,1.352,0,0,1,.33-.979,1.2,1.2,0,0,1,.9-.341,1.151,1.151,0,0,1,.913.363,1.595,1.595,0,0,1,0,1.914A1.151,1.151,0,0,1,254.738,15.24ZM248.93,28a.1.1,0,0,1-.11-.11V26.372q0-.088.11-.088h3.564V17.33h1.958v8.954h3.3q.11,0,.11.088V27.89a.1.1,0,0,1-.11.11Zm8.6,0a.1.1,0,0,1-.11-.11V26.372q0-.088.11-.088h2.9v-15h1.958V28Zm9.262-16.72h1.958V28h-1.958Z" transform="translate(522.646 1494)"/>
    <path id="Path_319" data-name="Path 319" d="M94.809,15.24a1.3,1.3,0,0,1-.869-.308,1.26,1.26,0,0,1-.363-1.012,1.26,1.26,0,0,1,.363-1.012,1.3,1.3,0,0,1,.869-.308,1.2,1.2,0,0,1,.9.341,1.352,1.352,0,0,1,.33.979,1.352,1.352,0,0,1-.33.979A1.2,1.2,0,0,1,94.809,15.24Zm3.806,0a1.2,1.2,0,0,1-.9-.341,1.352,1.352,0,0,1-.33-.979,1.352,1.352,0,0,1,.33-.979,1.2,1.2,0,0,1,.9-.341,1.151,1.151,0,0,1,.913.363,1.595,1.595,0,0,1,0,1.914A1.151,1.151,0,0,1,98.615,15.24ZM97.317,28a6.882,6.882,0,0,1-3.014-.6,4.308,4.308,0,0,1-1.914-1.749,5.368,5.368,0,0,1-.66-2.728,5.742,5.742,0,0,1,.737-2.981,4.967,4.967,0,0,1,2.09-1.925,7.032,7.032,0,0,1,3.2-.682h1.452V15.944h1.87v10.34h2.508q.11,0,.11.088V27.89a.1.1,0,0,1-.11.11Zm1.892-1.716V19.046H97.823a4.3,4.3,0,0,0-3.058,1.012A3.7,3.7,0,0,0,93.687,22.9a3.271,3.271,0,0,0,.935,2.519,3.75,3.75,0,0,0,2.651.869Zm6.6,6.116a1.3,1.3,0,0,1-.869-.308,1.592,1.592,0,0,1,0-2.024,1.3,1.3,0,0,1,.869-.308,1.2,1.2,0,0,1,.9.341,1.617,1.617,0,0,1,0,1.958A1.2,1.2,0,0,1,105.809,32.4Zm3.806,0a1.2,1.2,0,0,1-.9-.341,1.617,1.617,0,0,1,0-1.958,1.2,1.2,0,0,1,.9-.341,1.151,1.151,0,0,1,.913.363,1.595,1.595,0,0,1,0,1.914A1.151,1.151,0,0,1,109.615,32.4ZM103.367,28a.1.1,0,0,1-.11-.11V26.372q0-.088.11-.088h3.564V17.33h1.958v8.954h3.3q.11,0,.11.088V27.89a.1.1,0,0,1-.11.11ZM115.4,15.24a1.2,1.2,0,0,1-.9-.341,1.352,1.352,0,0,1-.33-.979,1.352,1.352,0,0,1,.33-.979,1.2,1.2,0,0,1,.9-.341,1.151,1.151,0,0,1,.913.363,1.595,1.595,0,0,1,0,1.914A1.151,1.151,0,0,1,115.4,15.24ZM111.969,28a.1.1,0,0,1-.11-.11V26.372q0-.088.11-.088h2.9V17.33h1.958v8.954h2.86q.11,0,.11.088V27.89a.1.1,0,0,1-.11.11Zm9.944,4.4a1.3,1.3,0,0,1-.869-.308,1.592,1.592,0,0,1,0-2.024,1.3,1.3,0,0,1,.869-.308,1.2,1.2,0,0,1,.9.341,1.617,1.617,0,0,1,0,1.958A1.2,1.2,0,0,1,121.913,32.4Zm3.806,0a1.2,1.2,0,0,1-.9-.341,1.617,1.617,0,0,1,0-1.958,1.2,1.2,0,0,1,.9-.341,1.151,1.151,0,0,1,.913.363,1.595,1.595,0,0,1,0,1.914A1.151,1.151,0,0,1,125.719,32.4ZM119.471,28a.1.1,0,0,1-.11-.11V26.372q0-.088.11-.088h3.564V17.33h1.958v8.954h3.3q.11,0,.11.088V27.89a.1.1,0,0,1-.11.11Zm8.6,0a.1.1,0,0,1-.11-.11V26.372q0-.088.11-.088h9.262V22.236a2.875,2.875,0,0,0-.99-2.42,4.963,4.963,0,0,0-3.058-.77h-3.74v-1.8a10.722,10.722,0,0,1,.847-1.474,17.4,17.4,0,0,1,1.111-1.452,17.087,17.087,0,0,1,2.794-2.552,12.893,12.893,0,0,1,2.992-1.672l.7,1.672a12.894,12.894,0,0,0-2.035,1.023,15.843,15.843,0,0,0-1.925,1.386,13.511,13.511,0,0,0-1.6,1.573,7.605,7.605,0,0,0-1.067,1.584h1.914a7.02,7.02,0,0,1,4.4,1.188,4.05,4.05,0,0,1,1.518,3.388v4.378h2.86q.11,0,.11.088V27.89a.1.1,0,0,1-.11.11Zm16.5-1.716a13.139,13.139,0,0,1-.616-2.013,8.261,8.261,0,0,1,0-3.6,6.906,6.906,0,0,1,.594-1.65,6.4,6.4,0,0,1,1.859-1.078,6.065,6.065,0,0,1,2.167-.4,5.725,5.725,0,0,1,1.3.143,3.79,3.79,0,0,1,1.122.451,4.115,4.115,0,0,1,1.595,1.738,5.579,5.579,0,0,1,.561,2.53,8.087,8.087,0,0,1-.11,1.353,5.9,5.9,0,0,1-.352,1.243,2.715,2.715,0,0,0,1.045.99,3.549,3.549,0,0,0,1.551.286h.11q.11,0,.11.088V27.89a.1.1,0,0,1-.11.11h-.11a5.529,5.529,0,0,1-1.991-.319,4.54,4.54,0,0,1-1.6-1.111,4.453,4.453,0,0,1-1.628,1.078,5.392,5.392,0,0,1-1.936.352h-6.292a.1.1,0,0,1-.11-.11V26.372q0-.088.11-.088Zm1.166-4.136a11.415,11.415,0,0,0,.176,2,10.032,10.032,0,0,0,.66,2.134h1.562a2.911,2.911,0,0,0,1.661-.451,2.8,2.8,0,0,0,1.023-1.32,5.665,5.665,0,0,0,.352-2.123,3.346,3.346,0,0,0-.759-2.266,2.343,2.343,0,0,0-1.837-.88,3.868,3.868,0,0,0-1.375.253,4.817,4.817,0,0,0-1.2.649,3.548,3.548,0,0,0-.22.946Q145.739,21.576,145.739,22.148Zm12.144-6.908a1.3,1.3,0,0,1-.869-.308,1.26,1.26,0,0,1-.363-1.012,1.26,1.26,0,0,1,.363-1.012,1.3,1.3,0,0,1,.869-.308,1.2,1.2,0,0,1,.9.341,1.352,1.352,0,0,1,.33.979,1.352,1.352,0,0,1-.33.979A1.2,1.2,0,0,1,157.883,15.24Zm3.806,0a1.2,1.2,0,0,1-.9-.341,1.352,1.352,0,0,1-.33-.979,1.352,1.352,0,0,1,.33-.979,1.2,1.2,0,0,1,.9-.341,1.151,1.151,0,0,1,.913.363,1.595,1.595,0,0,1,0,1.914A1.151,1.151,0,0,1,161.689,15.24ZM155.177,28a.1.1,0,0,1-.11-.11V26.372q0-.088.11-.088H159.4V17.33h1.958V28Zm28.732,0a5.331,5.331,0,0,1-1.342,3.949,5.664,5.664,0,0,1-4.136,1.331h-1.584a4.765,4.765,0,0,1-1.4-.2,3.31,3.31,0,0,1-1.155-.616,4.628,4.628,0,0,1-1.375-1.925,7.679,7.679,0,0,1-.5-2.893,17.332,17.332,0,0,1,.1-1.848,13.681,13.681,0,0,1,.308-1.782,11.193,11.193,0,0,1,.495-1.562h1.826a10.019,10.019,0,0,0-.561,2.244,20.842,20.842,0,0,0-.187,2.948,4.835,4.835,0,0,0,.748,2.893,2.463,2.463,0,0,0,2.112,1.023h1.078a4.9,4.9,0,0,0,2.09-.385A2.516,2.516,0,0,0,181.643,30a4.464,4.464,0,0,0,.4-2V11.28h1.87v15h2.42q.11,0,.11.088V27.89a.1.1,0,0,1-.11.11Zm2.2,0a.1.1,0,0,1-.11-.11V26.372q0-.088.11-.088h2.728a13.139,13.139,0,0,1-.616-2.013,8.261,8.261,0,0,1,0-3.6,6.906,6.906,0,0,1,.594-1.65,6.4,6.4,0,0,1,1.859-1.078,6.065,6.065,0,0,1,2.167-.4,5.725,5.725,0,0,1,1.3.143,3.79,3.79,0,0,1,1.122.451,4.114,4.114,0,0,1,1.6,1.738,5.579,5.579,0,0,1,.561,2.53,7.915,7.915,0,0,1-.154,1.617A5.948,5.948,0,0,1,196.8,25.4a4.421,4.421,0,0,1-1.771,1.925A5.137,5.137,0,0,1,192.4,28ZM190,22.148a11.415,11.415,0,0,0,.176,2,10.032,10.032,0,0,0,.66,2.134H192.4a2.911,2.911,0,0,0,1.661-.451,2.8,2.8,0,0,0,1.023-1.32,5.665,5.665,0,0,0,.352-2.123,3.346,3.346,0,0,0-.759-2.266,2.343,2.343,0,0,0-1.837-.88,3.868,3.868,0,0,0-1.375.253,4.817,4.817,0,0,0-1.2.649,3.548,3.548,0,0,0-.22.946Q190,21.576,190,22.148ZM201.047,11.28h1.958V28h-1.958Zm16.434,15q.11,0,.11.088V27.89a.1.1,0,0,1-.11.11H213.5a.1.1,0,0,1-.11-.11V26.372q0-.088.11-.088Zm-6.886,7a7.576,7.576,0,0,1-2.112-.286,7.011,7.011,0,0,1-1.848-.836l.88-1.474a9.549,9.549,0,0,0,1.463.627,5.225,5.225,0,0,0,1.661.253,3.268,3.268,0,0,0,2.343-.8,2.789,2.789,0,0,0,.847-2.123V28h-2.156a4.886,4.886,0,0,1-3.63-1.287,5.076,5.076,0,0,1-1.276-3.729,5.862,5.862,0,0,1,.737-3,4.98,4.98,0,0,1,2.1-1.958,6.955,6.955,0,0,1,3.19-.693h2.882v11.2a4.573,4.573,0,0,1-1.331,3.5A5.258,5.258,0,0,1,210.6,33.28Zm3.212-7V19.046h-.946a4.249,4.249,0,0,0-3.047,1.034,3.784,3.784,0,0,0-1.089,2.882,3.6,3.6,0,0,0,.748,2.519,2.953,2.953,0,0,0,2.266.8ZM217.261,28a.1.1,0,0,1-.11-.11V26.372q0-.088.11-.088h3.388a3.537,3.537,0,0,1-.825-.99,5.52,5.52,0,0,1-.539-1.342,6.167,6.167,0,0,1-.2-1.584,5.758,5.758,0,0,1,.649-2.838,4.434,4.434,0,0,1,1.826-1.793,5.789,5.789,0,0,1,2.761-.627,7.707,7.707,0,0,1,1.749.187,5.626,5.626,0,0,1,1.309.451l-.594,1.65a7.877,7.877,0,0,0-1.32-.429,5.722,5.722,0,0,0-1.254-.143,3.424,3.424,0,0,0-1.738.407,2.461,2.461,0,0,0-1.045,1.21,5.171,5.171,0,0,0-.341,2.013,5.4,5.4,0,0,0,.341,2,3.129,3.129,0,0,0,.957,1.342,2.217,2.217,0,0,0,1.408.484h3.916V28Z" transform="translate(522.646 1206)" fill="#fff"/>
  </g>
</svg>
