<svg id="Group_285" data-name="Group 285" xmlns="http://www.w3.org/2000/svg" width="1279" height="247" viewBox="0 0 1279 247">
  <g id="Rectangle_87" data-name="Rectangle 87" transform="translate(0 50)" fill="#fff" stroke="#000" stroke-width="1">
    <rect width="1279" height="47" rx="23.5" stroke="none"/>
    <rect x="0.5" y="0.5" width="1278" height="46" rx="23" fill="none"/>
  </g>
  <rect id="Rectangle_129" data-name="Rectangle 129" width="1279" height="47" rx="23.5" fill="#ed1c24"/>
  <g id="Rectangle_126" data-name="Rectangle 126" transform="translate(0 100)" fill="#fff" stroke="#000" stroke-width="1">
    <rect width="1279" height="47" rx="23.5" stroke="none"/>
    <rect x="0.5" y="0.5" width="1278" height="46" rx="23" fill="none"/>
  </g>
  <g id="Rectangle_127" data-name="Rectangle 127" transform="translate(0 150)" fill="#fff" stroke="#000" stroke-width="1">
    <rect width="1279" height="47" rx="23.5" stroke="none"/>
    <rect x="0.5" y="0.5" width="1278" height="46" rx="23" fill="none"/>
  </g>
  <g id="Rectangle_128" data-name="Rectangle 128" transform="translate(0 200)" fill="#fff" stroke="#000" stroke-width="1">
    <rect width="1279" height="47" rx="23.5" stroke="none"/>
    <rect x="0.5" y="0.5" width="1278" height="46" rx="23" fill="none"/>
  </g>
  <path id="Path_302" data-name="Path 302" d="M598.657,15.24a1.2,1.2,0,0,1-.9-.341,1.351,1.351,0,0,1-.33-.979,1.351,1.351,0,0,1,.33-.979,1.2,1.2,0,0,1,.9-.341,1.151,1.151,0,0,1,.913.363,1.6,1.6,0,0,1,0,1.914A1.151,1.151,0,0,1,598.657,15.24Zm-1.3,18.04a4.592,4.592,0,0,1-1.562-.253,3.851,3.851,0,0,1-1.254-.737,4.43,4.43,0,0,1-1.188-1.782,7.093,7.093,0,0,1-.418-2.53,13.646,13.646,0,0,1,.231-2.541,12.484,12.484,0,0,1,.671-2.321h1.826a10.069,10.069,0,0,0-.561,2.123,16.68,16.68,0,0,0-.187,2.607,4.463,4.463,0,0,0,.737,2.75,2.507,2.507,0,0,0,2.123.968h1.078a3.9,3.9,0,0,0,2.8-.869,3.52,3.52,0,0,0,.891-2.629V17.33h1.87V27.912a5.531,5.531,0,0,1-1.32,4.015,5.594,5.594,0,0,1-4.158,1.353Zm21.208-7q.11,0,.11.088V27.89a.1.1,0,0,1-.11.11h-3.982a.1.1,0,0,1-.11-.11V26.372q0-.088.11-.088Zm-6.886,7a7.576,7.576,0,0,1-2.112-.286,7.012,7.012,0,0,1-1.848-.836l.88-1.474a9.546,9.546,0,0,0,1.463.627,5.225,5.225,0,0,0,1.661.253,3.268,3.268,0,0,0,2.343-.8,2.789,2.789,0,0,0,.847-2.123V28h-2.156a4.886,4.886,0,0,1-3.63-1.287,5.076,5.076,0,0,1-1.276-3.729,5.862,5.862,0,0,1,.737-3,4.98,4.98,0,0,1,2.1-1.958,6.955,6.955,0,0,1,3.19-.693h2.882v11.2a4.573,4.573,0,0,1-1.331,3.5A5.258,5.258,0,0,1,611.681,33.28Zm3.212-7V19.046h-.946A4.249,4.249,0,0,0,610.9,20.08a3.784,3.784,0,0,0-1.089,2.882,3.6,3.6,0,0,0,.748,2.519,2.953,2.953,0,0,0,2.266.8ZM625.409,15.24a1.2,1.2,0,0,1-.9-.341,1.351,1.351,0,0,1-.33-.979,1.351,1.351,0,0,1,.33-.979,1.2,1.2,0,0,1,.9-.341,1.151,1.151,0,0,1,.913.363,1.6,1.6,0,0,1,0,1.914A1.151,1.151,0,0,1,625.409,15.24Zm6.38,11.044a.1.1,0,0,1,.11.11v1.518q0,.088-.11.088H618.347a.1.1,0,0,1-.11-.11V26.372q0-.088.11-.088h3.344a5.133,5.133,0,0,1-.616-.99,5.244,5.244,0,0,1-.4-1.155,5.518,5.518,0,0,1-.132-1.177,5.847,5.847,0,0,1,.737-3.014,4.945,4.945,0,0,1,2.09-1.936,7.032,7.032,0,0,1,3.2-.682h2.882v8.954Zm-4.2,0V19.046h-.946a4.993,4.993,0,0,0-2.233.462,3.185,3.185,0,0,0-1.419,1.342,4.321,4.321,0,0,0-.484,2.112,4.448,4.448,0,0,0,.341,1.848,2.306,2.306,0,0,0,1.012,1.111,3.456,3.456,0,0,0,1.661.363ZM641.931,15.24a1.2,1.2,0,0,1-.9-.341,1.351,1.351,0,0,1-.33-.979,1.351,1.351,0,0,1,.33-.979,1.2,1.2,0,0,1,.9-.341,1.151,1.151,0,0,1,.913.363,1.6,1.6,0,0,1,0,1.914A1.151,1.151,0,0,1,641.931,15.24ZM631.569,28a.1.1,0,0,1-.11-.11V26.372q0-.088.11-.088h2.684v-15h1.87V22.06a10.9,10.9,0,0,1,1.628-2.75,6.273,6.273,0,0,1,2.057-1.65,5.445,5.445,0,0,1,2.409-.55,4.928,4.928,0,0,1,3.762,1.353,6.006,6.006,0,0,1,1.276,4.235V28Zm13.816-1.716v-3.5a4.261,4.261,0,0,0-.891-2.981,3.48,3.48,0,0,0-2.673-.957,3.989,3.989,0,0,0-2.134.627,6.827,6.827,0,0,0-1.9,1.87,15.291,15.291,0,0,0-1.661,3.135v1.8Zm15.576,0q.11,0,.11.088V27.89a.1.1,0,0,1-.11.11h-3.982a.1.1,0,0,1-.11-.11V26.372q0-.088.11-.088Zm-6.886,7a7.576,7.576,0,0,1-2.112-.286,7.012,7.012,0,0,1-1.848-.836l.88-1.474a9.546,9.546,0,0,0,1.463.627,5.225,5.225,0,0,0,1.661.253,3.268,3.268,0,0,0,2.343-.8,2.789,2.789,0,0,0,.847-2.123V28h-2.156a4.886,4.886,0,0,1-3.63-1.287,5.076,5.076,0,0,1-1.276-3.729,5.862,5.862,0,0,1,.737-3,4.98,4.98,0,0,1,2.1-1.958,6.955,6.955,0,0,1,3.19-.693h2.882v11.2a4.573,4.573,0,0,1-1.331,3.5A5.258,5.258,0,0,1,654.075,33.28Zm3.212-7V19.046h-.946a4.249,4.249,0,0,0-3.047,1.034,3.784,3.784,0,0,0-1.089,2.882,3.6,3.6,0,0,0,.748,2.519,2.953,2.953,0,0,0,2.266.8Zm6.182,0a13.146,13.146,0,0,1-.616-2.013,8.261,8.261,0,0,1,0-3.6,6.907,6.907,0,0,1,.594-1.65,6.4,6.4,0,0,1,1.859-1.078,6.065,6.065,0,0,1,2.167-.4,5.724,5.724,0,0,1,1.3.143,3.789,3.789,0,0,1,1.122.451,4.115,4.115,0,0,1,1.6,1.738,5.58,5.58,0,0,1,.561,2.53,8.09,8.09,0,0,1-.11,1.353,5.894,5.894,0,0,1-.352,1.243,2.715,2.715,0,0,0,1.045.99,3.549,3.549,0,0,0,1.551.286h.11q.11,0,.11.088V27.89a.1.1,0,0,1-.11.11h-.11a5.529,5.529,0,0,1-1.991-.319,4.541,4.541,0,0,1-1.6-1.111,4.453,4.453,0,0,1-1.628,1.078,5.392,5.392,0,0,1-1.936.352h-6.292a.1.1,0,0,1-.11-.11V26.372q0-.088.11-.088Zm1.166-4.136a11.412,11.412,0,0,0,.176,2,10.029,10.029,0,0,0,.66,2.134h1.562a2.911,2.911,0,0,0,1.661-.451,2.8,2.8,0,0,0,1.023-1.32,5.664,5.664,0,0,0,.352-2.123,3.346,3.346,0,0,0-.759-2.266,2.342,2.342,0,0,0-1.837-.88,3.868,3.868,0,0,0-1.375.253,4.817,4.817,0,0,0-1.2.649,3.55,3.55,0,0,0-.22.946Q664.635,21.576,664.635,22.148ZM674.073,28a.1.1,0,0,1-.11-.11V26.372q0-.088.11-.088h2.9v-15h1.958V28Zm9.262-16.72h1.958V28h-1.958Z" transform="translate(0 54)"/>
  <path id="Path_301" data-name="Path 301" d="M574.809,15.24a1.3,1.3,0,0,1-.869-.308,1.26,1.26,0,0,1-.363-1.012,1.26,1.26,0,0,1,.363-1.012,1.3,1.3,0,0,1,.869-.308,1.2,1.2,0,0,1,.9.341,1.351,1.351,0,0,1,.33.979,1.351,1.351,0,0,1-.33.979A1.2,1.2,0,0,1,574.809,15.24Zm3.806,0a1.2,1.2,0,0,1-.9-.341,1.351,1.351,0,0,1-.33-.979,1.351,1.351,0,0,1,.33-.979,1.2,1.2,0,0,1,.9-.341,1.151,1.151,0,0,1,.913.363,1.6,1.6,0,0,1,0,1.914A1.151,1.151,0,0,1,578.615,15.24ZM577.317,28a6.882,6.882,0,0,1-3.014-.6,4.308,4.308,0,0,1-1.914-1.749,5.368,5.368,0,0,1-.66-2.728,5.742,5.742,0,0,1,.737-2.981,4.967,4.967,0,0,1,2.09-1.925,7.032,7.032,0,0,1,3.2-.682h1.452V15.944h1.87v10.34h2.508q.11,0,.11.088V27.89a.1.1,0,0,1-.11.11Zm1.892-1.716V19.046h-1.386a4.3,4.3,0,0,0-3.058,1.012,3.7,3.7,0,0,0-1.078,2.838,3.271,3.271,0,0,0,.935,2.519,3.75,3.75,0,0,0,2.651.869Zm6.6,6.116a1.3,1.3,0,0,1-.869-.308,1.592,1.592,0,0,1,0-2.024,1.3,1.3,0,0,1,.869-.308,1.2,1.2,0,0,1,.9.341,1.617,1.617,0,0,1,0,1.958A1.2,1.2,0,0,1,585.809,32.4Zm3.806,0a1.2,1.2,0,0,1-.9-.341,1.617,1.617,0,0,1,0-1.958,1.2,1.2,0,0,1,.9-.341,1.151,1.151,0,0,1,.913.363,1.6,1.6,0,0,1,0,1.914A1.151,1.151,0,0,1,589.615,32.4ZM583.367,28a.1.1,0,0,1-.11-.11V26.372q0-.088.11-.088h3.564V17.33h1.958v8.954h3.3q.11,0,.11.088V27.89a.1.1,0,0,1-.11.11ZM595.4,15.24a1.2,1.2,0,0,1-.9-.341,1.351,1.351,0,0,1-.33-.979,1.351,1.351,0,0,1,.33-.979,1.2,1.2,0,0,1,.9-.341,1.151,1.151,0,0,1,.913.363,1.6,1.6,0,0,1,0,1.914A1.151,1.151,0,0,1,595.4,15.24ZM591.969,28a.1.1,0,0,1-.11-.11V26.372q0-.088.11-.088h2.9V17.33h1.958v8.954h2.86q.11,0,.11.088V27.89a.1.1,0,0,1-.11.11Zm9.944,4.4a1.3,1.3,0,0,1-.869-.308,1.592,1.592,0,0,1,0-2.024,1.3,1.3,0,0,1,.869-.308,1.2,1.2,0,0,1,.9.341,1.617,1.617,0,0,1,0,1.958A1.2,1.2,0,0,1,601.913,32.4Zm3.806,0a1.2,1.2,0,0,1-.9-.341,1.617,1.617,0,0,1,0-1.958,1.2,1.2,0,0,1,.9-.341,1.151,1.151,0,0,1,.913.363,1.6,1.6,0,0,1,0,1.914A1.151,1.151,0,0,1,605.719,32.4ZM599.471,28a.1.1,0,0,1-.11-.11V26.372q0-.088.11-.088h3.564V17.33h1.958v8.954h3.3q.11,0,.11.088V27.89a.1.1,0,0,1-.11.11Zm8.6,0a.1.1,0,0,1-.11-.11V26.372q0-.088.11-.088h9.262V22.236a2.875,2.875,0,0,0-.99-2.42,4.963,4.963,0,0,0-3.058-.77h-3.74v-1.8a10.722,10.722,0,0,1,.847-1.474,17.393,17.393,0,0,1,1.111-1.452,17.087,17.087,0,0,1,2.794-2.552,12.893,12.893,0,0,1,2.992-1.672l.7,1.672a12.893,12.893,0,0,0-2.035,1.023,15.85,15.85,0,0,0-1.925,1.386,13.51,13.51,0,0,0-1.595,1.573,7.606,7.606,0,0,0-1.067,1.584h1.914a7.02,7.02,0,0,1,4.4,1.188,4.05,4.05,0,0,1,1.518,3.388v4.378h2.86q.11,0,.11.088V27.89a.1.1,0,0,1-.11.11Zm16.5-1.716a13.146,13.146,0,0,1-.616-2.013,8.261,8.261,0,0,1,0-3.6,6.907,6.907,0,0,1,.594-1.65,6.4,6.4,0,0,1,1.859-1.078,6.065,6.065,0,0,1,2.167-.4,5.724,5.724,0,0,1,1.3.143,3.789,3.789,0,0,1,1.122.451,4.115,4.115,0,0,1,1.6,1.738,5.58,5.58,0,0,1,.561,2.53,8.09,8.09,0,0,1-.11,1.353,5.894,5.894,0,0,1-.352,1.243,2.715,2.715,0,0,0,1.045.99,3.549,3.549,0,0,0,1.551.286h.11q.11,0,.11.088V27.89a.1.1,0,0,1-.11.11h-.11a5.529,5.529,0,0,1-1.991-.319,4.541,4.541,0,0,1-1.6-1.111,4.453,4.453,0,0,1-1.628,1.078,5.392,5.392,0,0,1-1.936.352h-6.292a.1.1,0,0,1-.11-.11V26.372q0-.088.11-.088Zm1.166-4.136a11.412,11.412,0,0,0,.176,2,10.029,10.029,0,0,0,.66,2.134h1.562a2.911,2.911,0,0,0,1.661-.451,2.8,2.8,0,0,0,1.023-1.32,5.664,5.664,0,0,0,.352-2.123,3.346,3.346,0,0,0-.759-2.266,2.342,2.342,0,0,0-1.837-.88,3.868,3.868,0,0,0-1.375.253,4.817,4.817,0,0,0-1.2.649,3.55,3.55,0,0,0-.22.946Q625.739,21.576,625.739,22.148Zm12.144-6.908a1.3,1.3,0,0,1-.869-.308,1.26,1.26,0,0,1-.363-1.012,1.26,1.26,0,0,1,.363-1.012,1.3,1.3,0,0,1,.869-.308,1.2,1.2,0,0,1,.9.341,1.351,1.351,0,0,1,.33.979,1.351,1.351,0,0,1-.33.979A1.2,1.2,0,0,1,637.883,15.24Zm3.806,0a1.2,1.2,0,0,1-.9-.341,1.351,1.351,0,0,1-.33-.979,1.351,1.351,0,0,1,.33-.979,1.2,1.2,0,0,1,.9-.341,1.151,1.151,0,0,1,.913.363,1.6,1.6,0,0,1,0,1.914A1.151,1.151,0,0,1,641.689,15.24ZM635.177,28a.1.1,0,0,1-.11-.11V26.372q0-.088.11-.088H639.4V17.33h1.958V28Zm28.732,0a5.331,5.331,0,0,1-1.342,3.949,5.664,5.664,0,0,1-4.136,1.331h-1.584a4.765,4.765,0,0,1-1.4-.2,3.31,3.31,0,0,1-1.155-.616,4.628,4.628,0,0,1-1.375-1.925,7.679,7.679,0,0,1-.495-2.893,17.34,17.34,0,0,1,.1-1.848,13.676,13.676,0,0,1,.308-1.782,11.2,11.2,0,0,1,.495-1.562h1.826a10.021,10.021,0,0,0-.561,2.244,20.837,20.837,0,0,0-.187,2.948,4.834,4.834,0,0,0,.748,2.893,2.463,2.463,0,0,0,2.112,1.023h1.078a4.9,4.9,0,0,0,2.09-.385A2.516,2.516,0,0,0,661.643,30a4.465,4.465,0,0,0,.4-2V11.28h1.87v15h2.42q.11,0,.11.088V27.89a.1.1,0,0,1-.11.11Zm2.2,0a.1.1,0,0,1-.11-.11V26.372q0-.088.11-.088h2.728a13.146,13.146,0,0,1-.616-2.013,8.261,8.261,0,0,1,0-3.6,6.907,6.907,0,0,1,.594-1.65,6.4,6.4,0,0,1,1.859-1.078,6.065,6.065,0,0,1,2.167-.4,5.724,5.724,0,0,1,1.3.143,3.789,3.789,0,0,1,1.122.451,4.115,4.115,0,0,1,1.6,1.738,5.58,5.58,0,0,1,.561,2.53,7.915,7.915,0,0,1-.154,1.617A5.945,5.945,0,0,1,676.8,25.4a4.421,4.421,0,0,1-1.771,1.925A5.137,5.137,0,0,1,672.4,28ZM670,22.148a11.412,11.412,0,0,0,.176,2,10.029,10.029,0,0,0,.66,2.134H672.4a2.911,2.911,0,0,0,1.661-.451,2.8,2.8,0,0,0,1.023-1.32,5.664,5.664,0,0,0,.352-2.123,3.346,3.346,0,0,0-.759-2.266,2.342,2.342,0,0,0-1.837-.88,3.868,3.868,0,0,0-1.375.253,4.817,4.817,0,0,0-1.2.649,3.55,3.55,0,0,0-.22.946Q670,21.576,670,22.148ZM681.047,11.28h1.958V28h-1.958Zm16.434,15q.11,0,.11.088V27.89a.1.1,0,0,1-.11.11H693.5a.1.1,0,0,1-.11-.11V26.372q0-.088.11-.088Zm-6.886,7a7.576,7.576,0,0,1-2.112-.286,7.012,7.012,0,0,1-1.848-.836l.88-1.474a9.546,9.546,0,0,0,1.463.627,5.225,5.225,0,0,0,1.661.253,3.268,3.268,0,0,0,2.343-.8,2.789,2.789,0,0,0,.847-2.123V28h-2.156a4.886,4.886,0,0,1-3.63-1.287,5.076,5.076,0,0,1-1.276-3.729,5.862,5.862,0,0,1,.737-3,4.98,4.98,0,0,1,2.1-1.958,6.955,6.955,0,0,1,3.19-.693h2.882v11.2a4.573,4.573,0,0,1-1.331,3.5A5.258,5.258,0,0,1,690.6,33.28Zm3.212-7V19.046h-.946a4.249,4.249,0,0,0-3.047,1.034,3.784,3.784,0,0,0-1.089,2.882,3.6,3.6,0,0,0,.748,2.519,2.953,2.953,0,0,0,2.266.8ZM697.261,28a.1.1,0,0,1-.11-.11V26.372q0-.088.11-.088h3.388a3.537,3.537,0,0,1-.825-.99,5.52,5.52,0,0,1-.539-1.342,6.166,6.166,0,0,1-.2-1.584,5.758,5.758,0,0,1,.649-2.838,4.434,4.434,0,0,1,1.826-1.793,5.789,5.789,0,0,1,2.761-.627,7.707,7.707,0,0,1,1.749.187,5.626,5.626,0,0,1,1.309.451l-.594,1.65a7.876,7.876,0,0,0-1.32-.429,5.722,5.722,0,0,0-1.254-.143,3.424,3.424,0,0,0-1.738.407,2.461,2.461,0,0,0-1.045,1.21,5.171,5.171,0,0,0-.341,2.013,5.4,5.4,0,0,0,.341,2,3.13,3.13,0,0,0,.957,1.342,2.217,2.217,0,0,0,1.408.484h3.916V28Z" transform="translate(0 4)" fill="#fff"/>
  <path id="Path_303" data-name="Path 303" d="M482.442,32.4a1.3,1.3,0,0,1-.869-.308,1.592,1.592,0,0,1,0-2.024,1.3,1.3,0,0,1,.869-.308,1.2,1.2,0,0,1,.9.341,1.617,1.617,0,0,1,0,1.958A1.2,1.2,0,0,1,482.442,32.4Zm3.806,0a1.2,1.2,0,0,1-.9-.341,1.617,1.617,0,0,1,0-1.958,1.2,1.2,0,0,1,.9-.341,1.151,1.151,0,0,1,.913.363,1.595,1.595,0,0,1,0,1.914A1.151,1.151,0,0,1,486.248,32.4Zm-4.62.88a4.25,4.25,0,0,1-2.365-.649,4.119,4.119,0,0,1-1.529-1.837,6.892,6.892,0,0,1-.528-2.816,9.734,9.734,0,0,1,.77-3.96H479.8a8.726,8.726,0,0,0-.484,1.793,13.728,13.728,0,0,0-.132,2.035,5.431,5.431,0,0,0,.33,2.013,2.544,2.544,0,0,0,2.53,1.7h4.092a5.835,5.835,0,0,0,1.87-.275,3.426,3.426,0,0,0,1.287-.726,1.339,1.339,0,0,0,.473-.979.969.969,0,0,0-.4-.781,3.6,3.6,0,0,0-1.232-.561q-1.078-.33-1.881-.649a2.984,2.984,0,0,1-1.243-.858,2.21,2.21,0,0,1-.44-1.441,4.075,4.075,0,0,1,.2-1.254,5.335,5.335,0,0,1,.572-1.21,5.964,5.964,0,0,1,1.221-1.386,5.791,5.791,0,0,1,1.529-.924,4.253,4.253,0,0,1,1.606-.33,3.587,3.587,0,0,1,.7.066,2.752,2.752,0,0,1,.616.2,3.663,3.663,0,0,1,1.078.781,10.8,10.8,0,0,1,1.254,1.7,21.324,21.324,0,0,0,1.232,1.826,5.182,5.182,0,0,0,.946.99,3.172,3.172,0,0,0,.682.385,2.027,2.027,0,0,0,.77.143h.11q.11,0,.11.088V27.89a.1.1,0,0,1-.11.11h-.11a3.9,3.9,0,0,1-1.2-.187,4.389,4.389,0,0,1-1.155-.583,8.756,8.756,0,0,1-1.188-1.012q-.11-.132-.4-.517t-.726-1q-.528-.748-.946-1.243a9.113,9.113,0,0,0-.726-.781,1.912,1.912,0,0,0-.594-.385,1.621,1.621,0,0,0-.594-.121,2.03,2.03,0,0,0-.968.275,4.121,4.121,0,0,0-.946.715,4.229,4.229,0,0,0-.715.935,1.936,1.936,0,0,0-.275.935.739.739,0,0,0,.231.539,1.808,1.808,0,0,0,.616.385q.385.154.8.286.814.22,1.364.418a6.87,6.87,0,0,1,.88.374,2.865,2.865,0,0,1,1,.825,1.78,1.78,0,0,1,.341,1.067,3.86,3.86,0,0,1-1.419,3.267,6.893,6.893,0,0,1-4.235,1.089ZM496.874,28a.1.1,0,0,1-.11-.11V26.372q0-.088.11-.088h3.388a3.537,3.537,0,0,1-.825-.99,5.52,5.52,0,0,1-.539-1.342,6.168,6.168,0,0,1-.2-1.584,5.758,5.758,0,0,1,.649-2.838,4.434,4.434,0,0,1,1.826-1.793,5.789,5.789,0,0,1,2.761-.627,7.707,7.707,0,0,1,1.749.187,5.626,5.626,0,0,1,1.309.451L506.4,19.4a7.878,7.878,0,0,0-1.32-.429,5.722,5.722,0,0,0-1.254-.143,3.424,3.424,0,0,0-1.738.407,2.461,2.461,0,0,0-1.045,1.21,5.171,5.171,0,0,0-.341,2.013,5.4,5.4,0,0,0,.341,2A3.129,3.129,0,0,0,502,25.8a2.217,2.217,0,0,0,1.408.484h3.916V28Zm18.5-1.716q.11,0,.11.088V27.89a.1.1,0,0,1-.11.11h-4.862V11.28h1.958v15Zm3.212-11.044a1.2,1.2,0,0,1-.9-.341,1.351,1.351,0,0,1-.33-.979,1.351,1.351,0,0,1,.33-.979,1.2,1.2,0,0,1,.9-.341,1.151,1.151,0,0,1,.913.363,1.6,1.6,0,0,1,0,1.914A1.151,1.151,0,0,1,518.588,15.24ZM515.156,28a.1.1,0,0,1-.11-.11V26.372q0-.088.11-.088h2.9V17.33h1.958v8.954h2.86q.11,0,.11.088V27.89a.1.1,0,0,1-.11.11Zm7.5,0a.1.1,0,0,1-.11-.11V26.372q0-.088.11-.088h2.684v-15h1.87V22.06a10.9,10.9,0,0,1,1.628-2.75,6.273,6.273,0,0,1,2.057-1.65,5.445,5.445,0,0,1,2.409-.55,4.928,4.928,0,0,1,3.762,1.353,6.006,6.006,0,0,1,1.276,4.235v3.586h2.9q.11,0,.11.088V27.89a.1.1,0,0,1-.11.11Zm13.816-1.716v-3.5a4.261,4.261,0,0,0-.891-2.981,3.48,3.48,0,0,0-2.673-.957,3.989,3.989,0,0,0-2.134.627,6.827,6.827,0,0,0-1.9,1.87,15.291,15.291,0,0,0-1.661,3.135v1.8ZM541.028,28a.1.1,0,0,1-.11-.11V26.372q0-.088.11-.088h2.684V17.99h1.87v4.07a10.9,10.9,0,0,1,1.628-2.75,6.273,6.273,0,0,1,2.057-1.65,5.445,5.445,0,0,1,2.409-.55,4.928,4.928,0,0,1,3.762,1.353,6.006,6.006,0,0,1,1.276,4.235V28Zm13.816-1.716v-3.5a4.261,4.261,0,0,0-.891-2.981,3.48,3.48,0,0,0-2.673-.957,3.989,3.989,0,0,0-2.134.627,6.827,6.827,0,0,0-1.9,1.87,15.291,15.291,0,0,0-1.661,3.135v1.8Zm9.526.352L561.444,14.25h2.046l2.926,12.386Zm2.552-.352a2.253,2.253,0,0,0,1.749-.638,2.754,2.754,0,0,0,.583-1.914V11.28h1.958V24a3.9,3.9,0,0,1-1.111,2.915A4.045,4.045,0,0,1,567.142,28h-7.788V26.284Zm8.47-15h1.958V28h-1.958ZM588.46,26.592q.484-.11.99-.2t.968-.154a3.061,3.061,0,0,1-1.012-1.232,4.019,4.019,0,0,1-.4-1.782,4.371,4.371,0,0,1,.572-2.266,3.777,3.777,0,0,1,1.595-1.452A5.322,5.322,0,0,1,593.564,19a5.984,5.984,0,0,1,1.452.165,4.891,4.891,0,0,1,1.21.473l-.484,1.65a5.406,5.406,0,0,0-1.078-.429,4.024,4.024,0,0,0-1.056-.143,2.637,2.637,0,0,0-1.947.671,2.669,2.669,0,0,0-.671,1.969,2.973,2.973,0,0,0,.385,1.507,2.378,2.378,0,0,0,1,.979l.484-.066q1.122-.154,1.936-.242t1.353-.132q.539-.044.781-.044v1.782q-.44,0-1.287.077t-1.892.2q-1.045.121-2.1.264t-1.9.275q-.847.132-1.287.242Zm16.412-.308q.11,0,.11.088V27.89a.1.1,0,0,1-.11.11H600.01V11.28h1.958v15ZM604.652,28a.1.1,0,0,1-.11-.11V26.372q0-.088.11-.088h9.262V22.236a2.875,2.875,0,0,0-.99-2.42,4.963,4.963,0,0,0-3.058-.77h-3.74v-1.8a10.722,10.722,0,0,1,.847-1.474,17.393,17.393,0,0,1,1.111-1.452,17.087,17.087,0,0,1,2.794-2.552,12.893,12.893,0,0,1,2.992-1.672l.7,1.672a12.893,12.893,0,0,0-2.035,1.023,15.85,15.85,0,0,0-1.925,1.386,13.51,13.51,0,0,0-1.595,1.573,7.606,7.606,0,0,0-1.067,1.584h1.914a7.02,7.02,0,0,1,4.4,1.188,4.05,4.05,0,0,1,1.518,3.388V28Zm16.654-12.76a1.2,1.2,0,0,1-.9-.341,1.351,1.351,0,0,1-.33-.979,1.351,1.351,0,0,1,.33-.979,1.2,1.2,0,0,1,.9-.341,1.151,1.151,0,0,1,.913.363,1.6,1.6,0,0,1,0,1.914A1.151,1.151,0,0,1,621.306,15.24Zm-2.882,11.044h7.326a18.472,18.472,0,0,0-.4-1.958,12.087,12.087,0,0,0-.594-1.738,10.661,10.661,0,0,0-1.65-2.728,11.982,11.982,0,0,0-2.464-2.2l.7-1.672a10.074,10.074,0,0,1,2.97,2.343,12.664,12.664,0,0,1,2.112,3.454,18.092,18.092,0,0,1,1.188,4.5h2.442q.11,0,.11.088V27.89a.1.1,0,0,1-.11.11H618.424ZM629.842,28a.1.1,0,0,1-.11-.11V26.372q0-.088.11-.088h2.9v-15H634.7V28Zm14.124-1.716q.11,0,.11.088V27.89a.1.1,0,0,1-.11.11H639.1V11.28h1.958v15ZM646.65,32.4a1.2,1.2,0,0,1-.9-.341,1.617,1.617,0,0,1,0-1.958,1.2,1.2,0,0,1,.9-.341,1.151,1.151,0,0,1,.913.363,1.6,1.6,0,0,1,0,1.914A1.151,1.151,0,0,1,646.65,32.4Zm-2.9-4.4a.1.1,0,0,1-.11-.11V26.372q0-.088.11-.088h2.9V17.33h1.958V28Zm20.218,7.062a5.6,5.6,0,0,1-2.442-.495,3.542,3.542,0,0,1-1.584-1.452,4.541,4.541,0,0,1-.55-2.3,4.02,4.02,0,0,1,.319-1.573,5.136,5.136,0,0,1,.946-1.452,7.97,7.97,0,0,1,1.573-1.309,6.336,6.336,0,0,1-1.078-1.243,5.177,5.177,0,0,1-.66-1.463,6.22,6.22,0,0,1-.22-1.672,4.875,4.875,0,0,1,.715-2.695,4.7,4.7,0,0,1,1.936-1.7,6.231,6.231,0,0,1,2.761-.594,7.743,7.743,0,0,1,1.2.088,8.147,8.147,0,0,1,1.045.231,4.384,4.384,0,0,1,.814.319l-.594,1.65a7.876,7.876,0,0,0-1.32-.429,5.722,5.722,0,0,0-1.254-.143,3.928,3.928,0,0,0-1.793.374,2.542,2.542,0,0,0-1.122,1.1,3.766,3.766,0,0,0-.385,1.782,6.063,6.063,0,0,0,.165,1.43,4.837,4.837,0,0,0,.473,1.232,3.836,3.836,0,0,0,.7.924q.9-.44,1.859-.825t1.925-.671l.528,1.628a17.989,17.989,0,0,0-1.837.561,14.525,14.525,0,0,0-1.639.715,7.388,7.388,0,0,0-2.3,1.694,2.88,2.88,0,0,0-.759,1.87,2.484,2.484,0,0,0,.825,2.079,4.086,4.086,0,0,0,2.541.649q.374,0,.847-.033t1.078-.121q.6-.088,1.309-.2l.242,1.518q-1.034.22-1.771.33t-1.32.154Q664.558,35.062,663.964,35.062ZM682,26.284q.11,0,.11.088V27.89A.1.1,0,0,1,682,28h-3.982a.1.1,0,0,1-.11-.11V26.372q0-.088.11-.088Zm-6.886,7a7.576,7.576,0,0,1-2.112-.286,7.012,7.012,0,0,1-1.848-.836l.88-1.474a9.546,9.546,0,0,0,1.463.627,5.225,5.225,0,0,0,1.661.253,3.268,3.268,0,0,0,2.343-.8,2.789,2.789,0,0,0,.847-2.123V28H676.2a4.886,4.886,0,0,1-3.63-1.287,5.076,5.076,0,0,1-1.276-3.729,5.862,5.862,0,0,1,.737-3,4.98,4.98,0,0,1,2.1-1.958,6.955,6.955,0,0,1,3.19-.693H680.2v11.2a4.573,4.573,0,0,1-1.331,3.5A5.258,5.258,0,0,1,675.118,33.28Zm3.212-7V19.046h-.946a4.249,4.249,0,0,0-3.047,1.034,3.784,3.784,0,0,0-1.089,2.882A3.6,3.6,0,0,0,674,25.481a2.953,2.953,0,0,0,2.266.8ZM688.846,15.24a1.2,1.2,0,0,1-.9-.341,1.351,1.351,0,0,1-.33-.979,1.351,1.351,0,0,1,.33-.979,1.2,1.2,0,0,1,.9-.341,1.151,1.151,0,0,1,.913.363,1.6,1.6,0,0,1,0,1.914A1.151,1.151,0,0,1,688.846,15.24ZM681.784,28a.1.1,0,0,1-.11-.11V26.372q0-.088.11-.088h3.344a5.133,5.133,0,0,1-.616-.99,5.244,5.244,0,0,1-.4-1.155,5.518,5.518,0,0,1-.132-1.177,5.817,5.817,0,0,1,.737-2.981,5,5,0,0,1,2.09-1.958,6.938,6.938,0,0,1,3.2-.693h2.882V28Zm7.172-1.716h2.068V19.046h-.946a4.993,4.993,0,0,0-2.233.462,3.2,3.2,0,0,0-1.419,1.331,4.258,4.258,0,0,0-.484,2.1,4.448,4.448,0,0,0,.341,1.848,2.365,2.365,0,0,0,1.012,1.122A3.372,3.372,0,0,0,688.956,26.284Zm6.8,0h7.326a18.472,18.472,0,0,0-.4-1.958,12.087,12.087,0,0,0-.594-1.738,10.661,10.661,0,0,0-1.65-2.728,11.982,11.982,0,0,0-2.464-2.2l.7-1.672a10.074,10.074,0,0,1,2.97,2.343,12.664,12.664,0,0,1,2.112,3.454,18.092,18.092,0,0,1,1.188,4.5h2.442q.11,0,.11.088V27.89a.1.1,0,0,1-.11.11H695.754Zm14.146,0a13.146,13.146,0,0,1-.616-2.013,8.261,8.261,0,0,1,0-3.6,6.907,6.907,0,0,1,.594-1.65,6.4,6.4,0,0,1,1.859-1.078,6.065,6.065,0,0,1,2.167-.4,5.724,5.724,0,0,1,1.3.143,3.789,3.789,0,0,1,1.122.451,4.115,4.115,0,0,1,1.6,1.738,5.58,5.58,0,0,1,.561,2.53,8.09,8.09,0,0,1-.11,1.353,5.894,5.894,0,0,1-.352,1.243,2.715,2.715,0,0,0,1.045.99,3.549,3.549,0,0,0,1.551.286h.11q.11,0,.11.088V27.89a.1.1,0,0,1-.11.11h-.11a5.529,5.529,0,0,1-1.991-.319,4.541,4.541,0,0,1-1.6-1.111,4.453,4.453,0,0,1-1.628,1.078,5.392,5.392,0,0,1-1.936.352h-6.292a.1.1,0,0,1-.11-.11V26.372q0-.088.11-.088Zm1.166-4.136a11.412,11.412,0,0,0,.176,2,10.029,10.029,0,0,0,.66,2.134h1.562a2.911,2.911,0,0,0,1.661-.451,2.8,2.8,0,0,0,1.023-1.32,5.664,5.664,0,0,0,.352-2.123,3.346,3.346,0,0,0-.759-2.266,2.342,2.342,0,0,0-1.837-.88,3.868,3.868,0,0,0-1.375.253,4.817,4.817,0,0,0-1.2.649,3.55,3.55,0,0,0-.22.946Q711.066,21.576,711.066,22.148ZM720.5,28a.1.1,0,0,1-.11-.11V26.372q0-.088.11-.088h2.9v-15h1.958V28Zm9.262-16.72h1.958V28h-1.958Zm17.49,22a4.094,4.094,0,0,1-2.354-.671,4.3,4.3,0,0,1-1.529-1.936,7.692,7.692,0,0,1-.539-3.025,17.34,17.34,0,0,1,.1-1.848,13.676,13.676,0,0,1,.308-1.782,11.2,11.2,0,0,1,.495-1.562h1.826A10.021,10.021,0,0,0,745,24.7a20.837,20.837,0,0,0-.187,2.948,4.834,4.834,0,0,0,.748,2.893,2.463,2.463,0,0,0,2.112,1.023h1.078a3.9,3.9,0,0,0,2.8-.869,3.52,3.52,0,0,0,.891-2.629V11.28h1.87V27.912A5.531,5.531,0,0,1,753,31.927a5.594,5.594,0,0,1-4.158,1.353Zm21.538-7q.11,0,.11.088V27.89a.1.1,0,0,1-.11.11h-3.982a.1.1,0,0,1-.11-.11V26.372q0-.088.11-.088Zm-6.886,7a7.576,7.576,0,0,1-2.112-.286,7.012,7.012,0,0,1-1.848-.836l.88-1.474a9.546,9.546,0,0,0,1.463.627,5.225,5.225,0,0,0,1.661.253,3.268,3.268,0,0,0,2.343-.8,2.789,2.789,0,0,0,.847-2.123V28h-2.156a4.886,4.886,0,0,1-3.63-1.287,5.076,5.076,0,0,1-1.276-3.729,5.862,5.862,0,0,1,.737-3,4.98,4.98,0,0,1,2.1-1.958,6.955,6.955,0,0,1,3.19-.693h2.882v11.2a4.573,4.573,0,0,1-1.331,3.5A5.258,5.258,0,0,1,761.908,33.28Zm3.212-7V19.046h-.946a4.249,4.249,0,0,0-3.047,1.034,3.784,3.784,0,0,0-1.089,2.882,3.6,3.6,0,0,0,.748,2.519,2.953,2.953,0,0,0,2.266.8ZM768.574,28a.1.1,0,0,1-.11-.11V26.372q0-.088.11-.088h9.438a2.917,2.917,0,0,1-.539-.825,7.862,7.862,0,0,1-.462-1.342q-.209-.8-.385-1.859a9.652,9.652,0,0,0-.385-1.584,3.714,3.714,0,0,0-.55-1.067,1.873,1.873,0,0,0-.781-.594,2.8,2.8,0,0,0-1.056-.187,5.862,5.862,0,0,0-1.551.22,8.156,8.156,0,0,0-1.639.66l-.77-1.518a6.107,6.107,0,0,1,1.914-.847,8.889,8.889,0,0,1,2.068-.231,5.906,5.906,0,0,1,1.243.121,3.673,3.673,0,0,1,1,.363,3.716,3.716,0,0,1,1.034.847,4.18,4.18,0,0,1,.726,1.32,11.832,11.832,0,0,1,.484,1.991q.176,1.144.407,2.035a8.639,8.639,0,0,0,.528,1.518,3.487,3.487,0,0,0,.649.979h1.474q.11,0,.11.088V27.89a.1.1,0,0,1-.11.11ZM783.2,15.24a1.3,1.3,0,0,1-.869-.308,1.26,1.26,0,0,1-.363-1.012,1.26,1.26,0,0,1,.363-1.012,1.3,1.3,0,0,1,.869-.308,1.2,1.2,0,0,1,.9.341,1.351,1.351,0,0,1,.33.979,1.351,1.351,0,0,1-.33.979A1.2,1.2,0,0,1,783.2,15.24Zm3.806,0a1.2,1.2,0,0,1-.9-.341,1.351,1.351,0,0,1-.33-.979,1.351,1.351,0,0,1,.33-.979,1.2,1.2,0,0,1,.9-.341,1.151,1.151,0,0,1,.913.363,1.6,1.6,0,0,1,0,1.914A1.151,1.151,0,0,1,787.01,15.24ZM781.2,28a.1.1,0,0,1-.11-.11V26.372q0-.088.11-.088h3.564V17.33h1.958v8.954h3.3q.11,0,.11.088V27.89a.1.1,0,0,1-.11.11Zm8.6,0a.1.1,0,0,1-.11-.11V26.372q0-.088.11-.088h2.9v-15h1.958V28Zm9.262-16.72h1.958V28h-1.958Z" transform="translate(0 103)"/>
  <path id="Path_304" data-name="Path 304" d="M416.244,15.24a1.3,1.3,0,0,1-.869-.308,1.26,1.26,0,0,1-.363-1.012,1.26,1.26,0,0,1,.363-1.012,1.3,1.3,0,0,1,.869-.308,1.2,1.2,0,0,1,.9.341,1.352,1.352,0,0,1,.33.979,1.352,1.352,0,0,1-.33.979A1.2,1.2,0,0,1,416.244,15.24Zm3.806,0a1.2,1.2,0,0,1-.9-.341,1.352,1.352,0,0,1-.33-.979,1.352,1.352,0,0,1,.33-.979,1.2,1.2,0,0,1,.9-.341,1.151,1.151,0,0,1,.913.363,1.595,1.595,0,0,1,0,1.914A1.151,1.151,0,0,1,420.05,15.24ZM418.752,28a6.882,6.882,0,0,1-3.014-.6,4.308,4.308,0,0,1-1.914-1.749,5.368,5.368,0,0,1-.66-2.728,5.742,5.742,0,0,1,.737-2.981,4.967,4.967,0,0,1,2.09-1.925,7.032,7.032,0,0,1,3.2-.682h1.452V15.944h1.87v10.34h2.508q.11,0,.11.088V27.89a.1.1,0,0,1-.11.11Zm1.892-1.716V19.046h-1.386a4.3,4.3,0,0,0-3.058,1.012,3.7,3.7,0,0,0-1.078,2.838,3.271,3.271,0,0,0,.935,2.519,3.75,3.75,0,0,0,2.651.869Zm6.6,6.116a1.3,1.3,0,0,1-.869-.308,1.592,1.592,0,0,1,0-2.024,1.3,1.3,0,0,1,.869-.308,1.2,1.2,0,0,1,.9.341,1.617,1.617,0,0,1,0,1.958A1.2,1.2,0,0,1,427.244,32.4Zm3.806,0a1.2,1.2,0,0,1-.9-.341,1.617,1.617,0,0,1,0-1.958,1.2,1.2,0,0,1,.9-.341,1.151,1.151,0,0,1,.913.363,1.595,1.595,0,0,1,0,1.914A1.151,1.151,0,0,1,431.05,32.4ZM424.8,28a.1.1,0,0,1-.11-.11V26.372q0-.088.11-.088h3.564V17.33h1.958v8.954h3.3q.11,0,.11.088V27.89a.1.1,0,0,1-.11.11Zm22.946,0a4.93,4.93,0,0,1-1.826-.33,5.214,5.214,0,0,1-1.716-1.21,3.662,3.662,0,0,1-1.287,1.111,4.034,4.034,0,0,1-1.925.429H433.4a.1.1,0,0,1-.11-.11V26.372q0-.088.11-.088h3.146V19.046h1.87v7.238H440.8a2.042,2.042,0,0,0,1.65-.7,2.769,2.769,0,0,0,.594-1.848V19.046h1.87V24.2a2.923,2.923,0,0,1-.022.363,3.6,3.6,0,0,0,1.2,1.331,3.219,3.219,0,0,0,1.661.385h1.342V17.33h1.87v8.954h2.948q.11,0,.11.088V27.89a.1.1,0,0,1-.11.11Zm13-12.76a1.2,1.2,0,0,1-.9-.341,1.352,1.352,0,0,1-.33-.979,1.352,1.352,0,0,1,.33-.979,1.2,1.2,0,0,1,.9-.341,1.151,1.151,0,0,1,.913.363,1.595,1.595,0,0,1,0,1.914A1.151,1.151,0,0,1,460.75,15.24ZM453.688,28a.1.1,0,0,1-.11-.11V26.372q0-.088.11-.088h3.344a5.131,5.131,0,0,1-.616-.99,5.241,5.241,0,0,1-.4-1.155,5.514,5.514,0,0,1-.132-1.177,5.817,5.817,0,0,1,.737-2.981,5,5,0,0,1,2.09-1.958,6.938,6.938,0,0,1,3.2-.693H464.8V28Zm7.172-1.716h2.068V19.046h-.946a4.993,4.993,0,0,0-2.233.462,3.2,3.2,0,0,0-1.419,1.331,4.258,4.258,0,0,0-.484,2.1,4.448,4.448,0,0,0,.341,1.848A2.365,2.365,0,0,0,459.2,25.91,3.372,3.372,0,0,0,460.86,26.284Zm12.87,0q.11,0,.11.088V27.89a.1.1,0,0,1-.11.11h-4.862V11.28h1.958v15Zm3.212-11.044a1.2,1.2,0,0,1-.9-.341,1.352,1.352,0,0,1-.33-.979,1.352,1.352,0,0,1,.33-.979,1.2,1.2,0,0,1,.9-.341,1.151,1.151,0,0,1,.913.363,1.595,1.595,0,0,1,0,1.914A1.151,1.151,0,0,1,476.942,15.24ZM473.51,28a.1.1,0,0,1-.11-.11V26.372q0-.088.11-.088h2.9V17.33h1.958v8.954h2.86q.11,0,.11.088V27.89a.1.1,0,0,1-.11.11Zm9.5-12.76a1.3,1.3,0,0,1-.869-.308,1.26,1.26,0,0,1-.363-1.012,1.26,1.26,0,0,1,.363-1.012,1.3,1.3,0,0,1,.869-.308,1.2,1.2,0,0,1,.9.341,1.352,1.352,0,0,1,.33.979,1.352,1.352,0,0,1-.33.979A1.2,1.2,0,0,1,483.014,15.24Zm3.806,0a1.2,1.2,0,0,1-.9-.341,1.352,1.352,0,0,1-.33-.979,1.352,1.352,0,0,1,.33-.979,1.2,1.2,0,0,1,.9-.341,1.151,1.151,0,0,1,.913.363,1.595,1.595,0,0,1,0,1.914A1.151,1.151,0,0,1,486.82,15.24ZM481.012,28a.1.1,0,0,1-.11-.11V26.372q0-.088.11-.088h3.564V17.33h1.958v8.954h3.3q.11,0,.11.088V27.89a.1.1,0,0,1-.11.11Zm8.6,0a.1.1,0,0,1-.11-.11V26.372q0-.088.11-.088h2.9v-15h1.958V28Zm9.262-16.72h1.958V28h-1.958Zm18.106,3.96a1.3,1.3,0,0,1-.869-.308,1.26,1.26,0,0,1-.363-1.012,1.26,1.26,0,0,1,.363-1.012,1.3,1.3,0,0,1,.869-.308,1.2,1.2,0,0,1,.9.341,1.351,1.351,0,0,1,.33.979,1.351,1.351,0,0,1-.33.979A1.2,1.2,0,0,1,516.982,15.24Zm3.806,0a1.2,1.2,0,0,1-.9-.341,1.351,1.351,0,0,1-.33-.979,1.351,1.351,0,0,1,.33-.979,1.2,1.2,0,0,1,.9-.341,1.151,1.151,0,0,1,.913.363,1.6,1.6,0,0,1,0,1.914A1.151,1.151,0,0,1,520.788,15.24ZM516.058,28a3.993,3.993,0,0,1-3-1.144,4.294,4.294,0,0,1-1.111-3.124,10.136,10.136,0,0,1,.066-1.089,10.561,10.561,0,0,1,.2-1.188,9.427,9.427,0,0,1,.286-1.023h1.76q-.154.792-.242,1.584a14.141,14.141,0,0,0-.088,1.562,3.137,3.137,0,0,0,.572,1.958,1.8,1.8,0,0,0,1.5.748h7.9V17.33h1.87V28Zm18.634-1.716q.11,0,.11.088V27.89a.1.1,0,0,1-.11.11H529.83V11.28h1.958v15ZM534.472,28a.1.1,0,0,1-.11-.11V26.372q0-.088.11-.088H537.2a13.146,13.146,0,0,1-.616-2.013,8.261,8.261,0,0,1,0-3.6,6.907,6.907,0,0,1,.594-1.65,6.4,6.4,0,0,1,1.859-1.078,6.065,6.065,0,0,1,2.167-.4,5.724,5.724,0,0,1,1.3.143,3.789,3.789,0,0,1,1.122.451,4.115,4.115,0,0,1,1.6,1.738,5.58,5.58,0,0,1,.561,2.53,7.915,7.915,0,0,1-.154,1.617,5.945,5.945,0,0,1-.462,1.375,4.421,4.421,0,0,1-1.771,1.925,5.137,5.137,0,0,1-2.629.671Zm3.894-5.852a11.412,11.412,0,0,0,.176,2,10.029,10.029,0,0,0,.66,2.134h1.562a2.911,2.911,0,0,0,1.661-.451,2.8,2.8,0,0,0,1.023-1.32,5.664,5.664,0,0,0,.352-2.123,3.346,3.346,0,0,0-.759-2.266,2.342,2.342,0,0,0-1.837-.88,3.868,3.868,0,0,0-1.375.253,4.817,4.817,0,0,0-1.2.649,3.55,3.55,0,0,0-.22.946Q538.366,21.576,538.366,22.148Zm21.12,4.136q.11,0,.11.088V27.89a.1.1,0,0,1-.11.11H555.5a.1.1,0,0,1-.11-.11V26.372q0-.088.11-.088Zm-6.886,7a7.576,7.576,0,0,1-2.112-.286,7.012,7.012,0,0,1-1.848-.836l.88-1.474a9.546,9.546,0,0,0,1.463.627,5.225,5.225,0,0,0,1.661.253,3.268,3.268,0,0,0,2.343-.8,2.789,2.789,0,0,0,.847-2.123V28h-2.156a4.886,4.886,0,0,1-3.63-1.287,5.076,5.076,0,0,1-1.276-3.729,5.862,5.862,0,0,1,.737-3,4.98,4.98,0,0,1,2.1-1.958,6.955,6.955,0,0,1,3.19-.693h2.882v11.2a4.573,4.573,0,0,1-1.331,3.5A5.258,5.258,0,0,1,552.6,33.28Zm3.212-7V19.046h-.946a4.249,4.249,0,0,0-3.047,1.034,3.784,3.784,0,0,0-1.089,2.882,3.6,3.6,0,0,0,.748,2.519,2.953,2.953,0,0,0,2.266.8ZM559.266,28a.1.1,0,0,1-.11-.11V26.372q0-.088.11-.088h2.9v-15h1.958v15h2.86q.11,0,.11.088V27.89a.1.1,0,0,1-.11.11Zm18.216,0a8,8,0,0,1-1.991-.275,9.1,9.1,0,0,1-2.079-.825,8.475,8.475,0,0,1-1.991.825,8.058,8.058,0,0,1-2.1.275h-2.552a.1.1,0,0,1-.11-.11V26.372q0-.088.11-.088h2.53a8.86,8.86,0,0,0,1.452-.11,4.975,4.975,0,0,0,1.166-.33,7.085,7.085,0,0,1-.858-.759,11.534,11.534,0,0,1-.88-1.023,13.648,13.648,0,0,1-1.5-2.5,9.923,9.923,0,0,1-.814-2.519,9.851,9.851,0,0,1,1.749-1.287,8.784,8.784,0,0,1,1.969-.836,7.46,7.46,0,0,1,2.068-.3,9.328,9.328,0,0,1,2.794.44,9.122,9.122,0,0,1,2.464,1.166,9.226,9.226,0,0,1-.473,2.937,9.125,9.125,0,0,1-1.364,2.607,9.226,9.226,0,0,1-2.123,2.046,8.709,8.709,0,0,0,1.221.341,6.211,6.211,0,0,0,1.221.121h2.662q.11,0,.11.088V27.89a.1.1,0,0,1-.11.11Zm-4.048-3.146a8.223,8.223,0,0,0,2.519-2.519,6.9,6.9,0,0,0,.935-3.179,6.535,6.535,0,0,0-3.168-.814,5.576,5.576,0,0,0-1.243.143,6.7,6.7,0,0,0-1.243.418,7.873,7.873,0,0,0-1.254.715,8.219,8.219,0,0,0,.7,1.969,8.981,8.981,0,0,0,1.188,1.782A10.316,10.316,0,0,0,573.434,24.854Zm9.13,1.43a13.146,13.146,0,0,1-.616-2.013,8.261,8.261,0,0,1,0-3.6,6.907,6.907,0,0,1,.594-1.65,6.4,6.4,0,0,1,1.859-1.078,6.065,6.065,0,0,1,2.167-.4,5.724,5.724,0,0,1,1.3.143,3.789,3.789,0,0,1,1.122.451,4.115,4.115,0,0,1,1.6,1.738,5.58,5.58,0,0,1,.561,2.53,8.09,8.09,0,0,1-.11,1.353,5.894,5.894,0,0,1-.352,1.243,2.715,2.715,0,0,0,1.045.99,3.549,3.549,0,0,0,1.551.286h.11q.11,0,.11.088V27.89a.1.1,0,0,1-.11.11h-.11a5.529,5.529,0,0,1-1.991-.319,4.541,4.541,0,0,1-1.6-1.111,4.453,4.453,0,0,1-1.628,1.078,5.392,5.392,0,0,1-1.936.352h-6.292a.1.1,0,0,1-.11-.11V26.372q0-.088.11-.088Zm1.166-4.136a11.412,11.412,0,0,0,.176,2,10.029,10.029,0,0,0,.66,2.134h1.562a2.911,2.911,0,0,0,1.661-.451,2.8,2.8,0,0,0,1.023-1.32,5.664,5.664,0,0,0,.352-2.123,3.346,3.346,0,0,0-.759-2.266,2.342,2.342,0,0,0-1.837-.88,3.868,3.868,0,0,0-1.375.253,4.817,4.817,0,0,0-1.2.649,3.55,3.55,0,0,0-.22.946Q583.73,21.576,583.73,22.148ZM593.168,28a.1.1,0,0,1-.11-.11V26.372q0-.088.11-.088h2.9v-15h1.958V28Zm9.262-16.72h1.958V28H602.43Zm18.7,15q.11,0,.11.088V27.89a.1.1,0,0,1-.11.11h-4.862V11.28h1.958v15Zm2.222,6.116a1.3,1.3,0,0,1-.869-.308,1.592,1.592,0,0,1,0-2.024,1.3,1.3,0,0,1,.869-.308,1.2,1.2,0,0,1,.9.341,1.617,1.617,0,0,1,0,1.958A1.2,1.2,0,0,1,623.352,32.4Zm3.806,0a1.2,1.2,0,0,1-.9-.341,1.617,1.617,0,0,1,0-1.958,1.2,1.2,0,0,1,.9-.341,1.151,1.151,0,0,1,.913.363,1.6,1.6,0,0,1,0,1.914A1.151,1.151,0,0,1,627.158,32.4ZM620.91,28a.1.1,0,0,1-.11-.11V26.372q0-.088.11-.088h3.564V17.33h1.958v8.954h3.3q.11,0,.11.088V27.89a.1.1,0,0,1-.11.11Zm14.08,4.4a1.2,1.2,0,0,1-.9-.341,1.617,1.617,0,0,1,0-1.958,1.2,1.2,0,0,1,.9-.341,1.151,1.151,0,0,1,.913.363,1.6,1.6,0,0,1,0,1.914A1.151,1.151,0,0,1,634.99,32.4ZM629.512,28a.1.1,0,0,1-.11-.11V26.372q0-.088.11-.088h9.438a3.737,3.737,0,0,1-.759-1.419,18.25,18.25,0,0,1-.627-2.607,8.907,8.907,0,0,0-.55-2.024,2.326,2.326,0,0,0-.858-1.078,2.539,2.539,0,0,0-1.364-.33,5.862,5.862,0,0,0-1.551.22,8.156,8.156,0,0,0-1.639.66l-.77-1.518a6.107,6.107,0,0,1,1.914-.847,8.889,8.889,0,0,1,2.068-.231,5.906,5.906,0,0,1,1.243.121,3.673,3.673,0,0,1,1,.363,3.445,3.445,0,0,1,1.441,1.419,8.641,8.641,0,0,1,.8,2.739q.22,1.3.462,2.2a7.421,7.421,0,0,0,.539,1.474,3.326,3.326,0,0,0,.649.9V28Zm25.146-1.716q.11,0,.11.088V27.89a.1.1,0,0,1-.11.11h-3.982a.1.1,0,0,1-.11-.11V26.372q0-.088.11-.088Zm-6.886,7a7.576,7.576,0,0,1-2.112-.286,7.012,7.012,0,0,1-1.848-.836l.88-1.474a9.546,9.546,0,0,0,1.463.627,5.225,5.225,0,0,0,1.661.253,3.268,3.268,0,0,0,2.343-.8,2.789,2.789,0,0,0,.847-2.123V28H648.85a4.886,4.886,0,0,1-3.63-1.287,5.076,5.076,0,0,1-1.276-3.729,5.862,5.862,0,0,1,.737-3,4.98,4.98,0,0,1,2.1-1.958,6.955,6.955,0,0,1,3.19-.693h2.882v11.2a4.573,4.573,0,0,1-1.331,3.5A5.258,5.258,0,0,1,647.772,33.28Zm3.212-7V19.046h-.946a4.249,4.249,0,0,0-3.047,1.034,3.784,3.784,0,0,0-1.089,2.882,3.6,3.6,0,0,0,.748,2.519,2.953,2.953,0,0,0,2.266.8ZM654.438,28a.1.1,0,0,1-.11-.11V26.372q0-.088.11-.088h2.9v-15H659.3V28Zm19.338-1.716q.11,0,.11.088V27.89a.1.1,0,0,1-.11.11h-3.982a.1.1,0,0,1-.11-.11V26.372q0-.088.11-.088Zm-6.886,7a7.576,7.576,0,0,1-2.112-.286,7.012,7.012,0,0,1-1.848-.836l.88-1.474a9.546,9.546,0,0,0,1.463.627,5.225,5.225,0,0,0,1.661.253,3.268,3.268,0,0,0,2.343-.8,2.789,2.789,0,0,0,.847-2.123V28h-2.156a4.886,4.886,0,0,1-3.63-1.287,5.076,5.076,0,0,1-1.276-3.729,5.862,5.862,0,0,1,.737-3,4.98,4.98,0,0,1,2.1-1.958,6.955,6.955,0,0,1,3.19-.693h2.882v11.2a4.573,4.573,0,0,1-1.331,3.5A5.258,5.258,0,0,1,666.89,33.28Zm3.212-7V19.046h-.946a4.249,4.249,0,0,0-3.047,1.034,3.784,3.784,0,0,0-1.089,2.882,3.6,3.6,0,0,0,.748,2.519,2.953,2.953,0,0,0,2.266.8Zm6.886-11.044a1.2,1.2,0,0,1-.9-.341,1.351,1.351,0,0,1-.33-.979,1.351,1.351,0,0,1,.33-.979,1.2,1.2,0,0,1,.9-.341,1.151,1.151,0,0,1,.913.363,1.6,1.6,0,0,1,0,1.914A1.151,1.151,0,0,1,676.988,15.24ZM673.556,28a.1.1,0,0,1-.11-.11V26.372q0-.088.11-.088h2.9V17.33h1.958v8.954h2.86q.11,0,.11.088V27.89a.1.1,0,0,1-.11.11Zm7.5,0a.1.1,0,0,1-.11-.11V26.372q0-.088.11-.088h9.262V22.236a2.875,2.875,0,0,0-.99-2.42,4.963,4.963,0,0,0-3.058-.77h-3.74v-1.8a10.722,10.722,0,0,1,.847-1.474,17.393,17.393,0,0,1,1.111-1.452,17.087,17.087,0,0,1,2.794-2.552,12.893,12.893,0,0,1,2.992-1.672l.7,1.672a12.893,12.893,0,0,0-2.035,1.023,15.85,15.85,0,0,0-1.925,1.386,13.51,13.51,0,0,0-1.595,1.573,7.606,7.606,0,0,0-1.067,1.584h1.914a7.02,7.02,0,0,1,4.4,1.188,4.05,4.05,0,0,1,1.518,3.388v4.378h2.86q.11,0,.11.088V27.89a.1.1,0,0,1-.11.11Zm16.478-12.76a1.3,1.3,0,0,1-.869-.308,1.26,1.26,0,0,1-.363-1.012,1.26,1.26,0,0,1,.363-1.012,1.3,1.3,0,0,1,.869-.308,1.2,1.2,0,0,1,.9.341,1.351,1.351,0,0,1,.33.979,1.351,1.351,0,0,1-.33.979A1.2,1.2,0,0,1,697.536,15.24Zm3.806,0a1.2,1.2,0,0,1-.9-.341,1.351,1.351,0,0,1-.33-.979,1.351,1.351,0,0,1,.33-.979,1.2,1.2,0,0,1,.9-.341,1.151,1.151,0,0,1,.913.363,1.6,1.6,0,0,1,0,1.914A1.151,1.151,0,0,1,701.342,15.24ZM694.83,28a.1.1,0,0,1-.11-.11V26.372q0-.088.11-.088h4.224V17.33h1.958V28Zm20.328-12.76a1.3,1.3,0,0,1-.869-.308,1.26,1.26,0,0,1-.363-1.012,1.26,1.26,0,0,1,.363-1.012,1.3,1.3,0,0,1,.869-.308,1.2,1.2,0,0,1,.9.341,1.351,1.351,0,0,1,.33.979,1.351,1.351,0,0,1-.33.979A1.2,1.2,0,0,1,715.158,15.24Zm3.806,0a1.2,1.2,0,0,1-.9-.341,1.351,1.351,0,0,1-.33-.979,1.351,1.351,0,0,1,.33-.979,1.2,1.2,0,0,1,.9-.341,1.151,1.151,0,0,1,.913.363,1.6,1.6,0,0,1,0,1.914A1.151,1.151,0,0,1,718.964,15.24ZM717.666,28a6.882,6.882,0,0,1-3.014-.6,4.308,4.308,0,0,1-1.914-1.749,5.368,5.368,0,0,1-.66-2.728,5.742,5.742,0,0,1,.737-2.981,4.967,4.967,0,0,1,2.09-1.925,7.032,7.032,0,0,1,3.2-.682h1.452V15.944h1.87v10.34h2.508q.11,0,.11.088V27.89a.1.1,0,0,1-.11.11Zm1.892-1.716V19.046h-1.386a4.3,4.3,0,0,0-3.058,1.012,3.7,3.7,0,0,0-1.078,2.838,3.271,3.271,0,0,0,.935,2.519,3.75,3.75,0,0,0,2.651.869Zm6.886,0a13.146,13.146,0,0,1-.616-2.013,8.261,8.261,0,0,1,0-3.6,6.907,6.907,0,0,1,.594-1.65,6.4,6.4,0,0,1,1.859-1.078,6.065,6.065,0,0,1,2.167-.4,5.724,5.724,0,0,1,1.3.143,3.789,3.789,0,0,1,1.122.451,4.115,4.115,0,0,1,1.6,1.738,5.58,5.58,0,0,1,.561,2.53,8.09,8.09,0,0,1-.11,1.353,5.894,5.894,0,0,1-.352,1.243,2.715,2.715,0,0,0,1.045.99,3.549,3.549,0,0,0,1.551.286h.11q.11,0,.11.088V27.89a.1.1,0,0,1-.11.11h-.11a5.529,5.529,0,0,1-1.991-.319,4.541,4.541,0,0,1-1.6-1.111,4.453,4.453,0,0,1-1.628,1.078,5.392,5.392,0,0,1-1.936.352h-6.292a.1.1,0,0,1-.11-.11V26.372q0-.088.11-.088Zm1.166-4.136a11.412,11.412,0,0,0,.176,2,10.029,10.029,0,0,0,.66,2.134h1.562a2.911,2.911,0,0,0,1.661-.451,2.8,2.8,0,0,0,1.023-1.32,5.664,5.664,0,0,0,.352-2.123,3.346,3.346,0,0,0-.759-2.266,2.342,2.342,0,0,0-1.837-.88,3.868,3.868,0,0,0-1.375.253,4.817,4.817,0,0,0-1.2.649,3.55,3.55,0,0,0-.22.946Q727.61,21.576,727.61,22.148Zm19.558-6.908a1.2,1.2,0,0,1-.9-.341,1.351,1.351,0,0,1-.33-.979,1.351,1.351,0,0,1,.33-.979,1.2,1.2,0,0,1,.9-.341,1.151,1.151,0,0,1,.913.363,1.6,1.6,0,0,1,0,1.914A1.151,1.151,0,0,1,747.168,15.24ZM737.048,28a.1.1,0,0,1-.11-.11V26.372q0-.088.11-.088h2.684v-15h1.87V22.06a10.9,10.9,0,0,1,1.628-2.75,6.273,6.273,0,0,1,2.057-1.65,5.445,5.445,0,0,1,2.409-.55,4.928,4.928,0,0,1,3.762,1.353,6.006,6.006,0,0,1,1.276,4.235v3.586h2.9q.11,0,.11.088V27.89a.1.1,0,0,1-.11.11Zm13.816-1.716v-3.5a4.261,4.261,0,0,0-.891-2.981,3.48,3.48,0,0,0-2.673-.957,3.989,3.989,0,0,0-2.134.627,6.827,6.827,0,0,0-1.9,1.87A15.291,15.291,0,0,0,741.6,24.48v1.8ZM758.85,15.24a1.2,1.2,0,0,1-.9-.341,1.351,1.351,0,0,1-.33-.979,1.351,1.351,0,0,1,.33-.979,1.2,1.2,0,0,1,.9-.341,1.151,1.151,0,0,1,.913.363,1.6,1.6,0,0,1,0,1.914A1.151,1.151,0,0,1,758.85,15.24ZM755.418,28a.1.1,0,0,1-.11-.11V26.372q0-.088.11-.088h2.9V17.33h1.958V28Zm7.634-17.49,1.034-.154a1.7,1.7,0,0,1-.572-.594,1.587,1.587,0,0,1-.2-.792,1.8,1.8,0,0,1,.616-1.463,2.448,2.448,0,0,1,1.628-.517,2.952,2.952,0,0,1,1.452.33l-.33.99a1.749,1.749,0,0,0-.5-.2,2.592,2.592,0,0,0-.6-.066,1.229,1.229,0,0,0-.814.275,1.04,1.04,0,0,0-.33.847,1.075,1.075,0,0,0,.187.638,1.175,1.175,0,0,0,.473.4q.44-.088.88-.143l.8-.1a4.942,4.942,0,0,1,.517-.044v1.078q-.418.022-.9.077t-1.034.121q-.55.066-1.133.154l-1.177.176Zm1.3,2.09h1.958V28H764.35ZM773.9,33.28a7.576,7.576,0,0,1-2.112-.286,7.012,7.012,0,0,1-1.848-.836l.88-1.474a9.546,9.546,0,0,0,1.463.627,5.225,5.225,0,0,0,1.661.253,3.268,3.268,0,0,0,2.343-.8,2.789,2.789,0,0,0,.847-2.123V28h-2.156a4.886,4.886,0,0,1-3.63-1.287,5.076,5.076,0,0,1-1.276-3.729,5.862,5.862,0,0,1,.737-3,4.98,4.98,0,0,1,2.1-1.958,6.955,6.955,0,0,1,3.19-.693h2.882v11.2a4.573,4.573,0,0,1-1.331,3.5A5.258,5.258,0,0,1,773.9,33.28Zm3.212-7V19.046h-.946a4.249,4.249,0,0,0-3.047,1.034,3.784,3.784,0,0,0-1.089,2.882,3.6,3.6,0,0,0,.748,2.519,2.953,2.953,0,0,0,2.266.8ZM794.8,15.24a1.3,1.3,0,0,1-.869-.308,1.26,1.26,0,0,1-.363-1.012,1.26,1.26,0,0,1,.363-1.012,1.3,1.3,0,0,1,.869-.308,1.2,1.2,0,0,1,.9.341,1.351,1.351,0,0,1,.33.979,1.351,1.351,0,0,1-.33.979A1.2,1.2,0,0,1,794.8,15.24Zm3.806,0a1.2,1.2,0,0,1-.9-.341,1.351,1.351,0,0,1-.33-.979,1.351,1.351,0,0,1,.33-.979,1.2,1.2,0,0,1,.9-.341,1.151,1.151,0,0,1,.913.363,1.6,1.6,0,0,1,0,1.914A1.151,1.151,0,0,1,798.6,15.24ZM793.874,28a3.992,3.992,0,0,1-3-1.144,4.294,4.294,0,0,1-1.111-3.124,10.135,10.135,0,0,1,.066-1.089,10.575,10.575,0,0,1,.2-1.188,9.427,9.427,0,0,1,.286-1.023h1.76q-.154.792-.242,1.584a14.141,14.141,0,0,0-.088,1.562,3.137,3.137,0,0,0,.572,1.958,1.8,1.8,0,0,0,1.5.748h7.9V17.33h1.87V28Zm18.634-1.716q.11,0,.11.088V27.89a.1.1,0,0,1-.11.11h-4.862V11.28H809.6v15ZM812.288,28a.1.1,0,0,1-.11-.11V26.372q0-.088.11-.088h9.262V22.236a2.875,2.875,0,0,0-.99-2.42,4.963,4.963,0,0,0-3.058-.77h-3.74v-1.8a10.722,10.722,0,0,1,.847-1.474,17.393,17.393,0,0,1,1.111-1.452,17.087,17.087,0,0,1,2.794-2.552,12.893,12.893,0,0,1,2.992-1.672l.7,1.672a12.893,12.893,0,0,0-2.035,1.023,15.85,15.85,0,0,0-1.925,1.386,13.51,13.51,0,0,0-1.595,1.573,7.606,7.606,0,0,0-1.067,1.584H817.5a7.02,7.02,0,0,1,4.4,1.188,4.05,4.05,0,0,1,1.518,3.388v4.378h2.86q.11,0,.11.088V27.89a.1.1,0,0,1-.11.11Zm17.534,4.4a1.2,1.2,0,0,1-.9-.341,1.617,1.617,0,0,1,0-1.958,1.2,1.2,0,0,1,.9-.341,1.151,1.151,0,0,1,.913.363,1.6,1.6,0,0,1,0,1.914A1.151,1.151,0,0,1,829.822,32.4ZM826.06,28a.1.1,0,0,1-.11-.11V26.372q0-.088.11-.088h2.9V17.33h1.958v8.954h2.86q.11,0,.11.088V27.89a.1.1,0,0,1-.11.11Zm17.754-15.73a1.2,1.2,0,0,1-.814-.286,1.162,1.162,0,0,1-.33-.924,1.162,1.162,0,0,1,.33-.924,1.2,1.2,0,0,1,.814-.286,1.183,1.183,0,0,1,.8.3,1.147,1.147,0,0,1,.341.913,1.142,1.142,0,0,1-.341.924A1.211,1.211,0,0,1,843.814,12.27Zm-1.892,2.97a1.3,1.3,0,0,1-.869-.308,1.26,1.26,0,0,1-.363-1.012,1.26,1.26,0,0,1,.363-1.012,1.3,1.3,0,0,1,.869-.308,1.151,1.151,0,0,1,.913.363,1.595,1.595,0,0,1,0,1.914A1.151,1.151,0,0,1,841.922,15.24Zm3.806,0a1.2,1.2,0,0,1-.9-.341,1.351,1.351,0,0,1-.33-.979,1.351,1.351,0,0,1,.33-.979,1.2,1.2,0,0,1,.9-.341,1.151,1.151,0,0,1,.913.363,1.6,1.6,0,0,1,0,1.914A1.151,1.151,0,0,1,845.728,15.24ZM847.906,28a4.93,4.93,0,0,1-1.826-.33,5.215,5.215,0,0,1-1.716-1.21,3.662,3.662,0,0,1-1.287,1.111,4.034,4.034,0,0,1-1.925.429h-7.59a.1.1,0,0,1-.11-.11V26.372q0-.088.11-.088h3.146V19.046h1.87v7.238h2.376a2.042,2.042,0,0,0,1.65-.7,2.769,2.769,0,0,0,.594-1.848V19.046h1.87V24.2a2.929,2.929,0,0,1-.022.363,3.6,3.6,0,0,0,1.2,1.331,3.219,3.219,0,0,0,1.661.385h1.342V17.33h1.87v8.954h2.948q.11,0,.11.088V27.89a.1.1,0,0,1-.11.11Zm5.94,0a.1.1,0,0,1-.11-.11V26.372q0-.088.11-.088h2.9v-15h1.958V28Zm9.262-16.72h1.958V28h-1.958Z" transform="translate(0 154)"/>
  <path id="Path_305" data-name="Path 305" d="M1.978,26.592q.484-.11.99-.2t.968-.154a3.061,3.061,0,0,1-1.012-1.232,4.019,4.019,0,0,1-.4-1.782A4.372,4.372,0,0,1,3.1,20.96a3.777,3.777,0,0,1,1.595-1.452A5.322,5.322,0,0,1,7.082,19a5.984,5.984,0,0,1,1.452.165,4.891,4.891,0,0,1,1.21.473L9.26,21.29a5.406,5.406,0,0,0-1.078-.429,4.024,4.024,0,0,0-1.056-.143,2.637,2.637,0,0,0-1.947.671,2.669,2.669,0,0,0-.671,1.969,2.973,2.973,0,0,0,.385,1.507,2.379,2.379,0,0,0,1,.979l.484-.066q1.122-.154,1.936-.242T9.667,25.4q.539-.044.781-.044v1.782q-.44,0-1.287.077t-1.892.2q-1.045.121-2.1.264t-1.9.275q-.847.132-1.287.242Zm15.356.044L14.408,14.25h2.046L19.38,26.636Zm4.884-.352v-15h1.958v15h2.86q.11,0,.11.088V27.89a.1.1,0,0,1-.11.11H12.318V26.284Zm7.326,0a13.14,13.14,0,0,1-.616-2.013,8.261,8.261,0,0,1,0-3.6,6.905,6.905,0,0,1,.594-1.65,6.4,6.4,0,0,1,1.859-1.078,6.065,6.065,0,0,1,2.167-.4,5.725,5.725,0,0,1,1.3.143,3.789,3.789,0,0,1,1.122.451,4.115,4.115,0,0,1,1.6,1.738,5.579,5.579,0,0,1,.561,2.53,8.087,8.087,0,0,1-.11,1.353,5.894,5.894,0,0,1-.352,1.243,2.715,2.715,0,0,0,1.045.99,3.549,3.549,0,0,0,1.551.286h.11q.11,0,.11.088V27.89a.1.1,0,0,1-.11.11h-.11a5.529,5.529,0,0,1-1.991-.319,4.54,4.54,0,0,1-1.6-1.111,4.453,4.453,0,0,1-1.628,1.078A5.392,5.392,0,0,1,33.108,28H26.816a.1.1,0,0,1-.11-.11V26.372q0-.088.11-.088Zm1.166-4.136a11.415,11.415,0,0,0,.176,2,10.032,10.032,0,0,0,.66,2.134h1.562a2.911,2.911,0,0,0,1.661-.451,2.8,2.8,0,0,0,1.023-1.32,5.665,5.665,0,0,0,.352-2.123,3.346,3.346,0,0,0-.759-2.266,2.343,2.343,0,0,0-1.837-.88,3.867,3.867,0,0,0-1.375.253,4.817,4.817,0,0,0-1.2.649,3.548,3.548,0,0,0-.22.946Q30.71,21.576,30.71,22.148ZM50.862,28a8,8,0,0,1-1.991-.275,9.1,9.1,0,0,1-2.079-.825,8.475,8.475,0,0,1-1.991.825A8.058,8.058,0,0,1,42.7,28H40.148a.1.1,0,0,1-.11-.11V26.372q0-.088.11-.088h2.53a8.859,8.859,0,0,0,1.452-.11,4.975,4.975,0,0,0,1.166-.33,7.086,7.086,0,0,1-.858-.759,11.535,11.535,0,0,1-.88-1.023,13.649,13.649,0,0,1-1.5-2.5,9.924,9.924,0,0,1-.814-2.519A9.851,9.851,0,0,1,43,17.759a8.784,8.784,0,0,1,1.969-.836,7.46,7.46,0,0,1,2.068-.3,9.328,9.328,0,0,1,2.794.44,9.122,9.122,0,0,1,2.464,1.166,9.227,9.227,0,0,1-.473,2.937,9.125,9.125,0,0,1-1.364,2.607,9.225,9.225,0,0,1-2.123,2.046,8.707,8.707,0,0,0,1.221.341,6.211,6.211,0,0,0,1.221.121h2.662q.11,0,.11.088V27.89a.1.1,0,0,1-.11.11Zm-4.048-3.146a8.223,8.223,0,0,0,2.519-2.519,6.9,6.9,0,0,0,.935-3.179,6.535,6.535,0,0,0-3.168-.814,5.576,5.576,0,0,0-1.243.143,6.7,6.7,0,0,0-1.243.418,7.874,7.874,0,0,0-1.254.715,8.218,8.218,0,0,0,.7,1.969,8.981,8.981,0,0,0,1.188,1.782A10.319,10.319,0,0,0,46.814,24.854ZM53.216,28a.1.1,0,0,1-.11-.11V26.372q0-.088.11-.088h2.9v-15h1.958V28Zm9.262-16.72h1.958V28H62.478Zm16.148,3.96a1.3,1.3,0,0,1-.869-.308,1.26,1.26,0,0,1-.363-1.012,1.26,1.26,0,0,1,.363-1.012,1.3,1.3,0,0,1,.869-.308,1.2,1.2,0,0,1,.9.341,1.352,1.352,0,0,1,.33.979,1.352,1.352,0,0,1-.33.979A1.2,1.2,0,0,1,78.626,15.24Zm3.806,0a1.2,1.2,0,0,1-.9-.341,1.352,1.352,0,0,1-.33-.979,1.352,1.352,0,0,1,.33-.979,1.2,1.2,0,0,1,.9-.341,1.151,1.151,0,0,1,.913.363,1.595,1.595,0,0,1,0,1.914A1.151,1.151,0,0,1,82.432,15.24ZM81.134,28a6.882,6.882,0,0,1-3.014-.6,4.308,4.308,0,0,1-1.914-1.749,5.368,5.368,0,0,1-.66-2.728,5.742,5.742,0,0,1,.737-2.981,4.967,4.967,0,0,1,2.09-1.925,7.032,7.032,0,0,1,3.2-.682h1.452V15.944H84.9v10.34H87.4q.11,0,.11.088V27.89a.1.1,0,0,1-.11.11Zm1.892-1.716V19.046H81.64a4.3,4.3,0,0,0-3.058,1.012A3.7,3.7,0,0,0,77.5,22.9a3.271,3.271,0,0,0,.935,2.519,3.75,3.75,0,0,0,2.651.869ZM90.088,32.4a1.2,1.2,0,0,1-.9-.341,1.617,1.617,0,0,1,0-1.958,1.2,1.2,0,0,1,.9-.341,1.151,1.151,0,0,1,.913.363,1.595,1.595,0,0,1,0,1.914A1.151,1.151,0,0,1,90.088,32.4Zm-2.9-4.4a.1.1,0,0,1-.11-.11V26.372q0-.088.11-.088h2.9V17.33h1.958V28ZM99.2,28v.528a6.5,6.5,0,0,1-.451,2.541,3.558,3.558,0,0,1-1.32,1.639,3.819,3.819,0,0,1-2.145.572,4.107,4.107,0,0,1-1.089-.154,5.927,5.927,0,0,1-1.155-.462l.572-1.474a3.981,3.981,0,0,0,.88.308,4.056,4.056,0,0,0,.748.066,1.789,1.789,0,0,0,1.551-.8,3.636,3.636,0,0,0,.561-2.123V17.33H99.2v8.954h2.728q.11,0,.11.088V27.89a.1.1,0,0,1-.11.11Zm7.986,4.4a1.2,1.2,0,0,1-.9-.341,1.617,1.617,0,0,1,0-1.958,1.2,1.2,0,0,1,.9-.341,1.151,1.151,0,0,1,.913.363,1.595,1.595,0,0,1,0,1.914A1.151,1.151,0,0,1,107.182,32.4ZM101.7,28a.1.1,0,0,1-.11-.11V26.372q0-.088.11-.088h9.438a2.918,2.918,0,0,1-.539-.825,7.86,7.86,0,0,1-.462-1.342q-.209-.8-.385-1.859a9.652,9.652,0,0,0-.385-1.584,3.714,3.714,0,0,0-.55-1.067,1.872,1.872,0,0,0-.781-.594,2.8,2.8,0,0,0-1.056-.187,5.862,5.862,0,0,0-1.551.22,8.156,8.156,0,0,0-1.639.66l-.77-1.518a6.107,6.107,0,0,1,1.914-.847,8.89,8.89,0,0,1,2.068-.231,5.906,5.906,0,0,1,1.243.121,3.672,3.672,0,0,1,1,.363,3.718,3.718,0,0,1,1.034.847,4.18,4.18,0,0,1,.726,1.32,11.83,11.83,0,0,1,.484,1.991,20.741,20.741,0,0,0,.407,2.035,8.64,8.64,0,0,0,.528,1.518,3.488,3.488,0,0,0,.649.979h1.474q.11,0,.11.088V27.89a.1.1,0,0,1-.11.11Zm15.334-12.76a1.3,1.3,0,0,1-.869-.308,1.26,1.26,0,0,1-.363-1.012,1.26,1.26,0,0,1,.363-1.012,1.3,1.3,0,0,1,.869-.308,1.2,1.2,0,0,1,.9.341,1.352,1.352,0,0,1,.33.979,1.352,1.352,0,0,1-.33.979A1.2,1.2,0,0,1,117.038,15.24Zm3.806,0a1.2,1.2,0,0,1-.9-.341,1.352,1.352,0,0,1-.33-.979,1.352,1.352,0,0,1,.33-.979,1.2,1.2,0,0,1,.9-.341,1.151,1.151,0,0,1,.913.363,1.595,1.595,0,0,1,0,1.914A1.151,1.151,0,0,1,120.844,15.24ZM114.332,28a.1.1,0,0,1-.11-.11V26.372q0-.088.11-.088h4.224V17.33h1.958V28Zm22.484,4.4a1.3,1.3,0,0,1-.869-.308,1.592,1.592,0,0,1,0-2.024,1.3,1.3,0,0,1,.869-.308,1.2,1.2,0,0,1,.9.341,1.617,1.617,0,0,1,0,1.958A1.2,1.2,0,0,1,136.816,32.4Zm3.806,0a1.2,1.2,0,0,1-.9-.341,1.617,1.617,0,0,1,0-1.958,1.2,1.2,0,0,1,.9-.341,1.151,1.151,0,0,1,.913.363,1.595,1.595,0,0,1,0,1.914A1.151,1.151,0,0,1,140.622,32.4Zm-4.62.88a4.251,4.251,0,0,1-2.365-.649,4.119,4.119,0,0,1-1.529-1.837,6.892,6.892,0,0,1-.528-2.816,9.735,9.735,0,0,1,.77-3.96h1.826a8.724,8.724,0,0,0-.484,1.793,13.726,13.726,0,0,0-.132,2.035,5.431,5.431,0,0,0,.33,2.013,2.544,2.544,0,0,0,2.53,1.7h4.092a5.836,5.836,0,0,0,1.87-.275,3.426,3.426,0,0,0,1.287-.726,1.339,1.339,0,0,0,.473-.979.969.969,0,0,0-.4-.781,3.6,3.6,0,0,0-1.232-.561q-1.078-.33-1.881-.649a2.984,2.984,0,0,1-1.243-.858,2.21,2.21,0,0,1-.44-1.441,4.074,4.074,0,0,1,.2-1.254,5.333,5.333,0,0,1,.572-1.21,5.965,5.965,0,0,1,1.221-1.386,5.791,5.791,0,0,1,1.529-.924,4.253,4.253,0,0,1,1.606-.33,3.587,3.587,0,0,1,.7.066,2.752,2.752,0,0,1,.616.2,3.663,3.663,0,0,1,1.078.781,10.793,10.793,0,0,1,1.254,1.7,21.32,21.32,0,0,0,1.232,1.826,5.181,5.181,0,0,0,.946.99,3.172,3.172,0,0,0,.682.385,2.027,2.027,0,0,0,.77.143h.11q.11,0,.11.088V27.89a.1.1,0,0,1-.11.11h-.11a3.9,3.9,0,0,1-1.2-.187A4.389,4.389,0,0,1,149,27.23a8.754,8.754,0,0,1-1.188-1.012q-.11-.132-.4-.517t-.726-1q-.528-.748-.946-1.243a9.112,9.112,0,0,0-.726-.781,1.911,1.911,0,0,0-.594-.385,1.621,1.621,0,0,0-.594-.121,2.03,2.03,0,0,0-.968.275,4.121,4.121,0,0,0-.946.715,4.23,4.23,0,0,0-.715.935,1.935,1.935,0,0,0-.275.935.739.739,0,0,0,.231.539,1.808,1.808,0,0,0,.616.385q.385.154.8.286.814.22,1.364.418a6.871,6.871,0,0,1,.88.374,2.865,2.865,0,0,1,1,.825,1.78,1.78,0,0,1,.341,1.067,3.86,3.86,0,0,1-1.419,3.267,6.893,6.893,0,0,1-4.235,1.089ZM158.31,15.24a1.2,1.2,0,0,1-.9-.341,1.352,1.352,0,0,1-.33-.979,1.352,1.352,0,0,1,.33-.979,1.2,1.2,0,0,1,.9-.341,1.151,1.151,0,0,1,.913.363,1.595,1.595,0,0,1,0,1.914A1.151,1.151,0,0,1,158.31,15.24ZM151.248,28a.1.1,0,0,1-.11-.11V26.372q0-.088.11-.088h3.344a5.133,5.133,0,0,1-.616-.99,5.241,5.241,0,0,1-.4-1.155,5.515,5.515,0,0,1-.132-1.177,5.817,5.817,0,0,1,.737-2.981,5,5,0,0,1,2.09-1.958,6.938,6.938,0,0,1,3.2-.693h2.882V28Zm7.172-1.716h2.068V19.046h-.946a4.993,4.993,0,0,0-2.233.462,3.2,3.2,0,0,0-1.419,1.331,4.258,4.258,0,0,0-.484,2.1,4.448,4.448,0,0,0,.341,1.848,2.365,2.365,0,0,0,1.012,1.122A3.372,3.372,0,0,0,158.42,26.284ZM175.954,15.24a1.2,1.2,0,0,1-.9-.341,1.352,1.352,0,0,1-.33-.979,1.352,1.352,0,0,1,.33-.979,1.2,1.2,0,0,1,.9-.341,1.151,1.151,0,0,1,.913.363,1.595,1.595,0,0,1,0,1.914A1.151,1.151,0,0,1,175.954,15.24ZM176.988,28v.528a6.5,6.5,0,0,1-.451,2.541,3.558,3.558,0,0,1-1.32,1.639,3.819,3.819,0,0,1-2.145.572,4.107,4.107,0,0,1-1.089-.154,5.928,5.928,0,0,1-1.155-.462l.572-1.474a3.981,3.981,0,0,0,.88.308,4.056,4.056,0,0,0,.748.066,1.789,1.789,0,0,0,1.551-.8,3.636,3.636,0,0,0,.561-2.123V17.33h1.848v8.954h2.728q.11,0,.11.088V27.89a.1.1,0,0,1-.11.11Zm4.95,4.4a1.3,1.3,0,0,1-.869-.308,1.592,1.592,0,0,1,0-2.024,1.3,1.3,0,0,1,.869-.308,1.2,1.2,0,0,1,.9.341,1.617,1.617,0,0,1,0,1.958A1.2,1.2,0,0,1,181.938,32.4Zm3.806,0a1.2,1.2,0,0,1-.9-.341,1.617,1.617,0,0,1,0-1.958,1.2,1.2,0,0,1,.9-.341,1.151,1.151,0,0,1,.913.363,1.595,1.595,0,0,1,0,1.914A1.151,1.151,0,0,1,185.744,32.4ZM179.5,28a.1.1,0,0,1-.11-.11V26.372q0-.088.11-.088h3.564V17.33h1.958v8.954h3.3q.11,0,.11.088V27.89a.1.1,0,0,1-.11.11Zm11.33-1.716a13.139,13.139,0,0,1-.616-2.013,8.261,8.261,0,0,1,0-3.6,6.906,6.906,0,0,1,.594-1.65,6.4,6.4,0,0,1,1.859-1.078,6.065,6.065,0,0,1,2.167-.4,5.725,5.725,0,0,1,1.3.143,3.79,3.79,0,0,1,1.122.451,4.114,4.114,0,0,1,1.6,1.738,5.579,5.579,0,0,1,.561,2.53,8.087,8.087,0,0,1-.11,1.353,5.9,5.9,0,0,1-.352,1.243,2.715,2.715,0,0,0,1.045.99,3.549,3.549,0,0,0,1.551.286h.11q.11,0,.11.088V27.89a.1.1,0,0,1-.11.11h-.11a5.529,5.529,0,0,1-1.991-.319,4.54,4.54,0,0,1-1.6-1.111,4.454,4.454,0,0,1-1.628,1.078A5.392,5.392,0,0,1,194.39,28H188.1a.1.1,0,0,1-.11-.11V26.372q0-.088.11-.088Zm1.166-4.136a11.415,11.415,0,0,0,.176,2,10.032,10.032,0,0,0,.66,2.134h1.562a2.911,2.911,0,0,0,1.661-.451,2.8,2.8,0,0,0,1.023-1.32,5.665,5.665,0,0,0,.352-2.123,3.346,3.346,0,0,0-.759-2.266,2.343,2.343,0,0,0-1.837-.88,3.868,3.868,0,0,0-1.375.253,4.817,4.817,0,0,0-1.2.649,3.548,3.548,0,0,0-.22.946Q191.992,21.576,191.992,22.148Zm11.44-6.908a1.3,1.3,0,0,1-.869-.308,1.26,1.26,0,0,1-.363-1.012,1.26,1.26,0,0,1,.363-1.012,1.3,1.3,0,0,1,.869-.308,1.2,1.2,0,0,1,.9.341,1.352,1.352,0,0,1,.33.979,1.352,1.352,0,0,1-.33.979A1.2,1.2,0,0,1,203.432,15.24Zm3.806,0a1.2,1.2,0,0,1-.9-.341,1.352,1.352,0,0,1-.33-.979,1.352,1.352,0,0,1,.33-.979,1.2,1.2,0,0,1,.9-.341,1.151,1.151,0,0,1,.913.363,1.595,1.595,0,0,1,0,1.914A1.151,1.151,0,0,1,207.238,15.24ZM201.43,28a.1.1,0,0,1-.11-.11V26.372q0-.088.11-.088h3.564V17.33h1.958v8.954h3.3q.11,0,.11.088V27.89a.1.1,0,0,1-.11.11Zm8.6,0a.1.1,0,0,1-.11-.11V26.372q0-.088.11-.088h2.9v-15h1.958V28Zm9.262-16.72h1.958V28h-1.958Z" transform="translate(526.5 204)"/>
</svg>
