<svg width="40" height="40" viewBox="0 0 40 40" fill="none" xmlns="http://www.w3.org/2000/svg">
<g clip-path="url(#clip0_2762_3126)">
<circle cx="20" cy="20" r="20" fill="#D9D9D9"/>
<g clip-path="url(#clip1_2762_3126)">
<path d="M-9 0H50V40H-9V0Z" fill="#E70013"/>
<path d="M20.5013 30C25.9321 30 30.3346 25.5228 30.3346 20C30.3346 14.4772 25.9321 10 20.5013 10C15.0705 10 10.668 14.4772 10.668 20C10.668 25.5228 15.0705 30 20.5013 30Z" fill="white"/>
<path d="M20.5 27.5C24.5731 27.5 27.875 24.1421 27.875 20C27.875 15.8579 24.5731 12.5 20.5 12.5C16.4269 12.5 13.125 15.8579 13.125 20C13.125 24.1421 16.4269 27.5 20.5 27.5Z" fill="#E70013"/>
<path d="M22.4664 26C25.7249 26 28.3664 23.3137 28.3664 20C28.3664 16.6863 25.7249 14 22.4664 14C19.2079 14 16.5664 16.6863 16.5664 20C16.5664 23.3137 19.2079 26 22.4664 26Z" fill="white"/>
<path d="M18.043 20.0002L26.0478 17.3552L21.1011 24.2802V15.7202L26.0473 22.6452L18.043 20.0002Z" fill="#E70013"/>
</g>
</g>
<defs>
<clipPath id="clip0_2762_3126">
<rect width="40" height="40" rx="20" fill="white"/>
</clipPath>
<clipPath id="clip1_2762_3126">
<rect width="59" height="40" fill="white" transform="translate(-9)"/>
</clipPath>
</defs>
</svg>
