<svg width="40" height="40" viewBox="0 0 40 40" fill="none" xmlns="http://www.w3.org/2000/svg">
<g clip-path="url(#clip0_2762_3112)">
<circle cx="20" cy="20" r="20" fill="#D9D9D9"/>
<g clip-path="url(#clip1_2762_3112)">
<path d="M-10 0H50V40H-10V0Z" fill="white"/>
<path d="M-10 0H20V40H-10V0Z" fill="#006633"/>
<path d="M28.6603 15C27.5596 13.0936 25.8606 11.6036 23.8268 10.7612C21.7931 9.91879 19.5381 9.771 17.4118 10.3407C15.2855 10.9105 13.4066 12.1659 12.0665 13.9124C10.7264 15.6588 10 17.7987 10 20C10 22.2013 10.7264 24.3412 12.0665 26.0876C13.4066 27.8341 15.2855 29.0895 17.4118 29.6593C19.5381 30.229 21.7931 30.0812 23.8268 29.2388C25.8606 28.3964 27.5596 26.9064 28.6603 25C27.6243 26.2939 26.2121 27.234 24.6188 27.6905C23.0254 28.1471 21.3296 28.0974 19.7657 27.5485C18.2018 26.9996 16.847 25.9784 15.8885 24.6262C14.9301 23.274 14.4153 21.6575 14.4153 20C14.4153 18.3425 14.9301 16.726 15.8885 15.3738C16.847 14.0216 18.2018 13.0004 19.7657 12.4515C21.3296 11.9026 23.0254 11.8529 24.6188 12.3095C26.2121 12.766 27.6243 13.7062 28.6603 15ZM29.0451 20L20 17.0611L25.5902 24.7553V15.2447L20 22.9389L29.0451 20Z" fill="#D21034"/>
</g>
</g>
<defs>
<clipPath id="clip0_2762_3112">
<rect width="40" height="40" rx="20" fill="white"/>
</clipPath>
<clipPath id="clip1_2762_3112">
<rect width="60" height="40" fill="white" transform="translate(-10)"/>
</clipPath>
</defs>
</svg>
