<svg width="40" height="40" viewBox="0 0 40 40" fill="none" xmlns="http://www.w3.org/2000/svg">
<g clip-path="url(#clip0_2762_3134)">
<circle cx="20" cy="20" r="20" fill="#D9D9D9"/>
<g clip-path="url(#clip1_2762_3134)">
<path d="M-10 0H50V40H-10V0Z" fill="white"/>
<path d="M-10 0H50V13.3333H-10V0Z" fill="#CD1125"/>
<path d="M-10 26.666H50V39.9994H-10V26.666Z" fill="black"/>
<path d="M19.6162 22.8028H9.84343C9.82311 22.9854 9.75645 23.162 9.64816 23.32C9.53987 23.4779 9.39259 23.6135 9.21675 23.7171C9.0409 23.8207 8.84078 23.8897 8.63052 23.9194C8.42027 23.949 8.20502 23.9385 8 23.8886C9.36869 23.2169 9.28283 22.5351 8.41919 21.02C8.89899 20.8482 8.97475 20.8028 9.4596 20.4745C9.11616 21.5149 10.3485 21.3886 11.2576 21.3886C11.2576 21.025 11.2929 20.6109 11.0202 20.5553C11.3737 20.429 11.404 20.3886 11.9646 19.9139V21.3129H18.7071V20.3533C18.7071 20.2997 18.6858 20.2483 18.6479 20.2104C18.61 20.1726 18.5586 20.1513 18.5051 20.1513C18.4515 20.1513 18.4001 20.1726 18.3622 20.2104C18.3243 20.2483 18.303 20.2997 18.303 20.3533V20.9088C18.303 20.949 18.2871 20.9876 18.2587 21.016C18.2302 21.0444 18.1917 21.0604 18.1515 21.0604H13V20.1513L16.8687 16.4139C16.8434 16.6058 17.2424 17.121 17.4091 17.2068C17.2828 17.227 17.1414 17.2018 17.0505 17.2927L13.8838 20.3533H17.3939C17.3939 19.5402 18.1515 19.5402 18.5051 19.2523C18.8586 19.5402 19.6162 19.5402 19.6162 20.3533V22.8028ZM20.3485 22.8028V16.4139C20.7071 16.6109 20.9848 16.8381 21.4293 16.9492C21.4091 17.2018 21.1818 17.2826 21.1818 17.4593V21.3886C21.6768 21.4998 21.7879 21.2119 22.0253 21.0654C22.0859 21.6917 22.4848 22.3078 22.4697 22.8028H20.3485ZM27.0253 18.5351L27.8081 17.8785V21.3129H28.3636V17.4088C28.6364 17.1816 28.9899 16.9341 29.1465 16.6462V22.8028H24.2222C24.1515 21.5301 24.1515 20.222 25.6364 20.5048V19.9846C25.6364 19.8634 25.4545 19.9593 25.4545 19.8482L26.4697 18.9998V21.3129H27.0253V18.5351ZM26.7677 16.7775C26.6717 16.7826 26.5253 16.2573 26.5606 16.1563C26.596 16.0402 26.7273 16.0402 26.7828 16.0957C26.8737 16.1816 26.8636 16.7725 26.7677 16.7775ZM25.8535 17.4896C25.5758 17.328 25.6212 17.2624 25.8636 17.3331C26.2828 17.4593 26.4949 17.3533 26.798 17.0452L27.0253 17.1614C27.3232 17.3129 27.5051 17.2472 27.6111 16.8836C27.6414 16.7725 27.7323 16.8028 27.7576 16.929C27.8535 17.4341 27.4697 17.5907 27.0808 17.4492C26.8687 17.3785 26.8333 17.3785 26.7273 17.4593C26.4949 17.6412 26.1616 17.6715 25.8535 17.4896ZM29.8788 22.8028V16.4139C30.2374 16.6109 30.5152 16.8381 30.9596 16.9492C30.9394 17.2018 30.7121 17.2826 30.7121 17.4593V21.3886C31.2071 21.4998 31.3182 21.2119 31.5556 21.0654C31.6162 21.6917 32.0152 22.3078 32 22.8028H29.8788ZM10.7323 23.5099C10.7323 23.4308 10.7637 23.355 10.8196 23.2991C10.8755 23.2433 10.9513 23.2119 11.0303 23.2119C11.1093 23.2119 11.1851 23.2433 11.241 23.2991C11.2969 23.355 11.3283 23.4308 11.3283 23.5099C11.3283 23.5889 11.2969 23.6647 11.241 23.7206C11.1851 23.7764 11.1093 23.8078 11.0303 23.8078C10.9513 23.8078 10.8755 23.7764 10.8196 23.7206C10.7637 23.6647 10.7323 23.5889 10.7323 23.5099ZM25.1818 21.1866C25.1818 21.2322 25.2058 21.2758 25.2484 21.308C25.291 21.3402 25.3488 21.3583 25.4091 21.3583C25.4694 21.3583 25.5272 21.3402 25.5698 21.308C25.6124 21.2758 25.6364 21.2322 25.6364 21.1866C25.6364 21.1411 25.6124 21.0974 25.5698 21.0652C25.5272 21.033 25.4694 21.0149 25.4091 21.0149C25.3488 21.0149 25.291 21.033 25.2484 21.0652C25.2058 21.0974 25.1818 21.1411 25.1818 21.1866Z" fill="#017B3D"/>
</g>
</g>
<defs>
<clipPath id="clip0_2762_3134">
<rect width="40" height="40" rx="20" fill="white"/>
</clipPath>
<clipPath id="clip1_2762_3134">
<rect width="60" height="40" fill="white" transform="translate(-10)"/>
</clipPath>
</defs>
</svg>
