<svg xmlns="http://www.w3.org/2000/svg" xmlns:xlink="http://www.w3.org/1999/xlink" width="1168.741" height="230.469" viewBox="0 0 1168.741 230.469">
  <defs>
    <clipPath id="clip-path">
      <rect id="Rectangle_113" data-name="Rectangle 113" width="169.694" height="168.6" fill="#39dcbf"/>
    </clipPath>
    <clipPath id="clip-path-2">
      <rect id="Rectangle_113-2" data-name="Rectangle 113" width="194.482" height="193.228" fill="#0047ba"/>
    </clipPath>
    <clipPath id="clip-path-3">
      <rect id="Rectangle_113-3" data-name="Rectangle 113" width="231.964" height="230.469" fill="#ed1c24"/>
    </clipPath>
  </defs>
  <g id="Group_287" data-name="Group 287" transform="translate(-324 -626)">
    <text id="Revenue_Contribution_" data-name="Revenue Contribution
" transform="translate(324 641)" font-size="22" font-family="Rubik" font-weight="700"><tspan x="0" y="21">Revenue </tspan><tspan x="0" y="48">Contribution</tspan><tspan x="0" y="75"></tspan></text>
    <g id="Group_284" data-name="Group 284" transform="translate(0 -32)">
      <g id="Group_281" data-name="Group 281" transform="translate(1323.047 658)">
        <g id="Group_278" data-name="Group 278" clip-path="url(#clip-path)">
          <path id="Path_236" data-name="Path 236" d="M92.328,168.26a78.528,78.528,0,0,1-16.582-.2L69.6,147.617a72.745,72.745,0,0,1-12.364-4.047l-17.1,12.847a76.042,76.042,0,0,1-13.21-9.362l7.278-20.107a65.558,65.558,0,0,1-6.843-9.2L26.4,116.7l-21.421.577A89.154,89.154,0,0,1,0,102.184L18,90.118a68.361,68.361,0,0,1,.061-12.087L.248,66.087A80.2,80.2,0,0,1,5.107,51.346L26.76,51.9A61.97,61.97,0,0,1,34.888,41L27.63,20.972a8.911,8.911,0,0,1,1.533-1.085,79.019,79.019,0,0,1,11.943-8.07l17.24,12.924a75.178,75.178,0,0,1,12.912-4.03L77.351.527A18.977,18.977,0,0,1,81.005.242,37.54,37.54,0,0,1,88.424.129l5.523.5,6.16,20.478a73.779,73.779,0,0,1,12.386,4.025l17.1-12.854a79,79,0,0,1,13.173,9.378l-7.278,20.125a64.32,64.32,0,0,1,6.993,9.422,3.6,3.6,0,0,0,1.063.807l21.185-.577a89.529,89.529,0,0,1,4.961,15.113l-18.03,12.082a59.285,59.285,0,0,1,.034,11.133,1.478,1.478,0,0,0,.843,1.528l16.946,11.358a85.065,85.065,0,0,1-4.892,14.722l-21.648-.557a61.908,61.908,0,0,1-8.13,10.893l7.274,20.106c-.513.47-1.094.692-1.552,1.051A80.887,80.887,0,0,1,128.6,156.9l-17.194-12.888a80.938,80.938,0,0,1-12.958,3.973Zm47.235-83.905a54.713,54.713,0,1,0-54.713,54.7,54.705,54.705,0,0,0,54.713-54.7" transform="translate(0 0)" fill="#39dcbf"/>
        </g>
      </g>
      <rect id="Rectangle_114" data-name="Rectangle 114" width="59" height="33" rx="16.5" transform="translate(1378 706)" fill="#fff"/>
      <rect id="Rectangle_115" data-name="Rectangle 115" width="59" height="32" rx="16" transform="translate(1378 746)"/>
      <text id="_1_" data-name="~1%" transform="translate(1393 729)" font-size="17" font-family="Rubik"><tspan x="0" y="0">~1%</tspan></text>
      <text id="_3_" data-name="~3%" transform="translate(1390 769)" fill="#fff" font-size="17" font-family="Rubik"><tspan x="0" y="0">~3%</tspan></text>
    </g>
    <g id="Group_283" data-name="Group 283" transform="translate(0 -32)">
      <g id="Group_280" data-name="Group 280" transform="translate(973 658)">
        <g id="Group_278-2" data-name="Group 278" clip-path="url(#clip-path-2)">
          <path id="Path_236-2" data-name="Path 236" d="M105.815,192.838a90,90,0,0,1-19-.227L79.77,169.18a83.372,83.372,0,0,1-14.17-4.639L46.005,179.265a87.15,87.15,0,0,1-15.14-10.729l8.341-23.044a75.134,75.134,0,0,1-7.843-10.546l-1.1-1.2-24.55.662A102.178,102.178,0,0,1,0,117.11l20.632-13.828A78.347,78.347,0,0,1,20.7,89.43L.285,75.741A91.918,91.918,0,0,1,5.854,58.846l24.816.636A71.022,71.022,0,0,1,39.984,46.99L31.666,24.035a10.213,10.213,0,0,1,1.757-1.244A90.562,90.562,0,0,1,47.11,13.543L66.868,28.355a86.16,86.16,0,0,1,14.8-4.618L88.65.6A21.749,21.749,0,0,1,92.838.277a43.023,43.023,0,0,1,8.5-.13l6.33.569,7.06,23.469A84.556,84.556,0,0,1,128.926,28.8l19.6-14.732a90.539,90.539,0,0,1,15.1,10.748l-8.341,23.065a73.715,73.715,0,0,1,8.015,10.8,4.128,4.128,0,0,0,1.218.925l24.28-.662a102.608,102.608,0,0,1,5.686,17.321L173.818,90.108a67.945,67.945,0,0,1,.039,12.759,1.694,1.694,0,0,0,.966,1.751l19.421,13.017a97.491,97.491,0,0,1-5.607,16.873l-24.81-.639a70.951,70.951,0,0,1-9.318,12.484l8.337,23.043c-.588.539-1.254.793-1.778,1.2a92.7,92.7,0,0,1-13.683,9.212L127.68,165.042A92.763,92.763,0,0,1,112.83,169.6ZM159.95,96.676a62.7,62.7,0,1,0-62.7,62.687,62.7,62.7,0,0,0,62.7-62.687" transform="translate(0 0)" fill="#0047ba"/>
        </g>
      </g>
      <rect id="Rectangle_116" data-name="Rectangle 116" width="59" height="33" rx="16.5" transform="translate(1041 715)" fill="#fff"/>
      <rect id="Rectangle_117" data-name="Rectangle 117" width="59" height="32" rx="16" transform="translate(1041 755)"/>
      <text id="_3_2" data-name="~3%" transform="translate(1071 738)" font-size="17" font-family="Rubik"><tspan x="-16" y="0">~3%</tspan></text>
      <text id="_12_" data-name="~12%" transform="translate(1069 778)" fill="#fff" font-size="17" font-family="Rubik"><tspan x="-19" y="0">~12%</tspan></text>
    </g>
    <g id="Group_282" data-name="Group 282" transform="translate(57.482 -32)">
      <g id="Group_279" data-name="Group 279" transform="translate(481.518 658)">
        <g id="Group_278-3" data-name="Group 278" clip-path="url(#clip-path-3)">
          <path id="Path_236-3" data-name="Path 236" d="M126.208,230a107.345,107.345,0,0,1-22.666-.271l-8.4-27.948a99.439,99.439,0,0,1-16.9-5.533L54.872,213.814a103.945,103.945,0,0,1-18.057-12.8l9.949-27.486a89.614,89.614,0,0,1-9.354-12.578l-1.316-1.427-29.281.789A121.87,121.87,0,0,1,0,139.681l24.608-16.493a93.447,93.447,0,0,1,.083-16.522L.339,90.338A109.633,109.633,0,0,1,6.982,70.188l29.6.758a84.71,84.71,0,0,1,11.11-14.9L37.769,28.668a12.181,12.181,0,0,1,2.1-1.484A108.016,108.016,0,0,1,56.19,16.153L79.756,33.82a102.766,102.766,0,0,1,17.651-5.509L105.735.72a25.941,25.941,0,0,1,5-.389A51.315,51.315,0,0,1,120.872.176l7.55.679,8.42,27.992a100.852,100.852,0,0,1,16.93,5.5l23.38-17.571A107.989,107.989,0,0,1,195.16,29.6l-9.949,27.51a87.922,87.922,0,0,1,9.559,12.88,4.924,4.924,0,0,0,1.453,1.1l28.959-.789a122.381,122.381,0,0,1,6.782,20.659l-24.646,16.515a81.039,81.039,0,0,1,.047,15.218,2.02,2.02,0,0,0,1.153,2.088l23.164,15.526a116.281,116.281,0,0,1-6.687,20.125L195.4,159.67a84.626,84.626,0,0,1-11.114,14.89l9.944,27.484c-.7.643-1.5.946-2.121,1.437a110.568,110.568,0,0,1-16.321,10.988l-23.5-17.618a110.642,110.642,0,0,1-17.713,5.431Zm64.569-114.7a74.79,74.79,0,1,0-74.79,74.769,74.78,74.78,0,0,0,74.79-74.769" transform="translate(0 0)" fill="#ed1c24"/>
        </g>
      </g>
      <rect id="Rectangle_118" data-name="Rectangle 118" width="59" height="33" rx="16.5" transform="translate(568 735)" fill="#fff"/>
      <rect id="Rectangle_119" data-name="Rectangle 119" width="59" height="32" rx="16" transform="translate(568 775)"/>
      <text id="_96_" data-name="~96%" transform="translate(598 758)" font-size="17" font-family="Rubik"><tspan x="-21" y="0">~96%</tspan></text>
      <text id="_85_" data-name="~85%" transform="translate(596 798)" fill="#fff" font-size="17" font-family="Rubik"><tspan x="-21" y="0">~85%</tspan></text>
    </g>
    <rect id="Rectangle_120" data-name="Rectangle 120" width="84.476" height="33" rx="16.5" transform="translate(324.435 708)" fill="#fff"/>
    <rect id="Rectangle_121" data-name="Rectangle 121" width="84.476" height="32" rx="16" transform="translate(324.435 748)"/>
    <text id="_2025F" data-name="2025F" transform="translate(366.673 731)" font-size="17" font-family="Rubik"><tspan x="-25" y="0">2025F</tspan></text>
    <text id="_2030F" data-name="2030F" transform="translate(365.673 771)" fill="#fff" font-size="17" font-family="Rubik"><tspan x="-25" y="0">2030F</tspan></text>
  </g>
</svg>
