<svg xmlns="http://www.w3.org/2000/svg" xmlns:xlink="http://www.w3.org/1999/xlink" width="304.162" height="626" viewBox="0 0 304.162 626">
  <defs>
    <clipPath id="clip-path">
      <rect id="Rectangle_113" data-name="Rectangle 113" width="231.964" height="230.469" fill="#ed1c24"/>
    </clipPath>
    <clipPath id="clip-path-2">
      <rect id="Rectangle_113-2" data-name="Rectangle 113" width="194.482" height="193.228" fill="#0047ba"/>
    </clipPath>
    <clipPath id="clip-path-3">
      <rect id="Rectangle_113-3" data-name="Rectangle 113" width="169.694" height="168.6" fill="#39dcbf"/>
    </clipPath>
  </defs>
  <g id="Group_295" data-name="Group 295" transform="translate(-67.532 -966.6)">
    <path id="Path_251" data-name="Path 251" d="M2.09,21a.564.564,0,0,1-.55-.55V6.15a.517.517,0,0,1,.165-.4A.546.546,0,0,1,2.09,5.6H8.074a6.966,6.966,0,0,1,4.5,1.309,4.5,4.5,0,0,1,1.617,3.707,4.578,4.578,0,0,1-.726,2.618,4.637,4.637,0,0,1-2,1.65L14.476,20.3a.548.548,0,0,1,.066.242A.491.491,0,0,1,14.08,21H11.154a.919.919,0,0,1-.9-.594l-2.508-4.84H5.5V20.45a.517.517,0,0,1-.165.4A.574.574,0,0,1,4.928,21Zm5.94-8.558a2.172,2.172,0,0,0,1.54-.5,1.793,1.793,0,0,0,.528-1.375,1.888,1.888,0,0,0-.517-1.4A2.107,2.107,0,0,0,8.03,8.658H5.5v3.784Zm13.6,8.778a5.82,5.82,0,0,1-4.158-1.43,5.639,5.639,0,0,1-1.584-4.158v-.77A5.632,5.632,0,0,1,17.5,10.8,5.687,5.687,0,0,1,21.6,9.34a6.118,6.118,0,0,1,3.157.759A4.858,4.858,0,0,1,26.7,12.178a6.8,6.8,0,0,1,.649,3.036v.528a.546.546,0,0,1-.154.385.517.517,0,0,1-.4.165h-7.04v.154a3.013,3.013,0,0,0,.506,1.672,1.554,1.554,0,0,0,1.342.638,1.615,1.615,0,0,0,.9-.231,3.075,3.075,0,0,0,.638-.561,1.087,1.087,0,0,1,.319-.3.993.993,0,0,1,.385-.055h2.728a.511.511,0,0,1,.341.121.4.4,0,0,1,.143.319,2.16,2.16,0,0,1-.649,1.32,5.314,5.314,0,0,1-1.881,1.3A7.076,7.076,0,0,1,21.626,21.22Zm1.848-7.106V14.07a2.68,2.68,0,0,0-.495-1.7,1.654,1.654,0,0,0-1.375-.627,1.631,1.631,0,0,0-1.353.627,2.68,2.68,0,0,0-.495,1.7v.044ZM33.044,21a.7.7,0,0,1-.473-.143,1.074,1.074,0,0,1-.275-.407L28.138,10.242l-.044-.2a.466.466,0,0,1,.143-.341A.492.492,0,0,1,28.6,9.56h2.486a.617.617,0,0,1,.638.462l2.486,6.754,2.508-6.754a.617.617,0,0,1,.638-.462h2.486a.5.5,0,0,1,.352.143.45.45,0,0,1,.154.341l-.044.2L36.146,20.45a1.013,1.013,0,0,1-.286.407.746.746,0,0,1-.484.143Zm13.86.22a5.82,5.82,0,0,1-4.158-1.43,5.639,5.639,0,0,1-1.584-4.158v-.77A5.632,5.632,0,0,1,42.779,10.8a5.687,5.687,0,0,1,4.1-1.463,6.118,6.118,0,0,1,3.157.759,4.858,4.858,0,0,1,1.936,2.079,6.8,6.8,0,0,1,.649,3.036v.528a.547.547,0,0,1-.154.385.517.517,0,0,1-.4.165h-7.04v.154a3.013,3.013,0,0,0,.506,1.672,1.554,1.554,0,0,0,1.342.638,1.615,1.615,0,0,0,.9-.231,3.075,3.075,0,0,0,.638-.561,1.087,1.087,0,0,1,.319-.3.993.993,0,0,1,.385-.055h2.728a.511.511,0,0,1,.341.121.4.4,0,0,1,.143.319,2.16,2.16,0,0,1-.649,1.32,5.314,5.314,0,0,1-1.881,1.3A7.076,7.076,0,0,1,46.9,21.22Zm1.848-7.106V14.07a2.68,2.68,0,0,0-.495-1.7,1.654,1.654,0,0,0-1.375-.627,1.631,1.631,0,0,0-1.353.627,2.68,2.68,0,0,0-.495,1.7v.044ZM55.242,21a.527.527,0,0,1-.55-.55V10.11a.527.527,0,0,1,.55-.55h2.53a.574.574,0,0,1,.407.154.517.517,0,0,1,.165.4v.836A4.309,4.309,0,0,1,59.873,9.78,4.928,4.928,0,0,1,62,9.34a4.087,4.087,0,0,1,3.146,1.309,5.194,5.194,0,0,1,1.21,3.663V20.45a.546.546,0,0,1-.154.385.517.517,0,0,1-.4.165H63.03a.564.564,0,0,1-.55-.55V14.444a2.3,2.3,0,0,0-.506-1.6,1.855,1.855,0,0,0-1.452-.561,1.9,1.9,0,0,0-1.452.561,2.239,2.239,0,0,0-.528,1.6V20.45a.546.546,0,0,1-.154.385.517.517,0,0,1-.4.165Zm17.8.22a4.018,4.018,0,0,1-3.124-1.309,5.255,5.255,0,0,1-1.188-3.663V10.11a.527.527,0,0,1,.55-.55h2.75a.574.574,0,0,1,.407.154.517.517,0,0,1,.165.4v6.006q0,2.156,1.914,2.156a1.878,1.878,0,0,0,1.452-.572,2.246,2.246,0,0,0,.528-1.584V10.11a.517.517,0,0,1,.165-.4.547.547,0,0,1,.385-.154h2.75a.527.527,0,0,1,.55.55V20.45a.546.546,0,0,1-.154.385.517.517,0,0,1-.4.165H77.242a.564.564,0,0,1-.55-.55v-.836A4.174,4.174,0,0,1,73.04,21.22Zm15.18,0a5.82,5.82,0,0,1-4.158-1.43,5.639,5.639,0,0,1-1.584-4.158v-.77A5.632,5.632,0,0,1,84.1,10.8,5.687,5.687,0,0,1,88.2,9.34a6.118,6.118,0,0,1,3.157.759,4.858,4.858,0,0,1,1.936,2.079,6.8,6.8,0,0,1,.649,3.036v.528a.546.546,0,0,1-.154.385.517.517,0,0,1-.4.165H86.35v.154a3.013,3.013,0,0,0,.506,1.672,1.554,1.554,0,0,0,1.342.638,1.615,1.615,0,0,0,.9-.231,3.075,3.075,0,0,0,.638-.561,1.087,1.087,0,0,1,.319-.3.993.993,0,0,1,.385-.055H93.17a.511.511,0,0,1,.341.121.4.4,0,0,1,.143.319A2.16,2.16,0,0,1,93,19.372a5.314,5.314,0,0,1-1.881,1.3A7.076,7.076,0,0,1,88.22,21.22Zm1.848-7.106V14.07a2.68,2.68,0,0,0-.5-1.7,1.654,1.654,0,0,0-1.375-.627,1.631,1.631,0,0,0-1.353.627,2.68,2.68,0,0,0-.5,1.7v.044ZM7.854,48.22a7.283,7.283,0,0,1-4.917-1.529,5.849,5.849,0,0,1-1.881-4.433q-.022-.594-.022-1.936,0-1.364.022-1.98A5.815,5.815,0,0,1,2.97,33.931,7.24,7.24,0,0,1,7.854,32.38a8.874,8.874,0,0,1,3.476.649,5.712,5.712,0,0,1,2.431,1.848,4.686,4.686,0,0,1,.913,2.805v.044a.375.375,0,0,1-.143.3.482.482,0,0,1-.319.121h-2.97a.7.7,0,0,1-.44-.121.948.948,0,0,1-.264-.451A2.673,2.673,0,0,0,9.57,36a3.026,3.026,0,0,0-1.738-.451q-2.6,0-2.684,2.9-.022.594-.022,1.826t.022,1.87q.088,2.9,2.684,2.9a3.023,3.023,0,0,0,1.76-.473,2.525,2.525,0,0,0,.946-1.551.836.836,0,0,1,.242-.451.74.74,0,0,1,.462-.121h2.97a.486.486,0,0,1,.341.132.37.37,0,0,1,.121.33,4.686,4.686,0,0,1-.913,2.805,5.712,5.712,0,0,1-2.431,1.848A8.874,8.874,0,0,1,7.854,48.22Zm14.3,0a6.159,6.159,0,0,1-4.2-1.3,5.007,5.007,0,0,1-1.606-3.652q-.022-.286-.022-.99t.022-.99A4.944,4.944,0,0,1,18,37.649a6.157,6.157,0,0,1,4.158-1.309,6.192,6.192,0,0,1,4.18,1.309,4.944,4.944,0,0,1,1.65,3.641q.022.286.022.99t-.022.99a5.007,5.007,0,0,1-1.606,3.652A6.2,6.2,0,0,1,22.154,48.22Zm0-2.684a1.713,1.713,0,0,0,1.43-.583,3.154,3.154,0,0,0,.528-1.793q.022-.22.022-.88t-.022-.88a3.113,3.113,0,0,0-.539-1.782,1.7,1.7,0,0,0-1.419-.594q-1.826,0-1.936,2.376l-.022.88.022.88a3,3,0,0,0,.517,1.793A1.719,1.719,0,0,0,22.154,45.536ZM30.734,48a.527.527,0,0,1-.55-.55V37.11a.527.527,0,0,1,.55-.55h2.53a.574.574,0,0,1,.407.154.517.517,0,0,1,.165.4v.836a4.309,4.309,0,0,1,1.529-1.166,4.928,4.928,0,0,1,2.123-.44,4.087,4.087,0,0,1,3.146,1.309,5.194,5.194,0,0,1,1.21,3.663V47.45a.547.547,0,0,1-.154.385.517.517,0,0,1-.4.165H38.522a.564.564,0,0,1-.55-.55V41.444a2.3,2.3,0,0,0-.506-1.6,1.855,1.855,0,0,0-1.452-.561,1.9,1.9,0,0,0-1.452.561,2.239,2.239,0,0,0-.528,1.6V47.45a.547.547,0,0,1-.154.385.517.517,0,0,1-.4.165ZM50.05,48Q45.5,48,45.5,43.666V39.442H43.78a.574.574,0,0,1-.407-.154.517.517,0,0,1-.165-.4V37.11a.517.517,0,0,1,.165-.4.574.574,0,0,1,.407-.154H45.5V32.93a.517.517,0,0,1,.165-.4.546.546,0,0,1,.385-.154H48.6a.527.527,0,0,1,.55.55v3.63H51.9a.574.574,0,0,1,.407.154.517.517,0,0,1,.165.4v1.782a.517.517,0,0,1-.165.4.574.574,0,0,1-.407.154h-2.75v3.916q0,1.628,1.254,1.628H52.1a.527.527,0,0,1,.55.55V47.45a.547.547,0,0,1-.154.385.517.517,0,0,1-.4.165Zm4.972,0a.527.527,0,0,1-.55-.55V37.11a.527.527,0,0,1,.55-.55h2.53a.553.553,0,0,1,.407.165.528.528,0,0,1,.165.385v.88a4.046,4.046,0,0,1,3.256-1.43h.968a.527.527,0,0,1,.55.55v2.266a.547.547,0,0,1-.154.385.517.517,0,0,1-.4.165H60.214a1.722,1.722,0,0,0-1.892,1.892V47.45a.517.517,0,0,1-.165.4A.574.574,0,0,1,57.75,48Zm9.966-13.09a.527.527,0,0,1-.55-.55V32.38a.528.528,0,0,1,.55-.55h2.64a.528.528,0,0,1,.55.55v1.98a.527.527,0,0,1-.55.55ZM65.01,48a.527.527,0,0,1-.55-.55V37.11a.527.527,0,0,1,.55-.55h2.6a.527.527,0,0,1,.55.55V47.45a.546.546,0,0,1-.154.385.517.517,0,0,1-.4.165Zm12.738.22a4.164,4.164,0,0,1-3.41-1.474v.7a.546.546,0,0,1-.154.385.517.517,0,0,1-.4.165H71.3a.564.564,0,0,1-.55-.55V32.93a.517.517,0,0,1,.165-.4.547.547,0,0,1,.385-.154h2.684a.527.527,0,0,1,.55.55v4.708a4.227,4.227,0,0,1,3.212-1.3,4.274,4.274,0,0,1,3.366,1.386,5.8,5.8,0,0,1,1.32,3.762q.022.286.022.792,0,.484-.022.77a5.95,5.95,0,0,1-1.32,3.817A4.283,4.283,0,0,1,77.748,48.22ZM76.56,45.272a1.717,1.717,0,0,0,1.485-.616,3.155,3.155,0,0,0,.517-1.694q.044-.44.044-.682t-.044-.682a3.155,3.155,0,0,0-.517-1.694,1.717,1.717,0,0,0-1.485-.616,1.829,1.829,0,0,0-1.474.594,2.417,2.417,0,0,0-.55,1.5l-.022.814.022.836a2.951,2.951,0,0,0,.539,1.617A1.74,1.74,0,0,0,76.56,45.272ZM88.836,48.22a4.018,4.018,0,0,1-3.124-1.309,5.255,5.255,0,0,1-1.188-3.663V37.11a.527.527,0,0,1,.55-.55h2.75a.574.574,0,0,1,.407.154.517.517,0,0,1,.165.4v6.006q0,2.156,1.914,2.156a1.878,1.878,0,0,0,1.452-.572,2.246,2.246,0,0,0,.528-1.584V37.11a.517.517,0,0,1,.165-.4.546.546,0,0,1,.385-.154h2.75a.527.527,0,0,1,.55.55V47.45a.546.546,0,0,1-.154.385.517.517,0,0,1-.4.165H93.038a.564.564,0,0,1-.55-.55v-.836A4.174,4.174,0,0,1,88.836,48.22ZM104.588,48q-4.554,0-4.554-4.334V39.442H98.318a.574.574,0,0,1-.407-.154.517.517,0,0,1-.165-.4V37.11a.517.517,0,0,1,.165-.4.574.574,0,0,1,.407-.154h1.716V32.93a.517.517,0,0,1,.165-.4.547.547,0,0,1,.385-.154h2.552a.527.527,0,0,1,.55.55v3.63h2.75a.574.574,0,0,1,.407.154.517.517,0,0,1,.165.4v1.782a.517.517,0,0,1-.165.4.574.574,0,0,1-.407.154h-2.75v3.916q0,1.628,1.254,1.628h1.694a.527.527,0,0,1,.55.55V47.45a.546.546,0,0,1-.154.385.517.517,0,0,1-.4.165Zm4.95-13.09a.527.527,0,0,1-.55-.55V32.38a.528.528,0,0,1,.55-.55h2.64a.528.528,0,0,1,.55.55v1.98a.527.527,0,0,1-.55.55ZM109.56,48a.528.528,0,0,1-.55-.55V37.11a.528.528,0,0,1,.55-.55h2.6a.527.527,0,0,1,.55.55V47.45a.546.546,0,0,1-.154.385.517.517,0,0,1-.4.165Zm11.154.22a6.159,6.159,0,0,1-4.2-1.3,5.007,5.007,0,0,1-1.606-3.652q-.022-.286-.022-.99t.022-.99a4.944,4.944,0,0,1,1.65-3.641,7.293,7.293,0,0,1,8.338,0,4.944,4.944,0,0,1,1.65,3.641q.022.286.022.99t-.022.99a5.007,5.007,0,0,1-1.606,3.652A6.2,6.2,0,0,1,120.714,48.22Zm0-2.684a1.713,1.713,0,0,0,1.43-.583,3.154,3.154,0,0,0,.528-1.793q.022-.22.022-.88t-.022-.88a3.113,3.113,0,0,0-.539-1.782,1.7,1.7,0,0,0-1.419-.594q-1.826,0-1.936,2.376l-.022.88.022.88a3,3,0,0,0,.517,1.793A1.719,1.719,0,0,0,120.714,45.536ZM129.294,48a.527.527,0,0,1-.55-.55V37.11a.527.527,0,0,1,.55-.55h2.53a.574.574,0,0,1,.407.154.517.517,0,0,1,.165.4v.836a4.309,4.309,0,0,1,1.529-1.166,4.928,4.928,0,0,1,2.123-.44,4.087,4.087,0,0,1,3.146,1.309,5.194,5.194,0,0,1,1.21,3.663V47.45a.547.547,0,0,1-.154.385.517.517,0,0,1-.4.165h-2.772a.564.564,0,0,1-.55-.55V41.444a2.3,2.3,0,0,0-.506-1.6,1.855,1.855,0,0,0-1.452-.561,1.9,1.9,0,0,0-1.452.561,2.239,2.239,0,0,0-.528,1.6V47.45a.547.547,0,0,1-.154.385.517.517,0,0,1-.4.165Z" transform="translate(67.096 961)"/>
    <rect id="Rectangle_120" data-name="Rectangle 120" width="84.476" height="33" rx="16.5" transform="translate(67.532 1028)" fill="#fff"/>
    <rect id="Rectangle_121" data-name="Rectangle 121" width="84.476" height="32" rx="16" transform="translate(158.532 1029.042)"/>
    <path id="Path_252" data-name="Path 252" d="M-24.166,0a.38.38,0,0,1-.281-.111.38.38,0,0,1-.111-.281V-.935a1,1,0,0,1,.425-.748l3.6-3.6a10.818,10.818,0,0,0,1.8-1.777,2.456,2.456,0,0,0,.493-1.454,2.109,2.109,0,0,0-.552-1.547,2.156,2.156,0,0,0-1.607-.561,2.154,2.154,0,0,0-1.581.587A2.622,2.622,0,0,0-22.7-8.483a.439.439,0,0,1-.162.3.464.464,0,0,1-.281.094h-.884a.363.363,0,0,1-.255-.094.3.3,0,0,1-.1-.229,3.937,3.937,0,0,1,.493-1.76,3.618,3.618,0,0,1,1.351-1.377,4.105,4.105,0,0,1,2.15-.536,3.891,3.891,0,0,1,2.9.995,3.452,3.452,0,0,1,.978,2.524,3.571,3.571,0,0,1-.536,1.929,8.72,8.72,0,0,1-1.657,1.845l-3.264,3.315h5.3a.4.4,0,0,1,.3.11.38.38,0,0,1,.111.28v.7a.366.366,0,0,1-.119.281A.409.409,0,0,1-16.669,0Zm14.144.17a3.869,3.869,0,0,1-3.213-1.275,5.5,5.5,0,0,1-1.088-3.349q-.017-.459-.017-1.479,0-1.054.017-1.53a5.345,5.345,0,0,1,1.088-3.324,3.886,3.886,0,0,1,3.213-1.283,3.907,3.907,0,0,1,3.23,1.283A5.345,5.345,0,0,1-5.7-7.463q.034.952.034,1.53,0,.561-.034,1.479A5.5,5.5,0,0,1-6.792-1.105,3.89,3.89,0,0,1-10.022.17Zm0-1.462a2.285,2.285,0,0,0,1.93-.85,4,4,0,0,0,.688-2.4q.034-.986.034-1.428,0-.476-.034-1.394a4.1,4.1,0,0,0-.68-2.4,2.262,2.262,0,0,0-1.938-.867,2.267,2.267,0,0,0-1.929.867,4.054,4.054,0,0,0-.689,2.4l-.017,1.394.017,1.428a4,4,0,0,0,.689,2.4A2.285,2.285,0,0,0-10.022-1.292ZM-3.392,0a.38.38,0,0,1-.28-.111.38.38,0,0,1-.111-.281V-.935a1,1,0,0,1,.425-.748l3.6-3.6a10.818,10.818,0,0,0,1.8-1.777,2.456,2.456,0,0,0,.493-1.454,2.109,2.109,0,0,0-.552-1.547,2.156,2.156,0,0,0-1.607-.561,2.154,2.154,0,0,0-1.581.587A2.622,2.622,0,0,0-1.93-8.483a.439.439,0,0,1-.162.3.464.464,0,0,1-.28.094h-.884a.363.363,0,0,1-.255-.094.3.3,0,0,1-.1-.229,3.937,3.937,0,0,1,.493-1.76,3.618,3.618,0,0,1,1.352-1.377,4.105,4.105,0,0,1,2.151-.536,3.891,3.891,0,0,1,2.9.995,3.452,3.452,0,0,1,.978,2.524,3.571,3.571,0,0,1-.536,1.929A8.72,8.72,0,0,1,2.065-4.794L-1.2-1.479h5.3a.4.4,0,0,1,.3.11.38.38,0,0,1,.11.28v.7a.366.366,0,0,1-.119.281A.409.409,0,0,1,4.105,0ZM10.327.17A5.006,5.006,0,0,1,8.1-.289,3.577,3.577,0,0,1,6.664-1.5a3.044,3.044,0,0,1-.536-1.6v-.034a.274.274,0,0,1,.1-.221.36.36,0,0,1,.238-.085h.918a.445.445,0,0,1,.459.374,2.2,2.2,0,0,0,.918,1.343,2.805,2.805,0,0,0,1.564.442,2.71,2.71,0,0,0,1.9-.688,2.455,2.455,0,0,0,.757-1.912,2.286,2.286,0,0,0-.757-1.785,2.73,2.73,0,0,0-1.9-.68,2.521,2.521,0,0,0-.986.161,3.5,3.5,0,0,0-.748.451,2.764,2.764,0,0,1-.348.229.662.662,0,0,1-.315.076H7.046a.388.388,0,0,1-.272-.11.3.3,0,0,1-.1-.263l.544-5.678a.486.486,0,0,1,.128-.314.4.4,0,0,1,.3-.111h5.933a.38.38,0,0,1,.28.111.38.38,0,0,1,.11.28v.663a.38.38,0,0,1-.11.281.38.38,0,0,1-.28.111h-4.9L8.355-7.106a4.064,4.064,0,0,1,2.21-.578,4.658,4.658,0,0,1,2.066.459,3.609,3.609,0,0,1,1.5,1.326,3.714,3.714,0,0,1,.552,2.04,4.1,4.1,0,0,1-.552,2.168A3.577,3.577,0,0,1,12.588-.306,5.139,5.139,0,0,1,10.327.17Zm7-.17a.38.38,0,0,1-.281-.111.38.38,0,0,1-.111-.281v-11.1a.4.4,0,0,1,.111-.3.38.38,0,0,1,.281-.111h6.936a.4.4,0,0,1,.3.111.4.4,0,0,1,.111.3v.68a.38.38,0,0,1-.111.28.4.4,0,0,1-.3.111H18.59V-6.46h5.338a.4.4,0,0,1,.3.111.4.4,0,0,1,.111.3v.68a.366.366,0,0,1-.119.281.409.409,0,0,1-.289.11H18.59v4.59a.366.366,0,0,1-.119.281A.409.409,0,0,1,18.181,0Z" transform="translate(109.77 1051)"/>
    <path id="Path_253" data-name="Path 253" d="M-24.633,0a.38.38,0,0,1-.281-.111.38.38,0,0,1-.111-.281V-.935a1,1,0,0,1,.425-.748l3.6-3.6a10.818,10.818,0,0,0,1.8-1.777A2.456,2.456,0,0,0-18.7-8.517a2.109,2.109,0,0,0-.552-1.547,2.156,2.156,0,0,0-1.607-.561,2.154,2.154,0,0,0-1.581.587,2.622,2.622,0,0,0-.731,1.556.439.439,0,0,1-.162.3.464.464,0,0,1-.281.094H-24.5a.363.363,0,0,1-.255-.094.3.3,0,0,1-.1-.229,3.937,3.937,0,0,1,.493-1.76,3.618,3.618,0,0,1,1.351-1.377,4.105,4.105,0,0,1,2.15-.536,3.891,3.891,0,0,1,2.9.995,3.452,3.452,0,0,1,.978,2.524,3.571,3.571,0,0,1-.536,1.929,8.72,8.72,0,0,1-1.657,1.845L-22.44-1.479h5.3a.4.4,0,0,1,.3.11.38.38,0,0,1,.111.28v.7a.366.366,0,0,1-.119.281A.409.409,0,0,1-17.136,0Zm14.144.17A3.869,3.869,0,0,1-13.7-1.105,5.5,5.5,0,0,1-14.79-4.454q-.017-.459-.017-1.479,0-1.054.017-1.53A5.345,5.345,0,0,1-13.7-10.787a3.886,3.886,0,0,1,3.213-1.283,3.907,3.907,0,0,1,3.23,1.283A5.345,5.345,0,0,1-6.171-7.463q.034.952.034,1.53,0,.561-.034,1.479A5.5,5.5,0,0,1-7.259-1.105,3.89,3.89,0,0,1-10.489.17Zm0-1.462a2.285,2.285,0,0,0,1.93-.85,4,4,0,0,0,.688-2.4q.034-.986.034-1.428,0-.476-.034-1.394a4.1,4.1,0,0,0-.68-2.4,2.262,2.262,0,0,0-1.938-.867,2.267,2.267,0,0,0-1.929.867,4.054,4.054,0,0,0-.689,2.4l-.017,1.394.017,1.428a4,4,0,0,0,.689,2.4A2.285,2.285,0,0,0-10.489-1.292ZM-.017.17a5.691,5.691,0,0,1-2.32-.434A3.527,3.527,0,0,1-3.817-1.394a2.677,2.677,0,0,1-.536-1.462.319.319,0,0,1,.1-.247A.363.363,0,0,1-4-3.2h.833a.47.47,0,0,1,.476.374,1.735,1.735,0,0,0,.952,1.2,3.952,3.952,0,0,0,1.717.348A3,3,0,0,0,1.9-1.844a1.975,1.975,0,0,0,.714-1.64q0-2.057-2.5-2.057H-1.5a.38.38,0,0,1-.28-.11.38.38,0,0,1-.111-.28v-.459A.7.7,0,0,1-1.7-6.851l3.3-3.6H-3.417a.38.38,0,0,1-.28-.111.38.38,0,0,1-.11-.281v-.646a.409.409,0,0,1,.11-.289.366.366,0,0,1,.28-.119H3.366a.4.4,0,0,1,.3.111.4.4,0,0,1,.111.3v.612a.553.553,0,0,1-.187.391L.306-6.834l.272.017a4.3,4.3,0,0,1,2.737.9,3.072,3.072,0,0,1,1,2.482,3.307,3.307,0,0,1-.561,1.921A3.571,3.571,0,0,1,2.21-.264,5.479,5.479,0,0,1-.017.17Zm10.54,0A3.869,3.869,0,0,1,7.31-1.105,5.5,5.5,0,0,1,6.222-4.454Q6.2-4.913,6.2-5.933q0-1.054.017-1.53A5.345,5.345,0,0,1,7.31-10.787a3.886,3.886,0,0,1,3.213-1.283,3.907,3.907,0,0,1,3.23,1.283,5.345,5.345,0,0,1,1.088,3.324q.034.952.034,1.53,0,.561-.034,1.479a5.5,5.5,0,0,1-1.088,3.349A3.89,3.89,0,0,1,10.523.17Zm0-1.462a2.285,2.285,0,0,0,1.93-.85,4,4,0,0,0,.688-2.4q.034-.986.034-1.428,0-.476-.034-1.394a4.1,4.1,0,0,0-.68-2.4,2.262,2.262,0,0,0-1.938-.867,2.267,2.267,0,0,0-1.929.867,4.054,4.054,0,0,0-.689,2.4L7.888-5.967,7.9-4.539a4,4,0,0,0,.689,2.4A2.285,2.285,0,0,0,10.523-1.292ZM17.8,0a.38.38,0,0,1-.281-.111.38.38,0,0,1-.111-.281v-11.1a.4.4,0,0,1,.111-.3A.38.38,0,0,1,17.8-11.9h6.936a.4.4,0,0,1,.3.111.4.4,0,0,1,.111.3v.68a.38.38,0,0,1-.111.28.4.4,0,0,1-.3.111H19.057V-6.46h5.338a.4.4,0,0,1,.3.111.4.4,0,0,1,.111.3v.68a.366.366,0,0,1-.119.281.409.409,0,0,1-.289.11H19.057v4.59a.366.366,0,0,1-.119.281A.409.409,0,0,1,18.649,0Z" transform="translate(199.77 1052.042)" fill="#fff"/>
    <g id="Group_292" data-name="Group 292" transform="translate(-398.518 424)">
      <g id="Group_279" data-name="Group 279" transform="translate(481.518 658)">
        <g id="Group_278" data-name="Group 278" clip-path="url(#clip-path)">
          <path id="Path_236" data-name="Path 236" d="M126.208,230a107.345,107.345,0,0,1-22.666-.271l-8.4-27.948a99.439,99.439,0,0,1-16.9-5.533L54.872,213.814a103.945,103.945,0,0,1-18.057-12.8l9.949-27.486a89.614,89.614,0,0,1-9.354-12.578l-1.316-1.427-29.281.789A121.87,121.87,0,0,1,0,139.681l24.608-16.493a93.447,93.447,0,0,1,.083-16.522L.339,90.338A109.633,109.633,0,0,1,6.982,70.188l29.6.758a84.71,84.71,0,0,1,11.11-14.9L37.769,28.668a12.181,12.181,0,0,1,2.1-1.484A108.016,108.016,0,0,1,56.19,16.153L79.756,33.82a102.766,102.766,0,0,1,17.651-5.509L105.735.72a25.941,25.941,0,0,1,5-.389A51.315,51.315,0,0,1,120.872.176l7.55.679,8.42,27.992a100.852,100.852,0,0,1,16.93,5.5l23.38-17.571A107.989,107.989,0,0,1,195.16,29.6l-9.949,27.51a87.922,87.922,0,0,1,9.559,12.88,4.924,4.924,0,0,0,1.453,1.1l28.959-.789a122.381,122.381,0,0,1,6.782,20.659l-24.646,16.515a81.039,81.039,0,0,1,.047,15.218,2.02,2.02,0,0,0,1.153,2.088l23.164,15.526a116.281,116.281,0,0,1-6.687,20.125L195.4,159.67a84.626,84.626,0,0,1-11.114,14.89l9.944,27.484c-.7.643-1.5.946-2.121,1.437a110.568,110.568,0,0,1-16.321,10.988l-23.5-17.618a110.642,110.642,0,0,1-17.713,5.431Zm64.569-114.7a74.79,74.79,0,1,0-74.79,74.769,74.78,74.78,0,0,0,74.79-74.769" transform="translate(0 0)" fill="#ed1c24"/>
        </g>
      </g>
      <rect id="Rectangle_118" data-name="Rectangle 118" width="59" height="33" rx="16.5" transform="translate(568 735)" fill="#fff"/>
      <rect id="Rectangle_119" data-name="Rectangle 119" width="59" height="32" rx="16" transform="translate(568 775)"/>
      <path id="Path_254" data-name="Path 254" d="M-19.779-4.1q-.306,0-.306-.34V-5.1a.663.663,0,0,1,.263-.476,2.041,2.041,0,0,1,.7-.391,2.712,2.712,0,0,1,.91-.153,4.15,4.15,0,0,1,.892.085q.382.085.927.238.442.136.79.213a3.527,3.527,0,0,0,.757.076,1.583,1.583,0,0,0,.629-.111,2.772,2.772,0,0,0,.434-.229q.179-.119.246-.17a1.628,1.628,0,0,1,.255-.085q.289,0,.289.357v.663a.663.663,0,0,1-.263.476,2.051,2.051,0,0,1-.689.391,2.691,2.691,0,0,1-.918.153,3.889,3.889,0,0,1-.825-.076q-.348-.077-.91-.247-.493-.153-.85-.23a3.735,3.735,0,0,0-.782-.076,1.6,1.6,0,0,0-.621.111,2.647,2.647,0,0,0-.442.229q-.178.119-.247.17A.468.468,0,0,1-19.779-4.1ZM-8.508,0a.307.307,0,0,1-.247-.111.4.4,0,0,1-.094-.264A.391.391,0,0,1-8.78-.6l2.6-3.621a3.792,3.792,0,0,1-.918.1,4.257,4.257,0,0,1-2.133-.561A3.737,3.737,0,0,1-10.65-6.12a3.942,3.942,0,0,1-.493-1.921,4.144,4.144,0,0,1,.484-1.946,3.777,3.777,0,0,1,1.453-1.5,4.5,4.5,0,0,1,2.346-.578,4.656,4.656,0,0,1,2.355.561,3.726,3.726,0,0,1,1.47,1.479,4.071,4.071,0,0,1,.493,1.955,3.862,3.862,0,0,1-.323,1.623,10.188,10.188,0,0,1-.9,1.538L-7.046-.34a1.648,1.648,0,0,1-.229.247A.473.473,0,0,1-7.59,0Zm1.649-5.491a2.808,2.808,0,0,0,1.318-.314,2.409,2.409,0,0,0,.96-.9,2.547,2.547,0,0,0,.357-1.352A2.547,2.547,0,0,0-4.581-9.41a2.409,2.409,0,0,0-.96-.9,2.808,2.808,0,0,0-1.318-.314,2.757,2.757,0,0,0-1.309.314,2.365,2.365,0,0,0-.944.9A2.6,2.6,0,0,0-9.46-8.058a2.6,2.6,0,0,0,.348,1.352,2.365,2.365,0,0,0,.944.9A2.757,2.757,0,0,0-6.859-5.491ZM3.358.17A4.823,4.823,0,0,1,.994-.383,3.831,3.831,0,0,1-.535-1.87a4.084,4.084,0,0,1-.527-2.04A4.1,4.1,0,0,1-.7-5.619,8.084,8.084,0,0,1,.128-7.055l3.23-4.505q.017-.017.1-.119a.474.474,0,0,1,.187-.161.6.6,0,0,1,.272-.059h.9a.307.307,0,0,1,.247.111.4.4,0,0,1,.094.264.391.391,0,0,1-.068.221L2.609-7.837a3.268,3.268,0,0,1,.969-.119,4.386,4.386,0,0,1,2.168.561A3.854,3.854,0,0,1,7.208-5.933a4.01,4.01,0,0,1,.518,2.006A4.152,4.152,0,0,1,7.208-1.9a3.826,3.826,0,0,1-1.513,1.5A4.679,4.679,0,0,1,3.358.17ZM3.341-1.275a3.014,3.014,0,0,0,1.351-.306,2.347,2.347,0,0,0,.986-.91,2.72,2.72,0,0,0,.365-1.436,2.642,2.642,0,0,0-.365-1.411,2.363,2.363,0,0,0-.986-.9,3.014,3.014,0,0,0-1.351-.306,2.976,2.976,0,0,0-1.335.306,2.419,2.419,0,0,0-.994.9A2.6,2.6,0,0,0,.638-3.927a2.672,2.672,0,0,0,.374,1.436A2.415,2.415,0,0,0,2-1.581,2.961,2.961,0,0,0,3.341-1.275Zm8.313-4.658A2.475,2.475,0,0,1,9.911-6.52a2.314,2.314,0,0,1-.705-1.623q-.017-.289-.017-.748,0-.493.017-.8a2.439,2.439,0,0,1,.672-1.675,2.4,2.4,0,0,1,1.776-.62,2.4,2.4,0,0,1,1.777.62A2.439,2.439,0,0,1,14.1-9.69q.034.68.034.867,0,.17-.034.68a2.24,2.24,0,0,1-.7,1.623A2.507,2.507,0,0,1,11.653-5.933ZM10.225,0A.363.363,0,0,1,9.97-.094a.319.319,0,0,1-.1-.247.293.293,0,0,1,.068-.187l8.4-11.05a.965.965,0,0,1,.247-.255A.6.6,0,0,1,18.9-11.9h.561a.356.356,0,0,1,.263.093.333.333,0,0,1,.094.247.293.293,0,0,1-.068.187L11.365-.323a.965.965,0,0,1-.247.255A.644.644,0,0,1,10.786,0Zm1.428-6.987a1.066,1.066,0,0,0,.892-.357,1.633,1.633,0,0,0,.331-.867q.034-.612.034-.714,0-.153-.034-.7a1.491,1.491,0,0,0-.331-.884,1.1,1.1,0,0,0-.892-.357,1.07,1.07,0,0,0-.884.357,1.522,1.522,0,0,0-.323.884q-.017.272-.017.7,0,.408.017.714a1.609,1.609,0,0,0,.332.876A1.057,1.057,0,0,0,11.653-6.987ZM18.011.1a2.392,2.392,0,0,1-1.743-.621,2.443,2.443,0,0,1-.705-1.658q-.017-.289-.017-.748,0-.493.017-.8A2.5,2.5,0,0,1,16.252-5.4a2.38,2.38,0,0,1,1.76-.621,2.4,2.4,0,0,1,1.777.621,2.5,2.5,0,0,1,.688,1.674q.034.612.034.8,0,.17-.034.748a2.424,2.424,0,0,1-.714,1.658A2.422,2.422,0,0,1,18.011.1Zm0-1.122a1.066,1.066,0,0,0,.892-.357,1.633,1.633,0,0,0,.332-.867q.034-.612.034-.714,0-.153-.034-.7a1.522,1.522,0,0,0-.323-.884,1.091,1.091,0,0,0-.9-.357,1.07,1.07,0,0,0-.884.357,1.522,1.522,0,0,0-.323.884q-.017.272-.017.7,0,.408.017.714a1.633,1.633,0,0,0,.331.867A1.045,1.045,0,0,0,18.011-1.02Z" transform="translate(598 758)"/>
      <path id="Path_255" data-name="Path 255" d="M-20.153-4.1q-.306,0-.306-.34V-5.1a.663.663,0,0,1,.263-.476,2.041,2.041,0,0,1,.7-.391,2.712,2.712,0,0,1,.91-.153,4.15,4.15,0,0,1,.892.085q.382.085.927.238.442.136.79.213a3.527,3.527,0,0,0,.757.076,1.583,1.583,0,0,0,.629-.111,2.772,2.772,0,0,0,.434-.229q.179-.119.246-.17A1.628,1.628,0,0,1-13.66-6.1q.289,0,.289.357v.663a.663.663,0,0,1-.263.476,2.051,2.051,0,0,1-.689.391,2.691,2.691,0,0,1-.918.153,3.889,3.889,0,0,1-.825-.076q-.348-.077-.91-.247-.493-.153-.85-.23a3.735,3.735,0,0,0-.782-.076,1.6,1.6,0,0,0-.621.111,2.647,2.647,0,0,0-.442.229q-.178.119-.247.17A.468.468,0,0,1-20.153-4.1ZM-6.758.17A5.829,5.829,0,0,1-9.087-.264a3.556,3.556,0,0,1-1.564-1.25,3.278,3.278,0,0,1-.561-1.9,3.15,3.15,0,0,1,.493-1.76A3.239,3.239,0,0,1-9.375-6.341a2.763,2.763,0,0,1-1.045-1.028,2.938,2.938,0,0,1-.366-1.488,2.827,2.827,0,0,1,1.1-2.354,4.629,4.629,0,0,1,2.932-.858,4.6,4.6,0,0,1,2.916.858,2.809,2.809,0,0,1,1.1,2.337,2.938,2.938,0,0,1-.365,1.488A2.929,2.929,0,0,1-4.139-6.341,3.239,3.239,0,0,1-2.8-5.177,3.15,3.15,0,0,1-2.3-3.417a3.278,3.278,0,0,1-.561,1.9A3.549,3.549,0,0,1-4.437-.264,5.844,5.844,0,0,1-6.758.17Zm0-7.123A2.914,2.914,0,0,0-5.04-7.48a1.587,1.587,0,0,0,.7-1.343,1.631,1.631,0,0,0-.689-1.368,2.787,2.787,0,0,0-1.726-.519A2.849,2.849,0,0,0-8.5-10.2a1.625,1.625,0,0,0-.688,1.377A1.609,1.609,0,0,0-8.5-7.463,2.849,2.849,0,0,0-6.758-6.953Zm0,5.763A3.175,3.175,0,0,0-4.768-1.8a1.936,1.936,0,0,0,.8-1.615,1.891,1.891,0,0,0-.8-1.6,3.237,3.237,0,0,0-1.989-.6,3.266,3.266,0,0,0-2.006.6,1.891,1.891,0,0,0-.8,1.6,1.936,1.936,0,0,0,.8,1.615A3.2,3.2,0,0,0-6.758-1.19ZM3.613.17A5.006,5.006,0,0,1,1.386-.289,3.577,3.577,0,0,1-.051-1.5a3.044,3.044,0,0,1-.535-1.6v-.034a.274.274,0,0,1,.1-.221.36.36,0,0,1,.238-.085H.672a.445.445,0,0,1,.459.374,2.2,2.2,0,0,0,.918,1.343,2.805,2.805,0,0,0,1.564.442,2.71,2.71,0,0,0,1.9-.688,2.455,2.455,0,0,0,.757-1.912,2.286,2.286,0,0,0-.757-1.785,2.73,2.73,0,0,0-1.9-.68,2.521,2.521,0,0,0-.986.161,3.5,3.5,0,0,0-.748.451A2.764,2.764,0,0,1,1.53-5.5a.662.662,0,0,1-.314.076H.332a.388.388,0,0,1-.272-.11.3.3,0,0,1-.1-.263L.5-11.475a.486.486,0,0,1,.128-.314.4.4,0,0,1,.3-.111H6.86a.38.38,0,0,1,.28.111.38.38,0,0,1,.11.28v.663a.38.38,0,0,1-.11.281.38.38,0,0,1-.28.111h-4.9L1.641-7.106a4.064,4.064,0,0,1,2.21-.578,4.658,4.658,0,0,1,2.066.459A3.609,3.609,0,0,1,7.412-5.9a3.714,3.714,0,0,1,.552,2.04,4.1,4.1,0,0,1-.552,2.168A3.577,3.577,0,0,1,5.874-.306,5.139,5.139,0,0,1,3.613.17Zm8.415-6.1a2.475,2.475,0,0,1-1.743-.587A2.314,2.314,0,0,1,9.58-8.143q-.017-.289-.017-.748,0-.493.017-.8a2.439,2.439,0,0,1,.672-1.675,2.4,2.4,0,0,1,1.776-.62,2.4,2.4,0,0,1,1.777.62,2.439,2.439,0,0,1,.671,1.675q.034.68.034.867,0,.17-.034.68a2.24,2.24,0,0,1-.7,1.623A2.507,2.507,0,0,1,12.028-5.933ZM10.6,0a.363.363,0,0,1-.255-.094.319.319,0,0,1-.1-.247.293.293,0,0,1,.068-.187l8.4-11.05a.965.965,0,0,1,.247-.255.6.6,0,0,1,.315-.068h.561a.356.356,0,0,1,.263.093.333.333,0,0,1,.094.247.293.293,0,0,1-.068.187L11.739-.323a.965.965,0,0,1-.247.255A.644.644,0,0,1,11.16,0Zm1.428-6.987a1.066,1.066,0,0,0,.892-.357,1.633,1.633,0,0,0,.331-.867q.034-.612.034-.714,0-.153-.034-.7a1.491,1.491,0,0,0-.331-.884,1.1,1.1,0,0,0-.892-.357,1.07,1.07,0,0,0-.884.357,1.522,1.522,0,0,0-.323.884q-.017.272-.017.7,0,.408.017.714a1.609,1.609,0,0,0,.332.876A1.057,1.057,0,0,0,12.028-6.987ZM18.385.1a2.392,2.392,0,0,1-1.743-.621,2.443,2.443,0,0,1-.705-1.658q-.017-.289-.017-.748,0-.493.017-.8A2.5,2.5,0,0,1,16.626-5.4a2.38,2.38,0,0,1,1.76-.621,2.4,2.4,0,0,1,1.777.621,2.5,2.5,0,0,1,.688,1.674q.034.612.034.8,0,.17-.034.748a2.424,2.424,0,0,1-.714,1.658A2.422,2.422,0,0,1,18.385.1Zm0-1.122a1.066,1.066,0,0,0,.892-.357,1.633,1.633,0,0,0,.332-.867q.034-.612.034-.714,0-.153-.034-.7a1.522,1.522,0,0,0-.323-.884,1.091,1.091,0,0,0-.9-.357,1.07,1.07,0,0,0-.884.357,1.522,1.522,0,0,0-.323.884q-.017.272-.017.7,0,.408.017.714a1.633,1.633,0,0,0,.331.867A1.045,1.045,0,0,0,18.385-1.02Z" transform="translate(596 798)" fill="#fff"/>
    </g>
    <g id="Group_291" data-name="Group 291" transform="translate(-479.254 346)">
      <g id="Group_280" data-name="Group 280" transform="translate(548 948)">
        <g id="Group_278-2" data-name="Group 278" clip-path="url(#clip-path-2)">
          <path id="Path_236-2" data-name="Path 236" d="M105.815,192.838a90,90,0,0,1-19-.227L79.77,169.18a83.372,83.372,0,0,1-14.17-4.639L46.005,179.265a87.15,87.15,0,0,1-15.14-10.729l8.341-23.044a75.134,75.134,0,0,1-7.843-10.546l-1.1-1.2-24.55.662A102.178,102.178,0,0,1,0,117.11l20.632-13.828A78.347,78.347,0,0,1,20.7,89.43L.285,75.741A91.918,91.918,0,0,1,5.854,58.846l24.816.636A71.022,71.022,0,0,1,39.984,46.99L31.666,24.035a10.213,10.213,0,0,1,1.757-1.244A90.562,90.562,0,0,1,47.11,13.543L66.868,28.355a86.16,86.16,0,0,1,14.8-4.618L88.65.6A21.749,21.749,0,0,1,92.838.277a43.023,43.023,0,0,1,8.5-.13l6.33.569,7.06,23.469A84.556,84.556,0,0,1,128.926,28.8l19.6-14.732a90.539,90.539,0,0,1,15.1,10.748l-8.341,23.065a73.715,73.715,0,0,1,8.015,10.8,4.128,4.128,0,0,0,1.218.925l24.28-.662a102.608,102.608,0,0,1,5.686,17.321L173.818,90.108a67.945,67.945,0,0,1,.039,12.759,1.694,1.694,0,0,0,.966,1.751l19.421,13.017a97.491,97.491,0,0,1-5.607,16.873l-24.81-.639a70.951,70.951,0,0,1-9.318,12.484l8.337,23.043c-.588.539-1.254.793-1.778,1.2a92.7,92.7,0,0,1-13.683,9.212L127.68,165.042A92.763,92.763,0,0,1,112.83,169.6ZM159.95,96.676a62.7,62.7,0,1,0-62.7,62.687,62.7,62.7,0,0,0,62.7-62.687" transform="translate(0 0)" fill="#0047ba"/>
        </g>
      </g>
      <rect id="Rectangle_116" data-name="Rectangle 116" width="59" height="33" rx="16.5" transform="translate(616 1005)" fill="#fff"/>
      <rect id="Rectangle_117" data-name="Rectangle 117" width="59" height="32" rx="16" transform="translate(616 1045)"/>
      <path id="Path_256" data-name="Path 256" d="M-14.807-4.1q-.306,0-.306-.34V-5.1a.663.663,0,0,1,.264-.476,2.041,2.041,0,0,1,.7-.391,2.712,2.712,0,0,1,.91-.153,4.15,4.15,0,0,1,.892.085q.383.085.927.238.442.136.79.213a3.527,3.527,0,0,0,.757.076,1.583,1.583,0,0,0,.629-.111,2.772,2.772,0,0,0,.434-.229q.179-.119.246-.17A1.628,1.628,0,0,1-8.313-6.1q.289,0,.289.357v.663a.663.663,0,0,1-.263.476,2.051,2.051,0,0,1-.689.391,2.691,2.691,0,0,1-.918.153,3.889,3.889,0,0,1-.825-.076q-.348-.077-.91-.247-.493-.153-.85-.23a3.735,3.735,0,0,0-.782-.076,1.6,1.6,0,0,0-.62.111,2.647,2.647,0,0,0-.442.229q-.178.119-.247.17A.468.468,0,0,1-14.807-4.1ZM-1.751.17a5.691,5.691,0,0,1-2.32-.434A3.527,3.527,0,0,1-5.55-1.394a2.677,2.677,0,0,1-.536-1.462.319.319,0,0,1,.1-.247A.363.363,0,0,1-5.729-3.2H-4.9a.47.47,0,0,1,.476.374,1.735,1.735,0,0,0,.952,1.2,3.952,3.952,0,0,0,1.717.348A3,3,0,0,0,.17-1.844a1.975,1.975,0,0,0,.714-1.64q0-2.057-2.5-2.057H-3.23a.38.38,0,0,1-.28-.11.38.38,0,0,1-.111-.28v-.459a.7.7,0,0,1,.187-.459l3.3-3.6H-5.151a.38.38,0,0,1-.28-.111.38.38,0,0,1-.11-.281v-.646a.409.409,0,0,1,.11-.289.366.366,0,0,1,.28-.119H1.632a.4.4,0,0,1,.3.111.4.4,0,0,1,.111.3v.612a.553.553,0,0,1-.187.391L-1.428-6.834l.272.017a4.3,4.3,0,0,1,2.737.9,3.072,3.072,0,0,1,1,2.482,3.307,3.307,0,0,1-.561,1.921A3.571,3.571,0,0,1,.476-.264,5.479,5.479,0,0,1-1.751.17Zm8.432-6.1A2.475,2.475,0,0,1,4.938-6.52a2.314,2.314,0,0,1-.705-1.623q-.017-.289-.017-.748,0-.493.017-.8A2.439,2.439,0,0,1,4.9-11.365a2.4,2.4,0,0,1,1.777-.62,2.4,2.4,0,0,1,1.777.62A2.439,2.439,0,0,1,9.129-9.69q.034.68.034.867,0,.17-.034.68a2.24,2.24,0,0,1-.7,1.623A2.507,2.507,0,0,1,6.681-5.933ZM5.253,0A.363.363,0,0,1,5-.094.319.319,0,0,1,4.9-.34a.293.293,0,0,1,.068-.187l8.4-11.05a.965.965,0,0,1,.246-.255.6.6,0,0,1,.315-.068h.561a.356.356,0,0,1,.263.093.333.333,0,0,1,.094.247.293.293,0,0,1-.068.187L6.392-.323a.965.965,0,0,1-.247.255A.644.644,0,0,1,5.814,0ZM6.681-6.987a1.066,1.066,0,0,0,.892-.357A1.633,1.633,0,0,0,7.9-8.211q.034-.612.034-.714,0-.153-.034-.7a1.491,1.491,0,0,0-.331-.884,1.1,1.1,0,0,0-.892-.357,1.07,1.07,0,0,0-.884.357,1.522,1.522,0,0,0-.323.884q-.017.272-.017.7,0,.408.017.714a1.609,1.609,0,0,0,.331.876A1.057,1.057,0,0,0,6.681-6.987ZM13.039.1A2.392,2.392,0,0,1,11.3-.519a2.443,2.443,0,0,1-.705-1.658q-.017-.289-.017-.748,0-.493.017-.8A2.5,2.5,0,0,1,11.279-5.4a2.38,2.38,0,0,1,1.76-.621,2.4,2.4,0,0,1,1.777.621A2.5,2.5,0,0,1,15.5-3.723q.034.612.034.8,0,.17-.034.748A2.424,2.424,0,0,1,14.79-.519,2.422,2.422,0,0,1,13.039.1Zm0-1.122a1.066,1.066,0,0,0,.892-.357,1.633,1.633,0,0,0,.332-.867q.034-.612.034-.714,0-.153-.034-.7a1.522,1.522,0,0,0-.323-.884,1.091,1.091,0,0,0-.9-.357,1.07,1.07,0,0,0-.884.357,1.522,1.522,0,0,0-.323.884q-.017.272-.017.7,0,.408.017.714a1.633,1.633,0,0,0,.332.867A1.045,1.045,0,0,0,13.039-1.02Z" transform="translate(646 1028)"/>
      <path id="Path_257" data-name="Path 257" d="M-18.326-4.1q-.306,0-.306-.34V-5.1a.663.663,0,0,1,.264-.476,2.041,2.041,0,0,1,.7-.391,2.712,2.712,0,0,1,.91-.153,4.15,4.15,0,0,1,.892.085q.383.085.927.238.442.136.79.213a3.527,3.527,0,0,0,.757.076,1.583,1.583,0,0,0,.629-.111,2.772,2.772,0,0,0,.434-.229q.179-.119.246-.17a1.628,1.628,0,0,1,.255-.085q.289,0,.289.357v.663a.663.663,0,0,1-.263.476,2.051,2.051,0,0,1-.689.391,2.691,2.691,0,0,1-.918.153,3.889,3.889,0,0,1-.825-.076q-.348-.077-.91-.247-.493-.153-.85-.23a3.735,3.735,0,0,0-.782-.076,1.6,1.6,0,0,0-.62.111,2.647,2.647,0,0,0-.442.229q-.178.119-.247.17A.468.468,0,0,1-18.326-4.1ZM-5.644,0a.38.38,0,0,1-.28-.111.38.38,0,0,1-.111-.281v-9.52L-8.857-7.735a.385.385,0,0,1-.255.1A.378.378,0,0,1-9.4-7.8l-.442-.561A.408.408,0,0,1-9.928-8.6a.374.374,0,0,1,.17-.323l3.706-2.856A.806.806,0,0,1-5.61-11.9h.867a.38.38,0,0,1,.28.111.38.38,0,0,1,.111.28V-.391a.38.38,0,0,1-.111.281A.38.38,0,0,1-4.743,0Zm3.808,0a.38.38,0,0,1-.28-.111.38.38,0,0,1-.111-.281V-.935A1,1,0,0,1-1.8-1.683l3.6-3.6A10.818,10.818,0,0,0,3.6-7.063,2.456,2.456,0,0,0,4.1-8.517a2.109,2.109,0,0,0-.552-1.547,2.156,2.156,0,0,0-1.607-.561,2.154,2.154,0,0,0-1.581.587A2.622,2.622,0,0,0-.374-8.483a.439.439,0,0,1-.162.3.464.464,0,0,1-.28.094H-1.7a.363.363,0,0,1-.255-.094.3.3,0,0,1-.1-.229,3.937,3.937,0,0,1,.493-1.76A3.618,3.618,0,0,1-.212-11.551a4.105,4.105,0,0,1,2.151-.536,3.891,3.891,0,0,1,2.9.995,3.452,3.452,0,0,1,.978,2.524,3.571,3.571,0,0,1-.536,1.929A8.72,8.72,0,0,1,3.621-4.794L.357-1.479h5.3a.4.4,0,0,1,.3.11.38.38,0,0,1,.11.28v.7a.366.366,0,0,1-.119.281A.409.409,0,0,1,5.661,0ZM10.2-5.933A2.475,2.475,0,0,1,8.458-6.52a2.314,2.314,0,0,1-.705-1.623q-.017-.289-.017-.748,0-.493.017-.8a2.439,2.439,0,0,1,.672-1.675,2.4,2.4,0,0,1,1.776-.62,2.4,2.4,0,0,1,1.777.62,2.439,2.439,0,0,1,.671,1.675q.034.68.034.867,0,.17-.034.68a2.24,2.24,0,0,1-.7,1.623A2.507,2.507,0,0,1,10.2-5.933ZM8.772,0a.363.363,0,0,1-.255-.094.319.319,0,0,1-.1-.247.293.293,0,0,1,.068-.187l8.4-11.05a.965.965,0,0,1,.247-.255.6.6,0,0,1,.315-.068H18a.356.356,0,0,1,.263.093.333.333,0,0,1,.094.247.293.293,0,0,1-.068.187L9.911-.323a.965.965,0,0,1-.247.255A.644.644,0,0,1,9.333,0ZM10.2-6.987a1.066,1.066,0,0,0,.892-.357,1.633,1.633,0,0,0,.331-.867q.034-.612.034-.714,0-.153-.034-.7a1.491,1.491,0,0,0-.331-.884,1.1,1.1,0,0,0-.892-.357,1.07,1.07,0,0,0-.884.357,1.522,1.522,0,0,0-.323.884q-.017.272-.017.7,0,.408.017.714a1.609,1.609,0,0,0,.332.876A1.057,1.057,0,0,0,10.2-6.987ZM16.558.1a2.392,2.392,0,0,1-1.743-.621,2.443,2.443,0,0,1-.705-1.658q-.017-.289-.017-.748,0-.493.017-.8A2.5,2.5,0,0,1,14.8-5.4a2.38,2.38,0,0,1,1.76-.621,2.4,2.4,0,0,1,1.777.621,2.5,2.5,0,0,1,.688,1.674q.034.612.034.8,0,.17-.034.748a2.424,2.424,0,0,1-.714,1.658A2.422,2.422,0,0,1,16.558.1Zm0-1.122a1.066,1.066,0,0,0,.892-.357,1.633,1.633,0,0,0,.332-.867q.034-.612.034-.714,0-.153-.034-.7a1.522,1.522,0,0,0-.323-.884,1.091,1.091,0,0,0-.9-.357,1.07,1.07,0,0,0-.884.357,1.522,1.522,0,0,0-.323.884q-.017.272-.017.7,0,.408.017.714a1.633,1.633,0,0,0,.332.867A1.045,1.045,0,0,0,16.558-1.02Z" transform="translate(644 1068)" fill="#fff"/>
    </g>
    <g id="Group_290" data-name="Group 290" transform="translate(-1121.047 766)">
      <g id="Group_281" data-name="Group 281" transform="translate(1323.047 658)">
        <g id="Group_278-3" data-name="Group 278" clip-path="url(#clip-path-3)">
          <path id="Path_236-3" data-name="Path 236" d="M92.328,168.26a78.528,78.528,0,0,1-16.582-.2L69.6,147.617a72.745,72.745,0,0,1-12.364-4.047l-17.1,12.847a76.042,76.042,0,0,1-13.21-9.362l7.278-20.107a65.558,65.558,0,0,1-6.843-9.2L26.4,116.7l-21.421.577A89.154,89.154,0,0,1,0,102.184L18,90.118a68.361,68.361,0,0,1,.061-12.087L.248,66.087A80.2,80.2,0,0,1,5.107,51.346L26.76,51.9A61.97,61.97,0,0,1,34.888,41L27.63,20.972a8.911,8.911,0,0,1,1.533-1.085,79.019,79.019,0,0,1,11.943-8.07l17.24,12.924a75.178,75.178,0,0,1,12.912-4.03L77.351.527A18.977,18.977,0,0,1,81.005.242,37.54,37.54,0,0,1,88.424.129l5.523.5,6.16,20.478a73.779,73.779,0,0,1,12.386,4.025l17.1-12.854a79,79,0,0,1,13.173,9.378l-7.278,20.125a64.32,64.32,0,0,1,6.993,9.422,3.6,3.6,0,0,0,1.063.807l21.185-.577a89.529,89.529,0,0,1,4.961,15.113l-18.03,12.082a59.285,59.285,0,0,1,.034,11.133,1.478,1.478,0,0,0,.843,1.528l16.946,11.358a85.065,85.065,0,0,1-4.892,14.722l-21.648-.557a61.908,61.908,0,0,1-8.13,10.893l7.274,20.106c-.513.47-1.094.692-1.552,1.051A80.887,80.887,0,0,1,128.6,156.9l-17.194-12.888a80.938,80.938,0,0,1-12.958,3.973Zm47.235-83.905a54.713,54.713,0,1,0-54.713,54.7,54.705,54.705,0,0,0,54.713-54.7" transform="translate(0 0)" fill="#39dcbf"/>
        </g>
      </g>
      <rect id="Rectangle_114" data-name="Rectangle 114" width="59" height="33" rx="16.5" transform="translate(1378 706)" fill="#fff"/>
      <rect id="Rectangle_115" data-name="Rectangle 115" width="59" height="32" rx="16" transform="translate(1378 746)"/>
      <path id="Path_258" data-name="Path 258" d="M1.53-4.1q-.306,0-.306-.34V-5.1a.663.663,0,0,1,.263-.476,2.041,2.041,0,0,1,.7-.391,2.712,2.712,0,0,1,.909-.153,4.15,4.15,0,0,1,.893.085q.382.085.927.238.442.136.79.213a3.527,3.527,0,0,0,.757.076,1.583,1.583,0,0,0,.629-.111,2.772,2.772,0,0,0,.434-.229q.178-.119.246-.17A1.628,1.628,0,0,1,8.024-6.1q.289,0,.289.357v.663a.663.663,0,0,1-.263.476,2.051,2.051,0,0,1-.689.391,2.691,2.691,0,0,1-.918.153,3.889,3.889,0,0,1-.825-.076q-.349-.077-.91-.247-.493-.153-.85-.23a3.735,3.735,0,0,0-.782-.076,1.6,1.6,0,0,0-.62.111,2.647,2.647,0,0,0-.442.229q-.179.119-.247.17A.468.468,0,0,1,1.53-4.1ZM14.212,0a.38.38,0,0,1-.28-.111.38.38,0,0,1-.111-.281v-9.52L11-7.735a.385.385,0,0,1-.255.1.378.378,0,0,1-.289-.17l-.442-.561A.408.408,0,0,1,9.928-8.6a.374.374,0,0,1,.17-.323L13.8-11.781a.806.806,0,0,1,.442-.119h.867a.38.38,0,0,1,.28.111.38.38,0,0,1,.111.28V-.391a.38.38,0,0,1-.111.281.38.38,0,0,1-.28.111Zm5.865-5.933a2.475,2.475,0,0,1-1.743-.587,2.314,2.314,0,0,1-.705-1.623q-.017-.289-.017-.748,0-.493.017-.8a2.439,2.439,0,0,1,.671-1.675,2.4,2.4,0,0,1,1.777-.62,2.4,2.4,0,0,1,1.777.62,2.439,2.439,0,0,1,.671,1.675q.034.68.034.867,0,.17-.034.68a2.24,2.24,0,0,1-.7,1.623A2.507,2.507,0,0,1,20.077-5.933ZM18.649,0a.363.363,0,0,1-.255-.094.319.319,0,0,1-.1-.247.293.293,0,0,1,.068-.187l8.4-11.05A.965.965,0,0,1,27-11.832a.6.6,0,0,1,.315-.068h.561a.356.356,0,0,1,.263.093.333.333,0,0,1,.094.247.293.293,0,0,1-.068.187L19.788-.323a.965.965,0,0,1-.247.255A.644.644,0,0,1,19.21,0Zm1.428-6.987a1.066,1.066,0,0,0,.892-.357,1.633,1.633,0,0,0,.331-.867q.034-.612.034-.714,0-.153-.034-.7a1.491,1.491,0,0,0-.331-.884,1.1,1.1,0,0,0-.892-.357,1.07,1.07,0,0,0-.884.357,1.522,1.522,0,0,0-.323.884q-.017.272-.017.7,0,.408.017.714a1.609,1.609,0,0,0,.332.876A1.057,1.057,0,0,0,20.077-6.987ZM26.435.1a2.392,2.392,0,0,1-1.743-.621,2.443,2.443,0,0,1-.705-1.658q-.017-.289-.017-.748,0-.493.017-.8A2.5,2.5,0,0,1,24.675-5.4a2.38,2.38,0,0,1,1.76-.621,2.4,2.4,0,0,1,1.777.621A2.5,2.5,0,0,1,28.9-3.723q.034.612.034.8,0,.17-.034.748a2.424,2.424,0,0,1-.714,1.658A2.422,2.422,0,0,1,26.435.1Zm0-1.122a1.066,1.066,0,0,0,.892-.357,1.633,1.633,0,0,0,.332-.867q.034-.612.034-.714,0-.153-.034-.7a1.522,1.522,0,0,0-.323-.884,1.091,1.091,0,0,0-.9-.357,1.07,1.07,0,0,0-.884.357,1.522,1.522,0,0,0-.323.884q-.017.272-.017.7,0,.408.017.714a1.633,1.633,0,0,0,.331.867A1.045,1.045,0,0,0,26.435-1.02Z" transform="translate(1393 729)"/>
      <path id="Path_259" data-name="Path 259" d="M1.53-4.1q-.306,0-.306-.34V-5.1a.663.663,0,0,1,.263-.476,2.041,2.041,0,0,1,.7-.391,2.712,2.712,0,0,1,.909-.153,4.15,4.15,0,0,1,.893.085q.382.085.927.238.442.136.79.213a3.527,3.527,0,0,0,.757.076,1.583,1.583,0,0,0,.629-.111,2.772,2.772,0,0,0,.434-.229q.178-.119.246-.17A1.628,1.628,0,0,1,8.024-6.1q.289,0,.289.357v.663a.663.663,0,0,1-.263.476,2.051,2.051,0,0,1-.689.391,2.691,2.691,0,0,1-.918.153,3.889,3.889,0,0,1-.825-.076q-.349-.077-.91-.247-.493-.153-.85-.23a3.735,3.735,0,0,0-.782-.076,1.6,1.6,0,0,0-.62.111,2.647,2.647,0,0,0-.442.229q-.179.119-.247.17A.468.468,0,0,1,1.53-4.1ZM14.586.17a5.691,5.691,0,0,1-2.32-.434,3.527,3.527,0,0,1-1.479-1.131,2.677,2.677,0,0,1-.536-1.462.319.319,0,0,1,.1-.247.363.363,0,0,1,.255-.093h.833a.47.47,0,0,1,.476.374,1.735,1.735,0,0,0,.952,1.2,3.952,3.952,0,0,0,1.717.348,3,3,0,0,0,1.921-.569,1.975,1.975,0,0,0,.714-1.64q0-2.057-2.5-2.057H13.107a.38.38,0,0,1-.281-.11.38.38,0,0,1-.11-.28v-.459a.7.7,0,0,1,.187-.459l3.3-3.6H11.186a.38.38,0,0,1-.281-.111.38.38,0,0,1-.111-.281v-.646a.409.409,0,0,1,.111-.289.366.366,0,0,1,.281-.119h6.783a.4.4,0,0,1,.3.111.4.4,0,0,1,.111.3v.612a.553.553,0,0,1-.187.391L14.909-6.834l.272.017a4.3,4.3,0,0,1,2.737.9,3.072,3.072,0,0,1,1,2.482,3.307,3.307,0,0,1-.561,1.921,3.571,3.571,0,0,1-1.547,1.25A5.479,5.479,0,0,1,14.586.17Zm8.432-6.1a2.475,2.475,0,0,1-1.743-.587,2.314,2.314,0,0,1-.705-1.623q-.017-.289-.017-.748,0-.493.017-.8a2.439,2.439,0,0,1,.671-1.675,2.4,2.4,0,0,1,1.777-.62,2.4,2.4,0,0,1,1.777.62,2.439,2.439,0,0,1,.671,1.675q.034.68.034.867,0,.17-.034.68a2.24,2.24,0,0,1-.7,1.623A2.507,2.507,0,0,1,23.018-5.933ZM21.59,0a.363.363,0,0,1-.255-.094.319.319,0,0,1-.1-.247A.293.293,0,0,1,21.3-.527l8.4-11.05a.965.965,0,0,1,.246-.255.6.6,0,0,1,.315-.068h.561a.356.356,0,0,1,.264.093.333.333,0,0,1,.094.247.293.293,0,0,1-.068.187L22.729-.323a.965.965,0,0,1-.247.255A.644.644,0,0,1,22.151,0Zm1.428-6.987a1.066,1.066,0,0,0,.892-.357,1.633,1.633,0,0,0,.331-.867q.034-.612.034-.714,0-.153-.034-.7a1.491,1.491,0,0,0-.331-.884,1.1,1.1,0,0,0-.892-.357,1.07,1.07,0,0,0-.884.357,1.522,1.522,0,0,0-.323.884q-.017.272-.017.7,0,.408.017.714a1.609,1.609,0,0,0,.332.876A1.057,1.057,0,0,0,23.018-6.987ZM29.376.1a2.392,2.392,0,0,1-1.743-.621,2.443,2.443,0,0,1-.705-1.658q-.017-.289-.017-.748,0-.493.017-.8A2.5,2.5,0,0,1,27.616-5.4a2.38,2.38,0,0,1,1.76-.621,2.4,2.4,0,0,1,1.777.621,2.5,2.5,0,0,1,.688,1.674q.034.612.034.8,0,.17-.034.748a2.424,2.424,0,0,1-.714,1.658A2.422,2.422,0,0,1,29.376.1Zm0-1.122a1.066,1.066,0,0,0,.892-.357,1.633,1.633,0,0,0,.331-.867q.034-.612.034-.714,0-.153-.034-.7a1.522,1.522,0,0,0-.323-.884,1.091,1.091,0,0,0-.9-.357,1.07,1.07,0,0,0-.884.357,1.522,1.522,0,0,0-.323.884q-.017.272-.017.7,0,.408.017.714a1.633,1.633,0,0,0,.332.867A1.045,1.045,0,0,0,29.376-1.02Z" transform="translate(1390 769)" fill="#fff"/>
    </g>
  </g>
</svg>
