<?xml version="1.0" encoding="UTF-8"?>
<svg id="Layer_1" xmlns="http://www.w3.org/2000/svg" version="1.1" viewBox="0 0 50 50">
  <!-- Generator: Adobe Illustrator 29.3.1, SVG Export Plug-In . SVG Version: 2.1.0 Build 151)  -->
  <defs>
    <style>
      .st0 {
        fill: #3cdbc0;
      }
    </style>
  </defs>
  <path class="st0" d="M15.11,39.68v.02c.89,0,1.61-.72,1.61-1.61v-3.94c.36-.54,2.06-1.65,3.54-1.65s3.18,1.11,3.54,1.65v1.88c0,.89.72,1.61,1.61,1.61s1.61-.72,1.61-1.61v-2.06c0-1.57-1.54-2.77-2.46-3.35-.16-.1-.32-.17-.48-.26.55-.84.88-1.88.88-3.04v-1.17c0-2.52-1.51-4.5-3.64-4.99.88-.01,1.58-.73,1.58-1.61v-.85c.36-.54,2.06-1.65,3.54-1.65s3.18,1.11,3.54,1.65v2.91c0,.89.72,1.61,1.61,1.61s1.61-.72,1.61-1.61v-3.09c0-1.57-1.54-2.77-2.46-3.35-.16-.1-.32-.17-.48-.26.55-.84.88-1.88.88-3.04v-1.17c0-2.92-2.02-5.12-4.7-5.12s-4.7,2.2-4.7,5.12v1.17c0,1.16.33,2.2.88,3.04-.16.09-.32.16-.48.26-.92.57-2.46,1.77-2.46,3.34v1.03c0,.73.49,1.35,1.17,1.54-.19-.02-.38-.06-.59-.06-2.68,0-4.7,2.2-4.7,5.12v1.17c0,1.16.33,2.2.88,3.04-.16.09-.32.16-.48.26-.92.57-2.46,1.77-2.46,3.34v4.12c0,.89.72,1.61,1.61,1.61ZM24.95,10.72c0-1.31.77-1.9,1.48-1.9s1.48.6,1.48,1.9v1.17c0,1.31-.77,1.9-1.48,1.9s-1.48-.6-1.48-1.9v-1.17ZM18.77,26.16c0-1.31.77-1.9,1.48-1.9s1.48.6,1.48,1.9v1.17c0,1.31-.77,1.9-1.48,1.9s-1.48-.6-1.48-1.9v-1.17Z"/>
  <path class="st0" d="M40.17,0l-8.34,13.96h4.31v15.9c0,5.78-2.78,9.46-5.11,11.53-3.12,2.77-7.42,4.36-11.82,4.36h-5.55c.58-.25.98-.82.98-1.48v-2.06c0-1.57-1.54-2.77-2.46-3.35-.16-.1-.32-.17-.48-.26.55-.84.88-1.88.88-3.04v-1.17c0-2.92-2.02-5.12-4.7-5.12s-4.7,2.2-4.7,5.12v1.17c0,1.16.33,2.2.88,3.04-.16.09-.32.16-.48.26-.92.57-2.46,1.77-2.46,3.34v6.18c0,.89.72,1.61,1.61,1.61s1.61-.72,1.61-1.61v-6c.36-.54,2.06-1.65,3.54-1.65s3.18,1.11,3.54,1.65v1.88c0,.66.4,1.23.98,1.48h-2.46c-.89,0-1.61.72-1.61,1.61s.72,1.61,1.61,1.61h9.27c5.25,0,10.2-1.84,13.96-5.18,3.99-3.55,6.19-8.5,6.19-13.94V10.74h-1.86l2.73-4.57,2.86,4.57h-1.8v19.11c0,4.42-1.04,7.73-3.29,10.44-.57.68-.47,1.7.21,2.27.68.57,1.7.47,2.27-.21,2.71-3.27,4.03-7.36,4.03-12.49v-15.9h4.38L40.17,0ZM9.38,35.57c0,1.31-.77,1.9-1.48,1.9s-1.48-.6-1.48-1.9v-1.17c0-1.31.77-1.9,1.48-1.9s1.48.6,1.48,1.9v1.17Z"/>
  <path class="st0" d="M29.46,28.92h0s-.04.52-.17,2.06c-.16,1.88-.53,6.28-5.1,8.52-.8.39-1.13,1.36-.73,2.15.28.57.85.9,1.45.9.24,0,.48-.05.71-.17,6.21-3.05,6.72-9.14,6.88-11.14.13-1.53.17-2.05.17-2.05.08-.89-.58-1.66-1.47-1.74-.89-.08-1.66.58-1.74,1.47Z"/>
</svg>