<svg xmlns="http://www.w3.org/2000/svg" width="325.736" height="351.036" viewBox="0 0 325.736 351.036">
  <g id="Group_289" data-name="Group 289" transform="translate(1537.736 -384) rotate(90)">
    <rect id="Rectangle_111" data-name="Rectangle 111" width="126.722" height="325.736" rx="32" transform="translate(608.314 1212)" fill="#39dcbf"/>
    <rect id="Rectangle_109" data-name="Rectangle 109" width="120.488" height="325.736" transform="translate(511.35 1212)" fill="#0047ba"/>
    <path id="Rectangle_112" data-name="Rectangle 112" d="M32,0H150.13a0,0,0,0,1,0,0V325.736a0,0,0,0,1,0,0H32a32,32,0,0,1-32-32V32A32,32,0,0,1,32,0Z" transform="translate(384 1212)" fill="#ed1c24"/>
    <path id="Path_265" data-name="Path 265" d="M6.82,15.84A7.283,7.283,0,0,1,1.9,14.311,5.849,5.849,0,0,1,.022,9.878Q0,9.284,0,7.942q0-1.364.022-1.98A5.815,5.815,0,0,1,1.936,1.551,7.24,7.24,0,0,1,6.82,0,8.874,8.874,0,0,1,10.3.649,5.712,5.712,0,0,1,12.727,2.5a4.686,4.686,0,0,1,.913,2.8v.044a.375.375,0,0,1-.143.3.482.482,0,0,1-.319.121h-2.97a.7.7,0,0,1-.44-.121A.948.948,0,0,1,9.5,5.192a2.673,2.673,0,0,0-.968-1.573A3.026,3.026,0,0,0,6.8,3.168q-2.6,0-2.684,2.9-.022.594-.022,1.826t.022,1.87q.088,2.9,2.684,2.9a3.023,3.023,0,0,0,1.76-.473A2.525,2.525,0,0,0,9.5,10.648a.836.836,0,0,1,.242-.451.74.74,0,0,1,.462-.121h2.97a.486.486,0,0,1,.341.132.37.37,0,0,1,.121.33,4.686,4.686,0,0,1-.913,2.805A5.712,5.712,0,0,1,10.3,15.191,8.874,8.874,0,0,1,6.82,15.84Zm14.3,0a6.159,6.159,0,0,1-4.2-1.3,5.007,5.007,0,0,1-1.606-3.652q-.022-.286-.022-.99t.022-.99a4.944,4.944,0,0,1,1.65-3.641A6.157,6.157,0,0,1,21.12,3.96,6.192,6.192,0,0,1,25.3,5.269,4.944,4.944,0,0,1,26.95,8.91q.022.286.022.99t-.022.99a5.007,5.007,0,0,1-1.606,3.652A6.2,6.2,0,0,1,21.12,15.84Zm0-2.684a1.713,1.713,0,0,0,1.43-.583,3.154,3.154,0,0,0,.528-1.793q.022-.22.022-.88t-.022-.88a3.113,3.113,0,0,0-.539-1.782,1.7,1.7,0,0,0-1.419-.594q-1.826,0-1.936,2.376l-.022.88.022.88a3,3,0,0,0,.517,1.793A1.719,1.719,0,0,0,21.12,13.156ZM29.7,15.62a.527.527,0,0,1-.55-.55V4.73a.527.527,0,0,1,.55-.55h2.53a.553.553,0,0,1,.407.165.528.528,0,0,1,.165.385v.88a4.046,4.046,0,0,1,3.256-1.43h.968a.527.527,0,0,1,.55.55V7a.547.547,0,0,1-.154.385.517.517,0,0,1-.4.165H34.892a1.889,1.889,0,0,0-1.4.495A1.889,1.889,0,0,0,33,9.438V15.07a.517.517,0,0,1-.165.4.574.574,0,0,1-.407.154Zm14.608.22a5.82,5.82,0,0,1-4.158-1.43,5.639,5.639,0,0,1-1.584-4.158v-.77a5.632,5.632,0,0,1,1.617-4.059,5.687,5.687,0,0,1,4.1-1.463,6.118,6.118,0,0,1,3.157.759A4.858,4.858,0,0,1,49.379,6.8a6.8,6.8,0,0,1,.649,3.036v.528a.547.547,0,0,1-.154.385.517.517,0,0,1-.4.165h-7.04v.154a3.013,3.013,0,0,0,.506,1.672,1.554,1.554,0,0,0,1.342.638,1.615,1.615,0,0,0,.9-.231,3.075,3.075,0,0,0,.638-.561,1.087,1.087,0,0,1,.319-.3.993.993,0,0,1,.385-.055h2.728a.511.511,0,0,1,.341.121.4.4,0,0,1,.143.319,2.16,2.16,0,0,1-.649,1.32,5.314,5.314,0,0,1-1.881,1.3A7.076,7.076,0,0,1,44.308,15.84Zm1.848-7.106V8.69a2.68,2.68,0,0,0-.495-1.7,1.654,1.654,0,0,0-1.375-.627,1.631,1.631,0,0,0-1.353.627,2.68,2.68,0,0,0-.495,1.7v.044Zm14.3,6.886a.564.564,0,0,1-.55-.55V3.674H55.99a.564.564,0,0,1-.55-.55V.77a.517.517,0,0,1,.165-.4A.547.547,0,0,1,55.99.22H67.826a.528.528,0,0,1,.55.55V3.124a.528.528,0,0,1-.55.55H63.91v11.4a.546.546,0,0,1-.154.385.517.517,0,0,1-.4.165Zm13.024.22a5.82,5.82,0,0,1-4.158-1.43,5.639,5.639,0,0,1-1.584-4.158v-.77a5.632,5.632,0,0,1,1.617-4.059,5.687,5.687,0,0,1,4.1-1.463,6.118,6.118,0,0,1,3.157.759A4.858,4.858,0,0,1,78.551,6.8,6.8,6.8,0,0,1,79.2,9.834v.528a.546.546,0,0,1-.154.385.517.517,0,0,1-.4.165H71.61v.154a3.013,3.013,0,0,0,.506,1.672,1.554,1.554,0,0,0,1.342.638,1.615,1.615,0,0,0,.9-.231A3.075,3.075,0,0,0,75,12.584a1.087,1.087,0,0,1,.319-.3.993.993,0,0,1,.385-.055H78.43a.511.511,0,0,1,.341.121.4.4,0,0,1,.143.319,2.16,2.16,0,0,1-.649,1.32,5.314,5.314,0,0,1-1.881,1.3A7.076,7.076,0,0,1,73.48,15.84Zm1.848-7.106V8.69a2.68,2.68,0,0,0-.5-1.7,1.654,1.654,0,0,0-1.375-.627,1.631,1.631,0,0,0-1.353.627,2.68,2.68,0,0,0-.5,1.7v.044Zm6.49,6.886a.564.564,0,0,1-.55-.55V.55a.517.517,0,0,1,.165-.4A.547.547,0,0,1,81.818,0h2.6a.528.528,0,0,1,.55.55V15.07a.528.528,0,0,1-.55.55Zm11,.22a5.938,5.938,0,0,1-4.026-1.331,4.962,4.962,0,0,1-1.65-3.707l-.022-.88.022-.9A4.913,4.913,0,0,1,88.781,5.3,5.95,5.95,0,0,1,92.818,3.96a6.767,6.767,0,0,1,3.157.671,5.039,5.039,0,0,1,1.914,1.606,3.509,3.509,0,0,1,.671,1.7.458.458,0,0,1-.143.385.553.553,0,0,1-.407.165H95.216a.569.569,0,0,1-.374-.11,1.013,1.013,0,0,1-.242-.33,2.044,2.044,0,0,0-.671-.968A1.777,1.777,0,0,0,92.884,6.8q-1.8,0-1.87,2.332l-.022.836.022.726a2.85,2.85,0,0,0,.517,1.749A1.671,1.671,0,0,0,92.884,13a1.808,1.808,0,0,0,1.078-.286,1.962,1.962,0,0,0,.638-.968,1.013,1.013,0,0,1,.242-.33.569.569,0,0,1,.374-.11H98.01a.57.57,0,0,1,.385.143.459.459,0,0,1,.165.363,3.2,3.2,0,0,1-.6,1.65,5.118,5.118,0,0,1-1.9,1.661A6.635,6.635,0,0,1,92.818,15.84Zm13.134,0a6.159,6.159,0,0,1-4.2-1.3,5.007,5.007,0,0,1-1.606-3.652q-.022-.286-.022-.99t.022-.99a4.944,4.944,0,0,1,1.65-3.641,7.293,7.293,0,0,1,8.338,0,4.944,4.944,0,0,1,1.65,3.641q.022.286.022.99t-.022.99a5.007,5.007,0,0,1-1.606,3.652A6.2,6.2,0,0,1,105.952,15.84Zm0-2.684a1.713,1.713,0,0,0,1.43-.583,3.154,3.154,0,0,0,.528-1.793q.022-.22.022-.88t-.022-.88a3.113,3.113,0,0,0-.539-1.782,1.7,1.7,0,0,0-1.419-.594q-1.826,0-1.936,2.376l-.022.88.022.88a3,3,0,0,0,.517,1.793A1.719,1.719,0,0,0,105.952,13.156Z" transform="translate(459.065 1432.176) rotate(-90)" fill="#fff"/>
    <path id="Path_266" data-name="Path 266" d="M.55,16.28a.528.528,0,0,1-.385-.165A.528.528,0,0,1,0,15.73V1.43a.517.517,0,0,1,.165-.4A.546.546,0,0,1,.55.88H6.27a7.435,7.435,0,0,1,5.016,1.54,5.828,5.828,0,0,1,1.87,4.466q.022.638.022,1.694t-.022,1.672A6.012,6.012,0,0,1,11.341,14.8,7.343,7.343,0,0,1,6.38,16.28Zm5.72-3.168A2.884,2.884,0,0,0,8.4,12.419a3.2,3.2,0,0,0,.726-2.211q.044-.638.044-1.65T9.13,6.93a3.018,3.018,0,0,0-.781-2.178,3.056,3.056,0,0,0-2.189-.7H3.96v9.064ZM16.038,3.19a.527.527,0,0,1-.55-.55V.66a.528.528,0,0,1,.55-.55h2.64a.528.528,0,0,1,.55.55V2.64a.527.527,0,0,1-.55.55Zm.022,13.09a.528.528,0,0,1-.55-.55V5.39a.528.528,0,0,1,.55-.55h2.6a.528.528,0,0,1,.55.55V15.73a.546.546,0,0,1-.154.385.517.517,0,0,1-.4.165Zm11.352,4.84a7.282,7.282,0,0,1-3.388-.682,4.753,4.753,0,0,1-1.859-1.562A2.934,2.934,0,0,1,21.6,17.4a.458.458,0,0,1,.176-.352.586.586,0,0,1,.4-.154H24.97a.525.525,0,0,1,.341.1.944.944,0,0,1,.231.341,2.039,2.039,0,0,0,.594.8,1.867,1.867,0,0,0,1.166.3,2.011,2.011,0,0,0,1.5-.5,2.329,2.329,0,0,0,.484-1.661V14.806a4.124,4.124,0,0,1-3.212,1.232,4.335,4.335,0,0,1-3.4-1.309,5.906,5.906,0,0,1-1.287-3.8l-.022-.594A6.668,6.668,0,0,1,22.55,6.149,4.184,4.184,0,0,1,26.07,4.62,4.269,4.269,0,0,1,29.5,6.2V5.39a.517.517,0,0,1,.165-.4.547.547,0,0,1,.385-.154h2.53a.553.553,0,0,1,.407.165.528.528,0,0,1,.165.385V15.972a4.834,4.834,0,0,1-1.5,3.828A6.212,6.212,0,0,1,27.412,21.12Zm-.154-7.942a1.774,1.774,0,0,0,1.474-.605,2.69,2.69,0,0,0,.55-1.529,6.331,6.331,0,0,0,.022-.682,6.015,6.015,0,0,0-.022-.66,2.534,2.534,0,0,0-.539-1.529,1.806,1.806,0,0,0-1.485-.6,1.748,1.748,0,0,0-1.5.616,2.977,2.977,0,0,0-.506,1.694l-.022.484a4.1,4.1,0,0,0,.44,2.057A1.674,1.674,0,0,0,27.258,13.178Zm9.02-9.988a.527.527,0,0,1-.55-.55V.66a.528.528,0,0,1,.55-.55h2.64a.528.528,0,0,1,.55.55V2.64a.527.527,0,0,1-.55.55ZM36.3,16.28a.527.527,0,0,1-.55-.55V5.39a.527.527,0,0,1,.55-.55h2.6a.527.527,0,0,1,.55.55V15.73a.546.546,0,0,1-.154.385.517.517,0,0,1-.4.165Zm11.594,0q-4.554,0-4.554-4.334V7.722H41.624a.574.574,0,0,1-.407-.154.517.517,0,0,1-.165-.4V5.39a.517.517,0,0,1,.165-.4.574.574,0,0,1,.407-.154H43.34V1.21a.517.517,0,0,1,.165-.4A.546.546,0,0,1,43.89.66h2.552a.527.527,0,0,1,.55.55V4.84h2.75a.574.574,0,0,1,.407.154.517.517,0,0,1,.165.4V7.172a.517.517,0,0,1-.165.4.574.574,0,0,1-.407.154h-2.75v3.916q0,1.628,1.254,1.628H49.94a.527.527,0,0,1,.55.55V15.73a.546.546,0,0,1-.154.385.517.517,0,0,1-.4.165Zm7.854.22a4.918,4.918,0,0,1-2.123-.451,3.67,3.67,0,0,1-1.5-1.232,2.974,2.974,0,0,1-.539-1.727,2.9,2.9,0,0,1,1.243-2.442,7.77,7.77,0,0,1,3.421-1.276L59,8.954V8.646a1.817,1.817,0,0,0-.352-1.232,1.525,1.525,0,0,0-1.188-.4,1.766,1.766,0,0,0-.836.176,3.684,3.684,0,0,0-.682.484,3.48,3.48,0,0,1-.462.352.242.242,0,0,1-.242.176h-2.4a.492.492,0,0,1-.363-.143.4.4,0,0,1-.121-.341,2.392,2.392,0,0,1,.583-1.32,4.458,4.458,0,0,1,1.716-1.254,6.839,6.839,0,0,1,2.849-.528,5.744,5.744,0,0,1,4,1.2,4.175,4.175,0,0,1,1.3,3.223V15.73a.546.546,0,0,1-.154.385.517.517,0,0,1-.4.165H59.708a.564.564,0,0,1-.55-.55v-.77A3.534,3.534,0,0,1,57.8,16.071,4.6,4.6,0,0,1,55.748,16.5Zm1.034-2.508a2.157,2.157,0,0,0,1.639-.66,2.709,2.709,0,0,0,.627-1.936v-.308l-1.87.33Q55.2,11.77,55.2,12.8a1,1,0,0,0,.462.869A1.926,1.926,0,0,0,56.782,13.992Zm9.064,2.288a.564.564,0,0,1-.55-.55V1.21a.517.517,0,0,1,.165-.4A.547.547,0,0,1,65.846.66h2.6a.527.527,0,0,1,.55.55V15.73a.527.527,0,0,1-.55.55Zm11.22,0a.564.564,0,0,1-.55-.55V1.43a.517.517,0,0,1,.165-.4A.546.546,0,0,1,77.066.88h2.948a.574.574,0,0,1,.407.154.517.517,0,0,1,.165.4v14.3a.517.517,0,0,1-.165.4.574.574,0,0,1-.407.154Zm6.886,0a.528.528,0,0,1-.55-.55V5.39a.528.528,0,0,1,.55-.55h2.53a.574.574,0,0,1,.407.154.517.517,0,0,1,.165.4v.836A4.309,4.309,0,0,1,88.583,5.06a4.928,4.928,0,0,1,2.123-.44,4.087,4.087,0,0,1,3.146,1.309,5.194,5.194,0,0,1,1.21,3.663V15.73a.546.546,0,0,1-.154.385.517.517,0,0,1-.4.165H91.74a.564.564,0,0,1-.55-.55V9.724a2.3,2.3,0,0,0-.506-1.6,1.855,1.855,0,0,0-1.452-.561,1.9,1.9,0,0,0-1.452.561,2.239,2.239,0,0,0-.528,1.6V15.73a.546.546,0,0,1-.154.385.517.517,0,0,1-.4.165Zm15.312,0a.564.564,0,0,1-.55-.55V7.722H97.042a.528.528,0,0,1-.55-.55V5.39a.527.527,0,0,1,.55-.55h1.672v-.7A3.776,3.776,0,0,1,99.957.979,5.67,5.67,0,0,1,103.532,0h1.716a.528.528,0,0,1,.55.55V2.332a.546.546,0,0,1-.154.385.517.517,0,0,1-.4.165h-1.54a1.339,1.339,0,0,0-1.034.341,1.484,1.484,0,0,0-.308,1.023V4.84h2.662a.527.527,0,0,1,.55.55V7.172a.546.546,0,0,1-.154.385.517.517,0,0,1-.4.165h-2.662V15.73a.546.546,0,0,1-.154.385.517.517,0,0,1-.4.165Zm8.448,0a.528.528,0,0,1-.55-.55V5.39a.528.528,0,0,1,.55-.55h2.53a.553.553,0,0,1,.407.165.528.528,0,0,1,.165.385v.88a4.046,4.046,0,0,1,3.256-1.43h.968a.527.527,0,0,1,.55.55V7.656a.546.546,0,0,1-.154.385.517.517,0,0,1-.4.165H112.9a1.889,1.889,0,0,0-1.4.495,1.889,1.889,0,0,0-.495,1.4V15.73a.517.517,0,0,1-.165.4.574.574,0,0,1-.407.154Zm12.672.22a4.918,4.918,0,0,1-2.123-.451,3.67,3.67,0,0,1-1.5-1.232,2.974,2.974,0,0,1-.539-1.727,2.9,2.9,0,0,1,1.243-2.442,7.77,7.77,0,0,1,3.421-1.276l2.75-.418V8.646a1.817,1.817,0,0,0-.352-1.232,1.525,1.525,0,0,0-1.188-.4,1.766,1.766,0,0,0-.836.176,3.684,3.684,0,0,0-.682.484,3.48,3.48,0,0,1-.462.352.242.242,0,0,1-.242.176h-2.4a.492.492,0,0,1-.363-.143A.4.4,0,0,1,117,7.722a2.392,2.392,0,0,1,.583-1.32,4.458,4.458,0,0,1,1.716-1.254,6.839,6.839,0,0,1,2.849-.528,5.745,5.745,0,0,1,4,1.2,4.175,4.175,0,0,1,1.3,3.223V15.73a.547.547,0,0,1-.154.385.517.517,0,0,1-.4.165h-2.552a.564.564,0,0,1-.55-.55v-.77a3.534,3.534,0,0,1-1.353,1.111A4.6,4.6,0,0,1,120.384,16.5Zm1.034-2.508a2.157,2.157,0,0,0,1.639-.66,2.709,2.709,0,0,0,.627-1.936v-.308l-1.87.33q-1.98.352-1.98,1.386a1,1,0,0,0,.462.869A1.926,1.926,0,0,0,121.418,13.992ZM134.64,16.5a7.69,7.69,0,0,1-2.981-.506,4.474,4.474,0,0,1-1.771-1.21,2.1,2.1,0,0,1-.572-1.254.459.459,0,0,1,.165-.363.542.542,0,0,1,.363-.143h2.508a.336.336,0,0,1,.242.11q.264.176.4.286a5.058,5.058,0,0,0,.847.517,2.148,2.148,0,0,0,.891.165,1.952,1.952,0,0,0,1.045-.253.8.8,0,0,0,.407-.715.827.827,0,0,0-.209-.594,2.121,2.121,0,0,0-.8-.429,14.353,14.353,0,0,0-1.8-.451,6.106,6.106,0,0,1-2.8-1.221,2.858,2.858,0,0,1-.979-2.277,2.937,2.937,0,0,1,.572-1.716,4.021,4.021,0,0,1,1.705-1.32,6.571,6.571,0,0,1,2.695-.506,7.08,7.08,0,0,1,2.728.484,4.7,4.7,0,0,1,1.771,1.177,2.021,2.021,0,0,1,.6,1.265.5.5,0,0,1-.143.352.45.45,0,0,1-.341.154h-2.288a.557.557,0,0,1-.33-.11,3.352,3.352,0,0,1-.506-.33,3.884,3.884,0,0,0-.7-.44,1.919,1.919,0,0,0-.814-.154,1.453,1.453,0,0,0-.913.264.873.873,0,0,0-.154,1.232,1.893,1.893,0,0,0,.792.429,13.291,13.291,0,0,0,1.793.429,5.884,5.884,0,0,1,3.113,1.32,3.042,3.042,0,0,1-.473,4.829A7.182,7.182,0,0,1,134.64,16.5Zm13.244-.22q-4.554,0-4.554-4.334V7.722h-1.716a.574.574,0,0,1-.407-.154.517.517,0,0,1-.165-.4V5.39a.517.517,0,0,1,.165-.4.574.574,0,0,1,.407-.154h1.716V1.21a.517.517,0,0,1,.165-.4A.546.546,0,0,1,143.88.66h2.552a.528.528,0,0,1,.55.55V4.84h2.75a.574.574,0,0,1,.407.154.517.517,0,0,1,.165.4V7.172a.517.517,0,0,1-.165.4.574.574,0,0,1-.407.154h-2.75v3.916q0,1.628,1.254,1.628h1.694a.528.528,0,0,1,.55.55V15.73a.546.546,0,0,1-.154.385.517.517,0,0,1-.4.165Zm4.972,0a.527.527,0,0,1-.55-.55V5.39a.527.527,0,0,1,.55-.55h2.53a.553.553,0,0,1,.407.165.528.528,0,0,1,.165.385v.88a4.046,4.046,0,0,1,3.256-1.43h.968a.527.527,0,0,1,.55.55V7.656a.547.547,0,0,1-.154.385.517.517,0,0,1-.4.165h-2.134a1.889,1.889,0,0,0-1.4.495,1.889,1.889,0,0,0-.5,1.4V15.73a.517.517,0,0,1-.165.4.574.574,0,0,1-.407.154Zm13.64.22a4.018,4.018,0,0,1-3.124-1.309,5.255,5.255,0,0,1-1.188-3.663V5.39a.527.527,0,0,1,.55-.55h2.75a.574.574,0,0,1,.407.154.517.517,0,0,1,.165.4V11.4q0,2.156,1.914,2.156a1.878,1.878,0,0,0,1.452-.572,2.246,2.246,0,0,0,.528-1.584V5.39a.517.517,0,0,1,.165-.4.546.546,0,0,1,.385-.154h2.75a.528.528,0,0,1,.55.55V15.73a.546.546,0,0,1-.154.385.517.517,0,0,1-.4.165H170.7a.564.564,0,0,1-.55-.55v-.836A4.174,4.174,0,0,1,166.5,16.5Zm15.158,0a5.938,5.938,0,0,1-4.026-1.331,4.962,4.962,0,0,1-1.65-3.707l-.022-.88.022-.9a4.913,4.913,0,0,1,1.639-3.718,5.95,5.95,0,0,1,4.037-1.342,6.767,6.767,0,0,1,3.157.671A5.039,5.039,0,0,1,186.725,6.9a3.509,3.509,0,0,1,.671,1.7.458.458,0,0,1-.143.385.553.553,0,0,1-.407.165h-2.794a.569.569,0,0,1-.374-.11,1.013,1.013,0,0,1-.242-.33,2.044,2.044,0,0,0-.671-.968,1.777,1.777,0,0,0-1.045-.286q-1.8,0-1.87,2.332l-.022.836.022.726a2.85,2.85,0,0,0,.517,1.749,1.671,1.671,0,0,0,1.353.561,1.808,1.808,0,0,0,1.078-.286,1.962,1.962,0,0,0,.638-.968,1.013,1.013,0,0,1,.242-.33.569.569,0,0,1,.374-.11h2.794a.57.57,0,0,1,.385.143.459.459,0,0,1,.165.363,3.2,3.2,0,0,1-.605,1.65,5.118,5.118,0,0,1-1.9,1.661A6.635,6.635,0,0,1,181.654,16.5Zm13.574-.22q-4.554,0-4.554-4.334V7.722h-1.716a.574.574,0,0,1-.407-.154.517.517,0,0,1-.165-.4V5.39a.517.517,0,0,1,.165-.4.574.574,0,0,1,.407-.154h1.716V1.21a.517.517,0,0,1,.165-.4.546.546,0,0,1,.385-.154h2.552a.528.528,0,0,1,.55.55V4.84h2.75a.574.574,0,0,1,.407.154.517.517,0,0,1,.165.4V7.172a.517.517,0,0,1-.165.4.574.574,0,0,1-.407.154h-2.75v3.916q0,1.628,1.254,1.628h1.694a.528.528,0,0,1,.55.55V15.73a.546.546,0,0,1-.154.385.517.517,0,0,1-.4.165Zm8.624.22a4.018,4.018,0,0,1-3.124-1.309,5.255,5.255,0,0,1-1.188-3.663V5.39a.527.527,0,0,1,.55-.55h2.75a.574.574,0,0,1,.407.154.517.517,0,0,1,.165.4V11.4q0,2.156,1.914,2.156a1.878,1.878,0,0,0,1.452-.572,2.246,2.246,0,0,0,.528-1.584V5.39a.517.517,0,0,1,.165-.4.546.546,0,0,1,.385-.154h2.75a.528.528,0,0,1,.55.55V15.73a.546.546,0,0,1-.154.385.517.517,0,0,1-.4.165h-2.552a.564.564,0,0,1-.55-.55v-.836A4.174,4.174,0,0,1,203.852,16.5Zm10.45-.22a.527.527,0,0,1-.55-.55V5.39a.527.527,0,0,1,.55-.55h2.53a.553.553,0,0,1,.407.165.528.528,0,0,1,.165.385v.88a4.046,4.046,0,0,1,3.256-1.43h.968a.528.528,0,0,1,.55.55V7.656a.546.546,0,0,1-.154.385.517.517,0,0,1-.4.165h-2.134a1.889,1.889,0,0,0-1.4.495,1.889,1.889,0,0,0-.5,1.4V15.73a.517.517,0,0,1-.165.4.574.574,0,0,1-.407.154Zm14.608.22a5.82,5.82,0,0,1-4.158-1.43,5.639,5.639,0,0,1-1.584-4.158v-.77a5.632,5.632,0,0,1,1.617-4.059,5.687,5.687,0,0,1,4.1-1.463,6.118,6.118,0,0,1,3.157.759,4.858,4.858,0,0,1,1.936,2.079,6.8,6.8,0,0,1,.649,3.036v.528a.546.546,0,0,1-.154.385.517.517,0,0,1-.4.165h-7.04v.154a3.013,3.013,0,0,0,.506,1.672,1.554,1.554,0,0,0,1.342.638,1.615,1.615,0,0,0,.9-.231,3.075,3.075,0,0,0,.638-.561,1.087,1.087,0,0,1,.319-.3.993.993,0,0,1,.385-.055h2.728a.511.511,0,0,1,.341.121.4.4,0,0,1,.143.319,2.16,2.16,0,0,1-.649,1.32,5.314,5.314,0,0,1-1.881,1.3A7.076,7.076,0,0,1,228.91,16.5Zm1.848-7.106V9.35a2.68,2.68,0,0,0-.495-1.7,1.654,1.654,0,0,0-1.375-.627,1.631,1.631,0,0,0-1.353.627,2.68,2.68,0,0,0-.5,1.7v.044Z" transform="translate(581.641 1492.183) rotate(-90)" fill="#fff"/>
    <path id="Path_267" data-name="Path 267" d="M.55,16.28a.528.528,0,0,1-.385-.165A.528.528,0,0,1,0,15.73V1.43a.517.517,0,0,1,.165-.4A.546.546,0,0,1,.55.88H6.71a6.893,6.893,0,0,1,4.433,1.3A4.566,4.566,0,0,1,12.76,5.962a4.4,4.4,0,0,1-1.606,3.707A7.1,7.1,0,0,1,6.71,10.912H4.092V15.73a.517.517,0,0,1-.165.4.574.574,0,0,1-.407.154Zm6.05-8.4a2.187,2.187,0,0,0,1.518-.495,1.868,1.868,0,0,0,.55-1.463,1.994,1.994,0,0,0-.517-1.441A2.054,2.054,0,0,0,6.6,3.938H4.026V7.876Zm8.58,8.4a.564.564,0,0,1-.55-.55V1.21a.517.517,0,0,1,.165-.4A.547.547,0,0,1,15.18.66h2.6a.527.527,0,0,1,.55.55V15.73a.527.527,0,0,1-.55.55Zm9.174.22a4.918,4.918,0,0,1-2.123-.451,3.67,3.67,0,0,1-1.5-1.232A2.974,2.974,0,0,1,20.2,13.09a2.9,2.9,0,0,1,1.243-2.442A7.77,7.77,0,0,1,24.86,9.372l2.75-.418V8.646a1.817,1.817,0,0,0-.352-1.232,1.525,1.525,0,0,0-1.188-.4,1.766,1.766,0,0,0-.836.176,3.685,3.685,0,0,0-.682.484,3.48,3.48,0,0,1-.462.352.242.242,0,0,1-.242.176h-2.4a.492.492,0,0,1-.363-.143.4.4,0,0,1-.121-.341,2.392,2.392,0,0,1,.583-1.32,4.458,4.458,0,0,1,1.716-1.254,6.839,6.839,0,0,1,2.849-.528,5.744,5.744,0,0,1,4,1.2,4.175,4.175,0,0,1,1.3,3.223V15.73a.546.546,0,0,1-.154.385.517.517,0,0,1-.4.165H28.314a.564.564,0,0,1-.55-.55v-.77a3.534,3.534,0,0,1-1.353,1.111A4.6,4.6,0,0,1,24.354,16.5Zm1.034-2.508a2.157,2.157,0,0,0,1.639-.66,2.709,2.709,0,0,0,.627-1.936v-.308l-1.87.33Q23.8,11.77,23.8,12.8a1,1,0,0,0,.462.869A1.926,1.926,0,0,0,25.388,13.992ZM39.666,16.28q-4.554,0-4.554-4.334V7.722H33.4a.574.574,0,0,1-.407-.154.517.517,0,0,1-.165-.4V5.39a.517.517,0,0,1,.165-.4A.574.574,0,0,1,33.4,4.84h1.716V1.21a.517.517,0,0,1,.165-.4A.546.546,0,0,1,35.662.66h2.552a.527.527,0,0,1,.55.55V4.84h2.75a.574.574,0,0,1,.407.154.517.517,0,0,1,.165.4V7.172a.517.517,0,0,1-.165.4.574.574,0,0,1-.407.154h-2.75v3.916q0,1.628,1.254,1.628h1.694a.527.527,0,0,1,.55.55V15.73a.546.546,0,0,1-.154.385.517.517,0,0,1-.4.165Zm6.27,0a.564.564,0,0,1-.55-.55V7.722H43.714a.528.528,0,0,1-.55-.55V5.39a.527.527,0,0,1,.55-.55h1.672v-.7A3.776,3.776,0,0,1,46.629.979,5.67,5.67,0,0,1,50.2,0H51.92a.528.528,0,0,1,.55.55V2.332a.547.547,0,0,1-.154.385.517.517,0,0,1-.4.165H50.38a1.339,1.339,0,0,0-1.034.341,1.484,1.484,0,0,0-.308,1.023V4.84H51.7a.527.527,0,0,1,.55.55V7.172a.547.547,0,0,1-.154.385.517.517,0,0,1-.4.165H49.038V15.73a.546.546,0,0,1-.154.385.517.517,0,0,1-.4.165Zm13.156.22a6.159,6.159,0,0,1-4.2-1.3,5.007,5.007,0,0,1-1.606-3.652q-.022-.286-.022-.99t.022-.99a4.944,4.944,0,0,1,1.65-3.641A6.157,6.157,0,0,1,59.092,4.62a6.192,6.192,0,0,1,4.18,1.309,4.944,4.944,0,0,1,1.65,3.641q.022.286.022.99t-.022.99A5.007,5.007,0,0,1,63.316,15.2,6.2,6.2,0,0,1,59.092,16.5Zm0-2.684a1.713,1.713,0,0,0,1.43-.583,3.154,3.154,0,0,0,.528-1.793q.022-.22.022-.88t-.022-.88A3.113,3.113,0,0,0,60.511,7.9,1.7,1.7,0,0,0,59.092,7.3q-1.826,0-1.936,2.376l-.022.88.022.88a3,3,0,0,0,.517,1.793A1.719,1.719,0,0,0,59.092,13.816Zm8.58,2.464a.528.528,0,0,1-.55-.55V5.39a.528.528,0,0,1,.55-.55H70.2a.553.553,0,0,1,.407.165.528.528,0,0,1,.165.385v.88A4.046,4.046,0,0,1,74.03,4.84H75a.527.527,0,0,1,.55.55V7.656a.546.546,0,0,1-.154.385.517.517,0,0,1-.4.165H72.864a1.889,1.889,0,0,0-1.4.495,1.889,1.889,0,0,0-.495,1.4V15.73a.517.517,0,0,1-.165.4.574.574,0,0,1-.407.154Zm9.988,0a.528.528,0,0,1-.55-.55V5.39a.528.528,0,0,1,.55-.55h2.4a.527.527,0,0,1,.55.55v.748a3.875,3.875,0,0,1,1.353-1.089,4.152,4.152,0,0,1,1.9-.429,3.389,3.389,0,0,1,3.344,1.892,4.016,4.016,0,0,1,1.474-1.364,4.088,4.088,0,0,1,2.024-.528,3.823,3.823,0,0,1,2.937,1.221,5.182,5.182,0,0,1,1.133,3.641V15.73a.547.547,0,0,1-.154.385.517.517,0,0,1-.4.165H91.674a.574.574,0,0,1-.407-.154.517.517,0,0,1-.165-.4V9.636a2.284,2.284,0,0,0-.451-1.584,1.588,1.588,0,0,0-1.221-.484,1.527,1.527,0,0,0-1.166.495A2.252,2.252,0,0,0,87.8,9.636V15.73a.546.546,0,0,1-.154.385.517.517,0,0,1-.4.165H84.7a.527.527,0,0,1-.55-.55V9.636a2.217,2.217,0,0,0-.473-1.573,1.587,1.587,0,0,0-1.2-.495,1.562,1.562,0,0,0-1.177.495,2.181,2.181,0,0,0-.473,1.551V15.73a.546.546,0,0,1-.154.385.517.517,0,0,1-.4.165Zm23.1,0a.491.491,0,0,1-.462-.462.667.667,0,0,1,.022-.2L105.49,1.5a.8.8,0,0,1,.286-.44.888.888,0,0,1,.572-.176H109.6a.888.888,0,0,1,.572.176.8.8,0,0,1,.286.44L115.61,15.62l.044.2a.442.442,0,0,1-.143.319.466.466,0,0,1-.341.143h-2.706a.684.684,0,0,1-.7-.462l-.858-2.244h-5.874l-.836,2.244a.7.7,0,0,1-.726.462Zm9.262-5.874L107.976,4.6l-2.046,5.808ZM121.286,16.5a4.249,4.249,0,0,1-3.355-1.353,5.988,5.988,0,0,1-1.309-3.817l-.022-.77.022-.792a5.833,5.833,0,0,1,1.309-3.762,4.716,4.716,0,0,1,6.589-.088V1.21a.527.527,0,0,1,.55-.55h2.684a.528.528,0,0,1,.55.55V15.73a.546.546,0,0,1-.154.385.517.517,0,0,1-.4.165h-2.486a.564.564,0,0,1-.55-.55v-.7A4.189,4.189,0,0,1,121.286,16.5Zm1.21-2.948a1.745,1.745,0,0,0,1.474-.627,2.9,2.9,0,0,0,.55-1.617q.022-.286.022-.836,0-.528-.022-.814a2.417,2.417,0,0,0-.55-1.5,1.829,1.829,0,0,0-1.474-.594,1.717,1.717,0,0,0-1.485.616,3.155,3.155,0,0,0-.517,1.694q-.022.22-.022.682t.022.682a3.155,3.155,0,0,0,.517,1.694A1.717,1.717,0,0,0,122.5,13.552ZM131.67,3.19a.527.527,0,0,1-.55-.55V.66a.517.517,0,0,1,.165-.4A.547.547,0,0,1,131.67.11h2.772a.528.528,0,0,1,.55.55V2.64a.528.528,0,0,1-.55.55Zm-2.684,17.27a.574.574,0,0,1-.407-.154.517.517,0,0,1-.165-.4V18.128a.517.517,0,0,1,.165-.4.574.574,0,0,1,.407-.154h.814a1.207,1.207,0,0,0,1.056-.407,2.082,2.082,0,0,0,.286-1.2V5.39a.517.517,0,0,1,.165-.4.546.546,0,0,1,.385-.154h2.728a.527.527,0,0,1,.55.55V16.06a4.2,4.2,0,0,1-1.243,3.256,4.992,4.992,0,0,1-3.509,1.144ZM141,16.5a4.918,4.918,0,0,1-2.123-.451,3.67,3.67,0,0,1-1.5-1.232,2.974,2.974,0,0,1-.539-1.727,2.9,2.9,0,0,1,1.243-2.442A7.77,7.77,0,0,1,141.5,9.372l2.75-.418V8.646a1.817,1.817,0,0,0-.352-1.232,1.525,1.525,0,0,0-1.188-.4,1.766,1.766,0,0,0-.836.176,3.684,3.684,0,0,0-.682.484,3.481,3.481,0,0,1-.462.352.242.242,0,0,1-.242.176h-2.4a.492.492,0,0,1-.363-.143.4.4,0,0,1-.121-.341,2.392,2.392,0,0,1,.583-1.32,4.458,4.458,0,0,1,1.716-1.254,6.839,6.839,0,0,1,2.849-.528,5.745,5.745,0,0,1,4,1.2,4.175,4.175,0,0,1,1.3,3.223V15.73a.546.546,0,0,1-.154.385.517.517,0,0,1-.4.165h-2.552a.564.564,0,0,1-.55-.55v-.77a3.534,3.534,0,0,1-1.353,1.111A4.6,4.6,0,0,1,141,16.5Zm1.034-2.508a2.157,2.157,0,0,0,1.639-.66A2.709,2.709,0,0,0,144.3,11.4v-.308l-1.87.33q-1.98.352-1.98,1.386a1,1,0,0,0,.462.869A1.926,1.926,0,0,0,142.032,13.992ZM155.8,16.5a5.938,5.938,0,0,1-4.026-1.331,4.962,4.962,0,0,1-1.65-3.707l-.022-.88.022-.9a4.913,4.913,0,0,1,1.639-3.718A5.95,5.95,0,0,1,155.8,4.62a6.767,6.767,0,0,1,3.157.671A5.039,5.039,0,0,1,160.875,6.9a3.509,3.509,0,0,1,.671,1.7.458.458,0,0,1-.143.385.553.553,0,0,1-.407.165H158.2a.569.569,0,0,1-.374-.11,1.013,1.013,0,0,1-.242-.33,2.044,2.044,0,0,0-.671-.968,1.777,1.777,0,0,0-1.045-.286q-1.8,0-1.87,2.332l-.022.836.022.726a2.85,2.85,0,0,0,.517,1.749,1.671,1.671,0,0,0,1.353.561,1.808,1.808,0,0,0,1.078-.286,1.962,1.962,0,0,0,.638-.968,1.013,1.013,0,0,1,.242-.33.569.569,0,0,1,.374-.11H161a.57.57,0,0,1,.385.143.459.459,0,0,1,.165.363,3.2,3.2,0,0,1-.605,1.65,5.118,5.118,0,0,1-1.9,1.661A6.635,6.635,0,0,1,155.8,16.5Zm13,0a5.82,5.82,0,0,1-4.158-1.43,5.639,5.639,0,0,1-1.584-4.158v-.77a5.632,5.632,0,0,1,1.617-4.059,5.687,5.687,0,0,1,4.1-1.463,6.118,6.118,0,0,1,3.157.759,4.858,4.858,0,0,1,1.936,2.079,6.8,6.8,0,0,1,.649,3.036v.528a.546.546,0,0,1-.154.385.517.517,0,0,1-.4.165h-7.04v.154a3.013,3.013,0,0,0,.506,1.672,1.554,1.554,0,0,0,1.342.638,1.615,1.615,0,0,0,.9-.231,3.075,3.075,0,0,0,.638-.561,1.087,1.087,0,0,1,.319-.3.993.993,0,0,1,.385-.055h2.728a.511.511,0,0,1,.341.121.4.4,0,0,1,.143.319,2.16,2.16,0,0,1-.649,1.32,5.314,5.314,0,0,1-1.881,1.3A7.076,7.076,0,0,1,168.806,16.5Zm1.848-7.106V9.35a2.68,2.68,0,0,0-.495-1.7,1.654,1.654,0,0,0-1.375-.627,1.631,1.631,0,0,0-1.353.627,2.68,2.68,0,0,0-.495,1.7v.044Zm6.49,6.886a.527.527,0,0,1-.55-.55V5.39a.527.527,0,0,1,.55-.55h2.53a.574.574,0,0,1,.407.154.517.517,0,0,1,.165.4v.836a4.309,4.309,0,0,1,1.529-1.166,4.928,4.928,0,0,1,2.123-.44,4.087,4.087,0,0,1,3.146,1.309,5.194,5.194,0,0,1,1.21,3.663V15.73a.546.546,0,0,1-.154.385.517.517,0,0,1-.4.165h-2.772a.564.564,0,0,1-.55-.55V9.724a2.3,2.3,0,0,0-.506-1.6,1.855,1.855,0,0,0-1.452-.561,1.9,1.9,0,0,0-1.452.561,2.239,2.239,0,0,0-.528,1.6V15.73a.547.547,0,0,1-.154.385.517.517,0,0,1-.4.165ZM196,16.5a5.938,5.938,0,0,1-4.026-1.331,4.962,4.962,0,0,1-1.65-3.707l-.022-.88.022-.9a4.913,4.913,0,0,1,1.639-3.718A5.95,5.95,0,0,1,196,4.62a6.767,6.767,0,0,1,3.157.671A5.039,5.039,0,0,1,201.069,6.9a3.509,3.509,0,0,1,.671,1.7.458.458,0,0,1-.143.385.553.553,0,0,1-.407.165H198.4a.569.569,0,0,1-.374-.11,1.013,1.013,0,0,1-.242-.33,2.044,2.044,0,0,0-.671-.968,1.777,1.777,0,0,0-1.045-.286q-1.8,0-1.87,2.332l-.022.836.022.726a2.85,2.85,0,0,0,.517,1.749,1.671,1.671,0,0,0,1.353.561,1.808,1.808,0,0,0,1.078-.286,1.962,1.962,0,0,0,.638-.968,1.013,1.013,0,0,1,.242-.33.569.569,0,0,1,.374-.11h2.794a.57.57,0,0,1,.385.143.459.459,0,0,1,.165.363,3.2,3.2,0,0,1-.605,1.65,5.118,5.118,0,0,1-1.9,1.661A6.635,6.635,0,0,1,196,16.5Zm8.25-13.31a.527.527,0,0,1-.55-.55V.66a.527.527,0,0,1,.55-.55h2.64a.528.528,0,0,1,.55.55V2.64a.528.528,0,0,1-.55.55Zm.022,13.09a.527.527,0,0,1-.55-.55V5.39a.527.527,0,0,1,.55-.55h2.6a.528.528,0,0,1,.55.55V15.73a.546.546,0,0,1-.154.385.517.517,0,0,1-.4.165Zm11.022.22a5.82,5.82,0,0,1-4.158-1.43,5.639,5.639,0,0,1-1.584-4.158v-.77a5.632,5.632,0,0,1,1.617-4.059,5.687,5.687,0,0,1,4.1-1.463,6.118,6.118,0,0,1,3.157.759,4.858,4.858,0,0,1,1.936,2.079,6.8,6.8,0,0,1,.649,3.036v.528a.546.546,0,0,1-.154.385.517.517,0,0,1-.4.165h-7.04v.154a3.013,3.013,0,0,0,.506,1.672,1.554,1.554,0,0,0,1.342.638,1.615,1.615,0,0,0,.9-.231,3.075,3.075,0,0,0,.638-.561,1.087,1.087,0,0,1,.319-.3.993.993,0,0,1,.385-.055h2.728a.511.511,0,0,1,.341.121.4.4,0,0,1,.143.319,2.16,2.16,0,0,1-.649,1.32,5.314,5.314,0,0,1-1.881,1.3A7.076,7.076,0,0,1,215.292,16.5Zm1.848-7.106V9.35a2.68,2.68,0,0,0-.495-1.7,1.654,1.654,0,0,0-1.375-.627,1.631,1.631,0,0,0-1.353.627,2.68,2.68,0,0,0-.495,1.7v.044ZM227.788,16.5a7.69,7.69,0,0,1-2.981-.506,4.474,4.474,0,0,1-1.771-1.21,2.1,2.1,0,0,1-.572-1.254.459.459,0,0,1,.165-.363.542.542,0,0,1,.363-.143H225.5a.336.336,0,0,1,.242.11q.264.176.4.286a5.058,5.058,0,0,0,.847.517,2.148,2.148,0,0,0,.891.165,1.952,1.952,0,0,0,1.045-.253.8.8,0,0,0,.407-.715.827.827,0,0,0-.209-.594,2.121,2.121,0,0,0-.8-.429,14.353,14.353,0,0,0-1.8-.451,6.106,6.106,0,0,1-2.8-1.221,2.858,2.858,0,0,1-.979-2.277,2.937,2.937,0,0,1,.572-1.716,4.021,4.021,0,0,1,1.705-1.32A6.571,6.571,0,0,1,227.7,4.62a7.08,7.08,0,0,1,2.728.484A4.7,4.7,0,0,1,232.2,6.281a2.021,2.021,0,0,1,.6,1.265.5.5,0,0,1-.143.352.45.45,0,0,1-.341.154h-2.288a.557.557,0,0,1-.33-.11,3.352,3.352,0,0,1-.506-.33,3.884,3.884,0,0,0-.7-.44,1.919,1.919,0,0,0-.814-.154,1.453,1.453,0,0,0-.913.264.873.873,0,0,0-.154,1.232,1.893,1.893,0,0,0,.792.429,13.291,13.291,0,0,0,1.793.429,5.884,5.884,0,0,1,3.113,1.32,3.042,3.042,0,0,1-.473,4.829A7.182,7.182,0,0,1,227.788,16.5Z" transform="translate(671.675 1492.917) rotate(-90)"/>
    <path id="Polygon_2" data-name="Polygon 2" d="M162.868,0,325.736,16H0Z" transform="translate(550.089 1212) rotate(90)" fill="#ed1c24"/>
    <path id="Polygon_3" data-name="Polygon 3" d="M162.868,0,325.736,16H0Z" transform="translate(647.839 1212) rotate(90)" fill="#0047ba"/>
  </g>
</svg>
