<svg xmlns="http://www.w3.org/2000/svg" width="325.736" height="351.036" viewBox="0 0 325.736 351.036">
  <g id="Group_289" data-name="Group 289" transform="translate(1537.736 -384) rotate(90)">
    <rect id="Rectangle_111" data-name="Rectangle 111" width="126.722" height="325.736" rx="32" transform="translate(608.314 1212)" fill="#39dcbf"/>
    <rect id="Rectangle_109" data-name="Rectangle 109" width="120.488" height="325.736" transform="translate(511.35 1212)" fill="#0047ba"/>
    <path id="Rectangle_112" data-name="Rectangle 112" d="M32,0H150.13a0,0,0,0,1,0,0V325.736a0,0,0,0,1,0,0H32a32,32,0,0,1-32-32V32A32,32,0,0,1,32,0Z" transform="translate(384 1212)" fill="#ed1c24"/>
    <path id="Polygon_2" data-name="Polygon 2" d="M162.868,0,325.736,16H0Z" transform="translate(550.089 1212) rotate(90)" fill="#ed1c24"/>
    <path id="Polygon_3" data-name="Polygon 3" d="M162.868,0,325.736,16H0Z" transform="translate(647.839 1212) rotate(90)" fill="#0047ba"/>
    <path id="Path_306" data-name="Path 306" d="M38.227,33.5a1.4,1.4,0,0,1-1.078-.429,1.882,1.882,0,0,1,0-2.31,1.4,1.4,0,0,1,1.078-.429,1.378,1.378,0,0,1,1.067.418,1.657,1.657,0,0,1,.385,1.166,1.628,1.628,0,0,1-.4,1.166A1.386,1.386,0,0,1,38.227,33.5Zm3.74,0a1.4,1.4,0,0,1-1.078-.429,1.882,1.882,0,0,1,0-2.31,1.4,1.4,0,0,1,1.078-.429,1.36,1.36,0,0,1,1.067.429,1.665,1.665,0,0,1,.385,1.155,1.636,1.636,0,0,1-.4,1.155A1.368,1.368,0,0,1,41.967,33.5Zm-4.686-.22a4.056,4.056,0,0,1-2.332-.671,4.511,4.511,0,0,1-1.54-1.8,5.743,5.743,0,0,1-.55-2.541,12.958,12.958,0,0,1,.176-2.134,13.9,13.9,0,0,1,.528-2.112h2.926a8.822,8.822,0,0,0-.374,1.727,19.682,19.682,0,0,0-.088,2.035,2.877,2.877,0,0,0,.363,1.408,2.92,2.92,0,0,0,.968,1.056,2.31,2.31,0,0,0,1.287.4h3.806a14.374,14.374,0,0,0,1.573-.077,2.757,2.757,0,0,0,1.1-.319.829.829,0,0,0,.407-.77.8.8,0,0,0-.363-.649,3.289,3.289,0,0,0-1.155-.473,6.943,6.943,0,0,1-1.958-.759A2.581,2.581,0,0,1,41.032,26.5a3.57,3.57,0,0,1-.3-1.518,3.691,3.691,0,0,1,.209-1.188,5.147,5.147,0,0,1,.627-1.232,7.845,7.845,0,0,1,1.364-1.518A6.988,6.988,0,0,1,44.6,19.97a4.005,4.005,0,0,1,1.661-.4,4.143,4.143,0,0,1,.682.055,2.245,2.245,0,0,1,.638.209,4.488,4.488,0,0,1,1.386,1.1,23.881,23.881,0,0,1,1.606,2.112,13.526,13.526,0,0,0,.913,1.188,4.519,4.519,0,0,0,.715.682,2.359,2.359,0,0,0,.649.33,2.244,2.244,0,0,0,.693.11h.11q.11,0,.11.088V27.89a.1.1,0,0,1-.11.11h-.11a6.406,6.406,0,0,1-1.419-.143,3.691,3.691,0,0,1-1.177-.5,6.478,6.478,0,0,1-1.144-.968,5.471,5.471,0,0,1-.4-.5q-.286-.385-.726-1-.506-.726-.913-1.21a5.169,5.169,0,0,0-.715-.726,2.254,2.254,0,0,0-.572-.363,1.41,1.41,0,0,0-.55-.121,1.394,1.394,0,0,0-.66.209,3.454,3.454,0,0,0-.715.539,3.639,3.639,0,0,0-.561.682,1.21,1.21,0,0,0-.22.616.97.97,0,0,0,.165.539,1.537,1.537,0,0,0,.517.462,4.43,4.43,0,0,0,.9.385,11.238,11.238,0,0,1,1.221.451,7.2,7.2,0,0,1,.869.451,2.866,2.866,0,0,1,1,1.034,2.952,2.952,0,0,1,.341,1.452,3.316,3.316,0,0,1-1.573,2.959,8.806,8.806,0,0,1-4.741,1.023ZM69.181,28a4.068,4.068,0,0,1-1.8-.418,5.975,5.975,0,0,1-1.65-1.232A3.959,3.959,0,0,1,64.2,27.582,5.111,5.111,0,0,1,62.053,28H53.429a.1.1,0,0,1-.11-.11V25.448q0-.088.11-.088h2.75V18.826h3.278V25.36h1.87a1.979,1.979,0,0,0,1.606-.6,3.022,3.022,0,0,0,.506-1.947V18.826h3.278v4.246q0,.264-.011.506a3.622,3.622,0,0,1-.055.484,3.573,3.573,0,0,0,1.078,1.012,2.906,2.906,0,0,0,1.386.286h1.364V17.11h3.278V28ZM83.86,25.36q.1,0,.1.088V27.89a.1.1,0,0,1-.11.11H77.827V11.28H81.1V25.36ZM99.387,28a4.068,4.068,0,0,1-1.8-.418,5.975,5.975,0,0,1-1.65-1.232A3.959,3.959,0,0,1,94.4,27.582,5.111,5.111,0,0,1,92.259,28H83.635a.1.1,0,0,1-.11-.11V25.448q0-.088.11-.088h2.75V18.826h3.278V25.36h1.87a1.979,1.979,0,0,0,1.606-.6,3.022,3.022,0,0,0,.506-1.947V18.826h3.278v4.246q0,.264-.011.506a3.622,3.622,0,0,1-.055.484,3.573,3.573,0,0,0,1.078,1.012,2.906,2.906,0,0,0,1.386.286h1.364V17.11h3.278V28Zm7.348-17.93,1.254-.2a1.915,1.915,0,0,1-.715-.6A1.494,1.494,0,0,1,107,8.376a1.782,1.782,0,0,1,.66-1.474,2.736,2.736,0,0,1,1.76-.528,3.73,3.73,0,0,1,1.8.4l-.44,1.122a2.262,2.262,0,0,0-.583-.22,2.781,2.781,0,0,0-.605-.066.986.986,0,0,0-1.056,1.056.989.989,0,0,0,.187.6,1.209,1.209,0,0,0,.473.385q.572-.11.979-.165t.693-.088a4.473,4.473,0,0,1,.506-.033v1.276q-.4.022-1.111.1t-1.485.165q-.77.088-1.342.165a5.506,5.506,0,0,0-.7.121Zm4.158,15.642L107.967,14.25H111.4L114.1,25.712Zm3.278-.352a1.979,1.979,0,0,0,1.606-.6,3.022,3.022,0,0,0,.506-1.947V11.28h3.278V23.072a5.068,5.068,0,0,1-1.243,3.586A4.433,4.433,0,0,1,114.9,28h-8.074V25.36Zm9.57-14.08h3.278V28h-3.278Zm19.69,3.938a1.4,1.4,0,0,1-1.078-.429,1.636,1.636,0,0,1-.4-1.155,1.628,1.628,0,0,1,.4-1.166,1.414,1.414,0,0,1,1.078-.418,1.378,1.378,0,0,1,1.067.418,1.657,1.657,0,0,1,.385,1.166,1.628,1.628,0,0,1-.4,1.166A1.386,1.386,0,0,1,143.431,15.218Zm3.74,0a1.4,1.4,0,0,1-1.078-.429,1.636,1.636,0,0,1-.4-1.155,1.628,1.628,0,0,1,.4-1.166,1.414,1.414,0,0,1,1.078-.418,1.378,1.378,0,0,1,1.067.418,1.657,1.657,0,0,1,.385,1.166,1.636,1.636,0,0,1-.4,1.155A1.368,1.368,0,0,1,147.171,15.218ZM142.507,28a4.329,4.329,0,0,1-3.2-1.177,4.374,4.374,0,0,1-1.182-3.245,8.174,8.174,0,0,1,.088-1.177,8.764,8.764,0,0,1,.255-1.18,7.758,7.758,0,0,1,.361-1.009h2.9q-.154.7-.242,1.43a12.055,12.055,0,0,0-.088,1.452,2.337,2.337,0,0,0,.572,1.64,1.931,1.931,0,0,0,1.5.626h7.15V17.11H153.9V28Zm18.326-2.288L157.907,14.25h3.432l2.706,11.462Zm3.278-.352a1.979,1.979,0,0,0,1.606-.6,3.021,3.021,0,0,0,.506-1.947V11.28H169.5V23.072a5.068,5.068,0,0,1-1.243,3.586A4.433,4.433,0,0,1,164.837,28h-8.074V25.36Zm15.6,0q.1,0,.1.088V27.89a.1.1,0,0,1-.11.11h-6.028V11.28h3.278V25.36ZM179.5,28q-.119,0-.119-.11V25.448q0-.088.107-.088h2.6V17.11h3.278v3.85a8.812,8.812,0,0,1,1.558-2.263,5.845,5.845,0,0,1,2-1.356,6.344,6.344,0,0,1,2.409-.451,5.409,5.409,0,0,1,4.081,1.43,6.145,6.145,0,0,1,1.375,4.4v2.64h2.862q.108,0,.108.088V27.89q0,.11-.119.11Zm14-2.64V22.654a3.288,3.288,0,0,0-.737-2.365,3.047,3.047,0,0,0-2.277-.759,4.171,4.171,0,0,0-1.9.451,5.7,5.7,0,0,0-1.7,1.364,11.684,11.684,0,0,0-1.529,2.3V25.36Zm8.668-10.142a1.4,1.4,0,0,1-1.078-.429,1.636,1.636,0,0,1-.4-1.155,1.628,1.628,0,0,1,.4-1.166,1.414,1.414,0,0,1,1.078-.418,1.378,1.378,0,0,1,1.067.418,1.657,1.657,0,0,1,.385,1.166,1.628,1.628,0,0,1-.4,1.166A1.386,1.386,0,0,1,202.171,15.218Zm3.74,0a1.4,1.4,0,0,1-1.078-.429,1.636,1.636,0,0,1-.4-1.155,1.628,1.628,0,0,1,.4-1.166,1.414,1.414,0,0,1,1.078-.418,1.378,1.378,0,0,1,1.067.418,1.657,1.657,0,0,1,.385,1.166,1.636,1.636,0,0,1-.4,1.155A1.368,1.368,0,0,1,205.911,15.218ZM199.421,28a.1.1,0,0,1-.11-.11V25.448q0-.088.11-.088h3.85V17.11h3.278V28Zm14.058-2.288L210.553,14.25h3.432l2.706,11.462Zm3.278-.352a1.979,1.979,0,0,0,1.606-.6,3.021,3.021,0,0,0,.506-1.947V11.28h3.278V23.072a5.068,5.068,0,0,1-1.243,3.586A4.433,4.433,0,0,1,217.483,28h-8.074V25.36Zm9.57-14.08H229.6V28h-3.278Zm19.4,23.892a5.854,5.854,0,0,1-2.629-.561,4.22,4.22,0,0,1-1.76-1.573,4.336,4.336,0,0,1-.627-2.332,4.2,4.2,0,0,1,.308-1.595,4.939,4.939,0,0,1,.935-1.452,8.892,8.892,0,0,1,1.551-1.331,7.815,7.815,0,0,1-.957-1.243,7,7,0,0,1-.715-1.5,4.581,4.581,0,0,1-.264-1.463,5.135,5.135,0,0,1,.737-2.783,4.813,4.813,0,0,1,2.1-1.815,7.572,7.572,0,0,1,3.234-.638,9.563,9.563,0,0,1,1.353.1,11.673,11.673,0,0,1,1.32.264,5.4,5.4,0,0,1,1.023.363l-.924,2.574a8.809,8.809,0,0,0-1.54-.517,6.217,6.217,0,0,0-1.32-.143,3.3,3.3,0,0,0-1.551.33,2.248,2.248,0,0,0-.957.946,3.183,3.183,0,0,0-.33,1.518,5.52,5.52,0,0,0,.1,1.1,3.636,3.636,0,0,0,.308.9,7.129,7.129,0,0,0,.495.836q.968-.418,1.925-.781t1.9-.671l.77,2.486a21.386,21.386,0,0,0-2.882.913,10.166,10.166,0,0,0-1.936,1,3.635,3.635,0,0,0-1.111,1.111,2.5,2.5,0,0,0-.363,1.309,1.765,1.765,0,0,0,.627,1.441,2.828,2.828,0,0,0,1.837.517,9.665,9.665,0,0,0,1.023-.055q.517-.055,1.078-.154t1.133-.253l.374,2.4q-.7.242-1.419.418a10.884,10.884,0,0,1-1.419.253A13.144,13.144,0,0,1,245.731,35.172Zm14.833-9.812q.1,0,.1.088V27.89a.1.1,0,0,1-.11.11h-6.028V11.28h3.278V25.36ZM260.348,28q-.119,0-.119-.11V25.448q0-.083.107-.083h2.6V11.28h3.278v9.68a8.812,8.812,0,0,1,1.558-2.263,5.846,5.846,0,0,1,2-1.356,6.344,6.344,0,0,1,2.409-.451,5.409,5.409,0,0,1,4.081,1.43,6.145,6.145,0,0,1,1.375,4.4v2.64h2.862q.108,0,.108.088V27.89q0,.11-.119.11Zm14-2.64V22.654a3.288,3.288,0,0,0-.737-2.365,3.047,3.047,0,0,0-2.277-.759,4.171,4.171,0,0,0-1.9.451,5.7,5.7,0,0,0-1.7,1.364,11.683,11.683,0,0,0-1.529,2.3V25.36Zm10.824-10.142a1.4,1.4,0,0,1-1.078-.429,1.636,1.636,0,0,1-.4-1.155,1.628,1.628,0,0,1,.4-1.166,1.414,1.414,0,0,1,1.078-.418,1.378,1.378,0,0,1,1.067.418,1.657,1.657,0,0,1,.385,1.166,1.628,1.628,0,0,1-.4,1.166A1.386,1.386,0,0,1,285.177,15.218Zm3.74,0a1.4,1.4,0,0,1-1.078-.429,1.636,1.636,0,0,1-.4-1.155,1.628,1.628,0,0,1,.4-1.166,1.414,1.414,0,0,1,1.078-.418,1.378,1.378,0,0,1,1.067.418,1.657,1.657,0,0,1,.385,1.166,1.636,1.636,0,0,1-.4,1.155A1.368,1.368,0,0,1,288.917,15.218ZM280.271,28a.1.1,0,0,1-.11-.11V25.448q0-.088.11-.088h3.146a4.422,4.422,0,0,1-.935-1.848,4.526,4.526,0,0,1-.121-1.056,5.214,5.214,0,0,1,.759-2.849,4.9,4.9,0,0,1,2.2-1.848,8.4,8.4,0,0,1,3.465-.649H292.7V28Zm8.536-2.64h.616V19.75h-.572a3.966,3.966,0,0,0-1.694.33,2.326,2.326,0,0,0-1.067.968,3.163,3.163,0,0,0-.363,1.584,2.924,2.924,0,0,0,.352,1.474,2.246,2.246,0,0,0,1.045.935A4.007,4.007,0,0,0,288.807,25.36Z" transform="translate(449.5 1538.236) rotate(-90)" fill="#fff"/>
    <path id="Path_307" data-name="Path 307" d="M55.673,15.218a1.4,1.4,0,0,1-1.078-.429,1.636,1.636,0,0,1-.4-1.155,1.628,1.628,0,0,1,.4-1.166,1.414,1.414,0,0,1,1.078-.418,1.378,1.378,0,0,1,1.067.418,1.657,1.657,0,0,1,.385,1.166,1.628,1.628,0,0,1-.4,1.166A1.386,1.386,0,0,1,55.673,15.218Zm3.74,0a1.4,1.4,0,0,1-1.078-.429,1.636,1.636,0,0,1-.4-1.155,1.628,1.628,0,0,1,.4-1.166,1.414,1.414,0,0,1,1.078-.418,1.378,1.378,0,0,1,1.067.418,1.657,1.657,0,0,1,.385,1.166,1.636,1.636,0,0,1-.4,1.155A1.368,1.368,0,0,1,59.413,15.218ZM58.753,28a8.524,8.524,0,0,1-3.465-.638,4.815,4.815,0,0,1-2.2-1.848,5.354,5.354,0,0,1-.759-2.9,5.19,5.19,0,0,1,.836-3,5.271,5.271,0,0,1,2.288-1.859,8.126,8.126,0,0,1,3.3-.638h.616V16.032h3.3V25.36h2.75q.11,0,.11.088V27.89a.1.1,0,0,1-.11.11Zm.638-2.64V19.75h-.572a3.323,3.323,0,0,0-2.31.737,2.746,2.746,0,0,0-.814,2.145,2.573,2.573,0,0,0,.792,2.013,3.3,3.3,0,0,0,2.288.715Zm8.426,8.14a1.4,1.4,0,0,1-1.078-.429,1.882,1.882,0,0,1,0-2.31,1.4,1.4,0,0,1,1.078-.429,1.378,1.378,0,0,1,1.067.418,1.657,1.657,0,0,1,.385,1.166,1.628,1.628,0,0,1-.4,1.166A1.386,1.386,0,0,1,67.817,33.5Zm3.74,0a1.4,1.4,0,0,1-1.078-.429,1.882,1.882,0,0,1,0-2.31,1.4,1.4,0,0,1,1.078-.429,1.36,1.36,0,0,1,1.067.429,1.665,1.665,0,0,1,.385,1.155,1.636,1.636,0,0,1-.4,1.155A1.368,1.368,0,0,1,71.557,33.5ZM65.2,28a.1.1,0,0,1-.11-.11V25.448q0-.081.106-.081h3.414V17.11h3.278v8.25h3.3q.11,0,.11.088V27.89a.1.1,0,0,1-.11.11Zm12.254-2.64a7.649,7.649,0,0,1-.44-1.441,8.007,8.007,0,0,1-.154-1.595,7.489,7.489,0,0,1,.319-2.057,7.738,7.738,0,0,1,.8-1.9,9.094,9.094,0,0,1,2.255-.935,8.319,8.319,0,0,1,2.1-.319,6.027,6.027,0,0,1,2.728.638,4.617,4.617,0,0,1,1.914,1.815,5.365,5.365,0,0,1,.682,2.739,6.765,6.765,0,0,1-.1,1.177,5.15,5.15,0,0,1-.319,1.089,2.152,2.152,0,0,0,.913.616,4.039,4.039,0,0,0,1.287.176h.11q.11,0,.11.088V27.89a.1.1,0,0,1-.11.11h-.11a5.63,5.63,0,0,1-2.024-.33,4.292,4.292,0,0,1-1.606-1.144,5.754,5.754,0,0,1-1.925,1.1A6.829,6.829,0,0,1,81.655,28H74.967a.1.1,0,0,1-.11-.11V25.448q0-.088.11-.088ZM79.9,22.786a6.046,6.046,0,0,0,.132,1.2A11.811,11.811,0,0,0,80.4,25.36h.836a3.107,3.107,0,0,0,1.584-.407,3.075,3.075,0,0,0,1.122-1.111,2.962,2.962,0,0,0,.418-1.54,2.83,2.83,0,0,0-.572-1.859,1.87,1.87,0,0,0-1.518-.693,3.5,3.5,0,0,0-1,.154,4.8,4.8,0,0,0-1.045.462,10.135,10.135,0,0,0-.242,1.177A8.627,8.627,0,0,0,79.9,22.786Zm14.344-7.568a1.4,1.4,0,0,1-1.078-.429,1.636,1.636,0,0,1-.4-1.155,1.628,1.628,0,0,1,.4-1.166,1.414,1.414,0,0,1,1.078-.418,1.378,1.378,0,0,1,1.067.418,1.657,1.657,0,0,1,.385,1.166,1.628,1.628,0,0,1-.4,1.166A1.386,1.386,0,0,1,94.239,15.218Zm3.74,0a1.4,1.4,0,0,1-1.078-.429,1.636,1.636,0,0,1-.4-1.155,1.628,1.628,0,0,1,.4-1.166,1.414,1.414,0,0,1,1.078-.418,1.378,1.378,0,0,1,1.067.418,1.657,1.657,0,0,1,.385,1.166,1.636,1.636,0,0,1-.4,1.155A1.368,1.368,0,0,1,97.979,15.218ZM89.333,28a.1.1,0,0,1-.11-.11V25.448q0-.088.11-.088h3.146a4.423,4.423,0,0,1-.935-1.848,4.526,4.526,0,0,1-.121-1.056,5.214,5.214,0,0,1,.759-2.849,4.9,4.9,0,0,1,2.2-1.848,8.4,8.4,0,0,1,3.465-.649h3.916V28Zm8.536-2.64h.616V19.75h-.572a3.966,3.966,0,0,0-1.694.33,2.326,2.326,0,0,0-1.067.968,3.163,3.163,0,0,0-.363,1.584,2.924,2.924,0,0,0,.352,1.474,2.246,2.246,0,0,0,1.045.935A4.007,4.007,0,0,0,97.869,25.36ZM111.4,28v.352a5.623,5.623,0,0,1-.572,2.607,4.15,4.15,0,0,1-1.6,1.716,4.69,4.69,0,0,1-2.431.6,7.675,7.675,0,0,1-2.068-.264,6.829,6.829,0,0,1-1.98-.968l1.32-2.134a3.974,3.974,0,0,0,1.023.506,3.822,3.822,0,0,0,1.067.132,1.731,1.731,0,0,0,1.419-.671,2.6,2.6,0,0,0,.539-1.683V17.11H111.4v8.25h2.86q.11,0,.11.088V27.89a.1.1,0,0,1-.11.11Zm2.64,0a.1.1,0,0,1-.11-.11V25.448q0-.088.11-.088h2.75V11.28h3.278V28Zm10.428-16.72h3.278V28h-3.278ZM142.2,15.218a1.4,1.4,0,0,1-1.078-.429,1.636,1.636,0,0,1-.4-1.155,1.628,1.628,0,0,1,.4-1.166,1.414,1.414,0,0,1,1.078-.418,1.378,1.378,0,0,1,1.067.418,1.657,1.657,0,0,1,.385,1.166,1.628,1.628,0,0,1-.4,1.166A1.386,1.386,0,0,1,142.2,15.218Zm3.74,0a1.4,1.4,0,0,1-1.078-.429,1.636,1.636,0,0,1-.4-1.155,1.628,1.628,0,0,1,.4-1.166,1.414,1.414,0,0,1,1.078-.418,1.378,1.378,0,0,1,1.067.418,1.657,1.657,0,0,1,.385,1.166,1.636,1.636,0,0,1-.4,1.155A1.368,1.368,0,0,1,145.939,15.218ZM145.279,28a8.524,8.524,0,0,1-3.465-.638,4.815,4.815,0,0,1-2.2-1.848,5.354,5.354,0,0,1-.759-2.9,5.19,5.19,0,0,1,.836-3,5.271,5.271,0,0,1,2.288-1.859,8.126,8.126,0,0,1,3.3-.638h.616V16.032h3.3V25.36h2.75q.11,0,.11.088V27.89a.1.1,0,0,1-.11.11Zm.638-2.64V19.75h-.572a3.323,3.323,0,0,0-2.31.737,2.746,2.746,0,0,0-.814,2.145,2.573,2.573,0,0,0,.792,2.013,3.3,3.3,0,0,0,2.288.715Zm8.426,8.14a1.4,1.4,0,0,1-1.078-.429,1.882,1.882,0,0,1,0-2.31,1.4,1.4,0,0,1,1.078-.429,1.378,1.378,0,0,1,1.067.418,1.657,1.657,0,0,1,.385,1.166,1.628,1.628,0,0,1-.4,1.166A1.386,1.386,0,0,1,154.343,33.5Zm3.74,0a1.4,1.4,0,0,1-1.078-.429,1.882,1.882,0,0,1,0-2.31,1.4,1.4,0,0,1,1.078-.429,1.36,1.36,0,0,1,1.067.429,1.665,1.665,0,0,1,.385,1.155,1.636,1.636,0,0,1-.4,1.155A1.368,1.368,0,0,1,158.083,33.5ZM151.725,28a.1.1,0,0,1-.11-.11V25.448q0-.081.106-.081h3.414V17.11h3.278v8.25h3.3q.11,0,.11.088V27.89a.1.1,0,0,1-.11.11ZM163.8,15.218a1.4,1.4,0,0,1-1.078-.429,1.636,1.636,0,0,1-.4-1.155,1.628,1.628,0,0,1,.4-1.166,1.414,1.414,0,0,1,1.078-.418,1.378,1.378,0,0,1,1.067.418,1.657,1.657,0,0,1,.385,1.166,1.628,1.628,0,0,1-.4,1.166A1.386,1.386,0,0,1,163.8,15.218Zm3.74,0a1.4,1.4,0,0,1-1.078-.429,1.636,1.636,0,0,1-.4-1.155,1.628,1.628,0,0,1,.4-1.166,1.414,1.414,0,0,1,1.078-.418,1.378,1.378,0,0,1,1.067.418A1.657,1.657,0,0,1,169,13.634a1.636,1.636,0,0,1-.4,1.155A1.368,1.368,0,0,1,167.543,15.218ZM161.493,28a.1.1,0,0,1-.11-.11V25.448q0-.081.106-.081H164.9V17.11h3.278v8.25h3.3q.11,0,.11.088V27.89a.1.1,0,0,1-.11.11Zm9.768,0a.1.1,0,0,1-.11-.11V25.448q0-.088.11-.088h8.888a3.57,3.57,0,0,1-.539-.715,4.815,4.815,0,0,1-.44-1.045q-.187-.616-.363-1.386a6.393,6.393,0,0,0-.374-1.276,2.891,2.891,0,0,0-.517-.825,1.627,1.627,0,0,0-.726-.451,3.5,3.5,0,0,0-1.023-.132,5.184,5.184,0,0,0-1.452.2,7.225,7.225,0,0,0-1.474.638l-.99-2.42a8.27,8.27,0,0,1,2.112-.792,10.435,10.435,0,0,1,2.354-.264,10.912,10.912,0,0,1,1.265.066,4.267,4.267,0,0,1,1.023.242,3.8,3.8,0,0,1,1.364.781,4.307,4.307,0,0,1,.957,1.287,6.47,6.47,0,0,1,.561,1.87q.2,1.078.429,1.914a7.858,7.858,0,0,0,.517,1.408,3.839,3.839,0,0,0,.594.9h1.43q.11,0,.11.088V27.89a.1.1,0,0,1-.11.11Zm15.686-12.782a1.4,1.4,0,0,1-1.078-.429,1.636,1.636,0,0,1-.4-1.155,1.628,1.628,0,0,1,.4-1.166,1.414,1.414,0,0,1,1.078-.418,1.378,1.378,0,0,1,1.067.418,1.657,1.657,0,0,1,.385,1.166A1.628,1.628,0,0,1,188,14.8,1.386,1.386,0,0,1,186.947,15.218Zm3.74,0a1.4,1.4,0,0,1-1.078-.429,1.636,1.636,0,0,1-.4-1.155,1.628,1.628,0,0,1,.4-1.166,1.414,1.414,0,0,1,1.078-.418,1.378,1.378,0,0,1,1.067.418,1.657,1.657,0,0,1,.385,1.166,1.636,1.636,0,0,1-.4,1.155A1.368,1.368,0,0,1,190.687,15.218ZM184.637,28a.1.1,0,0,1-.11-.11V25.448q0-.081.106-.081h3.414V17.11h3.278v8.25h3.3q.11,0,.11.088V27.89a.1.1,0,0,1-.11.11Zm9.768,0a.1.1,0,0,1-.11-.11V25.448q0-.088.11-.088h2.75V11.28h3.278V28Zm10.428-16.72h3.278V28h-3.278Zm17.732,3.938a1.4,1.4,0,0,1-1.078-.429,1.636,1.636,0,0,1-.4-1.155,1.628,1.628,0,0,1,.4-1.166,1.414,1.414,0,0,1,1.078-.418,1.378,1.378,0,0,1,1.067.418,1.657,1.657,0,0,1,.385,1.166,1.628,1.628,0,0,1-.4,1.166A1.386,1.386,0,0,1,222.565,15.218Zm3.74,0a1.4,1.4,0,0,1-1.078-.429,1.636,1.636,0,0,1-.4-1.155,1.628,1.628,0,0,1,.4-1.166,1.414,1.414,0,0,1,1.078-.418,1.378,1.378,0,0,1,1.067.418,1.657,1.657,0,0,1,.385,1.166,1.636,1.636,0,0,1-.4,1.155A1.368,1.368,0,0,1,226.3,15.218ZM225.645,28a8.524,8.524,0,0,1-3.465-.638,4.815,4.815,0,0,1-2.2-1.848,5.354,5.354,0,0,1-.759-2.9,5.19,5.19,0,0,1,.836-3,5.271,5.271,0,0,1,2.288-1.859,8.126,8.126,0,0,1,3.3-.638h.616V16.032h3.3V25.36h2.75q.11,0,.11.088V27.89a.1.1,0,0,1-.11.11Zm.638-2.64V19.75h-.572a3.323,3.323,0,0,0-2.31.737,2.746,2.746,0,0,0-.814,2.145,2.573,2.573,0,0,0,.792,2.013,3.3,3.3,0,0,0,2.288.715Zm8.426,8.14a1.4,1.4,0,0,1-1.078-.429,1.882,1.882,0,0,1,0-2.31,1.4,1.4,0,0,1,1.078-.429,1.378,1.378,0,0,1,1.067.418,1.657,1.657,0,0,1,.385,1.166,1.628,1.628,0,0,1-.4,1.166A1.386,1.386,0,0,1,234.709,33.5Zm3.74,0a1.4,1.4,0,0,1-1.078-.429,1.882,1.882,0,0,1,0-2.31,1.4,1.4,0,0,1,1.078-.429,1.36,1.36,0,0,1,1.067.429,1.665,1.665,0,0,1,.385,1.155,1.636,1.636,0,0,1-.4,1.155A1.368,1.368,0,0,1,238.449,33.5ZM232.091,28a.1.1,0,0,1-.11-.11V25.448q0-.081.106-.081H235.5V17.11h3.278v8.25h3.3q.11,0,.11.088V27.89a.1.1,0,0,1-.11.11ZM245.2,15.218a1.4,1.4,0,0,1-1.078-.429,1.636,1.636,0,0,1-.4-1.155,1.657,1.657,0,0,1,.385-1.166,1.406,1.406,0,0,1,1.089-.418,1.378,1.378,0,0,1,1.067.418,1.657,1.657,0,0,1,.385,1.166,1.636,1.636,0,0,1-.4,1.155A1.368,1.368,0,0,1,245.2,15.218ZM241.859,28a.1.1,0,0,1-.11-.11V25.448q0-.081.1-.081h2.755V17.11h3.278v8.25h2.86q.11,0,.11.088V27.89a.1.1,0,0,1-.11.11Zm12.43,5.5a1.4,1.4,0,0,1-1.078-.429,1.636,1.636,0,0,1-.4-1.155,1.665,1.665,0,0,1,.385-1.155,1.584,1.584,0,0,1,2.156-.011,1.657,1.657,0,0,1,.385,1.166,1.636,1.636,0,0,1-.4,1.155A1.368,1.368,0,0,1,254.289,33.5ZM250.527,28a.1.1,0,0,1-.11-.11V25.448q0-.081.1-.081h2.755V17.11h3.278v8.25h2.86q.11,0,.11.088V27.89a.1.1,0,0,1-.11.11Zm8.668,0a.1.1,0,0,1-.11-.11V25.448q0-.088.11-.088h2.75V11.28h3.278V28Zm10.428-16.72H272.9V28h-3.278Z" transform="translate(571.5 1538.236) rotate(-90)" fill="#fff"/>
    <path id="Path_308" data-name="Path 308" d="M82.227,15.218a1.4,1.4,0,0,1-1.078-.429,1.636,1.636,0,0,1-.4-1.155,1.628,1.628,0,0,1,.4-1.166,1.414,1.414,0,0,1,1.078-.418,1.378,1.378,0,0,1,1.067.418,1.657,1.657,0,0,1,.385,1.166,1.628,1.628,0,0,1-.4,1.166A1.386,1.386,0,0,1,82.227,15.218Zm3.74,0a1.4,1.4,0,0,1-1.078-.429,1.636,1.636,0,0,1-.4-1.155,1.628,1.628,0,0,1,.4-1.166,1.414,1.414,0,0,1,1.078-.418,1.378,1.378,0,0,1,1.067.418,1.657,1.657,0,0,1,.385,1.166,1.636,1.636,0,0,1-.4,1.155A1.368,1.368,0,0,1,85.967,15.218ZM85.307,28a8.524,8.524,0,0,1-3.465-.638,4.815,4.815,0,0,1-2.2-1.848,5.354,5.354,0,0,1-.759-2.9,5.19,5.19,0,0,1,.836-3,5.271,5.271,0,0,1,2.288-1.859,8.126,8.126,0,0,1,3.3-.638h.616V16.032h3.3V25.36h2.75q.11,0,.11.088V27.89a.1.1,0,0,1-.11.11Zm.638-2.64V19.75h-.572a3.323,3.323,0,0,0-2.31.737,2.746,2.746,0,0,0-.814,2.145,2.573,2.573,0,0,0,.792,2.013,3.3,3.3,0,0,0,2.288.715ZM98.353,15.218a1.4,1.4,0,0,1-1.078-.429,1.636,1.636,0,0,1-.4-1.155,1.657,1.657,0,0,1,.385-1.166,1.406,1.406,0,0,1,1.089-.418,1.378,1.378,0,0,1,1.067.418,1.657,1.657,0,0,1,.385,1.166,1.636,1.636,0,0,1-.4,1.155A1.368,1.368,0,0,1,98.353,15.218Zm8.58,10.142q.11,0,.11.088V27.89a.1.1,0,0,1-.11.11H91.753a.1.1,0,0,1-.11-.11V25.448q0-.088.11-.088H94.9a4.423,4.423,0,0,1-.935-1.848,4.526,4.526,0,0,1-.121-1.056,5.214,5.214,0,0,1,.759-2.849,4.9,4.9,0,0,1,2.2-1.848,8.4,8.4,0,0,1,3.465-.649h3.916v8.25Zm-6.028,0V19.75h-.572a3.966,3.966,0,0,0-1.694.33,2.326,2.326,0,0,0-1.067.968,3.163,3.163,0,0,0-.363,1.584,2.924,2.924,0,0,0,.352,1.474,2.246,2.246,0,0,0,1.045.935,4.007,4.007,0,0,0,1.683.319Zm8.008,8.14a1.4,1.4,0,0,1-1.078-.429,1.882,1.882,0,0,1,0-2.31,1.4,1.4,0,0,1,1.078-.429,1.378,1.378,0,0,1,1.067.418,1.657,1.657,0,0,1,.385,1.166,1.628,1.628,0,0,1-.4,1.166A1.386,1.386,0,0,1,108.913,33.5Zm3.74,0a1.4,1.4,0,0,1-1.078-.429,1.882,1.882,0,0,1,0-2.31,1.4,1.4,0,0,1,1.078-.429,1.36,1.36,0,0,1,1.067.429,1.665,1.665,0,0,1,.385,1.155,1.636,1.636,0,0,1-.4,1.155A1.368,1.368,0,0,1,112.653,33.5Zm-5.94-5.5a.1.1,0,0,1-.11-.11V25.448q0-.088.11-.088h3.85V17.11h3.278V28Zm9.988-2.64h7.348a17.766,17.766,0,0,0-.495-1.837,9.267,9.267,0,0,0-.605-1.441,7.855,7.855,0,0,0-1.661-2.167,8.212,8.212,0,0,0-2.453-1.507l1.232-3.08a10.8,10.8,0,0,1,3.421,2.145,11.233,11.233,0,0,1,2.4,3.322,19.07,19.07,0,0,1,1.485,4.653V28H116.7ZM136.567,28v.352a5.623,5.623,0,0,1-.572,2.607,4.15,4.15,0,0,1-1.6,1.716,4.69,4.69,0,0,1-2.431.6,7.674,7.674,0,0,1-2.068-.264,6.829,6.829,0,0,1-1.98-.968l1.32-2.134a3.974,3.974,0,0,0,1.023.506,3.822,3.822,0,0,0,1.067.132,1.731,1.731,0,0,0,1.419-.671,2.6,2.6,0,0,0,.539-1.683V17.11h3.278v8.25h2.86q.11,0,.11.088V27.89a.1.1,0,0,1-.11.11Zm2.64,0a.1.1,0,0,1-.11-.11V25.448q0-.088.11-.088h2.75V11.28h3.278V28Zm10.428-16.72h3.278V28h-3.278Zm19.69,3.938a1.4,1.4,0,0,1-1.078-.429,1.636,1.636,0,0,1-.4-1.155,1.628,1.628,0,0,1,.4-1.166,1.414,1.414,0,0,1,1.078-.418,1.378,1.378,0,0,1,1.067.418,1.657,1.657,0,0,1,.385,1.166,1.628,1.628,0,0,1-.4,1.166A1.386,1.386,0,0,1,169.325,15.218Zm3.74,0a1.4,1.4,0,0,1-1.078-.429,1.636,1.636,0,0,1-.4-1.155,1.628,1.628,0,0,1,.4-1.166,1.414,1.414,0,0,1,1.078-.418,1.378,1.378,0,0,1,1.067.418,1.657,1.657,0,0,1,.385,1.166,1.636,1.636,0,0,1-.4,1.155A1.368,1.368,0,0,1,173.065,15.218ZM168.4,28a4.329,4.329,0,0,1-3.2-1.177,4.374,4.374,0,0,1-1.182-3.245,8.174,8.174,0,0,1,.088-1.177,8.764,8.764,0,0,1,.255-1.18,7.758,7.758,0,0,1,.361-1.009h2.9q-.154.7-.242,1.43a12.055,12.055,0,0,0-.088,1.452,2.337,2.337,0,0,0,.572,1.64,1.931,1.931,0,0,0,1.5.626h7.15V17.11H179.8V28Zm21.5-2.64q.1,0,.1.088V27.89a.1.1,0,0,1-.11.11h-6.028V11.28h3.278V25.36ZM189.684,28q-.119,0-.119-.11V25.448q0-.088.107-.088h2.6V17.11h3.278v3.85a8.812,8.812,0,0,1,1.558-2.263,5.845,5.845,0,0,1,2-1.356,6.344,6.344,0,0,1,2.409-.451,5.409,5.409,0,0,1,4.081,1.43,6.145,6.145,0,0,1,1.375,4.4v2.64h2.862q.108,0,.108.088V27.89q0,.11-.119.11Zm14-2.64V22.654a3.288,3.288,0,0,0-.737-2.365,3.047,3.047,0,0,0-2.277-.759,4.171,4.171,0,0,0-1.9.451,5.7,5.7,0,0,0-1.7,1.364,11.684,11.684,0,0,0-1.529,2.3V25.36Zm9.262-10.142a1.4,1.4,0,0,1-1.078-.429,1.636,1.636,0,0,1-.4-1.155,1.657,1.657,0,0,1,.385-1.166,1.406,1.406,0,0,1,1.089-.418,1.378,1.378,0,0,1,1.067.418,1.657,1.657,0,0,1,.385,1.166,1.636,1.636,0,0,1-.4,1.155A1.368,1.368,0,0,1,212.951,15.218ZM209.607,28a.1.1,0,0,1-.11-.11V25.448q0-.081.1-.081h2.755V17.11h3.278v8.25h2.86q.11,0,.11.088V27.89a.1.1,0,0,1-.11.11Zm11.154-2.64a7.648,7.648,0,0,1-.44-1.441,8.006,8.006,0,0,1-.154-1.595,7.489,7.489,0,0,1,.319-2.057,7.738,7.738,0,0,1,.8-1.9,9.094,9.094,0,0,1,2.255-.935,8.319,8.319,0,0,1,2.1-.319,6.027,6.027,0,0,1,2.728.638,4.617,4.617,0,0,1,1.914,1.815,5.365,5.365,0,0,1,.682,2.739,6.766,6.766,0,0,1-.1,1.177,5.15,5.15,0,0,1-.319,1.089,2.152,2.152,0,0,0,.913.616,4.039,4.039,0,0,0,1.287.176h.11q.11,0,.11.088V27.89a.1.1,0,0,1-.11.11h-.11a5.63,5.63,0,0,1-2.024-.33,4.292,4.292,0,0,1-1.606-1.144,5.754,5.754,0,0,1-1.925,1.1,6.829,6.829,0,0,1-2.233.374h-6.688a.1.1,0,0,1-.11-.11V25.448q0-.088.11-.088Zm2.442-2.574a6.046,6.046,0,0,0,.132,1.2,11.81,11.81,0,0,0,.374,1.375h.836a3.107,3.107,0,0,0,1.584-.407,3.075,3.075,0,0,0,1.122-1.111,2.961,2.961,0,0,0,.418-1.54,2.83,2.83,0,0,0-.572-1.859,1.87,1.87,0,0,0-1.518-.693,3.5,3.5,0,0,0-1,.154,4.8,4.8,0,0,0-1.045.462,10.136,10.136,0,0,0-.242,1.177A8.626,8.626,0,0,0,223.2,22.786ZM232.641,28a.1.1,0,0,1-.11-.11V25.448q0-.088.11-.088h2.75V11.28h3.278V28Zm10.428-16.72h3.278V28h-3.278Z" transform="translate(666.5 1538.236) rotate(-90)"/>
  </g>
</svg>
