<svg id="Group_286" data-name="Group 286" xmlns="http://www.w3.org/2000/svg" width="1279" height="82" viewBox="0 0 1279 82">
  <rect id="Rectangle_111" data-name="Rectangle 111" width="415" height="82" rx="32" fill="#39dcbf"/>
  <rect id="Rectangle_109" data-name="Rectangle 109" width="439" height="82" transform="translate(376)" fill="#0047ba"/>
  <path id="Rectangle_112" data-name="Rectangle 112" d="M0,0H515a32,32,0,0,1,32,32V50a32,32,0,0,1-32,32H0a0,0,0,0,1,0,0V0A0,0,0,0,1,0,0Z" transform="translate(732)" fill="#ed1c24"/>
  <path id="Path_281" data-name="Path 281" d="M141.656,33.5a1.4,1.4,0,0,1-1.078-.429,1.882,1.882,0,0,1,0-2.31,1.4,1.4,0,0,1,1.078-.429,1.378,1.378,0,0,1,1.067.418,1.657,1.657,0,0,1,.385,1.166,1.628,1.628,0,0,1-.4,1.166A1.386,1.386,0,0,1,141.656,33.5Zm3.74,0a1.4,1.4,0,0,1-1.078-.429,1.882,1.882,0,0,1,0-2.31,1.4,1.4,0,0,1,1.078-.429,1.36,1.36,0,0,1,1.067.429,1.665,1.665,0,0,1,.385,1.155,1.636,1.636,0,0,1-.4,1.155A1.368,1.368,0,0,1,145.4,33.5Zm-4.686-.22a4.056,4.056,0,0,1-2.332-.671,4.511,4.511,0,0,1-1.54-1.8,5.743,5.743,0,0,1-.55-2.541,12.958,12.958,0,0,1,.176-2.134,13.9,13.9,0,0,1,.528-2.112h2.926a8.823,8.823,0,0,0-.374,1.727,19.681,19.681,0,0,0-.088,2.035,2.877,2.877,0,0,0,.363,1.408,2.92,2.92,0,0,0,.968,1.056,2.31,2.31,0,0,0,1.287.4h3.806a14.374,14.374,0,0,0,1.573-.077,2.757,2.757,0,0,0,1.1-.319.829.829,0,0,0,.407-.77.8.8,0,0,0-.363-.649,3.289,3.289,0,0,0-1.155-.473,6.943,6.943,0,0,1-1.958-.759,2.581,2.581,0,0,1-1.023-1.089,3.57,3.57,0,0,1-.3-1.518,3.691,3.691,0,0,1,.209-1.188A5.147,5.147,0,0,1,145,22.566a7.845,7.845,0,0,1,1.364-1.518,6.988,6.988,0,0,1,1.661-1.078,4.005,4.005,0,0,1,1.661-.4,4.143,4.143,0,0,1,.682.055,2.245,2.245,0,0,1,.638.209,4.488,4.488,0,0,1,1.386,1.1A23.879,23.879,0,0,1,154,23.05a13.525,13.525,0,0,0,.913,1.188,4.519,4.519,0,0,0,.715.682,2.359,2.359,0,0,0,.649.33,2.244,2.244,0,0,0,.693.11h.11q.11,0,.11.088V27.89a.1.1,0,0,1-.11.11h-.11a6.406,6.406,0,0,1-1.419-.143,3.691,3.691,0,0,1-1.177-.5,6.479,6.479,0,0,1-1.144-.968,5.468,5.468,0,0,1-.4-.5q-.286-.385-.726-1-.506-.726-.913-1.21a5.169,5.169,0,0,0-.715-.726,2.254,2.254,0,0,0-.572-.363,1.41,1.41,0,0,0-.55-.121,1.394,1.394,0,0,0-.66.209,3.454,3.454,0,0,0-.715.539,3.639,3.639,0,0,0-.561.682,1.21,1.21,0,0,0-.22.616.97.97,0,0,0,.165.539,1.537,1.537,0,0,0,.517.462,4.431,4.431,0,0,0,.9.385,11.237,11.237,0,0,1,1.221.451,7.2,7.2,0,0,1,.869.451,2.866,2.866,0,0,1,1,1.034,2.952,2.952,0,0,1,.341,1.452,3.316,3.316,0,0,1-1.573,2.959A8.806,8.806,0,0,1,145.9,33.28ZM172.61,28a4.068,4.068,0,0,1-1.8-.418,5.975,5.975,0,0,1-1.65-1.232,3.959,3.959,0,0,1-1.529,1.232,5.111,5.111,0,0,1-2.145.418h-8.624a.1.1,0,0,1-.11-.11V25.448q0-.088.11-.088h2.75V18.826h3.278V25.36h1.87a1.979,1.979,0,0,0,1.606-.6,3.022,3.022,0,0,0,.506-1.947V18.826h3.278v4.246q0,.264-.011.506a3.622,3.622,0,0,1-.055.484,3.573,3.573,0,0,0,1.078,1.012,2.906,2.906,0,0,0,1.386.286h1.364V17.11h3.278V28Zm14.68-2.64q.1,0,.1.088V27.89a.1.1,0,0,1-.11.11h-6.028V11.28h3.278V25.36ZM202.816,28a4.068,4.068,0,0,1-1.8-.418,5.975,5.975,0,0,1-1.65-1.232,3.959,3.959,0,0,1-1.529,1.232,5.111,5.111,0,0,1-2.145.418h-8.624a.1.1,0,0,1-.11-.11V25.448q0-.088.11-.088h2.75V18.826h3.278V25.36h1.87a1.979,1.979,0,0,0,1.606-.6,3.022,3.022,0,0,0,.506-1.947V18.826h3.278v4.246q0,.264-.011.506a3.619,3.619,0,0,1-.055.484,3.573,3.573,0,0,0,1.078,1.012,2.906,2.906,0,0,0,1.386.286h1.364V17.11h3.278V28Zm7.348-17.93,1.254-.2a1.915,1.915,0,0,1-.715-.6,1.494,1.494,0,0,1-.275-.891,1.782,1.782,0,0,1,.66-1.474,2.736,2.736,0,0,1,1.76-.528,3.73,3.73,0,0,1,1.8.4l-.44,1.122a2.262,2.262,0,0,0-.583-.22,2.78,2.78,0,0,0-.6-.066.986.986,0,0,0-1.056,1.056.99.99,0,0,0,.187.6,1.209,1.209,0,0,0,.473.385q.572-.11.979-.165T214.3,9.4a4.473,4.473,0,0,1,.506-.033v1.276q-.4.022-1.111.1t-1.485.165q-.77.088-1.342.165a5.506,5.506,0,0,0-.7.121Zm4.158,15.642L211.4,14.25h3.432l2.706,11.462Zm3.278-.352a1.979,1.979,0,0,0,1.606-.6,3.021,3.021,0,0,0,.506-1.947V11.28h3.278V23.072a5.068,5.068,0,0,1-1.243,3.586A4.433,4.433,0,0,1,218.326,28h-8.074V25.36Zm9.57-14.08h3.278V28H227.17Zm19.69,3.938a1.4,1.4,0,0,1-1.078-.429,1.636,1.636,0,0,1-.4-1.155,1.628,1.628,0,0,1,.4-1.166,1.414,1.414,0,0,1,1.078-.418,1.378,1.378,0,0,1,1.067.418,1.657,1.657,0,0,1,.385,1.166,1.628,1.628,0,0,1-.4,1.166A1.386,1.386,0,0,1,246.86,15.218Zm3.74,0a1.4,1.4,0,0,1-1.078-.429,1.636,1.636,0,0,1-.4-1.155,1.628,1.628,0,0,1,.4-1.166,1.414,1.414,0,0,1,1.078-.418,1.378,1.378,0,0,1,1.067.418,1.657,1.657,0,0,1,.385,1.166,1.636,1.636,0,0,1-.4,1.155A1.368,1.368,0,0,1,250.6,15.218ZM245.936,28a4.329,4.329,0,0,1-3.2-1.177,4.374,4.374,0,0,1-1.182-3.245,8.174,8.174,0,0,1,.088-1.177,8.764,8.764,0,0,1,.255-1.18,7.758,7.758,0,0,1,.361-1.009h2.9q-.154.7-.242,1.43a12.055,12.055,0,0,0-.088,1.452,2.337,2.337,0,0,0,.572,1.64,1.931,1.931,0,0,0,1.5.626h7.15V17.11h3.278V28Zm18.326-2.288L261.336,14.25h3.432l2.706,11.462Zm3.278-.352a1.979,1.979,0,0,0,1.606-.6,3.022,3.022,0,0,0,.506-1.947V11.28h3.278V23.072a5.068,5.068,0,0,1-1.243,3.586A4.433,4.433,0,0,1,268.266,28h-8.074V25.36Zm15.6,0q.1,0,.1.088V27.89a.1.1,0,0,1-.11.11H277.11V11.28h3.278V25.36ZM282.927,28q-.119,0-.119-.11V25.448q0-.088.107-.088h2.6V17.11h3.278v3.85A8.812,8.812,0,0,1,290.35,18.7a5.846,5.846,0,0,1,2-1.356,6.344,6.344,0,0,1,2.409-.451,5.409,5.409,0,0,1,4.081,1.43,6.145,6.145,0,0,1,1.375,4.4v2.64h2.862q.108,0,.108.088V27.89q0,.11-.119.11Zm14-2.64V22.654a3.288,3.288,0,0,0-.737-2.365,3.047,3.047,0,0,0-2.277-.759,4.171,4.171,0,0,0-1.9.451,5.7,5.7,0,0,0-1.7,1.364,11.683,11.683,0,0,0-1.529,2.3V25.36ZM305.6,15.218a1.4,1.4,0,0,1-1.078-.429,1.636,1.636,0,0,1-.4-1.155,1.628,1.628,0,0,1,.4-1.166,1.414,1.414,0,0,1,1.078-.418,1.378,1.378,0,0,1,1.067.418,1.657,1.657,0,0,1,.385,1.166,1.628,1.628,0,0,1-.4,1.166A1.386,1.386,0,0,1,305.6,15.218Zm3.74,0a1.4,1.4,0,0,1-1.078-.429,1.636,1.636,0,0,1-.4-1.155,1.628,1.628,0,0,1,.4-1.166,1.414,1.414,0,0,1,1.078-.418,1.378,1.378,0,0,1,1.067.418,1.657,1.657,0,0,1,.385,1.166,1.636,1.636,0,0,1-.4,1.155A1.368,1.368,0,0,1,309.34,15.218ZM302.85,28a.1.1,0,0,1-.11-.11V25.448q0-.088.11-.088h3.85V17.11h3.278V28Zm14.058-2.288L313.982,14.25h3.432l2.706,11.462Zm3.278-.352a1.979,1.979,0,0,0,1.606-.6,3.022,3.022,0,0,0,.506-1.947V11.28h3.278V23.072a5.068,5.068,0,0,1-1.243,3.586A4.433,4.433,0,0,1,320.912,28h-8.074V25.36Zm9.57-14.08h3.278V28h-3.278Zm19.4,23.892a5.854,5.854,0,0,1-2.629-.561,4.22,4.22,0,0,1-1.76-1.573,4.336,4.336,0,0,1-.627-2.332,4.2,4.2,0,0,1,.308-1.595,4.939,4.939,0,0,1,.935-1.452,8.892,8.892,0,0,1,1.551-1.331,7.813,7.813,0,0,1-.957-1.243,7,7,0,0,1-.715-1.5A4.582,4.582,0,0,1,345,22.126a5.135,5.135,0,0,1,.737-2.783,4.813,4.813,0,0,1,2.1-1.815,7.572,7.572,0,0,1,3.234-.638,9.563,9.563,0,0,1,1.353.1,11.672,11.672,0,0,1,1.32.264,5.4,5.4,0,0,1,1.023.363l-.924,2.574a8.808,8.808,0,0,0-1.54-.517,6.218,6.218,0,0,0-1.32-.143,3.3,3.3,0,0,0-1.551.33,2.248,2.248,0,0,0-.957.946,3.183,3.183,0,0,0-.33,1.518,5.519,5.519,0,0,0,.1,1.1,3.636,3.636,0,0,0,.308.9,7.125,7.125,0,0,0,.495.836q.968-.418,1.925-.781t1.9-.671l.77,2.486a21.387,21.387,0,0,0-2.882.913,10.167,10.167,0,0,0-1.936,1,3.635,3.635,0,0,0-1.111,1.111,2.5,2.5,0,0,0-.363,1.309,1.765,1.765,0,0,0,.627,1.441,2.827,2.827,0,0,0,1.837.517,9.665,9.665,0,0,0,1.023-.055q.517-.055,1.078-.154t1.133-.253l.374,2.4q-.7.242-1.419.418a10.885,10.885,0,0,1-1.419.253A13.143,13.143,0,0,1,349.16,35.172Zm14.833-9.812q.1,0,.1.088V27.89a.1.1,0,0,1-.11.11H357.96V11.28h3.278V25.36ZM363.777,28q-.119,0-.119-.11V25.448q0-.083.107-.083h2.6V11.28h3.278v9.68A8.812,8.812,0,0,1,371.2,18.7a5.846,5.846,0,0,1,2-1.356,6.344,6.344,0,0,1,2.409-.451,5.409,5.409,0,0,1,4.081,1.43,6.145,6.145,0,0,1,1.375,4.4v2.64h2.862q.108,0,.108.088V27.89q0,.11-.119.11Zm14-2.64V22.654a3.288,3.288,0,0,0-.737-2.365,3.047,3.047,0,0,0-2.277-.759,4.171,4.171,0,0,0-1.9.451,5.7,5.7,0,0,0-1.7,1.364,11.683,11.683,0,0,0-1.529,2.3V25.36Zm10.824-10.142a1.4,1.4,0,0,1-1.078-.429,1.636,1.636,0,0,1-.4-1.155,1.628,1.628,0,0,1,.4-1.166,1.414,1.414,0,0,1,1.078-.418,1.378,1.378,0,0,1,1.067.418,1.657,1.657,0,0,1,.385,1.166,1.628,1.628,0,0,1-.4,1.166A1.386,1.386,0,0,1,388.606,15.218Zm3.74,0a1.4,1.4,0,0,1-1.078-.429,1.636,1.636,0,0,1-.4-1.155,1.628,1.628,0,0,1,.4-1.166,1.414,1.414,0,0,1,1.078-.418,1.378,1.378,0,0,1,1.067.418,1.657,1.657,0,0,1,.385,1.166,1.636,1.636,0,0,1-.4,1.155A1.368,1.368,0,0,1,392.346,15.218ZM383.7,28a.1.1,0,0,1-.11-.11V25.448q0-.088.11-.088h3.146a4.422,4.422,0,0,1-.935-1.848,4.526,4.526,0,0,1-.121-1.056,5.214,5.214,0,0,1,.759-2.849,4.9,4.9,0,0,1,2.2-1.848,8.4,8.4,0,0,1,3.465-.649h3.916V28Zm8.536-2.64h.616V19.75h-.572a3.966,3.966,0,0,0-1.694.33,2.326,2.326,0,0,0-1.067.968,3.163,3.163,0,0,0-.363,1.584,2.924,2.924,0,0,0,.352,1.474,2.246,2.246,0,0,0,1.045.935A4.007,4.007,0,0,0,392.236,25.36Z" transform="translate(835 24)" fill="#fff"/>
  <path id="Path_282" data-name="Path 282" d="M105.572,15.218a1.4,1.4,0,0,1-1.078-.429,1.636,1.636,0,0,1-.4-1.155,1.628,1.628,0,0,1,.4-1.166,1.414,1.414,0,0,1,1.078-.418,1.378,1.378,0,0,1,1.067.418,1.657,1.657,0,0,1,.385,1.166,1.628,1.628,0,0,1-.4,1.166A1.386,1.386,0,0,1,105.572,15.218Zm3.74,0a1.4,1.4,0,0,1-1.078-.429,1.636,1.636,0,0,1-.4-1.155,1.628,1.628,0,0,1,.4-1.166,1.414,1.414,0,0,1,1.078-.418,1.378,1.378,0,0,1,1.067.418,1.657,1.657,0,0,1,.385,1.166,1.636,1.636,0,0,1-.4,1.155A1.368,1.368,0,0,1,109.312,15.218ZM108.652,28a8.524,8.524,0,0,1-3.465-.638,4.815,4.815,0,0,1-2.2-1.848,5.354,5.354,0,0,1-.759-2.9,5.19,5.19,0,0,1,.836-3,5.271,5.271,0,0,1,2.288-1.859,8.126,8.126,0,0,1,3.3-.638h.616V16.032h3.3V25.36h2.75q.11,0,.11.088V27.89a.1.1,0,0,1-.11.11Zm.638-2.64V19.75h-.572a3.323,3.323,0,0,0-2.31.737,2.746,2.746,0,0,0-.814,2.145,2.573,2.573,0,0,0,.792,2.013,3.3,3.3,0,0,0,2.288.715Zm8.426,8.14a1.4,1.4,0,0,1-1.078-.429,1.882,1.882,0,0,1,0-2.31,1.4,1.4,0,0,1,1.078-.429,1.378,1.378,0,0,1,1.067.418,1.657,1.657,0,0,1,.385,1.166,1.628,1.628,0,0,1-.4,1.166A1.386,1.386,0,0,1,117.716,33.5Zm3.74,0a1.4,1.4,0,0,1-1.078-.429,1.882,1.882,0,0,1,0-2.31,1.4,1.4,0,0,1,1.078-.429,1.36,1.36,0,0,1,1.067.429,1.665,1.665,0,0,1,.385,1.155,1.636,1.636,0,0,1-.4,1.155A1.368,1.368,0,0,1,121.456,33.5ZM115.1,28a.1.1,0,0,1-.11-.11V25.448q0-.081.106-.081h3.414V17.11h3.278v8.25h3.3q.11,0,.11.088V27.89a.1.1,0,0,1-.11.11Zm12.254-2.64a7.649,7.649,0,0,1-.44-1.441,8.007,8.007,0,0,1-.154-1.595,7.489,7.489,0,0,1,.319-2.057,7.738,7.738,0,0,1,.8-1.9,9.094,9.094,0,0,1,2.255-.935,8.319,8.319,0,0,1,2.1-.319,6.027,6.027,0,0,1,2.728.638,4.617,4.617,0,0,1,1.914,1.815,5.365,5.365,0,0,1,.682,2.739,6.765,6.765,0,0,1-.1,1.177,5.15,5.15,0,0,1-.319,1.089,2.152,2.152,0,0,0,.913.616,4.039,4.039,0,0,0,1.287.176h.11q.11,0,.11.088V27.89a.1.1,0,0,1-.11.11h-.11a5.63,5.63,0,0,1-2.024-.33,4.292,4.292,0,0,1-1.606-1.144,5.754,5.754,0,0,1-1.925,1.1,6.829,6.829,0,0,1-2.233.374h-6.688a.1.1,0,0,1-.11-.11V25.448q0-.088.11-.088Zm2.442-2.574a6.046,6.046,0,0,0,.132,1.2,11.809,11.809,0,0,0,.374,1.375h.836a3.107,3.107,0,0,0,1.584-.407,3.075,3.075,0,0,0,1.122-1.111,2.961,2.961,0,0,0,.418-1.54,2.83,2.83,0,0,0-.572-1.859,1.87,1.87,0,0,0-1.518-.693,3.5,3.5,0,0,0-1,.154,4.8,4.8,0,0,0-1.045.462,10.133,10.133,0,0,0-.242,1.177A8.626,8.626,0,0,0,129.794,22.786Zm14.344-7.568a1.4,1.4,0,0,1-1.078-.429,1.636,1.636,0,0,1-.4-1.155,1.628,1.628,0,0,1,.4-1.166,1.414,1.414,0,0,1,1.078-.418,1.378,1.378,0,0,1,1.067.418,1.657,1.657,0,0,1,.385,1.166,1.628,1.628,0,0,1-.4,1.166A1.386,1.386,0,0,1,144.138,15.218Zm3.74,0a1.4,1.4,0,0,1-1.078-.429,1.636,1.636,0,0,1-.4-1.155,1.628,1.628,0,0,1,.4-1.166,1.414,1.414,0,0,1,1.078-.418,1.378,1.378,0,0,1,1.067.418,1.657,1.657,0,0,1,.385,1.166,1.636,1.636,0,0,1-.4,1.155A1.368,1.368,0,0,1,147.878,15.218ZM139.232,28a.1.1,0,0,1-.11-.11V25.448q0-.088.11-.088h3.146a4.423,4.423,0,0,1-.935-1.848,4.526,4.526,0,0,1-.121-1.056,5.214,5.214,0,0,1,.759-2.849,4.9,4.9,0,0,1,2.2-1.848,8.4,8.4,0,0,1,3.465-.649h3.916V28Zm8.536-2.64h.616V19.75h-.572a3.966,3.966,0,0,0-1.694.33,2.326,2.326,0,0,0-1.067.968,3.163,3.163,0,0,0-.363,1.584,2.924,2.924,0,0,0,.352,1.474,2.246,2.246,0,0,0,1.045.935A4.007,4.007,0,0,0,147.768,25.36ZM161.3,28v.352a5.623,5.623,0,0,1-.572,2.607,4.15,4.15,0,0,1-1.6,1.716,4.69,4.69,0,0,1-2.431.6,7.674,7.674,0,0,1-2.068-.264,6.829,6.829,0,0,1-1.98-.968l1.32-2.134A3.974,3.974,0,0,0,155,30.42a3.822,3.822,0,0,0,1.067.132,1.731,1.731,0,0,0,1.419-.671,2.6,2.6,0,0,0,.539-1.683V17.11H161.3v8.25h2.86q.11,0,.11.088V27.89a.1.1,0,0,1-.11.11Zm2.64,0a.1.1,0,0,1-.11-.11V25.448q0-.088.11-.088h2.75V11.28h3.278V28Zm10.428-16.72h3.278V28h-3.278ZM192.1,15.218a1.4,1.4,0,0,1-1.078-.429,1.636,1.636,0,0,1-.4-1.155,1.628,1.628,0,0,1,.4-1.166,1.414,1.414,0,0,1,1.078-.418,1.378,1.378,0,0,1,1.067.418,1.657,1.657,0,0,1,.385,1.166,1.628,1.628,0,0,1-.4,1.166A1.386,1.386,0,0,1,192.1,15.218Zm3.74,0a1.4,1.4,0,0,1-1.078-.429,1.636,1.636,0,0,1-.4-1.155,1.628,1.628,0,0,1,.4-1.166,1.414,1.414,0,0,1,1.078-.418,1.378,1.378,0,0,1,1.067.418,1.657,1.657,0,0,1,.385,1.166,1.636,1.636,0,0,1-.4,1.155A1.368,1.368,0,0,1,195.838,15.218ZM195.178,28a8.524,8.524,0,0,1-3.465-.638,4.815,4.815,0,0,1-2.2-1.848,5.354,5.354,0,0,1-.759-2.9,5.19,5.19,0,0,1,.836-3,5.271,5.271,0,0,1,2.288-1.859,8.126,8.126,0,0,1,3.3-.638h.616V16.032h3.3V25.36h2.75q.11,0,.11.088V27.89a.1.1,0,0,1-.11.11Zm.638-2.64V19.75h-.572a3.323,3.323,0,0,0-2.31.737,2.746,2.746,0,0,0-.814,2.145,2.573,2.573,0,0,0,.792,2.013,3.3,3.3,0,0,0,2.288.715Zm8.426,8.14a1.4,1.4,0,0,1-1.078-.429,1.882,1.882,0,0,1,0-2.31,1.4,1.4,0,0,1,1.078-.429,1.378,1.378,0,0,1,1.067.418,1.657,1.657,0,0,1,.385,1.166,1.628,1.628,0,0,1-.4,1.166A1.386,1.386,0,0,1,204.242,33.5Zm3.74,0a1.4,1.4,0,0,1-1.078-.429,1.882,1.882,0,0,1,0-2.31,1.4,1.4,0,0,1,1.078-.429,1.36,1.36,0,0,1,1.067.429,1.665,1.665,0,0,1,.385,1.155,1.636,1.636,0,0,1-.4,1.155A1.368,1.368,0,0,1,207.982,33.5ZM201.624,28a.1.1,0,0,1-.11-.11V25.448q0-.081.106-.081h3.414V17.11h3.278v8.25h3.3q.11,0,.11.088V27.89a.1.1,0,0,1-.11.11ZM213.7,15.218a1.4,1.4,0,0,1-1.078-.429,1.636,1.636,0,0,1-.4-1.155,1.628,1.628,0,0,1,.4-1.166,1.414,1.414,0,0,1,1.078-.418,1.378,1.378,0,0,1,1.067.418,1.657,1.657,0,0,1,.385,1.166,1.628,1.628,0,0,1-.4,1.166A1.386,1.386,0,0,1,213.7,15.218Zm3.74,0a1.4,1.4,0,0,1-1.078-.429,1.636,1.636,0,0,1-.4-1.155,1.628,1.628,0,0,1,.4-1.166,1.414,1.414,0,0,1,1.078-.418,1.378,1.378,0,0,1,1.067.418,1.657,1.657,0,0,1,.385,1.166,1.636,1.636,0,0,1-.4,1.155A1.368,1.368,0,0,1,217.442,15.218ZM211.392,28a.1.1,0,0,1-.11-.11V25.448q0-.081.106-.081H214.8V17.11h3.278v8.25h3.3q.11,0,.11.088V27.89a.1.1,0,0,1-.11.11Zm9.768,0a.1.1,0,0,1-.11-.11V25.448q0-.088.11-.088h8.888a3.57,3.57,0,0,1-.539-.715,4.817,4.817,0,0,1-.44-1.045q-.187-.616-.363-1.386a6.393,6.393,0,0,0-.374-1.276,2.891,2.891,0,0,0-.517-.825,1.627,1.627,0,0,0-.726-.451,3.5,3.5,0,0,0-1.023-.132,5.184,5.184,0,0,0-1.452.2,7.225,7.225,0,0,0-1.474.638l-.99-2.42a8.27,8.27,0,0,1,2.112-.792,10.435,10.435,0,0,1,2.354-.264,10.912,10.912,0,0,1,1.265.066,4.267,4.267,0,0,1,1.023.242,3.8,3.8,0,0,1,1.364.781,4.307,4.307,0,0,1,.957,1.287,6.47,6.47,0,0,1,.561,1.87q.2,1.078.429,1.914a7.859,7.859,0,0,0,.517,1.408,3.839,3.839,0,0,0,.594.9h1.43q.11,0,.11.088V27.89a.1.1,0,0,1-.11.11Zm15.686-12.782a1.4,1.4,0,0,1-1.078-.429,1.636,1.636,0,0,1-.4-1.155,1.628,1.628,0,0,1,.4-1.166,1.414,1.414,0,0,1,1.078-.418,1.378,1.378,0,0,1,1.067.418,1.657,1.657,0,0,1,.385,1.166,1.628,1.628,0,0,1-.4,1.166A1.386,1.386,0,0,1,236.846,15.218Zm3.74,0a1.4,1.4,0,0,1-1.078-.429,1.636,1.636,0,0,1-.4-1.155,1.628,1.628,0,0,1,.4-1.166,1.414,1.414,0,0,1,1.078-.418,1.378,1.378,0,0,1,1.067.418,1.657,1.657,0,0,1,.385,1.166,1.636,1.636,0,0,1-.4,1.155A1.368,1.368,0,0,1,240.586,15.218ZM234.536,28a.1.1,0,0,1-.11-.11V25.448q0-.081.106-.081h3.414V17.11h3.278v8.25h3.3q.11,0,.11.088V27.89a.1.1,0,0,1-.11.11Zm9.768,0a.1.1,0,0,1-.11-.11V25.448q0-.088.11-.088h2.75V11.28h3.278V28Zm10.428-16.72h3.278V28h-3.278Zm17.732,3.938a1.4,1.4,0,0,1-1.078-.429,1.636,1.636,0,0,1-.4-1.155,1.628,1.628,0,0,1,.4-1.166,1.414,1.414,0,0,1,1.078-.418,1.378,1.378,0,0,1,1.067.418,1.657,1.657,0,0,1,.385,1.166,1.628,1.628,0,0,1-.4,1.166A1.386,1.386,0,0,1,272.464,15.218Zm3.74,0a1.4,1.4,0,0,1-1.078-.429,1.636,1.636,0,0,1-.4-1.155,1.628,1.628,0,0,1,.4-1.166,1.414,1.414,0,0,1,1.078-.418,1.378,1.378,0,0,1,1.067.418,1.657,1.657,0,0,1,.385,1.166,1.636,1.636,0,0,1-.4,1.155A1.368,1.368,0,0,1,276.2,15.218ZM275.544,28a8.524,8.524,0,0,1-3.465-.638,4.815,4.815,0,0,1-2.2-1.848,5.354,5.354,0,0,1-.759-2.9,5.19,5.19,0,0,1,.836-3,5.271,5.271,0,0,1,2.288-1.859,8.127,8.127,0,0,1,3.3-.638h.616V16.032h3.3V25.36h2.75q.11,0,.11.088V27.89a.1.1,0,0,1-.11.11Zm.638-2.64V19.75h-.572a3.323,3.323,0,0,0-2.31.737,2.746,2.746,0,0,0-.814,2.145,2.573,2.573,0,0,0,.792,2.013,3.3,3.3,0,0,0,2.288.715Zm8.426,8.14a1.4,1.4,0,0,1-1.078-.429,1.882,1.882,0,0,1,0-2.31,1.4,1.4,0,0,1,1.078-.429,1.378,1.378,0,0,1,1.067.418,1.657,1.657,0,0,1,.385,1.166,1.628,1.628,0,0,1-.4,1.166A1.386,1.386,0,0,1,284.608,33.5Zm3.74,0a1.4,1.4,0,0,1-1.078-.429,1.882,1.882,0,0,1,0-2.31,1.4,1.4,0,0,1,1.078-.429,1.36,1.36,0,0,1,1.067.429,1.665,1.665,0,0,1,.385,1.155,1.636,1.636,0,0,1-.4,1.155A1.368,1.368,0,0,1,288.348,33.5ZM281.99,28a.1.1,0,0,1-.11-.11V25.448q0-.081.106-.081H285.4V17.11h3.278v8.25h3.3q.11,0,.11.088V27.89a.1.1,0,0,1-.11.11ZM295.1,15.218a1.4,1.4,0,0,1-1.078-.429,1.636,1.636,0,0,1-.4-1.155,1.657,1.657,0,0,1,.385-1.166,1.406,1.406,0,0,1,1.089-.418,1.378,1.378,0,0,1,1.067.418,1.657,1.657,0,0,1,.385,1.166,1.636,1.636,0,0,1-.4,1.155A1.368,1.368,0,0,1,295.1,15.218ZM291.758,28a.1.1,0,0,1-.11-.11V25.448q0-.081.1-.081h2.756V17.11h3.278v8.25h2.86q.11,0,.11.088V27.89a.1.1,0,0,1-.11.11Zm12.43,5.5a1.4,1.4,0,0,1-1.078-.429,1.636,1.636,0,0,1-.4-1.155,1.665,1.665,0,0,1,.385-1.155,1.584,1.584,0,0,1,2.156-.011,1.657,1.657,0,0,1,.385,1.166,1.636,1.636,0,0,1-.4,1.155A1.368,1.368,0,0,1,304.188,33.5ZM300.426,28a.1.1,0,0,1-.11-.11V25.448q0-.081.1-.081h2.756V17.11h3.278v8.25h2.86q.11,0,.11.088V27.89a.1.1,0,0,1-.11.11Zm8.668,0a.1.1,0,0,1-.11-.11V25.448q0-.088.11-.088h2.75V11.28h3.278V28Zm10.428-16.72H322.8V28h-3.278Z" transform="translate(342 24)" fill="#fff"/>
  <path id="Path_283" data-name="Path 283" d="M110.68,15.218a1.4,1.4,0,0,1-1.078-.429,1.636,1.636,0,0,1-.4-1.155,1.628,1.628,0,0,1,.4-1.166,1.414,1.414,0,0,1,1.078-.418,1.378,1.378,0,0,1,1.067.418,1.657,1.657,0,0,1,.385,1.166,1.628,1.628,0,0,1-.4,1.166A1.386,1.386,0,0,1,110.68,15.218Zm3.74,0a1.4,1.4,0,0,1-1.078-.429,1.636,1.636,0,0,1-.4-1.155,1.628,1.628,0,0,1,.4-1.166,1.414,1.414,0,0,1,1.078-.418,1.378,1.378,0,0,1,1.067.418,1.657,1.657,0,0,1,.385,1.166,1.636,1.636,0,0,1-.4,1.155A1.368,1.368,0,0,1,114.42,15.218ZM113.76,28a8.524,8.524,0,0,1-3.465-.638,4.815,4.815,0,0,1-2.2-1.848,5.354,5.354,0,0,1-.759-2.9,5.19,5.19,0,0,1,.836-3,5.271,5.271,0,0,1,2.288-1.859,8.126,8.126,0,0,1,3.3-.638h.616V16.032h3.3V25.36h2.75q.11,0,.11.088V27.89a.1.1,0,0,1-.11.11Zm.638-2.64V19.75h-.572a3.323,3.323,0,0,0-2.31.737,2.746,2.746,0,0,0-.814,2.145,2.573,2.573,0,0,0,.792,2.013,3.3,3.3,0,0,0,2.288.715Zm12.408-10.142a1.4,1.4,0,0,1-1.078-.429,1.636,1.636,0,0,1-.4-1.155,1.657,1.657,0,0,1,.385-1.166,1.406,1.406,0,0,1,1.089-.418,1.378,1.378,0,0,1,1.067.418,1.657,1.657,0,0,1,.385,1.166,1.636,1.636,0,0,1-.4,1.155A1.368,1.368,0,0,1,126.806,15.218Zm8.58,10.142q.11,0,.11.088V27.89a.1.1,0,0,1-.11.11h-15.18a.1.1,0,0,1-.11-.11V25.448q0-.088.11-.088h3.146a4.423,4.423,0,0,1-.935-1.848,4.526,4.526,0,0,1-.121-1.056,5.214,5.214,0,0,1,.759-2.849,4.9,4.9,0,0,1,2.2-1.848,8.4,8.4,0,0,1,3.465-.649h3.916v8.25Zm-6.028,0V19.75h-.572a3.966,3.966,0,0,0-1.694.33,2.326,2.326,0,0,0-1.067.968,3.163,3.163,0,0,0-.363,1.584,2.924,2.924,0,0,0,.352,1.474,2.246,2.246,0,0,0,1.045.935,4.007,4.007,0,0,0,1.683.319Zm8.008,8.14a1.4,1.4,0,0,1-1.078-.429,1.882,1.882,0,0,1,0-2.31,1.4,1.4,0,0,1,1.078-.429,1.378,1.378,0,0,1,1.067.418,1.657,1.657,0,0,1,.385,1.166,1.628,1.628,0,0,1-.4,1.166A1.386,1.386,0,0,1,137.366,33.5Zm3.74,0a1.4,1.4,0,0,1-1.078-.429,1.882,1.882,0,0,1,0-2.31,1.4,1.4,0,0,1,1.078-.429,1.36,1.36,0,0,1,1.067.429,1.665,1.665,0,0,1,.385,1.155,1.636,1.636,0,0,1-.4,1.155A1.368,1.368,0,0,1,141.106,33.5Zm-5.94-5.5a.1.1,0,0,1-.11-.11V25.448q0-.088.11-.088h3.85V17.11h3.278V28Zm9.988-2.64H152.5a17.764,17.764,0,0,0-.495-1.837,9.269,9.269,0,0,0-.6-1.441,7.855,7.855,0,0,0-1.661-2.167,8.212,8.212,0,0,0-2.453-1.507l1.232-3.08a10.8,10.8,0,0,1,3.421,2.145,11.233,11.233,0,0,1,2.4,3.322,19.07,19.07,0,0,1,1.485,4.653V28h-10.67ZM165.02,28v.352a5.623,5.623,0,0,1-.572,2.607,4.15,4.15,0,0,1-1.6,1.716,4.69,4.69,0,0,1-2.431.6,7.674,7.674,0,0,1-2.068-.264,6.829,6.829,0,0,1-1.98-.968l1.32-2.134a3.974,3.974,0,0,0,1.023.506,3.822,3.822,0,0,0,1.067.132,1.731,1.731,0,0,0,1.419-.671,2.6,2.6,0,0,0,.539-1.683V17.11h3.278v8.25h2.86q.11,0,.11.088V27.89a.1.1,0,0,1-.11.11Zm2.64,0a.1.1,0,0,1-.11-.11V25.448q0-.088.11-.088h2.75V11.28h3.278V28Zm10.428-16.72h3.278V28h-3.278Zm19.69,3.938a1.4,1.4,0,0,1-1.078-.429,1.636,1.636,0,0,1-.4-1.155,1.628,1.628,0,0,1,.4-1.166,1.414,1.414,0,0,1,1.078-.418,1.378,1.378,0,0,1,1.067.418,1.657,1.657,0,0,1,.385,1.166,1.628,1.628,0,0,1-.4,1.166A1.386,1.386,0,0,1,197.778,15.218Zm3.74,0a1.4,1.4,0,0,1-1.078-.429,1.636,1.636,0,0,1-.4-1.155,1.628,1.628,0,0,1,.4-1.166,1.414,1.414,0,0,1,1.078-.418,1.378,1.378,0,0,1,1.067.418,1.657,1.657,0,0,1,.385,1.166,1.636,1.636,0,0,1-.4,1.155A1.368,1.368,0,0,1,201.518,15.218ZM196.854,28a4.329,4.329,0,0,1-3.2-1.177,4.374,4.374,0,0,1-1.182-3.245,8.174,8.174,0,0,1,.088-1.177,8.764,8.764,0,0,1,.255-1.18,7.758,7.758,0,0,1,.361-1.009h2.9q-.154.7-.242,1.43a12.055,12.055,0,0,0-.088,1.452,2.337,2.337,0,0,0,.572,1.64,1.931,1.931,0,0,0,1.5.626h7.15V17.11h3.278V28Zm21.5-2.64q.1,0,.1.088V27.89a.1.1,0,0,1-.11.11H212.32V11.28H215.6V25.36ZM218.137,28q-.119,0-.119-.11V25.448q0-.088.107-.088h2.6V17.11H224v3.85A8.812,8.812,0,0,1,225.56,18.7a5.845,5.845,0,0,1,2-1.356,6.344,6.344,0,0,1,2.409-.451,5.409,5.409,0,0,1,4.081,1.43,6.145,6.145,0,0,1,1.375,4.4v2.64h2.862q.108,0,.108.088V27.89q0,.11-.119.11Zm14-2.64V22.654a3.288,3.288,0,0,0-.737-2.365,3.047,3.047,0,0,0-2.277-.759,4.171,4.171,0,0,0-1.9.451,5.7,5.7,0,0,0-1.7,1.364,11.684,11.684,0,0,0-1.529,2.3V25.36ZM241.4,15.218a1.4,1.4,0,0,1-1.078-.429,1.636,1.636,0,0,1-.4-1.155,1.657,1.657,0,0,1,.385-1.166,1.406,1.406,0,0,1,1.089-.418,1.378,1.378,0,0,1,1.067.418,1.657,1.657,0,0,1,.385,1.166,1.636,1.636,0,0,1-.4,1.155A1.368,1.368,0,0,1,241.4,15.218ZM238.06,28a.1.1,0,0,1-.11-.11V25.448q0-.081.1-.081h2.755V17.11h3.278v8.25h2.86q.11,0,.11.088V27.89a.1.1,0,0,1-.11.11Zm11.154-2.64a7.648,7.648,0,0,1-.44-1.441,8.006,8.006,0,0,1-.154-1.595,7.489,7.489,0,0,1,.319-2.057,7.738,7.738,0,0,1,.8-1.9A9.094,9.094,0,0,1,252,17.429a8.319,8.319,0,0,1,2.1-.319,6.027,6.027,0,0,1,2.728.638,4.617,4.617,0,0,1,1.914,1.815,5.365,5.365,0,0,1,.682,2.739,6.765,6.765,0,0,1-.1,1.177A5.151,5.151,0,0,1,259,24.568a2.152,2.152,0,0,0,.913.616,4.039,4.039,0,0,0,1.287.176h.11q.11,0,.11.088V27.89a.1.1,0,0,1-.11.11h-.11a5.63,5.63,0,0,1-2.024-.33,4.292,4.292,0,0,1-1.606-1.144,5.754,5.754,0,0,1-1.925,1.1,6.829,6.829,0,0,1-2.233.374h-6.688a.1.1,0,0,1-.11-.11V25.448q0-.088.11-.088Zm2.442-2.574a6.046,6.046,0,0,0,.132,1.2,11.81,11.81,0,0,0,.374,1.375H253a3.107,3.107,0,0,0,1.584-.407,3.075,3.075,0,0,0,1.122-1.111,2.961,2.961,0,0,0,.418-1.54,2.83,2.83,0,0,0-.572-1.859,1.87,1.87,0,0,0-1.518-.693,3.5,3.5,0,0,0-1,.154,4.8,4.8,0,0,0-1.045.462,10.136,10.136,0,0,0-.242,1.177A8.626,8.626,0,0,0,251.656,22.786ZM261.094,28a.1.1,0,0,1-.11-.11V25.448q0-.088.11-.088h2.75V11.28h3.278V28Zm10.428-16.72H274.8V28h-3.278Z" transform="translate(28 24)"/>
  <path id="Polygon_2" data-name="Polygon 2" d="M41,0,82,16H0Z" transform="translate(716 82) rotate(-90)" fill="#ed1c24"/>
  <path id="Polygon_3" data-name="Polygon 3" d="M41,0,82,16H0Z" transform="translate(360 82) rotate(-90)" fill="#0047ba"/>
</svg>
