<svg xmlns="http://www.w3.org/2000/svg" width="1279" height="496" viewBox="0 0 1279 496">
  <g id="Group_288" data-name="Group 288" transform="translate(-324 -809)">
    <rect id="Rectangle_122" data-name="Rectangle 122" width="316" height="402" rx="32" transform="translate(324 903)" fill="#fff"/>
    <rect id="Rectangle_123" data-name="Rectangle 123" width="317" height="429" rx="32" transform="translate(645 876)" fill="#fff"/>
    <rect id="Rectangle_124" data-name="Rectangle 124" width="317" height="462" rx="32" transform="translate(965 843)" fill="#fff"/>
    <rect id="Rectangle_125" data-name="Rectangle 125" width="316" height="496" rx="32" transform="translate(1287 809)" fill="#fff"/>
    <text id="Expand" transform="translate(1314 838)" fill="#39dcbf" font-size="22" font-family="Rubik" font-weight="700"><tspan x="0" y="21">Expand</tspan></text>
    <text id="Scale" transform="translate(994 865)" fill="#0047ba" font-size="22" font-family="Rubik" font-weight="700"><tspan x="0" y="21">Scale</tspan></text>
    <text id="Refresh" transform="translate(350 938)" fill="#ed1c24" font-size="22" font-family="Rubik" font-weight="700"><tspan x="0" y="21">Refresh</tspan></text>
    <path id="Path_242" data-name="Path 242" d="M6.776,21a.564.564,0,0,1-.55-.55V6.15a.517.517,0,0,1,.165-.4A.546.546,0,0,1,6.776,5.6H9.724a.574.574,0,0,1,.407.154.517.517,0,0,1,.165.4v14.3a.517.517,0,0,1-.165.4A.574.574,0,0,1,9.724,21Zm6.886,0a.527.527,0,0,1-.55-.55V10.11a.527.527,0,0,1,.55-.55h2.53a.574.574,0,0,1,.407.154.517.517,0,0,1,.165.4v.836A4.309,4.309,0,0,1,18.293,9.78a4.928,4.928,0,0,1,2.123-.44,4.087,4.087,0,0,1,3.146,1.309,5.194,5.194,0,0,1,1.21,3.663V20.45a.546.546,0,0,1-.154.385.517.517,0,0,1-.4.165H21.45a.564.564,0,0,1-.55-.55V14.444a2.3,2.3,0,0,0-.506-1.6,1.855,1.855,0,0,0-1.452-.561,1.9,1.9,0,0,0-1.452.561,2.239,2.239,0,0,0-.528,1.6V20.45a.546.546,0,0,1-.154.385.517.517,0,0,1-.4.165Zm19.316,0q-4.554,0-4.554-4.334V12.442H26.708a.574.574,0,0,1-.407-.154.517.517,0,0,1-.165-.4V10.11a.517.517,0,0,1,.165-.4.574.574,0,0,1,.407-.154h1.716V5.93a.517.517,0,0,1,.165-.4.547.547,0,0,1,.385-.154h2.552a.528.528,0,0,1,.55.55V9.56h2.75a.574.574,0,0,1,.407.154.517.517,0,0,1,.165.4v1.782a.517.517,0,0,1-.165.4.574.574,0,0,1-.407.154h-2.75v3.916q0,1.628,1.254,1.628h1.694a.527.527,0,0,1,.55.55V20.45a.546.546,0,0,1-.154.385.517.517,0,0,1-.4.165Zm9.7.22a5.82,5.82,0,0,1-4.158-1.43,5.639,5.639,0,0,1-1.584-4.158v-.77A5.632,5.632,0,0,1,38.555,10.8a5.687,5.687,0,0,1,4.1-1.463,6.118,6.118,0,0,1,3.157.759,4.858,4.858,0,0,1,1.936,2.079,6.8,6.8,0,0,1,.649,3.036v.528a.547.547,0,0,1-.154.385.517.517,0,0,1-.4.165H40.81v.154a3.013,3.013,0,0,0,.506,1.672,1.554,1.554,0,0,0,1.342.638,1.615,1.615,0,0,0,.9-.231,3.075,3.075,0,0,0,.638-.561,1.087,1.087,0,0,1,.319-.3.993.993,0,0,1,.385-.055H47.63a.511.511,0,0,1,.341.121.4.4,0,0,1,.143.319,2.16,2.16,0,0,1-.649,1.32,5.314,5.314,0,0,1-1.881,1.3A7.076,7.076,0,0,1,42.68,21.22Zm1.848-7.106V14.07a2.68,2.68,0,0,0-.495-1.7,1.654,1.654,0,0,0-1.375-.627,1.631,1.631,0,0,0-1.353.627,2.68,2.68,0,0,0-.495,1.7v.044ZM51.018,21a.527.527,0,0,1-.55-.55V10.11a.527.527,0,0,1,.55-.55h2.53a.574.574,0,0,1,.407.154.517.517,0,0,1,.165.4v.836A4.309,4.309,0,0,1,55.649,9.78a4.928,4.928,0,0,1,2.123-.44,4.087,4.087,0,0,1,3.146,1.309,5.194,5.194,0,0,1,1.21,3.663V20.45a.546.546,0,0,1-.154.385.517.517,0,0,1-.4.165H58.806a.564.564,0,0,1-.55-.55V14.444a2.3,2.3,0,0,0-.506-1.6,1.855,1.855,0,0,0-1.452-.561,1.9,1.9,0,0,0-1.452.561,2.239,2.239,0,0,0-.528,1.6V20.45a.546.546,0,0,1-.154.385.517.517,0,0,1-.4.165Zm18.3.22a7.689,7.689,0,0,1-2.981-.506A4.474,4.474,0,0,1,64.57,19.5,2.1,2.1,0,0,1,64,18.25a.459.459,0,0,1,.165-.363.542.542,0,0,1,.363-.143h2.508a.336.336,0,0,1,.242.11q.264.176.4.286a5.059,5.059,0,0,0,.847.517,2.148,2.148,0,0,0,.891.165,1.952,1.952,0,0,0,1.045-.253.8.8,0,0,0,.407-.715.827.827,0,0,0-.209-.594,2.121,2.121,0,0,0-.8-.429,14.353,14.353,0,0,0-1.8-.451,6.106,6.106,0,0,1-2.805-1.221,2.858,2.858,0,0,1-.979-2.277,2.937,2.937,0,0,1,.572-1.716,4.021,4.021,0,0,1,1.705-1.32,6.571,6.571,0,0,1,2.695-.506,7.08,7.08,0,0,1,2.728.484A4.7,4.7,0,0,1,73.733,11a2.021,2.021,0,0,1,.6,1.265.5.5,0,0,1-.143.352.45.45,0,0,1-.341.154H71.566a.557.557,0,0,1-.33-.11,3.352,3.352,0,0,1-.506-.33,3.884,3.884,0,0,0-.7-.44,1.919,1.919,0,0,0-.814-.154A1.453,1.453,0,0,0,68.3,12a.873.873,0,0,0-.154,1.232,1.893,1.893,0,0,0,.792.429,13.291,13.291,0,0,0,1.793.429,5.884,5.884,0,0,1,3.113,1.32,3.042,3.042,0,0,1-.473,4.829A7.182,7.182,0,0,1,69.322,21.22ZM77.308,7.91a.527.527,0,0,1-.55-.55V5.38a.528.528,0,0,1,.55-.55h2.64a.528.528,0,0,1,.55.55V7.36a.527.527,0,0,1-.55.55ZM77.33,21a.528.528,0,0,1-.55-.55V10.11a.528.528,0,0,1,.55-.55h2.6a.527.527,0,0,1,.55.55V20.45a.546.546,0,0,1-.154.385.517.517,0,0,1-.4.165Zm7.59,0a.564.564,0,0,1-.55-.55V12.442H82.7a.528.528,0,0,1-.55-.55V10.11a.527.527,0,0,1,.55-.55H84.37v-.7A3.776,3.776,0,0,1,85.613,5.7a5.67,5.67,0,0,1,3.575-.979H90.9a.528.528,0,0,1,.55.55V7.052a.546.546,0,0,1-.154.385.517.517,0,0,1-.4.165h-1.54a1.339,1.339,0,0,0-1.034.341,1.484,1.484,0,0,0-.308,1.023V9.56h2.662a.527.527,0,0,1,.55.55v1.782a.546.546,0,0,1-.154.385.517.517,0,0,1-.4.165H88.022V20.45a.546.546,0,0,1-.154.385.517.517,0,0,1-.4.165Zm10.032,4.18a.451.451,0,0,1-.462-.462.631.631,0,0,1,.066-.286L96.272,20.3l-4.224-9.988a.843.843,0,0,1-.066-.264.725.725,0,0,1,.176-.341.43.43,0,0,1,.33-.143H95a.64.64,0,0,1,.638.462l2.508,6.4,2.574-6.4a.7.7,0,0,1,.66-.462h2.464a.466.466,0,0,1,.341.143.442.442,0,0,1,.143.319,1.047,1.047,0,0,1-.066.286l-6.226,14.41a.654.654,0,0,1-.66.462Z" transform="translate(670 906)" fill="#ed1c24"/>
    <text id="Sustain_market_leadership_across_our_core_telecom_markets._Maintain_disciplined_cost_structures_and_operational_efficiency._Scale_AI-ready_data_foundations_to_enable_advanced_analytics_and_monetisation._Standardise_digital_customer_platforms_and_expand_" data-name="Sustain market leadership across our core telecom markets.

Maintain disciplined cost structures and operational efficiency.

Scale AI-ready data foundations to enable advanced analytics and monetisation.

Standardise digital customer platforms and expand " transform="translate(350 993)" font-size="16" font-family="Rubik"><tspan x="0" y="15">Sustain market leadership across </tspan><tspan x="0" y="34">our core telecom markets.</tspan><tspan x="0" y="53"></tspan><tspan x="0" y="72">Maintain disciplined cost structures </tspan><tspan x="0" y="91">and operational efficiency.</tspan><tspan x="0" y="110"></tspan><tspan x="0" y="129">Scale AI-ready data foundations to </tspan><tspan x="0" y="148">enable advanced analytics and </tspan><tspan x="0" y="167">monetisation.</tspan><tspan x="0" y="186"></tspan><tspan x="0" y="205">Standardise digital customer </tspan><tspan x="0" y="224">platforms and expand API </tspan><tspan x="0" y="243">capabilities.</tspan><tspan x="0" y="262"></tspan></text>
    <text id="Advance_customer_value_management_pricing_and_advanced_analytics_to_maximise_B2C_value._Accelerate_growth_in_the_small_and_medium-sized_business_segment._Expand_multi-play_propositions_through_B2C_and_B2B_partnerships._Standardise_IT_architecture_and_d" data-name="Advance customer value management, pricing and advanced analytics to maximise B2C value.

Accelerate growth in the small and medium-sized business segment.

Expand multi-play propositions through B2C and B2B partnerships.

Standardise IT architecture and d" transform="translate(670 950)" font-size="16" font-family="Rubik"><tspan x="0" y="15">Advance customer value </tspan><tspan x="0" y="34">management, pricing and advanced </tspan><tspan x="0" y="53">analytics to maximise B2C value.</tspan><tspan x="0" y="72"></tspan><tspan x="0" y="91">Accelerate growth in the small and </tspan><tspan x="0" y="110">medium-sized business segment.</tspan><tspan x="0" y="129"></tspan><tspan x="0" y="148">Expand multi-play propositions </tspan><tspan x="0" y="167">through B2C and B2B partnerships.</tspan><tspan x="0" y="186"></tspan><tspan x="0" y="205">Standardise IT architecture and </tspan><tspan x="0" y="224">digital platforms across the Group.</tspan><tspan x="0" y="243"></tspan><tspan x="0" y="262"></tspan></text>
    <text id="Accelerate_the_expansion_of_digital_infrastructure_platforms_including_AI-ready_data_centres_and_international_connectivity._Scale_GPU-as-a-Service_GPUaaS_capabilities_to_support_sovereign_AI_and_advanced_compute_demand._" data-name="Accelerate the expansion of digital infrastructure platforms, including AI-ready data centres and international connectivity.

Scale GPU-as-a-Service (GPUaaS) capabilities to support sovereign AI and advanced compute demand.
" transform="translate(994 913)" font-size="16" font-family="Rubik"><tspan x="0" y="15">Accelerate the expansion of digital </tspan><tspan x="0" y="34">infrastructure platforms, including </tspan><tspan x="0" y="53">AI-ready data centres and </tspan><tspan x="0" y="72">international connectivity.</tspan><tspan x="0" y="91"></tspan><tspan x="0" y="110">Scale GPU-as-a-Service (GPUaaS) </tspan><tspan x="0" y="129">capabilities to support sovereign </tspan><tspan x="0" y="148">AI and advanced compute </tspan><tspan x="0" y="167">demand.</tspan><tspan x="0" y="186"></tspan></text>
    <text id="Accelerate_digital_and_social_channel_growth_to_drive_customer_acquisition._Pursue_selective_expansion_beyond_our_core_footprint_in_data_centres_and_telecom_infrastructure._Develop_connectivity-enabled_as-a-service_platforms_to_diversify_revenue_streams" data-name="Accelerate digital and social channel growth to drive customer acquisition.

Pursue selective expansion beyond our core footprint in data centres and telecom infrastructure.

Develop connectivity-enabled, as-a-service platforms to diversify revenue streams" transform="translate(1314 879)" font-size="16" font-family="Rubik"><tspan x="0" y="15">Accelerate digital and social </tspan><tspan x="0" y="34">channel growth to drive customer </tspan><tspan x="0" y="53">acquisition.</tspan><tspan x="0" y="72"></tspan><tspan x="0" y="91">Pursue selective expansion beyond </tspan><tspan x="0" y="110">our core footprint in data centres </tspan><tspan x="0" y="129">and telecom infrastructure.</tspan><tspan x="0" y="148"></tspan><tspan x="0" y="167">Develop connectivity-enabled, as-</tspan><tspan x="0" y="186">a-service platforms to diversify </tspan><tspan x="0" y="205">revenue streams.</tspan><tspan x="0" y="224"></tspan><tspan x="0" y="243">Scale fintech platforms into </tspan><tspan x="0" y="262">additional markets across our </tspan><tspan x="0" y="281">footprint.</tspan><tspan x="0" y="300"></tspan></text>
  </g>
</svg>
